G04 PROTEUS RS274X GERBER FILE*
%FSLAX45Y45*%
%MOMM*%
G01*
%ADD43C,0.152400*%
%ADD44C,0.228600*%
%ADD10C,0.190500*%
%ADD20C,0.254000*%
%ADD17C,0.381000*%
%ADD16C,0.609600*%
%ADD70C,0.304800*%
%ADD12C,0.508000*%
%ADD14C,0.762000*%
%ADD18C,1.270000*%
%ADD45C,1.549400*%
%ADD71C,0.482600*%
%ADD19C,0.558800*%
%ADD13C,1.016000*%
%ADD21C,0.500000*%
%ADD24C,2.540000*%
%ADD25C,2.200000*%
%ADD46R,1.480000X0.300000*%
%ADD47R,0.300000X1.480000*%
%ADD48R,1.000000X0.400000*%
%ADD23R,2.032000X3.810000*%
%ADD49R,1.230000X0.650000*%
%ADD50R,2.100000X0.700000*%
%ADD31R,1.397000X3.505200*%
%ADD34C,1.250000*%
%AMPPAD030*
4,1,36,
-1.150000,-0.167400,
-1.150000,0.167400,
-1.140400,0.266080,
-1.112770,0.357330,
-1.068880,0.439390,
-1.010500,0.510500,
-0.939390,0.568880,
-0.857330,0.612770,
-0.766080,0.640400,
-0.667400,0.650000,
0.667400,0.650000,
0.766080,0.640400,
0.857330,0.612770,
0.939390,0.568880,
1.010500,0.510500,
1.068880,0.439390,
1.112770,0.357330,
1.140400,0.266080,
1.150000,0.167400,
1.150000,-0.167400,
1.140400,-0.266080,
1.112770,-0.357330,
1.068880,-0.439390,
1.010500,-0.510500,
0.939390,-0.568880,
0.857330,-0.612770,
0.766080,-0.640400,
0.667400,-0.650000,
-0.667400,-0.650000,
-0.766080,-0.640400,
-0.857330,-0.612770,
-0.939390,-0.568880,
-1.010500,-0.510500,
-1.068880,-0.439390,
-1.112770,-0.357330,
-1.140400,-0.266080,
-1.150000,-0.167400,
0*%
%ADD36PPAD030*%
%ADD37C,0.400000*%
%ADD51R,1.500000X5.500000*%
%ADD39R,0.889000X0.889000*%
%ADD52R,1.016000X1.270000*%
%ADD42C,0.203200*%
G36*
X+1471880Y-3801120D02*
X+1477738Y-3815443D01*
X+1512755Y-3801120D01*
X+1477738Y-3786797D01*
X+1471880Y-3801120D01*
G37*
G36*
X+1471880Y-3849380D02*
X+1473185Y-3833961D01*
X+1435488Y-3830768D01*
X+1460143Y-3859464D01*
X+1471880Y-3849380D01*
G37*
G36*
X+1588720Y-2297440D02*
X+1588748Y-2298309D01*
X+1614990Y-2297440D01*
X+1588748Y-2296571D01*
X+1588720Y-2297440D01*
G37*
G36*
X+1629360Y-2297440D02*
X+1629332Y-2296571D01*
X+1603090Y-2297440D01*
X+1629332Y-2298309D01*
X+1629360Y-2297440D01*
G37*
G36*
X+1629360Y-2297440D02*
X+1629417Y-2298308D01*
X+1655616Y-2296584D01*
X+1629360Y-2296571D01*
X+1629360Y-2297440D01*
G37*
G36*
X+1672420Y-2762420D02*
X+1666435Y-2776690D01*
X+1701323Y-2791323D01*
X+1686690Y-2756435D01*
X+1672420Y-2762420D01*
G37*
G36*
X+7005080Y-2376200D02*
X+6999222Y-2361877D01*
X+6964205Y-2376200D01*
X+6999222Y-2390523D01*
X+7005080Y-2376200D01*
G37*
G36*
X+7005080Y-2710000D02*
X+6996082Y-2722589D01*
X+7026860Y-2744588D01*
X+7020322Y-2707326D01*
X+7005080Y-2710000D01*
G37*
G36*
X+6015940Y-2962920D02*
X+6009955Y-2977190D01*
X+6044843Y-2991823D01*
X+6030210Y-2956935D01*
X+6015940Y-2962920D01*
G37*
G36*
X+5772100Y-3135640D02*
X+5786423Y-3129782D01*
X+5772100Y-3094765D01*
X+5757777Y-3129782D01*
X+5772100Y-3135640D01*
G37*
G36*
X+5736540Y-2094240D02*
X+5742398Y-2108563D01*
X+5777415Y-2094240D01*
X+5742398Y-2079917D01*
X+5736540Y-2094240D01*
G37*
G36*
X+5736540Y-2094240D02*
X+5731815Y-2081520D01*
X+5697570Y-2094240D01*
X+5731815Y-2106960D01*
X+5736540Y-2094240D01*
G37*
G36*
X+5700980Y-2363800D02*
X+5696291Y-2351066D01*
X+5662010Y-2363690D01*
X+5696219Y-2376507D01*
X+5700980Y-2363800D01*
G37*
G36*
X+6125160Y-2942600D02*
X+6131018Y-2956923D01*
X+6166035Y-2942600D01*
X+6131018Y-2928277D01*
X+6125160Y-2942600D01*
G37*
G36*
X+5960060Y-2358400D02*
X+5954202Y-2344077D01*
X+5919185Y-2358400D01*
X+5954202Y-2372723D01*
X+5960060Y-2358400D01*
G37*
G36*
X+3691840Y-3625920D02*
X+3697825Y-3611650D01*
X+3662937Y-3597017D01*
X+3677570Y-3631905D01*
X+3691840Y-3625920D01*
G37*
G36*
X+3905200Y-3636020D02*
X+3911185Y-3621750D01*
X+3876297Y-3607117D01*
X+3890930Y-3642005D01*
X+3905200Y-3636020D01*
G37*
G36*
X+3276360Y-3539500D02*
X+3262090Y-3533515D01*
X+3247457Y-3568403D01*
X+3282345Y-3553770D01*
X+3276360Y-3539500D01*
G37*
G36*
X+3719780Y-3096080D02*
X+3734439Y-3091123D01*
X+3722320Y-3055284D01*
X+3705849Y-3089343D01*
X+3719780Y-3096080D01*
G37*
G36*
X+3181300Y-3478540D02*
X+3167307Y-3471934D01*
X+3151155Y-3506145D01*
X+3186652Y-3493059D01*
X+3181300Y-3478540D01*
G37*
G36*
X+3653740Y-3006100D02*
X+3669069Y-3003986D01*
X+3663900Y-2966508D01*
X+3641323Y-2996865D01*
X+3653740Y-3006100D01*
G37*
G36*
X+4430980Y-3628400D02*
X+4426023Y-3613741D01*
X+4390184Y-3625860D01*
X+4424243Y-3642331D01*
X+4430980Y-3628400D01*
G37*
G36*
X+4692600Y-3597920D02*
X+4698114Y-3583461D01*
X+4662766Y-3569980D01*
X+4678534Y-3604369D01*
X+4692600Y-3597920D01*
G37*
G36*
X+2157680Y-3112780D02*
X+2143357Y-3118638D01*
X+2157680Y-3153655D01*
X+2172003Y-3118638D01*
X+2157680Y-3112780D01*
G37*
G36*
X+2157680Y-3158500D02*
X+2172003Y-3152642D01*
X+2157680Y-3117625D01*
X+2143357Y-3152642D01*
X+2157680Y-3158500D01*
G37*
G36*
X+2157680Y-3158500D02*
X+2172003Y-3152642D01*
X+2157680Y-3117625D01*
X+2143357Y-3152642D01*
X+2157680Y-3158500D01*
G37*
G36*
X+3539440Y-2998480D02*
X+3553763Y-2992622D01*
X+3539440Y-2957605D01*
X+3525117Y-2992622D01*
X+3539440Y-2998480D01*
G37*
G36*
X+2987596Y-2551409D02*
X+2986715Y-2561129D01*
X+3020354Y-2564181D01*
X+2993526Y-2543658D01*
X+2987596Y-2551409D01*
G37*
G36*
X+4903420Y-3460760D02*
X+4897562Y-3446437D01*
X+4862545Y-3460760D01*
X+4897562Y-3475083D01*
X+4903420Y-3460760D01*
G37*
G36*
X+2518360Y-3084840D02*
X+2533108Y-3080155D01*
X+2521655Y-3044098D01*
X+2504556Y-3077846D01*
X+2518360Y-3084840D01*
G37*
G36*
X+3186380Y-1953520D02*
X+3183671Y-1944144D01*
X+3151220Y-1953520D01*
X+3183671Y-1962896D01*
X+3186380Y-1953520D01*
G37*
G36*
X+3379420Y-3585220D02*
X+3389661Y-3573620D01*
X+3361301Y-3548581D01*
X+3363984Y-3586317D01*
X+3379420Y-3585220D01*
G37*
G36*
X+7019240Y-2482860D02*
X+7013382Y-2468537D01*
X+6978365Y-2482860D01*
X+7013382Y-2497183D01*
X+7019240Y-2482860D01*
G37*
G36*
X+2604720Y-2289820D02*
X+2590397Y-2295678D01*
X+2604720Y-2330695D01*
X+2619043Y-2295678D01*
X+2604720Y-2289820D01*
G37*
G36*
X+3640000Y-1070000D02*
X+3645858Y-1084323D01*
X+3680875Y-1070000D01*
X+3645858Y-1055677D01*
X+3640000Y-1070000D01*
G37*
G36*
X+3660000Y-990000D02*
X+3665858Y-1004323D01*
X+3700875Y-990000D01*
X+3665858Y-975677D01*
X+3660000Y-990000D01*
G37*
G36*
X+2665680Y-2401580D02*
X+2650206Y-2401726D01*
X+2650563Y-2439557D01*
X+2676820Y-2412320D01*
X+2665680Y-2401580D01*
G37*
G36*
X+2891740Y-2294900D02*
X+2877417Y-2300758D01*
X+2891740Y-2335775D01*
X+2906063Y-2300758D01*
X+2891740Y-2294900D01*
G37*
G36*
X+4110940Y-3623320D02*
X+4125263Y-3617462D01*
X+4110940Y-3582445D01*
X+4096617Y-3617462D01*
X+4110940Y-3623320D01*
G37*
G36*
X+4020000Y-3140720D02*
X+4034323Y-3134862D01*
X+4020000Y-3099845D01*
X+4005677Y-3134862D01*
X+4020000Y-3140720D01*
G37*
G36*
X+4020000Y-3590300D02*
X+4005023Y-3594192D01*
X+4014539Y-3630809D01*
X+4033411Y-3598019D01*
X+4020000Y-3590300D01*
G37*
G36*
X+4933900Y-3580000D02*
X+4939433Y-3565549D01*
X+4904102Y-3552021D01*
X+4919825Y-3586431D01*
X+4933900Y-3580000D01*
G37*
G36*
X+4771340Y-3336300D02*
X+4765482Y-3321977D01*
X+4730465Y-3336300D01*
X+4765482Y-3350623D01*
X+4771340Y-3336300D01*
G37*
G36*
X+5165040Y-3483620D02*
X+5150717Y-3489478D01*
X+5165040Y-3524495D01*
X+5179363Y-3489478D01*
X+5165040Y-3483620D01*
G37*
G36*
X+7015080Y-2600000D02*
X+7001229Y-2593100D01*
X+6984358Y-2626962D01*
X+7020124Y-2614629D01*
X+7015080Y-2600000D01*
G37*
G36*
X+4824680Y-3397260D02*
X+4818822Y-3382937D01*
X+4783805Y-3397260D01*
X+4818822Y-3411583D01*
X+4824680Y-3397260D01*
G37*
G36*
X+5378400Y-3625860D02*
X+5372415Y-3640130D01*
X+5407303Y-3654763D01*
X+5392670Y-3619875D01*
X+5378400Y-3625860D01*
G37*
G36*
X+6640000Y-3460000D02*
X+6654270Y-3465985D01*
X+6668903Y-3431097D01*
X+6634015Y-3445730D01*
X+6640000Y-3460000D01*
G37*
G36*
X+5261560Y-2823220D02*
X+5260554Y-2807778D01*
X+5222801Y-2810238D01*
X+5251456Y-2834940D01*
X+5261560Y-2823220D01*
G37*
G36*
X+5610000Y-1450000D02*
X+5595621Y-1455719D01*
X+5609604Y-1490873D01*
X+5624265Y-1455997D01*
X+5610000Y-1450000D01*
G37*
G36*
X+4510000Y-2640000D02*
X+4504015Y-2654270D01*
X+4538903Y-2668903D01*
X+4524270Y-2634015D01*
X+4510000Y-2640000D01*
G37*
G36*
X+3839160Y-2767340D02*
X+3853483Y-2761482D01*
X+3839160Y-2726465D01*
X+3824837Y-2761482D01*
X+3839160Y-2767340D01*
G37*
G36*
X+4530000Y-2990000D02*
X+4535985Y-2975730D01*
X+4501097Y-2961097D01*
X+4515730Y-2995985D01*
X+4530000Y-2990000D01*
G37*
G36*
X+3963620Y-2830000D02*
X+3977943Y-2824142D01*
X+3963620Y-2789125D01*
X+3949297Y-2824142D01*
X+3963620Y-2830000D01*
G37*
G36*
X+4560000Y-2830000D02*
X+4565858Y-2844323D01*
X+4600875Y-2830000D01*
X+4565858Y-2815677D01*
X+4560000Y-2830000D01*
G37*
G36*
X+5292040Y-3425200D02*
X+5298025Y-3410930D01*
X+5263137Y-3396297D01*
X+5277770Y-3431185D01*
X+5292040Y-3425200D01*
G37*
G36*
X+2710000Y-2160000D02*
X+2709223Y-2175455D01*
X+2747007Y-2177355D01*
X+2721385Y-2149520D01*
X+2710000Y-2160000D01*
G37*
G36*
X+2330000Y-1900000D02*
X+2335858Y-1914323D01*
X+2370875Y-1900000D01*
X+2335858Y-1885677D01*
X+2330000Y-1900000D01*
G37*
G36*
X+1932732Y-2509705D02*
X+1940191Y-2523263D01*
X+1973338Y-2505028D01*
X+1936913Y-2494806D01*
X+1932732Y-2509705D01*
G37*
G36*
X+1936700Y-2792740D02*
X+1931993Y-2807481D01*
X+1968031Y-2818991D01*
X+1950389Y-2785524D01*
X+1936700Y-2792740D01*
G37*
G36*
X+2260000Y-2860000D02*
X+2257824Y-2844679D01*
X+2220368Y-2850000D01*
X+2250816Y-2872454D01*
X+2260000Y-2860000D01*
G37*
G36*
X+2630000Y-2142939D02*
X+2645349Y-2144903D01*
X+2650153Y-2107377D01*
X+2620428Y-2130781D01*
X+2630000Y-2142939D01*
G37*
G36*
X+5680660Y-3620780D02*
X+5674802Y-3606457D01*
X+5639785Y-3620780D01*
X+5674802Y-3635103D01*
X+5680660Y-3620780D01*
G37*
G36*
X+4550000Y-2905136D02*
X+4555858Y-2919459D01*
X+4590875Y-2905136D01*
X+4555858Y-2890813D01*
X+4550000Y-2905136D01*
G37*
G36*
X+3999180Y-2942600D02*
X+4013450Y-2948585D01*
X+4028083Y-2913697D01*
X+3993195Y-2928330D01*
X+3999180Y-2942600D01*
G37*
G36*
X+5774640Y-3448060D02*
X+5788963Y-3442202D01*
X+5774640Y-3407185D01*
X+5760317Y-3442202D01*
X+5774640Y-3448060D01*
G37*
G36*
X+5510000Y-824280D02*
X+5504142Y-809957D01*
X+5469125Y-824280D01*
X+5504142Y-838603D01*
X+5510000Y-824280D01*
G37*
G36*
X+3907740Y-3102620D02*
X+3922029Y-3096680D01*
X+3907506Y-3061745D01*
X+3893384Y-3096844D01*
X+3907740Y-3102620D01*
G37*
G36*
X+3440000Y-3638560D02*
X+3425677Y-3644418D01*
X+3440000Y-3679435D01*
X+3454323Y-3644418D01*
X+3440000Y-3638560D01*
G37*
G36*
X+4563060Y-3216920D02*
X+4558103Y-3202261D01*
X+4522264Y-3214380D01*
X+4556323Y-3230851D01*
X+4563060Y-3216920D01*
G37*
G36*
X+4593540Y-3638560D02*
X+4587555Y-3652830D01*
X+4622443Y-3667463D01*
X+4607810Y-3632575D01*
X+4593540Y-3638560D01*
G37*
G36*
X+4504640Y-3138180D02*
X+4509347Y-3123439D01*
X+4473309Y-3111929D01*
X+4490951Y-3145396D01*
X+4504640Y-3138180D01*
G37*
G36*
X+4507180Y-3638560D02*
X+4492910Y-3632575D01*
X+4478277Y-3667463D01*
X+4513165Y-3652830D01*
X+4507180Y-3638560D01*
G37*
G36*
X+5571440Y-3539500D02*
X+5565582Y-3525177D01*
X+5530565Y-3539500D01*
X+5565582Y-3553823D01*
X+5571440Y-3539500D01*
G37*
G36*
X+2330570Y-1619430D02*
X+2344642Y-1625866D01*
X+2360378Y-1591462D01*
X+2325043Y-1604976D01*
X+2330570Y-1619430D01*
G37*
G36*
X+2513280Y-1753880D02*
X+2504613Y-1766699D01*
X+2535953Y-1787890D01*
X+2528447Y-1750810D01*
X+2513280Y-1753880D01*
G37*
G36*
X+2142440Y-1979940D02*
X+2156763Y-1974082D01*
X+2142440Y-1939065D01*
X+2128117Y-1974082D01*
X+2142440Y-1979940D01*
G37*
G36*
X+2325320Y-1977400D02*
X+2315457Y-1989324D01*
X+2344609Y-2013437D01*
X+2340712Y-1975807D01*
X+2325320Y-1977400D01*
G37*
G36*
X+5363160Y-3013720D02*
X+5369145Y-2999450D01*
X+5334257Y-2984817D01*
X+5348890Y-3019705D01*
X+5363160Y-3013720D01*
G37*
G36*
X+2071320Y-1929140D02*
X+2085643Y-1923282D01*
X+2071320Y-1888265D01*
X+2056997Y-1923282D01*
X+2071320Y-1929140D01*
G37*
G36*
X+2528520Y-2414280D02*
X+2522662Y-2399957D01*
X+2487645Y-2414280D01*
X+2522662Y-2428603D01*
X+2528520Y-2414280D01*
G37*
G36*
X+2475180Y-3188980D02*
X+2481917Y-3202911D01*
X+2515976Y-3186440D01*
X+2480137Y-3174321D01*
X+2475180Y-3188980D01*
G37*
G36*
X+2475180Y-3188980D02*
X+2481038Y-3203303D01*
X+2516055Y-3188980D01*
X+2481038Y-3174657D01*
X+2475180Y-3188980D01*
G37*
G36*
X+2250000Y-2940000D02*
X+2255985Y-2925730D01*
X+2221097Y-2911097D01*
X+2235730Y-2945985D01*
X+2250000Y-2940000D01*
G37*
G36*
X+3600400Y-2894340D02*
X+3614723Y-2888482D01*
X+3600400Y-2853465D01*
X+3586077Y-2888482D01*
X+3600400Y-2894340D01*
G37*
G36*
X+4451300Y-3006100D02*
X+4465428Y-2999788D01*
X+4449996Y-2965246D01*
X+4436798Y-3000702D01*
X+4451300Y-3006100D01*
G37*
G36*
X+4189680Y-3623320D02*
X+4175357Y-3629178D01*
X+4189680Y-3664195D01*
X+4204003Y-3629178D01*
X+4189680Y-3623320D01*
G37*
G36*
X+2614711Y-797188D02*
X+2614711Y-911489D01*
X+2784889Y-911489D01*
X+2784889Y-870004D01*
X+2824711Y-870004D01*
X+2824711Y-911489D01*
X+2994889Y-911489D01*
X+2994889Y-797224D01*
X+3205211Y-797244D01*
X+3205211Y-911489D01*
X+3375389Y-911489D01*
X+3375389Y-866404D01*
X+3415211Y-866404D01*
X+3415211Y-911489D01*
X+3585389Y-911489D01*
X+3585389Y-797279D01*
X+3815711Y-797301D01*
X+3815711Y-911489D01*
X+3985889Y-911489D01*
X+3985889Y-866404D01*
X+4005711Y-866404D01*
X+4005711Y-911489D01*
X+4175889Y-911489D01*
X+4175889Y-797335D01*
X+4402090Y-797356D01*
X+4402090Y-901000D01*
X+4572268Y-901000D01*
X+4572268Y-855915D01*
X+4632362Y-855915D01*
X+4632362Y-902540D01*
X+4802540Y-902540D01*
X+4802540Y-797394D01*
X+5298191Y-797441D01*
X+5298191Y-909369D01*
X+5468369Y-909369D01*
X+5468369Y-867191D01*
X+5478662Y-871401D01*
X+5487020Y-879759D01*
X+5532980Y-879759D01*
X+5565479Y-847260D01*
X+5565479Y-801300D01*
X+5561644Y-797465D01*
X+6513360Y-797555D01*
X+6513360Y-984092D01*
X+6537168Y-1007900D01*
X+6611424Y-1007900D01*
X+6621445Y-1017921D01*
X+6619326Y-1017921D01*
X+6603100Y-1034147D01*
X+6603100Y-1057095D01*
X+6619326Y-1073321D01*
X+6642274Y-1073321D01*
X+6658500Y-1057095D01*
X+6658500Y-1034147D01*
X+6647532Y-1023179D01*
X+6681848Y-1023179D01*
X+6670880Y-1034147D01*
X+6670880Y-1057095D01*
X+6687106Y-1073321D01*
X+6710054Y-1073321D01*
X+6726280Y-1057095D01*
X+6726280Y-1034147D01*
X+6715312Y-1023179D01*
X+6751497Y-1023179D01*
X+6766776Y-1007900D01*
X+6806702Y-1007900D01*
X+6762761Y-1051841D01*
X+6762761Y-1201239D01*
X+6868401Y-1306879D01*
X+7017799Y-1306879D01*
X+7123439Y-1201239D01*
X+7123439Y-1051841D01*
X+7079498Y-1007900D01*
X+7119424Y-1007900D01*
X+7134703Y-1023179D01*
X+7259497Y-1023179D01*
X+7274776Y-1007900D01*
X+7297433Y-1007900D01*
X+7298329Y-4005734D01*
X+6323010Y-4005578D01*
X+6299200Y-4029386D01*
X+6299200Y-4178300D01*
X+5382260Y-4178300D01*
X+5382260Y-4075739D01*
X+5540329Y-4075739D01*
X+5540329Y-3664261D01*
X+5473375Y-3664261D01*
X+5469898Y-3660784D01*
X+5631922Y-3660784D01*
X+5640422Y-3664261D01*
X+5589671Y-3664261D01*
X+5589671Y-4075739D01*
X+5790329Y-4075739D01*
X+5790329Y-3664261D01*
X+5779084Y-3664261D01*
X+5779084Y-3571190D01*
X+5644523Y-3436629D01*
X+5679389Y-3436629D01*
X+5679389Y-3289289D01*
X+5681931Y-3289289D01*
X+5681931Y-3436629D01*
X+5719161Y-3436629D01*
X+5719161Y-3471040D01*
X+5751660Y-3503539D01*
X+5797620Y-3503539D01*
X+5830119Y-3471040D01*
X+5830119Y-3436629D01*
X+5852109Y-3436629D01*
X+5852109Y-3289289D01*
X+5854749Y-3289289D01*
X+5854749Y-3154689D01*
X+5857189Y-3154689D01*
X+5857189Y-3015623D01*
X+5902849Y-3015623D01*
X+5984130Y-3096904D01*
X+6268610Y-3096904D01*
X+6339156Y-3167450D01*
X+6339156Y-3665290D01*
X+6659770Y-3985904D01*
X+7096770Y-3985904D01*
X+7242124Y-3840550D01*
X+7242124Y-3801289D01*
X+7285089Y-3801289D01*
X+7285089Y-3631111D01*
X+7132549Y-3631111D01*
X+7132549Y-3628569D01*
X+7285089Y-3628569D01*
X+7285089Y-3458391D01*
X+7250324Y-3458391D01*
X+7222614Y-3430681D01*
X+7176654Y-3430681D01*
X+7173424Y-3433910D01*
X+7066864Y-3327350D01*
X+7066864Y-2725370D01*
X+7063515Y-2722021D01*
X+7060559Y-2705172D01*
X+7060559Y-2687020D01*
X+7029018Y-2655479D01*
X+7038060Y-2655479D01*
X+7070559Y-2622980D01*
X+7070559Y-2577020D01*
X+7038060Y-2544521D01*
X+6992100Y-2544521D01*
X+6959601Y-2577020D01*
X+6959601Y-2586946D01*
X+6951460Y-2603286D01*
X+6927164Y-2627582D01*
X+6927164Y-2573090D01*
X+6975390Y-2524864D01*
X+6987902Y-2529981D01*
X+6996260Y-2538339D01*
X+7042220Y-2538339D01*
X+7074719Y-2505840D01*
X+7074719Y-2459880D01*
X+7042220Y-2427381D01*
X+7032358Y-2427381D01*
X+7060559Y-2399180D01*
X+7060559Y-2353220D01*
X+7028060Y-2320721D01*
X+6982100Y-2320721D01*
X+6973742Y-2329079D01*
X+6956342Y-2336196D01*
X+6832310Y-2336196D01*
X+6598510Y-2569996D01*
X+5931979Y-2569996D01*
X+5931979Y-2536541D01*
X+5748021Y-2536541D01*
X+5748021Y-2550171D01*
X+5714989Y-2550171D01*
X+5714989Y-2461211D01*
X+5675479Y-2461211D01*
X+5675479Y-2378021D01*
X+5514521Y-2378021D01*
X+5514521Y-2478979D01*
X+5544811Y-2478979D01*
X+5544811Y-2631389D01*
X+5655621Y-2631389D01*
X+5658221Y-2633989D01*
X+5748021Y-2633989D01*
X+5748021Y-2662499D01*
X+5931979Y-2662499D01*
X+5931979Y-2650004D01*
X+6631650Y-2650004D01*
X+6865450Y-2416204D01*
X+6956342Y-2416204D01*
X+6973742Y-2423321D01*
X+6982100Y-2431679D01*
X+6991962Y-2431679D01*
X+6987902Y-2435739D01*
X+6970502Y-2442856D01*
X+6944250Y-2442856D01*
X+6847156Y-2539950D01*
X+6847156Y-2763781D01*
X+6804460Y-2763781D01*
X+6790105Y-2778136D01*
X+6735970Y-2778136D01*
X+6734850Y-2779256D01*
X+5931719Y-2779256D01*
X+5931719Y-2758821D01*
X+5747761Y-2758821D01*
X+5747761Y-2785756D01*
X+5593090Y-2785756D01*
X+5370004Y-2562670D01*
X+5370004Y-2478979D01*
X+5485479Y-2478979D01*
X+5485479Y-2248021D01*
X+5476927Y-2248021D01*
X+5588799Y-2136149D01*
X+5690040Y-2136149D01*
X+5705870Y-2142029D01*
X+5713560Y-2149719D01*
X+5748021Y-2149719D01*
X+5748021Y-2151379D01*
X+5931979Y-2151379D01*
X+5931979Y-2051023D01*
X+5967681Y-2086725D01*
X+5967681Y-2152555D01*
X+5939635Y-2180601D01*
X+5931979Y-2180601D01*
X+5931979Y-2153361D01*
X+5748021Y-2153361D01*
X+5748021Y-2256591D01*
X+5675479Y-2256591D01*
X+5675479Y-2248021D01*
X+5514521Y-2248021D01*
X+5514521Y-2348979D01*
X+5675479Y-2348979D01*
X+5675479Y-2340409D01*
X+5685197Y-2340409D01*
X+5673280Y-2352326D01*
X+5673280Y-2375274D01*
X+5689506Y-2391500D01*
X+5712454Y-2391500D01*
X+5728680Y-2375274D01*
X+5728680Y-2352326D01*
X+5716763Y-2340409D01*
X+5721721Y-2340409D01*
X+5748021Y-2366709D01*
X+5748021Y-2407259D01*
X+5930460Y-2407259D01*
X+5931802Y-2408601D01*
X+5748021Y-2408601D01*
X+5748021Y-2534559D01*
X+5931979Y-2534559D01*
X+5931979Y-2408778D01*
X+5937080Y-2413879D01*
X+5983040Y-2413879D01*
X+6015539Y-2381380D01*
X+6015539Y-2335420D01*
X+5983040Y-2302921D01*
X+5937080Y-2302921D01*
X+5931979Y-2308022D01*
X+5931979Y-2281301D01*
X+5781149Y-2281301D01*
X+5779167Y-2279319D01*
X+5931979Y-2279319D01*
X+5931979Y-2266959D01*
X+5975405Y-2266959D01*
X+6054039Y-2188325D01*
X+6054039Y-2050955D01*
X+5965245Y-1962161D01*
X+5515455Y-1962161D01*
X+5245307Y-2232309D01*
X+5245307Y-2209888D01*
X+5646526Y-1808669D01*
X+5649677Y-1498776D01*
X+5656924Y-1481535D01*
X+5665479Y-1472980D01*
X+5665479Y-1446859D01*
X+5679807Y-1461187D01*
X+5702755Y-1461187D01*
X+5718981Y-1444961D01*
X+5718981Y-1422013D01*
X+5702755Y-1405787D01*
X+5679807Y-1405787D01*
X+5663581Y-1422013D01*
X+5663581Y-1425122D01*
X+5632980Y-1394521D01*
X+5587020Y-1394521D01*
X+5554521Y-1427020D01*
X+5554521Y-1472980D01*
X+5562680Y-1481139D01*
X+5569398Y-1498028D01*
X+5566832Y-1775215D01*
X+5165299Y-2176748D01*
X+5165299Y-2759285D01*
X+4798644Y-2392630D01*
X+4798644Y-2209690D01*
X+3698958Y-1110004D01*
X+3743430Y-1110004D01*
X+3813430Y-1180004D01*
X+4346570Y-1180004D01*
X+4452854Y-1073720D01*
X+4572268Y-1073720D01*
X+4572268Y-903542D01*
X+4402090Y-903542D01*
X+4402090Y-1011336D01*
X+4313430Y-1099996D01*
X+3846570Y-1099996D01*
X+3830783Y-1084209D01*
X+3985889Y-1084209D01*
X+3985889Y-914031D01*
X+3815711Y-914031D01*
X+3815711Y-949996D01*
X+3708738Y-949996D01*
X+3691338Y-942879D01*
X+3682980Y-934521D01*
X+3637020Y-934521D01*
X+3604521Y-967020D01*
X+3604521Y-1012980D01*
X+3611541Y-1020000D01*
X+3584521Y-1047020D01*
X+3584521Y-1089996D01*
X+2633430Y-1089996D01*
X+2031316Y-1692110D01*
X+2031316Y-1880402D01*
X+2024199Y-1897802D01*
X+2015841Y-1906160D01*
X+2015841Y-1952120D01*
X+2016932Y-1953211D01*
X+1946859Y-1953211D01*
X+1946859Y-1921521D01*
X+1912669Y-1921521D01*
X+1912669Y-1752591D01*
X+1898599Y-1752591D01*
X+1898599Y-1744969D01*
X+1917749Y-1744969D01*
X+1917749Y-1574791D01*
X+1747571Y-1574791D01*
X+1747571Y-1744969D01*
X+1761441Y-1744969D01*
X+1761441Y-1752591D01*
X+1742491Y-1752591D01*
X+1742491Y-1846205D01*
X+1667175Y-1921521D01*
X+1550621Y-1921521D01*
X+1550621Y-2129799D01*
X+1588721Y-2129799D01*
X+1588721Y-2208389D01*
X+1592531Y-2212199D01*
X+1592531Y-2241961D01*
X+1565740Y-2241961D01*
X+1533241Y-2274460D01*
X+1533241Y-2320420D01*
X+1565740Y-2352919D01*
X+1652340Y-2352919D01*
X+1653210Y-2352049D01*
X+1677379Y-2352049D01*
X+1732229Y-2297199D01*
X+1732229Y-2296169D01*
X+1762709Y-2296169D01*
X+1762709Y-2125991D01*
X+1733499Y-2125991D01*
X+1733499Y-2013245D01*
X+1763981Y-1982763D01*
X+1763981Y-2129799D01*
X+1946859Y-2129799D01*
X+1946859Y-2123389D01*
X+2043792Y-2123389D01*
X+2045921Y-2146197D01*
X+2053546Y-2162889D01*
X+2060654Y-2171072D01*
X+2076130Y-2188887D01*
X+2105153Y-2203782D01*
X+2138070Y-2211079D01*
X+2321397Y-2211079D01*
X+2321817Y-2210659D01*
X+2376640Y-2210659D01*
X+2376640Y-2219461D01*
X+2284861Y-2219461D01*
X+2284861Y-2224416D01*
X+2143650Y-2224416D01*
X+2051636Y-2316430D01*
X+2051636Y-2390130D01*
X+2023635Y-2418131D01*
X+1953209Y-2418131D01*
X+1953209Y-2418091D01*
X+1783031Y-2418091D01*
X+1783031Y-2556138D01*
X+1754410Y-2553914D01*
X+1710156Y-2539507D01*
X+1697282Y-2531862D01*
X+1689221Y-2524513D01*
X+1687260Y-2521355D01*
X+1685290Y-2501726D01*
X+1681865Y-2498301D01*
X+1668645Y-2474734D01*
X+1664827Y-2470880D01*
X+1649237Y-2455146D01*
X+1645738Y-2452845D01*
X+1624957Y-2439182D01*
X+1583189Y-2424129D01*
X+1583189Y-2369491D01*
X+1448105Y-2369491D01*
X+1275090Y-2196476D01*
X+1195959Y-2196476D01*
X+1195959Y-1977155D01*
X+1231851Y-1941263D01*
X+1231851Y-1950729D01*
X+1402029Y-1950729D01*
X+1402029Y-1780551D01*
X+1231851Y-1780551D01*
X+1231851Y-1828115D01*
X+1195959Y-1864007D01*
X+1195959Y-1826341D01*
X+985001Y-1826341D01*
X+985001Y-2437299D01*
X+1195959Y-2437299D01*
X+1195959Y-2276484D01*
X+1241950Y-2276484D01*
X+1413011Y-2447545D01*
X+1413011Y-2539669D01*
X+1583189Y-2539669D01*
X+1583189Y-2509173D01*
X+1588921Y-2511239D01*
X+1598288Y-2517397D01*
X+1604176Y-2523339D01*
X+1605093Y-2524974D01*
X+1605283Y-2534870D01*
X+1610797Y-2549880D01*
X+1627111Y-2576154D01*
X+1649416Y-2596488D01*
X+1652923Y-2598571D01*
X+1676937Y-2612832D01*
X+1689236Y-2616836D01*
X+1583189Y-2616836D01*
X+1583189Y-2542211D01*
X+1413011Y-2542211D01*
X+1413011Y-2618116D01*
X+1397610Y-2618116D01*
X+1195959Y-2819767D01*
X+1195959Y-2676341D01*
X+985001Y-2676341D01*
X+985001Y-3287299D01*
X+1195959Y-3287299D01*
X+1195959Y-3262604D01*
X+1307811Y-3262604D01*
X+1307811Y-3307689D01*
X+1477989Y-3307689D01*
X+1477989Y-3137511D01*
X+1307811Y-3137511D01*
X+1307811Y-3182596D01*
X+1195959Y-3182596D01*
X+1195959Y-2932915D01*
X+1416485Y-2712389D01*
X+1583189Y-2712389D01*
X+1583189Y-2696844D01*
X+2087151Y-2696844D01*
X+2089919Y-2694689D01*
X+2135035Y-2676657D01*
X+2151782Y-2664834D01*
X+2174733Y-2648633D01*
X+2208244Y-2612314D01*
X+2235103Y-2569131D01*
X+2236395Y-2565943D01*
X+2254921Y-2520217D01*
X+2267222Y-2466591D01*
X+2271344Y-2425770D01*
X+2273551Y-2410755D01*
X+2280429Y-2407554D01*
X+2284861Y-2407180D01*
X+2284861Y-2610419D01*
X+2323416Y-2610419D01*
X+2323416Y-2783328D01*
X+2317701Y-2789043D01*
X+2317701Y-2804171D01*
X+2273251Y-2804171D01*
X+2273251Y-2804521D01*
X+2237020Y-2804521D01*
X+2233863Y-2807678D01*
X+2217544Y-2809996D01*
X+2015610Y-2809996D01*
X+2000596Y-2794982D01*
X+1992179Y-2779015D01*
X+1992179Y-2769760D01*
X+1959680Y-2737261D01*
X+1913720Y-2737261D01*
X+1881221Y-2769760D01*
X+1881221Y-2815720D01*
X+1913720Y-2848219D01*
X+1928061Y-2848219D01*
X+1946609Y-2854143D01*
X+1962462Y-2869996D01*
X+1836570Y-2869996D01*
X+1735170Y-2768596D01*
X+1727899Y-2751260D01*
X+1727899Y-2739440D01*
X+1695400Y-2706941D01*
X+1649440Y-2706941D01*
X+1616941Y-2739440D01*
X+1616941Y-2785400D01*
X+1649440Y-2817899D01*
X+1661260Y-2817899D01*
X+1678596Y-2825170D01*
X+1803430Y-2950004D01*
X+2194036Y-2950004D01*
X+2194521Y-2951160D01*
X+2194521Y-2962980D01*
X+2219462Y-2987922D01*
X+2188514Y-3018870D01*
X+2180826Y-3011181D01*
X+2134534Y-3011181D01*
X+2101801Y-3043914D01*
X+2101801Y-3181646D01*
X+2134534Y-3214379D01*
X+2175355Y-3214379D01*
X+2609801Y-3648825D01*
X+2609801Y-3664261D01*
X+2589671Y-3664261D01*
X+2589671Y-4075739D01*
X+2776323Y-4075739D01*
X+2776679Y-4177725D01*
X+1859280Y-4178277D01*
X+1859280Y-4075739D01*
X+2040329Y-4075739D01*
X+2040329Y-3961139D01*
X+2089671Y-3961139D01*
X+2089671Y-4075739D01*
X+2290329Y-4075739D01*
X+2290329Y-3691899D01*
X+2353726Y-3691899D01*
X+2393899Y-3651726D01*
X+2393899Y-3536494D01*
X+2353726Y-3496321D01*
X+2296914Y-3496321D01*
X+2256741Y-3536494D01*
X+2256741Y-3554741D01*
X+2172454Y-3554741D01*
X+2132281Y-3594914D01*
X+2132281Y-3664261D01*
X+2089671Y-3664261D01*
X+2089671Y-3798581D01*
X+2040329Y-3798581D01*
X+2040329Y-3664261D01*
X+1839671Y-3664261D01*
X+1839671Y-3776021D01*
X+1751119Y-3776021D01*
X+1751119Y-3385901D01*
X+1466641Y-3385901D01*
X+1466641Y-3597385D01*
X+1393776Y-3670250D01*
X+1393776Y-3699071D01*
X+1392321Y-3700526D01*
X+1392321Y-3789954D01*
X+1393776Y-3791409D01*
X+1393776Y-3845630D01*
X+1406140Y-3857994D01*
X+1416401Y-3869937D01*
X+1416401Y-3872360D01*
X+1448900Y-3904859D01*
X+1494860Y-3904859D01*
X+1510335Y-3889384D01*
X+1549290Y-3889384D01*
X+1630570Y-3970664D01*
X+1839671Y-3970664D01*
X+1839671Y-4009779D01*
X+1835470Y-4005578D01*
X+859620Y-4005734D01*
X+859620Y-797023D01*
X+2614711Y-797188D01*
G37*
%LPC*%
G36*
X+6663129Y-1317840D02*
X+6715071Y-1317840D01*
X+6751800Y-1354569D01*
X+6751800Y-1406511D01*
X+6715071Y-1443240D01*
X+6663129Y-1443240D01*
X+6626400Y-1406511D01*
X+6626400Y-1354569D01*
X+6663129Y-1317840D01*
G37*
G36*
X+7171129Y-1317840D02*
X+7223071Y-1317840D01*
X+7259800Y-1354569D01*
X+7259800Y-1406511D01*
X+7223071Y-1443240D01*
X+7171129Y-1443240D01*
X+7134400Y-1406511D01*
X+7134400Y-1354569D01*
X+7171129Y-1317840D01*
G37*
G36*
X+5582300Y-2368761D02*
X+5582300Y-2358239D01*
X+5589739Y-2350800D01*
X+5600261Y-2350800D01*
X+5607700Y-2358239D01*
X+5607700Y-2368761D01*
X+5600261Y-2376200D01*
X+5589739Y-2376200D01*
X+5582300Y-2368761D01*
G37*
G36*
X+1149140Y-3611779D02*
X+1149140Y-3622301D01*
X+1141701Y-3629740D01*
X+1131179Y-3629740D01*
X+1123740Y-3622301D01*
X+1123740Y-3611779D01*
X+1131179Y-3604340D01*
X+1141701Y-3604340D01*
X+1149140Y-3611779D01*
G37*
G36*
X+5834739Y-2714280D02*
X+5845261Y-2714280D01*
X+5852700Y-2721719D01*
X+5852700Y-2732241D01*
X+5845261Y-2739680D01*
X+5834739Y-2739680D01*
X+5827300Y-2732241D01*
X+5827300Y-2721719D01*
X+5834739Y-2714280D01*
G37*
G36*
X+6011260Y-1911179D02*
X+6011260Y-1921701D01*
X+6003821Y-1929140D01*
X+5993299Y-1929140D01*
X+5985860Y-1921701D01*
X+5985860Y-1911179D01*
X+5993299Y-1903740D01*
X+6003821Y-1903740D01*
X+6011260Y-1911179D01*
G37*
G36*
X+7215560Y-1912339D02*
X+7215560Y-1922861D01*
X+7208121Y-1930300D01*
X+7197599Y-1930300D01*
X+7190160Y-1922861D01*
X+7190160Y-1912339D01*
X+7197599Y-1904900D01*
X+7208121Y-1904900D01*
X+7215560Y-1912339D01*
G37*
G36*
X+7212680Y-3206699D02*
X+7212680Y-3217221D01*
X+7205241Y-3224660D01*
X+7194719Y-3224660D01*
X+7187280Y-3217221D01*
X+7187280Y-3206699D01*
X+7194719Y-3199260D01*
X+7205241Y-3199260D01*
X+7212680Y-3206699D01*
G37*
G36*
X+6011260Y-3206419D02*
X+6011260Y-3216941D01*
X+6003821Y-3224380D01*
X+5993299Y-3224380D01*
X+5985860Y-3216941D01*
X+5985860Y-3206419D01*
X+5993299Y-3198980D01*
X+6003821Y-3198980D01*
X+6011260Y-3206419D01*
G37*
G36*
X+2427300Y-3875261D02*
X+2427300Y-3864739D01*
X+2434739Y-3857300D01*
X+2445261Y-3857300D01*
X+2452700Y-3864739D01*
X+2452700Y-3875261D01*
X+2445261Y-3882700D01*
X+2434739Y-3882700D01*
X+2427300Y-3875261D01*
G37*
G36*
X+5911659Y-3536840D02*
X+5911659Y-3548660D01*
X+5918930Y-3565996D01*
X+5980004Y-3627070D01*
X+5980004Y-3664261D01*
X+6040329Y-3664261D01*
X+6040329Y-4075739D01*
X+5839671Y-4075739D01*
X+5839671Y-3664261D01*
X+5899996Y-3664261D01*
X+5899996Y-3660210D01*
X+5862356Y-3622570D01*
X+5845020Y-3615299D01*
X+5833200Y-3615299D01*
X+5800701Y-3582800D01*
X+5800701Y-3536840D01*
X+5833200Y-3504341D01*
X+5879160Y-3504341D01*
X+5911659Y-3536840D01*
G37*
G36*
X+6177300Y-3875261D02*
X+6177300Y-3864739D01*
X+6184739Y-3857300D01*
X+6195261Y-3857300D01*
X+6202700Y-3864739D01*
X+6202700Y-3875261D01*
X+6195261Y-3882700D01*
X+6184739Y-3882700D01*
X+6177300Y-3875261D01*
G37*
G36*
X+1269678Y-1629280D02*
X+1230162Y-1629280D01*
X+1202220Y-1601338D01*
X+1202220Y-1561822D01*
X+1230162Y-1533880D01*
X+1269678Y-1533880D01*
X+1297620Y-1561822D01*
X+1297620Y-1601338D01*
X+1269678Y-1629280D01*
G37*
G36*
X+1269678Y-1139280D02*
X+1230162Y-1139280D01*
X+1202220Y-1111338D01*
X+1202220Y-1071822D01*
X+1230162Y-1043880D01*
X+1269678Y-1043880D01*
X+1297620Y-1071822D01*
X+1297620Y-1111338D01*
X+1269678Y-1139280D01*
G37*
G36*
X+996462Y-1735280D02*
X+964898Y-1735280D01*
X+942580Y-1712962D01*
X+942580Y-1681398D01*
X+964898Y-1659080D01*
X+996462Y-1659080D01*
X+1018780Y-1681398D01*
X+1018780Y-1712962D01*
X+996462Y-1735280D01*
G37*
G36*
X+996462Y-1011380D02*
X+964898Y-1011380D01*
X+942580Y-989062D01*
X+942580Y-957498D01*
X+964898Y-935180D01*
X+996462Y-935180D01*
X+1018780Y-957498D01*
X+1018780Y-989062D01*
X+996462Y-1011380D01*
G37*
G36*
X+1552920Y-3227861D02*
X+1552920Y-3217339D01*
X+1560359Y-3209900D01*
X+1570881Y-3209900D01*
X+1578320Y-3217339D01*
X+1578320Y-3227861D01*
X+1570881Y-3235300D01*
X+1560359Y-3235300D01*
X+1552920Y-3227861D01*
G37*
G36*
X+5624639Y-2706320D02*
X+5635161Y-2706320D01*
X+5642600Y-2713759D01*
X+5642600Y-2724281D01*
X+5635161Y-2731720D01*
X+5624639Y-2731720D01*
X+5617200Y-2724281D01*
X+5617200Y-2713759D01*
X+5624639Y-2706320D01*
G37*
G36*
X+5388541Y-1009700D02*
X+5378019Y-1009700D01*
X+5370580Y-1002261D01*
X+5370580Y-991739D01*
X+5378019Y-984300D01*
X+5388541Y-984300D01*
X+5395980Y-991739D01*
X+5395980Y-1002261D01*
X+5388541Y-1009700D01*
G37*
G36*
X+2008041Y-2223720D02*
X+1997519Y-2223720D01*
X+1990080Y-2216281D01*
X+1990080Y-2205759D01*
X+1997519Y-2198320D01*
X+2008041Y-2198320D01*
X+2015480Y-2205759D01*
X+2015480Y-2216281D01*
X+2008041Y-2223720D01*
G37*
G36*
X+1837640Y-2216341D02*
X+1837640Y-2205819D01*
X+1845079Y-2198380D01*
X+1855601Y-2198380D01*
X+1863040Y-2205819D01*
X+1863040Y-2216341D01*
X+1855601Y-2223780D01*
X+1845079Y-2223780D01*
X+1837640Y-2216341D01*
G37*
G36*
X+1997539Y-2317800D02*
X+2008061Y-2317800D01*
X+2015500Y-2325239D01*
X+2015500Y-2335761D01*
X+2008061Y-2343200D01*
X+1997539Y-2343200D01*
X+1990100Y-2335761D01*
X+1990100Y-2325239D01*
X+1997539Y-2317800D01*
G37*
G36*
X+1862859Y-2317760D02*
X+1873381Y-2317760D01*
X+1880820Y-2325199D01*
X+1880820Y-2335721D01*
X+1873381Y-2343160D01*
X+1862859Y-2343160D01*
X+1855420Y-2335721D01*
X+1855420Y-2325199D01*
X+1862859Y-2317760D01*
G37*
G36*
X+1647240Y-1665141D02*
X+1647240Y-1654619D01*
X+1654679Y-1647180D01*
X+1665201Y-1647180D01*
X+1672640Y-1654619D01*
X+1672640Y-1665141D01*
X+1665201Y-1672580D01*
X+1654679Y-1672580D01*
X+1647240Y-1665141D01*
G37*
G36*
X+1642160Y-1842941D02*
X+1642160Y-1832419D01*
X+1649599Y-1824980D01*
X+1660121Y-1824980D01*
X+1667560Y-1832419D01*
X+1667560Y-1842941D01*
X+1660121Y-1850380D01*
X+1649599Y-1850380D01*
X+1642160Y-1842941D01*
G37*
G36*
X+1502360Y-1860379D02*
X+1502360Y-1870901D01*
X+1494921Y-1878340D01*
X+1484399Y-1878340D01*
X+1476960Y-1870901D01*
X+1476960Y-1860379D01*
X+1484399Y-1852940D01*
X+1494921Y-1852940D01*
X+1502360Y-1860379D01*
G37*
G36*
X+3505561Y-1011820D02*
X+3495039Y-1011820D01*
X+3487600Y-1004381D01*
X+3487600Y-993859D01*
X+3495039Y-986420D01*
X+3505561Y-986420D01*
X+3513000Y-993859D01*
X+3513000Y-1004381D01*
X+3505561Y-1011820D01*
G37*
G36*
X+4096061Y-1011820D02*
X+4085539Y-1011820D01*
X+4078100Y-1004381D01*
X+4078100Y-993859D01*
X+4085539Y-986420D01*
X+4096061Y-986420D01*
X+4103500Y-993859D01*
X+4103500Y-1004381D01*
X+4096061Y-1011820D01*
G37*
G36*
X+4722712Y-1002871D02*
X+4712190Y-1002871D01*
X+4704751Y-995432D01*
X+4704751Y-984910D01*
X+4712190Y-977471D01*
X+4722712Y-977471D01*
X+4730151Y-984910D01*
X+4730151Y-995432D01*
X+4722712Y-1002871D01*
G37*
G36*
X+2915061Y-1011820D02*
X+2904539Y-1011820D01*
X+2897100Y-1004381D01*
X+2897100Y-993859D01*
X+2904539Y-986420D01*
X+2915061Y-986420D01*
X+2922500Y-993859D01*
X+2922500Y-1004381D01*
X+2915061Y-1011820D01*
G37*
G36*
X+2784889Y-1084209D02*
X+2614711Y-1084209D01*
X+2614711Y-1054599D01*
X+2591410Y-1054599D01*
X+2558911Y-1022100D01*
X+2558911Y-976140D01*
X+2591410Y-943641D01*
X+2614711Y-943641D01*
X+2614711Y-914031D01*
X+2784889Y-914031D01*
X+2784889Y-1084209D01*
G37*
G36*
X+3375389Y-1084209D02*
X+3205211Y-1084209D01*
X+3205211Y-1025537D01*
X+3201338Y-1027121D01*
X+3192980Y-1035479D01*
X+3147020Y-1035479D01*
X+3114521Y-1002980D01*
X+3114521Y-957020D01*
X+3147020Y-924521D01*
X+3192980Y-924521D01*
X+3201338Y-932879D01*
X+3205211Y-934463D01*
X+3205211Y-914031D01*
X+3375389Y-914031D01*
X+3375389Y-1084209D01*
G37*
G36*
X+5930740Y-2738454D02*
X+5930740Y-2715506D01*
X+5946966Y-2699280D01*
X+5969914Y-2699280D01*
X+5986140Y-2715506D01*
X+5986140Y-2738454D01*
X+5969914Y-2754680D01*
X+5946966Y-2754680D01*
X+5930740Y-2738454D01*
G37*
G36*
X+5355580Y-1084634D02*
X+5355580Y-1061686D01*
X+5371806Y-1045460D01*
X+5394754Y-1045460D01*
X+5410980Y-1061686D01*
X+5410980Y-1084634D01*
X+5394754Y-1100860D01*
X+5371806Y-1100860D01*
X+5355580Y-1084634D01*
G37*
G36*
X+1906460Y-2286054D02*
X+1906460Y-2263106D01*
X+1922686Y-2246880D01*
X+1945634Y-2246880D01*
X+1961860Y-2263106D01*
X+1961860Y-2286054D01*
X+1945634Y-2302280D01*
X+1922686Y-2302280D01*
X+1906460Y-2286054D01*
G37*
G36*
X+1901380Y-2222494D02*
X+1901380Y-2199546D01*
X+1917606Y-2183320D01*
X+1940554Y-2183320D01*
X+1956780Y-2199546D01*
X+1956780Y-2222494D01*
X+1940554Y-2238720D01*
X+1917606Y-2238720D01*
X+1901380Y-2222494D01*
G37*
G36*
X+1906460Y-2341934D02*
X+1906460Y-2318986D01*
X+1922686Y-2302760D01*
X+1945634Y-2302760D01*
X+1961860Y-2318986D01*
X+1961860Y-2341934D01*
X+1945634Y-2358160D01*
X+1922686Y-2358160D01*
X+1906460Y-2341934D01*
G37*
G36*
X+1525460Y-1874574D02*
X+1525460Y-1851626D01*
X+1541686Y-1835400D01*
X+1564634Y-1835400D01*
X+1580860Y-1851626D01*
X+1580860Y-1874574D01*
X+1564634Y-1890800D01*
X+1541686Y-1890800D01*
X+1525460Y-1874574D01*
G37*
G36*
X+1047460Y-3672806D02*
X+1047460Y-3695754D01*
X+1038614Y-3704600D01*
X+1047460Y-3713446D01*
X+1047460Y-3736394D01*
X+1036074Y-3747780D01*
X+1047460Y-3759166D01*
X+1047460Y-3782114D01*
X+1038614Y-3790960D01*
X+1047460Y-3799806D01*
X+1047460Y-3822754D01*
X+1031234Y-3838980D01*
X+1008286Y-3838980D01*
X+992060Y-3822754D01*
X+992060Y-3799806D01*
X+1000906Y-3790960D01*
X+992060Y-3782114D01*
X+992060Y-3759166D01*
X+1003446Y-3747780D01*
X+992060Y-3736394D01*
X+992060Y-3713446D01*
X+1000906Y-3704600D01*
X+992060Y-3695754D01*
X+992060Y-3672806D01*
X+1008286Y-3656580D01*
X+1031234Y-3656580D01*
X+1047460Y-3672806D01*
G37*
G36*
X+1578800Y-3319834D02*
X+1578800Y-3296886D01*
X+1595026Y-3280660D01*
X+1617974Y-3280660D01*
X+1634200Y-3296886D01*
X+1634200Y-3319834D01*
X+1617974Y-3336060D01*
X+1595026Y-3336060D01*
X+1578800Y-3319834D01*
G37*
G36*
X+1639760Y-3319834D02*
X+1639760Y-3296886D01*
X+1655986Y-3280660D01*
X+1678934Y-3280660D01*
X+1695160Y-3296886D01*
X+1695160Y-3319834D01*
X+1678934Y-3336060D01*
X+1655986Y-3336060D01*
X+1639760Y-3319834D01*
G37*
G36*
X+1700720Y-3319834D02*
X+1700720Y-3296886D01*
X+1716946Y-3280660D01*
X+1739894Y-3280660D01*
X+1756120Y-3296886D01*
X+1756120Y-3319834D01*
X+1739894Y-3336060D01*
X+1716946Y-3336060D01*
X+1700720Y-3319834D01*
G37*
G36*
X+1776920Y-3319834D02*
X+1776920Y-3296886D01*
X+1793146Y-3280660D01*
X+1816094Y-3280660D01*
X+1832320Y-3296886D01*
X+1832320Y-3319834D01*
X+1816094Y-3336060D01*
X+1793146Y-3336060D01*
X+1776920Y-3319834D01*
G37*
G36*
X+1840420Y-3319834D02*
X+1840420Y-3296886D01*
X+1856646Y-3280660D01*
X+1879594Y-3280660D01*
X+1895820Y-3296886D01*
X+1895820Y-3319834D01*
X+1879594Y-3336060D01*
X+1856646Y-3336060D01*
X+1840420Y-3319834D01*
G37*
G36*
X+1655000Y-1244654D02*
X+1655000Y-1221706D01*
X+1671226Y-1205480D01*
X+1694174Y-1205480D01*
X+1710400Y-1221706D01*
X+1710400Y-1244654D01*
X+1694174Y-1260880D01*
X+1671226Y-1260880D01*
X+1655000Y-1244654D01*
G37*
G36*
X+2088860Y-2979386D02*
X+2088860Y-3002334D01*
X+2072634Y-3018560D01*
X+2049686Y-3018560D01*
X+2038300Y-3007174D01*
X+2026914Y-3018560D01*
X+2003966Y-3018560D01*
X+1987740Y-3002334D01*
X+1987740Y-2979386D01*
X+2003966Y-2963160D01*
X+2026914Y-2963160D01*
X+2038300Y-2974546D01*
X+2049686Y-2963160D01*
X+2072634Y-2963160D01*
X+2088860Y-2979386D01*
G37*
G36*
X+5701220Y-2735914D02*
X+5701220Y-2712966D01*
X+5717446Y-2696740D01*
X+5740394Y-2696740D01*
X+5756620Y-2712966D01*
X+5756620Y-2735914D01*
X+5740394Y-2752140D01*
X+5717446Y-2752140D01*
X+5701220Y-2735914D01*
G37*
G36*
X+6152300Y-3581474D02*
X+6152300Y-3558526D01*
X+6168526Y-3542300D01*
X+6191474Y-3542300D01*
X+6207700Y-3558526D01*
X+6207700Y-3581474D01*
X+6191474Y-3597700D01*
X+6168526Y-3597700D01*
X+6152300Y-3581474D01*
G37*
G36*
X+6012300Y-3581474D02*
X+6012300Y-3558526D01*
X+6028526Y-3542300D01*
X+6051474Y-3542300D01*
X+6067700Y-3558526D01*
X+6067700Y-3581474D01*
X+6051474Y-3597700D01*
X+6028526Y-3597700D01*
X+6012300Y-3581474D01*
G37*
G36*
X+6012300Y-3461474D02*
X+6012300Y-3438526D01*
X+6028526Y-3422300D01*
X+6051474Y-3422300D01*
X+6067700Y-3438526D01*
X+6067700Y-3461474D01*
X+6051474Y-3477700D01*
X+6028526Y-3477700D01*
X+6012300Y-3461474D01*
G37*
G36*
X+6152300Y-3461474D02*
X+6152300Y-3438526D01*
X+6168526Y-3422300D01*
X+6191474Y-3422300D01*
X+6207700Y-3438526D01*
X+6207700Y-3461474D01*
X+6191474Y-3477700D01*
X+6168526Y-3477700D01*
X+6152300Y-3461474D01*
G37*
G36*
X+6702300Y-2711474D02*
X+6702300Y-2688526D01*
X+6718526Y-2672300D01*
X+6741474Y-2672300D01*
X+6757700Y-2688526D01*
X+6757700Y-2711474D01*
X+6741474Y-2727700D01*
X+6718526Y-2727700D01*
X+6702300Y-2711474D01*
G37*
G36*
X+6182300Y-2711474D02*
X+6182300Y-2688526D01*
X+6198526Y-2672300D01*
X+6221474Y-2672300D01*
X+6237700Y-2688526D01*
X+6237700Y-2711474D01*
X+6221474Y-2727700D01*
X+6198526Y-2727700D01*
X+6182300Y-2711474D01*
G37*
G36*
X+6182300Y-2421474D02*
X+6182300Y-2398526D01*
X+6198526Y-2382300D01*
X+6221474Y-2382300D01*
X+6237700Y-2398526D01*
X+6237700Y-2421474D01*
X+6221474Y-2437700D01*
X+6198526Y-2437700D01*
X+6182300Y-2421474D01*
G37*
G36*
X+6562300Y-2421474D02*
X+6562300Y-2398526D01*
X+6578526Y-2382300D01*
X+6601474Y-2382300D01*
X+6617700Y-2398526D01*
X+6617700Y-2421474D01*
X+6601474Y-2437700D01*
X+6578526Y-2437700D01*
X+6562300Y-2421474D01*
G37*
G36*
X+6852300Y-2131474D02*
X+6852300Y-2108526D01*
X+6868526Y-2092300D01*
X+6891474Y-2092300D01*
X+6907700Y-2108526D01*
X+6907700Y-2131474D01*
X+6891474Y-2147700D01*
X+6868526Y-2147700D01*
X+6852300Y-2131474D01*
G37*
G36*
X+6122300Y-2001474D02*
X+6122300Y-1978526D01*
X+6138526Y-1962300D01*
X+6161474Y-1962300D01*
X+6177700Y-1978526D01*
X+6177700Y-2001474D01*
X+6161474Y-2017700D01*
X+6138526Y-2017700D01*
X+6122300Y-2001474D01*
G37*
G36*
X+6922300Y-2001474D02*
X+6922300Y-1978526D01*
X+6938526Y-1962300D01*
X+6961474Y-1962300D01*
X+6977700Y-1978526D01*
X+6977700Y-2001474D01*
X+6961474Y-2017700D01*
X+6938526Y-2017700D01*
X+6922300Y-2001474D01*
G37*
G36*
X+5237700Y-918526D02*
X+5237700Y-941474D01*
X+5224174Y-955000D01*
X+5237700Y-968526D01*
X+5237700Y-991474D01*
X+5224174Y-1005000D01*
X+5237700Y-1018526D01*
X+5237700Y-1041474D01*
X+5224174Y-1055000D01*
X+5237700Y-1068526D01*
X+5237700Y-1091474D01*
X+5224174Y-1105000D01*
X+5237700Y-1118526D01*
X+5237700Y-1141474D01*
X+5221474Y-1157700D01*
X+5198526Y-1157700D01*
X+5182300Y-1141474D01*
X+5182300Y-1118526D01*
X+5195826Y-1105000D01*
X+5182300Y-1091474D01*
X+5182300Y-1068526D01*
X+5195826Y-1055000D01*
X+5182300Y-1041474D01*
X+5182300Y-1018526D01*
X+5195826Y-1005000D01*
X+5182300Y-991474D01*
X+5182300Y-968526D01*
X+5195826Y-955000D01*
X+5182300Y-941474D01*
X+5182300Y-918526D01*
X+5198526Y-902300D01*
X+5221474Y-902300D01*
X+5237700Y-918526D01*
G37*
G36*
X+5247700Y-1288526D02*
X+5247700Y-1311474D01*
X+5234174Y-1325000D01*
X+5247700Y-1338526D01*
X+5247700Y-1361474D01*
X+5234174Y-1375000D01*
X+5247700Y-1388526D01*
X+5247700Y-1411474D01*
X+5234174Y-1425000D01*
X+5247700Y-1438526D01*
X+5247700Y-1461474D01*
X+5234174Y-1475000D01*
X+5247700Y-1488526D01*
X+5247700Y-1511474D01*
X+5231474Y-1527700D01*
X+5208526Y-1527700D01*
X+5192300Y-1511474D01*
X+5192300Y-1488526D01*
X+5205826Y-1475000D01*
X+5192300Y-1461474D01*
X+5192300Y-1438526D01*
X+5205826Y-1425000D01*
X+5192300Y-1411474D01*
X+5192300Y-1388526D01*
X+5205826Y-1375000D01*
X+5192300Y-1361474D01*
X+5192300Y-1338526D01*
X+5205826Y-1325000D01*
X+5192300Y-1311474D01*
X+5192300Y-1288526D01*
X+5208526Y-1272300D01*
X+5231474Y-1272300D01*
X+5247700Y-1288526D01*
G37*
G36*
X+5247700Y-1698526D02*
X+5247700Y-1721474D01*
X+5234174Y-1735000D01*
X+5247700Y-1748526D01*
X+5247700Y-1771474D01*
X+5234174Y-1785000D01*
X+5247700Y-1798526D01*
X+5247700Y-1821474D01*
X+5234174Y-1835000D01*
X+5247700Y-1848526D01*
X+5247700Y-1871474D01*
X+5234174Y-1885000D01*
X+5247700Y-1898526D01*
X+5247700Y-1921474D01*
X+5231474Y-1937700D01*
X+5208526Y-1937700D01*
X+5192300Y-1921474D01*
X+5192300Y-1898526D01*
X+5205826Y-1885000D01*
X+5192300Y-1871474D01*
X+5192300Y-1848526D01*
X+5205826Y-1835000D01*
X+5192300Y-1821474D01*
X+5192300Y-1798526D01*
X+5205826Y-1785000D01*
X+5192300Y-1771474D01*
X+5192300Y-1748526D01*
X+5205826Y-1735000D01*
X+5192300Y-1721474D01*
X+5192300Y-1698526D01*
X+5208526Y-1682300D01*
X+5231474Y-1682300D01*
X+5247700Y-1698526D01*
G37*
G36*
X+4402300Y-1781474D02*
X+4402300Y-1758526D01*
X+4418526Y-1742300D01*
X+4441474Y-1742300D01*
X+4457700Y-1758526D01*
X+4457700Y-1781474D01*
X+4441474Y-1797700D01*
X+4418526Y-1797700D01*
X+4402300Y-1781474D01*
G37*
G36*
X+4402300Y-1631474D02*
X+4402300Y-1608526D01*
X+4418526Y-1592300D01*
X+4441474Y-1592300D01*
X+4457700Y-1608526D01*
X+4457700Y-1631474D01*
X+4441474Y-1647700D01*
X+4418526Y-1647700D01*
X+4402300Y-1631474D01*
G37*
G36*
X+4202300Y-1461474D02*
X+4202300Y-1438526D01*
X+4218526Y-1422300D01*
X+4241474Y-1422300D01*
X+4257700Y-1438526D01*
X+4257700Y-1461474D01*
X+4241474Y-1477700D01*
X+4218526Y-1477700D01*
X+4202300Y-1461474D01*
G37*
G36*
X+1492300Y-2131474D02*
X+1492300Y-2108526D01*
X+1508526Y-2092300D01*
X+1531474Y-2092300D01*
X+1547700Y-2108526D01*
X+1547700Y-2131474D01*
X+1531474Y-2147700D01*
X+1508526Y-2147700D01*
X+1492300Y-2131474D01*
G37*
G36*
X+6695667Y-1218853D02*
X+6695667Y-1195905D01*
X+6711893Y-1179679D01*
X+6734841Y-1179679D01*
X+6751067Y-1195905D01*
X+6751067Y-1218853D01*
X+6734841Y-1235079D01*
X+6711893Y-1235079D01*
X+6695667Y-1218853D01*
G37*
G36*
X+6627887Y-1218853D02*
X+6627887Y-1195905D01*
X+6644113Y-1179679D01*
X+6667061Y-1179679D01*
X+6683287Y-1195905D01*
X+6683287Y-1218853D01*
X+6667061Y-1235079D01*
X+6644113Y-1235079D01*
X+6627887Y-1218853D01*
G37*
G36*
X+6560107Y-1218853D02*
X+6560107Y-1195905D01*
X+6576333Y-1179679D01*
X+6599281Y-1179679D01*
X+6615507Y-1195905D01*
X+6615507Y-1218853D01*
X+6599281Y-1235079D01*
X+6576333Y-1235079D01*
X+6560107Y-1218853D01*
G37*
G36*
X+6492327Y-1218853D02*
X+6492327Y-1195905D01*
X+6508553Y-1179679D01*
X+6531501Y-1179679D01*
X+6547727Y-1195905D01*
X+6547727Y-1218853D01*
X+6531501Y-1235079D01*
X+6508553Y-1235079D01*
X+6492327Y-1218853D01*
G37*
G36*
X+6424547Y-1218853D02*
X+6424547Y-1195905D01*
X+6440773Y-1179679D01*
X+6463721Y-1179679D01*
X+6479947Y-1195905D01*
X+6479947Y-1218853D01*
X+6463721Y-1235079D01*
X+6440773Y-1235079D01*
X+6424547Y-1218853D01*
G37*
G36*
X+6356767Y-1218853D02*
X+6356767Y-1195905D01*
X+6372993Y-1179679D01*
X+6395941Y-1179679D01*
X+6412167Y-1195905D01*
X+6412167Y-1218853D01*
X+6395941Y-1235079D01*
X+6372993Y-1235079D01*
X+6356767Y-1218853D01*
G37*
G36*
X+6288987Y-1218853D02*
X+6288987Y-1195905D01*
X+6305213Y-1179679D01*
X+6328161Y-1179679D01*
X+6344387Y-1195905D01*
X+6344387Y-1218853D01*
X+6328161Y-1235079D01*
X+6305213Y-1235079D01*
X+6288987Y-1218853D01*
G37*
G36*
X+6221207Y-1218853D02*
X+6221207Y-1195905D01*
X+6237433Y-1179679D01*
X+6260381Y-1179679D01*
X+6276607Y-1195905D01*
X+6276607Y-1218853D01*
X+6260381Y-1235079D01*
X+6237433Y-1235079D01*
X+6221207Y-1218853D01*
G37*
G36*
X+6153440Y-1220204D02*
X+6153440Y-1197256D01*
X+6169666Y-1181030D01*
X+6192614Y-1181030D01*
X+6208840Y-1197256D01*
X+6208840Y-1220204D01*
X+6192614Y-1236430D01*
X+6169666Y-1236430D01*
X+6153440Y-1220204D01*
G37*
G36*
X+6085737Y-1223433D02*
X+6085737Y-1200485D01*
X+6101963Y-1184259D01*
X+6124911Y-1184259D01*
X+6141137Y-1200485D01*
X+6141137Y-1223433D01*
X+6124911Y-1239659D01*
X+6101963Y-1239659D01*
X+6085737Y-1223433D01*
G37*
G36*
X+6019057Y-1235597D02*
X+6019057Y-1212649D01*
X+6035283Y-1196423D01*
X+6058231Y-1196423D01*
X+6074457Y-1212649D01*
X+6074457Y-1235597D01*
X+6058231Y-1251823D01*
X+6035283Y-1251823D01*
X+6019057Y-1235597D01*
G37*
G36*
X+5954974Y-1257675D02*
X+5954974Y-1234727D01*
X+5971200Y-1218501D01*
X+5994148Y-1218501D01*
X+6010374Y-1234727D01*
X+6010374Y-1257675D01*
X+5994148Y-1273901D01*
X+5971200Y-1273901D01*
X+5954974Y-1257675D01*
G37*
G36*
X+5896926Y-1292669D02*
X+5896926Y-1269721D01*
X+5913152Y-1253495D01*
X+5936100Y-1253495D01*
X+5952326Y-1269721D01*
X+5952326Y-1292669D01*
X+5936100Y-1308895D01*
X+5913152Y-1308895D01*
X+5896926Y-1292669D01*
G37*
G36*
X+5849560Y-1341152D02*
X+5849560Y-1318204D01*
X+5865786Y-1301978D01*
X+5888734Y-1301978D01*
X+5904960Y-1318204D01*
X+5904960Y-1341152D01*
X+5888734Y-1357378D01*
X+5865786Y-1357378D01*
X+5849560Y-1341152D01*
G37*
G36*
X+5826670Y-1404950D02*
X+5826670Y-1382002D01*
X+5842896Y-1365776D01*
X+5865844Y-1365776D01*
X+5882070Y-1382002D01*
X+5882070Y-1404950D01*
X+5865844Y-1421176D01*
X+5842896Y-1421176D01*
X+5826670Y-1404950D01*
G37*
G36*
X+5825339Y-1472716D02*
X+5825339Y-1449768D01*
X+5841565Y-1433542D01*
X+5864513Y-1433542D01*
X+5880739Y-1449768D01*
X+5880739Y-1472716D01*
X+5864513Y-1488942D01*
X+5841565Y-1488942D01*
X+5825339Y-1472716D01*
G37*
G36*
X+5825339Y-1540496D02*
X+5825339Y-1517548D01*
X+5841565Y-1501322D01*
X+5864513Y-1501322D01*
X+5880739Y-1517548D01*
X+5880739Y-1540496D01*
X+5864513Y-1556722D01*
X+5841565Y-1556722D01*
X+5825339Y-1540496D01*
G37*
G36*
X+5663581Y-1512741D02*
X+5663581Y-1489793D01*
X+5679807Y-1473567D01*
X+5702755Y-1473567D01*
X+5718981Y-1489793D01*
X+5718981Y-1512741D01*
X+5702755Y-1528967D01*
X+5679807Y-1528967D01*
X+5663581Y-1512741D01*
G37*
G36*
X+5664235Y-1377184D02*
X+5664235Y-1354236D01*
X+5680461Y-1338010D01*
X+5703409Y-1338010D01*
X+5719635Y-1354236D01*
X+5719635Y-1377184D01*
X+5703409Y-1393410D01*
X+5680461Y-1393410D01*
X+5664235Y-1377184D01*
G37*
G36*
X+5683553Y-1312215D02*
X+5683553Y-1289267D01*
X+5699779Y-1273041D01*
X+5722727Y-1273041D01*
X+5738953Y-1289267D01*
X+5738953Y-1312215D01*
X+5722727Y-1328441D01*
X+5699779Y-1328441D01*
X+5683553Y-1312215D01*
G37*
G36*
X+5714106Y-1251712D02*
X+5714106Y-1228764D01*
X+5730332Y-1212538D01*
X+5753280Y-1212538D01*
X+5769506Y-1228764D01*
X+5769506Y-1251712D01*
X+5753280Y-1267938D01*
X+5730332Y-1267938D01*
X+5714106Y-1251712D01*
G37*
G36*
X+5756553Y-1198869D02*
X+5756553Y-1175921D01*
X+5772779Y-1159695D01*
X+5795727Y-1159695D01*
X+5811953Y-1175921D01*
X+5811953Y-1198869D01*
X+5795727Y-1215095D01*
X+5772779Y-1215095D01*
X+5756553Y-1198869D01*
G37*
G36*
X+5808774Y-1155660D02*
X+5808774Y-1132712D01*
X+5825000Y-1116486D01*
X+5847948Y-1116486D01*
X+5864174Y-1132712D01*
X+5864174Y-1155660D01*
X+5847948Y-1171886D01*
X+5825000Y-1171886D01*
X+5808774Y-1155660D01*
G37*
G36*
X+5867202Y-1121304D02*
X+5867202Y-1098356D01*
X+5883428Y-1082130D01*
X+5906376Y-1082130D01*
X+5922602Y-1098356D01*
X+5922602Y-1121304D01*
X+5906376Y-1137530D01*
X+5883428Y-1137530D01*
X+5867202Y-1121304D01*
G37*
G36*
X+5929584Y-1094798D02*
X+5929584Y-1071850D01*
X+5945810Y-1055624D01*
X+5968758Y-1055624D01*
X+5984984Y-1071850D01*
X+5984984Y-1094798D01*
X+5968758Y-1111024D01*
X+5945810Y-1111024D01*
X+5929584Y-1094798D01*
G37*
G36*
X+5994557Y-1075493D02*
X+5994557Y-1052545D01*
X+6010783Y-1036319D01*
X+6033731Y-1036319D01*
X+6049957Y-1052545D01*
X+6049957Y-1075493D01*
X+6033731Y-1091719D01*
X+6010783Y-1091719D01*
X+5994557Y-1075493D01*
G37*
G36*
X+6061074Y-1062471D02*
X+6061074Y-1039523D01*
X+6077300Y-1023297D01*
X+6100248Y-1023297D01*
X+6116474Y-1039523D01*
X+6116474Y-1062471D01*
X+6100248Y-1078697D01*
X+6077300Y-1078697D01*
X+6061074Y-1062471D01*
G37*
G36*
X+6128640Y-1057095D02*
X+6128640Y-1034147D01*
X+6144866Y-1017921D01*
X+6167814Y-1017921D01*
X+6184040Y-1034147D01*
X+6184040Y-1057095D01*
X+6167814Y-1073321D01*
X+6144866Y-1073321D01*
X+6128640Y-1057095D01*
G37*
G36*
X+6196420Y-1057095D02*
X+6196420Y-1034147D01*
X+6212646Y-1017921D01*
X+6235594Y-1017921D01*
X+6251820Y-1034147D01*
X+6251820Y-1057095D01*
X+6235594Y-1073321D01*
X+6212646Y-1073321D01*
X+6196420Y-1057095D01*
G37*
G36*
X+6264200Y-1057095D02*
X+6264200Y-1034147D01*
X+6280426Y-1017921D01*
X+6303374Y-1017921D01*
X+6319600Y-1034147D01*
X+6319600Y-1057095D01*
X+6303374Y-1073321D01*
X+6280426Y-1073321D01*
X+6264200Y-1057095D01*
G37*
G36*
X+6331980Y-1057095D02*
X+6331980Y-1034147D01*
X+6348206Y-1017921D01*
X+6371154Y-1017921D01*
X+6387380Y-1034147D01*
X+6387380Y-1057095D01*
X+6371154Y-1073321D01*
X+6348206Y-1073321D01*
X+6331980Y-1057095D01*
G37*
G36*
X+6399760Y-1057095D02*
X+6399760Y-1034147D01*
X+6415986Y-1017921D01*
X+6438934Y-1017921D01*
X+6455160Y-1034147D01*
X+6455160Y-1057095D01*
X+6438934Y-1073321D01*
X+6415986Y-1073321D01*
X+6399760Y-1057095D01*
G37*
G36*
X+6467540Y-1057095D02*
X+6467540Y-1034147D01*
X+6483766Y-1017921D01*
X+6506714Y-1017921D01*
X+6522940Y-1034147D01*
X+6522940Y-1057095D01*
X+6506714Y-1073321D01*
X+6483766Y-1073321D01*
X+6467540Y-1057095D01*
G37*
G36*
X+6535320Y-1057095D02*
X+6535320Y-1034147D01*
X+6551546Y-1017921D01*
X+6574494Y-1017921D01*
X+6590720Y-1034147D01*
X+6590720Y-1057095D01*
X+6574494Y-1073321D01*
X+6551546Y-1073321D01*
X+6535320Y-1057095D01*
G37*
G36*
X+1627120Y-946194D02*
X+1627120Y-923246D01*
X+1643346Y-907020D01*
X+1666294Y-907020D01*
X+1682520Y-923246D01*
X+1682520Y-946194D01*
X+1666294Y-962420D01*
X+1643346Y-962420D01*
X+1627120Y-946194D01*
G37*
G36*
X+2136380Y-946194D02*
X+2136380Y-923246D01*
X+2152606Y-907020D01*
X+2175554Y-907020D01*
X+2191780Y-923246D01*
X+2191780Y-946194D01*
X+2175554Y-962420D01*
X+2152606Y-962420D01*
X+2136380Y-946194D01*
G37*
G36*
X+2337040Y-1146854D02*
X+2337040Y-1123906D01*
X+2353266Y-1107680D01*
X+2376214Y-1107680D01*
X+2392440Y-1123906D01*
X+2392440Y-1146854D01*
X+2376214Y-1163080D01*
X+2353266Y-1163080D01*
X+2337040Y-1146854D01*
G37*
%LPD*%
G36*
X+1553160Y-1863100D02*
X+1559023Y-1877421D01*
X+1594035Y-1863088D01*
X+1559014Y-1848776D01*
X+1553160Y-1863100D01*
G37*
G36*
X+1019760Y-3724920D02*
X+1023772Y-3736546D01*
X+1057460Y-3724920D01*
X+1023772Y-3713294D01*
X+1019760Y-3724920D01*
G37*
G36*
X+1019760Y-3724920D02*
X+1005437Y-3730778D01*
X+1019760Y-3765795D01*
X+1034083Y-3730778D01*
X+1019760Y-3724920D01*
G37*
G36*
X+1019760Y-3770640D02*
X+1034083Y-3764782D01*
X+1019760Y-3729765D01*
X+1005437Y-3764782D01*
X+1019760Y-3770640D01*
G37*
G36*
X+1606500Y-3308360D02*
X+1612485Y-3294090D01*
X+1577597Y-3279457D01*
X+1592230Y-3314345D01*
X+1606500Y-3308360D01*
G37*
G36*
X+1606500Y-3308360D02*
X+1612358Y-3322683D01*
X+1647375Y-3308360D01*
X+1612358Y-3294037D01*
X+1606500Y-3308360D01*
G37*
G36*
X+1667460Y-3308360D02*
X+1661602Y-3294037D01*
X+1626585Y-3308360D01*
X+1661602Y-3322683D01*
X+1667460Y-3308360D01*
G37*
G36*
X+1728420Y-3308360D02*
X+1734278Y-3322683D01*
X+1769295Y-3308360D01*
X+1734278Y-3294037D01*
X+1728420Y-3308360D01*
G37*
G36*
X+1520000Y-2120000D02*
X+1534323Y-2114142D01*
X+1520000Y-2079125D01*
X+1505677Y-2114142D01*
X+1520000Y-2120000D01*
G37*
G36*
X+1654820Y-934720D02*
X+1660678Y-949043D01*
X+1695695Y-934720D01*
X+1660678Y-920397D01*
X+1654820Y-934720D01*
G37*
G36*
X+5958440Y-2726980D02*
X+5952582Y-2712657D01*
X+5917565Y-2726980D01*
X+5952582Y-2741303D01*
X+5958440Y-2726980D01*
G37*
G36*
X+1934160Y-2274580D02*
X+1948483Y-2268722D01*
X+1934160Y-2233705D01*
X+1919837Y-2268722D01*
X+1934160Y-2274580D01*
G37*
G36*
X+1934160Y-2330460D02*
X+1940013Y-2344785D01*
X+1975035Y-2330475D01*
X+1940023Y-2316140D01*
X+1934160Y-2330460D01*
G37*
G36*
X+1934160Y-2330460D02*
X+1948483Y-2324602D01*
X+1934160Y-2289585D01*
X+1919837Y-2324602D01*
X+1934160Y-2330460D01*
G37*
G36*
X+1934160Y-2330460D02*
X+1928302Y-2316137D01*
X+1893285Y-2330460D01*
X+1928302Y-2344783D01*
X+1934160Y-2330460D01*
G37*
G36*
X+5728920Y-2724440D02*
X+5723062Y-2710117D01*
X+5688045Y-2724440D01*
X+5723062Y-2738763D01*
X+5728920Y-2724440D01*
G37*
G36*
X+5728920Y-2724440D02*
X+5734778Y-2738763D01*
X+5769795Y-2724440D01*
X+5734778Y-2710117D01*
X+5728920Y-2724440D01*
G37*
G36*
X+2614390Y-999120D02*
X+2620248Y-1013443D01*
X+2655265Y-999120D01*
X+2620248Y-984797D01*
X+2614390Y-999120D01*
G37*
G36*
X+3170000Y-980000D02*
X+3175858Y-994323D01*
X+3210875Y-980000D01*
X+3175858Y-965677D01*
X+3170000Y-980000D01*
G37*
G36*
X+6180000Y-3570000D02*
X+6165677Y-3575858D01*
X+6180000Y-3610875D01*
X+6194323Y-3575858D01*
X+6180000Y-3570000D01*
G37*
G36*
X+6040000Y-3570000D02*
X+6054323Y-3564142D01*
X+6040000Y-3529125D01*
X+6025677Y-3564142D01*
X+6040000Y-3570000D01*
G37*
G36*
X+6040000Y-3450000D02*
X+6025677Y-3455858D01*
X+6040000Y-3490875D01*
X+6054323Y-3455858D01*
X+6040000Y-3450000D01*
G37*
G36*
X+6210000Y-2410000D02*
X+6215858Y-2424323D01*
X+6250875Y-2410000D01*
X+6215858Y-2395677D01*
X+6210000Y-2410000D01*
G37*
G36*
X+6590000Y-2410000D02*
X+6584142Y-2395677D01*
X+6549125Y-2410000D01*
X+6584142Y-2424323D01*
X+6590000Y-2410000D01*
G37*
G36*
X+6880000Y-2120000D02*
X+6894270Y-2125985D01*
X+6908903Y-2091097D01*
X+6874015Y-2105730D01*
X+6880000Y-2120000D01*
G37*
G36*
X+6150000Y-1990000D02*
X+6164323Y-1984142D01*
X+6150000Y-1949125D01*
X+6135677Y-1984142D01*
X+6150000Y-1990000D01*
G37*
G36*
X+5210000Y-930000D02*
X+5195677Y-935858D01*
X+5210000Y-970875D01*
X+5224323Y-935858D01*
X+5210000Y-930000D01*
G37*
G36*
X+5210000Y-980000D02*
X+5224323Y-974142D01*
X+5210000Y-939125D01*
X+5195677Y-974142D01*
X+5210000Y-980000D01*
G37*
G36*
X+5210000Y-1030000D02*
X+5195677Y-1035858D01*
X+5210000Y-1070875D01*
X+5224323Y-1035858D01*
X+5210000Y-1030000D01*
G37*
G36*
X+5210000Y-1080000D02*
X+5224323Y-1074142D01*
X+5210000Y-1039125D01*
X+5195677Y-1074142D01*
X+5210000Y-1080000D01*
G37*
G36*
X+5220000Y-1300000D02*
X+5205677Y-1305858D01*
X+5220000Y-1340875D01*
X+5234323Y-1305858D01*
X+5220000Y-1300000D01*
G37*
G36*
X+5220000Y-1350000D02*
X+5234323Y-1344142D01*
X+5220000Y-1309125D01*
X+5205677Y-1344142D01*
X+5220000Y-1350000D01*
G37*
G36*
X+5220000Y-1400000D02*
X+5205677Y-1405858D01*
X+5220000Y-1440875D01*
X+5234323Y-1405858D01*
X+5220000Y-1400000D01*
G37*
G36*
X+5220000Y-1450000D02*
X+5234323Y-1444142D01*
X+5220000Y-1409125D01*
X+5205677Y-1444142D01*
X+5220000Y-1450000D01*
G37*
G36*
X+5220000Y-1710000D02*
X+5205677Y-1715858D01*
X+5220000Y-1750875D01*
X+5234323Y-1715858D01*
X+5220000Y-1710000D01*
G37*
G36*
X+5220000Y-1760000D02*
X+5234323Y-1754142D01*
X+5220000Y-1719125D01*
X+5205677Y-1754142D01*
X+5220000Y-1760000D01*
G37*
G36*
X+5220000Y-1810000D02*
X+5205677Y-1815858D01*
X+5220000Y-1850875D01*
X+5234323Y-1815858D01*
X+5220000Y-1810000D01*
G37*
G36*
X+5220000Y-1860000D02*
X+5234323Y-1854142D01*
X+5220000Y-1819125D01*
X+5205677Y-1854142D01*
X+5220000Y-1860000D01*
G37*
G36*
X+4430000Y-1770000D02*
X+4444323Y-1764142D01*
X+4430000Y-1729125D01*
X+4415677Y-1764142D01*
X+4430000Y-1770000D01*
G37*
G36*
X+4430000Y-1620000D02*
X+4444323Y-1614142D01*
X+4430000Y-1579125D01*
X+4415677Y-1614142D01*
X+4430000Y-1620000D01*
G37*
G36*
X+4230000Y-1450000D02*
X+4235858Y-1464323D01*
X+4270875Y-1450000D01*
X+4235858Y-1435677D01*
X+4230000Y-1450000D01*
G37*
G36*
X+5856180Y-3559820D02*
X+5850195Y-3574090D01*
X+5885083Y-3588723D01*
X+5870450Y-3553835D01*
X+5856180Y-3559820D01*
G37*
G36*
X+2164080Y-934720D02*
X+2158222Y-920397D01*
X+2123205Y-934720D01*
X+2158222Y-949043D01*
X+2164080Y-934720D01*
G37*
G36*
X+4699322Y-2789996D02*
X+4608738Y-2789996D01*
X+4591338Y-2782879D01*
X+4582980Y-2774521D01*
X+4537020Y-2774521D01*
X+4504521Y-2807020D01*
X+4504521Y-2852980D01*
X+4514109Y-2862568D01*
X+4494521Y-2882156D01*
X+4494521Y-2928116D01*
X+4527020Y-2960615D01*
X+4572980Y-2960615D01*
X+4581338Y-2952257D01*
X+4598738Y-2945140D01*
X+4674126Y-2945140D01*
X+5157127Y-3428141D01*
X+5142060Y-3428141D01*
X+5109561Y-3460640D01*
X+5109561Y-3506600D01*
X+5117919Y-3514958D01*
X+5125036Y-3532358D01*
X+5125036Y-3664261D01*
X+5089671Y-3664261D01*
X+5089671Y-4005580D01*
X+5040329Y-4005580D01*
X+5040329Y-3664261D01*
X+5027244Y-3664261D01*
X+5027244Y-3440670D01*
X+4816830Y-3230256D01*
X+4618539Y-3230256D01*
X+4618539Y-3193940D01*
X+4586040Y-3161441D01*
X+4559838Y-3161441D01*
X+4560119Y-3161160D01*
X+4560119Y-3115200D01*
X+4527620Y-3082701D01*
X+4513279Y-3082701D01*
X+4494731Y-3076777D01*
X+4476906Y-3058952D01*
X+4506779Y-3029080D01*
X+4506779Y-3005953D01*
X+4518526Y-3017700D01*
X+4541474Y-3017700D01*
X+4557700Y-3001474D01*
X+4557700Y-2978526D01*
X+4541474Y-2962300D01*
X+4518526Y-2962300D01*
X+4502300Y-2978526D01*
X+4502300Y-2978641D01*
X+4497771Y-2974112D01*
X+4489984Y-2956682D01*
X+4489454Y-2658628D01*
X+4498526Y-2667700D01*
X+4521474Y-2667700D01*
X+4537700Y-2651474D01*
X+4537700Y-2628526D01*
X+4521474Y-2612300D01*
X+4498526Y-2612300D01*
X+4489388Y-2621438D01*
X+4489315Y-2579989D01*
X+4699322Y-2789996D01*
G37*
%LPC*%
G36*
X+4542300Y-2711474D02*
X+4542300Y-2688526D01*
X+4558526Y-2672300D01*
X+4581474Y-2672300D01*
X+4597700Y-2688526D01*
X+4597700Y-2711474D01*
X+4581474Y-2727700D01*
X+4558526Y-2727700D01*
X+4542300Y-2711474D01*
G37*
G36*
X+4572300Y-3121474D02*
X+4572300Y-3098526D01*
X+4588526Y-3082300D01*
X+4611474Y-3082300D01*
X+4627700Y-3098526D01*
X+4627700Y-3121474D01*
X+4611474Y-3137700D01*
X+4588526Y-3137700D01*
X+4572300Y-3121474D01*
G37*
%LPD*%
G36*
X+4570000Y-2700000D02*
X+4555403Y-2694864D01*
X+4542844Y-2730550D01*
X+4576812Y-2713894D01*
X+4570000Y-2700000D01*
G37*
G36*
X+4570000Y-2700000D02*
X+4575985Y-2685730D01*
X+4541097Y-2671097D01*
X+4555730Y-2705985D01*
X+4570000Y-2700000D01*
G37*
G36*
X+2592861Y-2818419D02*
X+2698336Y-2818419D01*
X+2698336Y-2990530D01*
X+2542430Y-3146436D01*
X+2535308Y-3146436D01*
X+2546060Y-3135684D01*
X+2546060Y-3112736D01*
X+2537849Y-3104525D01*
X+2546060Y-3096314D01*
X+2546060Y-3073366D01*
X+2529834Y-3057140D01*
X+2506886Y-3057140D01*
X+2490660Y-3073366D01*
X+2490660Y-3096314D01*
X+2498871Y-3104525D01*
X+2490660Y-3112736D01*
X+2490660Y-3133501D01*
X+2452200Y-3133501D01*
X+2419701Y-3166000D01*
X+2419701Y-3211960D01*
X+2452200Y-3244459D01*
X+2498160Y-3244459D01*
X+2506518Y-3236101D01*
X+2523918Y-3228984D01*
X+2573030Y-3228984D01*
X+2779080Y-3022934D01*
X+3179207Y-3423061D01*
X+3158320Y-3423061D01*
X+3125821Y-3455560D01*
X+3125821Y-3466106D01*
X+3117951Y-3482775D01*
X+2936465Y-3664261D01*
X+2839671Y-3664261D01*
X+2839671Y-4005580D01*
X+2799986Y-4005580D01*
X+2790329Y-4015270D01*
X+2790329Y-3664261D01*
X+2721559Y-3664261D01*
X+2721559Y-3602535D01*
X+2245820Y-3126796D01*
X+2276347Y-3096269D01*
X+2443429Y-3096269D01*
X+2443429Y-2830839D01*
X+2542377Y-2830839D01*
X+2554797Y-2818419D01*
X+2583819Y-2818419D01*
X+2583819Y-2789397D01*
X+2584059Y-2789157D01*
X+2584059Y-2726640D01*
X+2592861Y-2726640D01*
X+2592861Y-2818419D01*
G37*
%LPC*%
G36*
X+2518360Y-2894521D02*
X+2518360Y-2883999D01*
X+2525799Y-2876560D01*
X+2536321Y-2876560D01*
X+2543760Y-2883999D01*
X+2543760Y-2894521D01*
X+2536321Y-2901960D01*
X+2525799Y-2901960D01*
X+2518360Y-2894521D01*
G37*
G36*
X+2518360Y-3016441D02*
X+2518360Y-3005919D01*
X+2525799Y-2998480D01*
X+2536321Y-2998480D01*
X+2543760Y-3005919D01*
X+2543760Y-3016441D01*
X+2536321Y-3023880D01*
X+2525799Y-3023880D01*
X+2518360Y-3016441D01*
G37*
%LPD*%
G36*
X+3042861Y-1846763D02*
X+3042621Y-1847003D01*
X+3042621Y-1853240D01*
X+3033819Y-1853240D01*
X+3033819Y-1782755D01*
X+3036570Y-1780004D01*
X+3042861Y-1780004D01*
X+3042861Y-1846763D01*
G37*
G36*
X+3042621Y-1939300D02*
X+3042621Y-1958237D01*
X+3042861Y-1958477D01*
X+3042861Y-1970419D01*
X+3054803Y-1970419D01*
X+3083623Y-1999239D01*
X+3132861Y-1999239D01*
X+3132861Y-2294027D01*
X+2871874Y-2033040D01*
X+2928344Y-1976570D01*
X+2928344Y-1970419D01*
X+3033819Y-1970419D01*
X+3033819Y-1878640D01*
X+3042621Y-1878640D01*
X+3042621Y-1939300D01*
G37*
%LPC*%
G36*
X+3060960Y-2004026D02*
X+3060960Y-2026974D01*
X+3052929Y-2035005D01*
X+3062590Y-2044666D01*
X+3062590Y-2067614D01*
X+3046364Y-2083840D01*
X+3023416Y-2083840D01*
X+3007190Y-2067614D01*
X+3007190Y-2044666D01*
X+3015221Y-2036635D01*
X+3005560Y-2026974D01*
X+3005560Y-2004026D01*
X+3021786Y-1987800D01*
X+3044734Y-1987800D01*
X+3060960Y-2004026D01*
G37*
%LPD*%
G36*
X+3034890Y-2056140D02*
X+3044266Y-2053431D01*
X+3034890Y-2020980D01*
X+3025514Y-2053431D01*
X+3034890Y-2056140D01*
G37*
G36*
X+3099673Y-2445107D02*
X+3111390Y-2456824D01*
X+3132861Y-2456824D01*
X+3132861Y-2510419D01*
X+3224640Y-2510419D01*
X+3224640Y-2519118D01*
X+3035897Y-2518510D01*
X+3024231Y-2509585D01*
X+3010576Y-2495930D01*
X+2964616Y-2495930D01*
X+2932117Y-2528429D01*
X+2932117Y-2567224D01*
X+2930241Y-2569100D01*
X+2930241Y-2609461D01*
X+2763293Y-2609461D01*
X+2931744Y-2441010D01*
X+2931744Y-2343638D01*
X+2938861Y-2326238D01*
X+2947219Y-2317880D01*
X+2947219Y-2292653D01*
X+3099673Y-2445107D01*
G37*
%LPC*%
G36*
X+3015960Y-2367246D02*
X+3015960Y-2390194D01*
X+3003774Y-2402380D01*
X+3018500Y-2417106D01*
X+3018500Y-2440054D01*
X+3002274Y-2456280D01*
X+2979326Y-2456280D01*
X+2963100Y-2440054D01*
X+2963100Y-2417106D01*
X+2975286Y-2404920D01*
X+2960560Y-2390194D01*
X+2960560Y-2367246D01*
X+2976786Y-2351020D01*
X+2999734Y-2351020D01*
X+3015960Y-2367246D01*
G37*
%LPD*%
G36*
X+2988260Y-2378720D02*
X+2987391Y-2378748D01*
X+2988260Y-2404990D01*
X+2989129Y-2378748D01*
X+2988260Y-2378720D01*
G37*
G36*
X+2532034Y-2084521D02*
X+2527020Y-2084521D01*
X+2494521Y-2117020D01*
X+2494521Y-2162980D01*
X+2527020Y-2195479D01*
X+2572980Y-2195479D01*
X+2588530Y-2179928D01*
X+2607020Y-2198418D01*
X+2652980Y-2198418D01*
X+2661470Y-2189928D01*
X+2687020Y-2215479D01*
X+2708626Y-2215479D01*
X+2732055Y-2216657D01*
X+2765376Y-2231023D01*
X+2765376Y-2430730D01*
X+2597736Y-2598370D01*
X+2597736Y-2609461D01*
X+2592861Y-2609461D01*
X+2592861Y-2701240D01*
X+2584059Y-2701240D01*
X+2584059Y-2695003D01*
X+2583819Y-2694763D01*
X+2583819Y-2609461D01*
X+2493819Y-2609461D01*
X+2493819Y-2558424D01*
X+2588270Y-2558424D01*
X+2705684Y-2441010D01*
X+2705684Y-2440035D01*
X+2721159Y-2424560D01*
X+2721159Y-2378600D01*
X+2688660Y-2346101D01*
X+2644724Y-2346101D01*
X+2644724Y-2338558D01*
X+2651841Y-2321158D01*
X+2660199Y-2312800D01*
X+2660199Y-2266840D01*
X+2627700Y-2234341D01*
X+2581740Y-2234341D01*
X+2549241Y-2266840D01*
X+2549241Y-2312800D01*
X+2557599Y-2321158D01*
X+2564716Y-2338558D01*
X+2564716Y-2372017D01*
X+2551500Y-2358801D01*
X+2505540Y-2358801D01*
X+2497182Y-2367159D01*
X+2493819Y-2368534D01*
X+2493819Y-2219461D01*
X+2402040Y-2219461D01*
X+2402040Y-2210659D01*
X+2408277Y-2210659D01*
X+2408517Y-2210419D01*
X+2493819Y-2210419D01*
X+2493819Y-2040004D01*
X+2576551Y-2040004D01*
X+2532034Y-2084521D01*
G37*
G36*
X+3433396Y-2532450D02*
X+3433396Y-2819451D01*
X+3336344Y-2819451D01*
X+3290516Y-2773623D01*
X+3290516Y-2610419D01*
X+3341819Y-2610419D01*
X+3341819Y-2519461D01*
X+3256517Y-2519461D01*
X+3256277Y-2519221D01*
X+3251048Y-2519217D01*
X+3251034Y-2519203D01*
X+3250040Y-2519200D01*
X+3250040Y-2510419D01*
X+3341819Y-2510419D01*
X+3341819Y-2504944D01*
X+3405890Y-2504944D01*
X+3433396Y-2532450D01*
G37*
%LPC*%
G36*
X+3358979Y-2719120D02*
X+3369501Y-2719120D01*
X+3376940Y-2726559D01*
X+3376940Y-2737081D01*
X+3369501Y-2744520D01*
X+3358979Y-2744520D01*
X+3351540Y-2737081D01*
X+3351540Y-2726559D01*
X+3358979Y-2719120D01*
G37*
G36*
X+3358903Y-2552512D02*
X+3358903Y-2529564D01*
X+3375129Y-2513338D01*
X+3398077Y-2513338D01*
X+3414303Y-2529564D01*
X+3414303Y-2552512D01*
X+3398077Y-2568738D01*
X+3375129Y-2568738D01*
X+3358903Y-2552512D01*
G37*
G36*
X+3358903Y-2631474D02*
X+3358903Y-2608526D01*
X+3375129Y-2592300D01*
X+3398077Y-2592300D01*
X+3414303Y-2608526D01*
X+3414303Y-2631474D01*
X+3398077Y-2647700D01*
X+3375129Y-2647700D01*
X+3358903Y-2631474D01*
G37*
%LPD*%
G36*
X+5513943Y-2906117D02*
X+5525660Y-2917834D01*
X+5721260Y-2917834D01*
X+5787937Y-2984511D01*
X+5687011Y-2984511D01*
X+5687011Y-3119111D01*
X+5684571Y-3119111D01*
X+5684571Y-3266451D01*
X+5682029Y-3266451D01*
X+5682029Y-3119111D01*
X+5511851Y-3119111D01*
X+5511851Y-3164203D01*
X+5471161Y-3164207D01*
X+5376153Y-3069199D01*
X+5386140Y-3069199D01*
X+5418639Y-3036700D01*
X+5418639Y-2990740D01*
X+5386140Y-2958241D01*
X+5374320Y-2958241D01*
X+5356984Y-2950970D01*
X+5284626Y-2878612D01*
X+5317039Y-2846200D01*
X+5317039Y-2800240D01*
X+5284540Y-2767741D01*
X+5245307Y-2767741D01*
X+5245307Y-2637481D01*
X+5513943Y-2906117D01*
G37*
%LPC*%
G36*
X+5586680Y-3074861D02*
X+5586680Y-3064339D01*
X+5594119Y-3056900D01*
X+5604641Y-3056900D01*
X+5612080Y-3064339D01*
X+5612080Y-3074861D01*
X+5604641Y-3082300D01*
X+5594119Y-3082300D01*
X+5586680Y-3074861D01*
G37*
G36*
X+5500560Y-3081074D02*
X+5500560Y-3058126D01*
X+5516786Y-3041900D01*
X+5539734Y-3041900D01*
X+5555960Y-3058126D01*
X+5555960Y-3081074D01*
X+5539734Y-3097300D01*
X+5516786Y-3097300D01*
X+5500560Y-3081074D01*
G37*
%LPD*%
G36*
X+5528260Y-3069600D02*
X+5534118Y-3083923D01*
X+5569135Y-3069600D01*
X+5534118Y-3055277D01*
X+5528260Y-3069600D01*
G37*
G36*
X+6773496Y-3428950D02*
X+6753715Y-3448731D01*
X+6667700Y-3448731D01*
X+6667700Y-3448526D01*
X+6651474Y-3432300D01*
X+6628526Y-3432300D01*
X+6612300Y-3448526D01*
X+6612300Y-3471474D01*
X+6628526Y-3487700D01*
X+6651474Y-3487700D01*
X+6664431Y-3474743D01*
X+6664431Y-3605637D01*
X+6581724Y-3522930D01*
X+6581724Y-3045410D01*
X+6395578Y-2859264D01*
X+6773496Y-2859264D01*
X+6773496Y-3428950D01*
G37*
%LPC*%
G36*
X+6702300Y-3081474D02*
X+6702300Y-3058526D01*
X+6718526Y-3042300D01*
X+6741474Y-3042300D01*
X+6757700Y-3058526D01*
X+6757700Y-3081474D01*
X+6741474Y-3097700D01*
X+6718526Y-3097700D01*
X+6702300Y-3081474D01*
G37*
%LPD*%
G36*
X+6730000Y-3070000D02*
X+6715677Y-3075858D01*
X+6730000Y-3110875D01*
X+6744323Y-3075858D01*
X+6730000Y-3070000D01*
G37*
G36*
X+6730000Y-3070000D02*
X+6744323Y-3064142D01*
X+6730000Y-3029125D01*
X+6715677Y-3064142D01*
X+6730000Y-3070000D01*
G37*
D43*
X-3251020Y+3481620D02*
X-3251020Y+3463620D01*
D44*
X+5595000Y-2298500D02*
X+5739080Y-2298500D01*
X+5784860Y-2344280D01*
X+5840000Y-2344280D01*
D10*
X+6835080Y-2390000D02*
X+6815080Y-2410000D01*
X+5840000Y-2599520D02*
X+5901500Y-2610000D01*
X+6155080Y-2610000D01*
X+6615080Y-2610000D01*
X+6815080Y-2410000D01*
X+6751420Y-2819260D02*
X+6791760Y-2819260D01*
X+6790640Y-2818140D01*
X+6831280Y-2818140D01*
X+6826200Y-2823220D01*
X+6790640Y-2818140D02*
X+6752540Y-2818140D01*
X+6751420Y-2819260D01*
X+6826200Y-2823220D02*
X+6822240Y-2819260D01*
X+6791760Y-2819260D01*
X+6822240Y-2819260D02*
X+6827440Y-2819260D01*
X+6751420Y-2819260D02*
X+6742380Y-2819260D01*
X+5839740Y-2821800D02*
X+5839740Y-2819260D01*
X+6742380Y-2819260D01*
X+7005080Y-2376200D02*
X+6877000Y-2376200D01*
X+6848880Y-2376200D01*
X+6835080Y-2390000D01*
X+5840000Y-2726980D02*
X+5840000Y-2726980D01*
X+5958440Y-2726980D01*
X+5622240Y-2538740D02*
X+5614620Y-2546360D01*
X+5629800Y-2546300D01*
X+5629900Y-2546300D01*
D44*
X+5622240Y-2538740D02*
X+5629800Y-2546300D01*
X+5675580Y-2592080D01*
X+5778500Y-2592080D01*
X+5840000Y-2596980D01*
X+5840000Y-2599520D01*
D10*
X+5637480Y-2520960D02*
X+5626050Y-2532390D01*
X+5629900Y-2546300D01*
D44*
X+5595000Y-2428500D02*
X+5595000Y-2478480D01*
X+5637480Y-2520960D01*
X+5657800Y-2541280D01*
D10*
X+6826200Y-2823220D02*
X+6826200Y-2823220D01*
X+7005080Y-2710000D02*
X+7005080Y-2710000D01*
X+7052540Y-3486440D02*
X+7052540Y-3481080D01*
X+7047460Y-3538740D02*
X+7047460Y-3521720D01*
X+7200000Y-3543480D02*
X+7199864Y-3526916D01*
X+7199781Y-3516841D01*
X+7199634Y-3499030D01*
X+7199634Y-3486160D01*
X+7199864Y-3526916D02*
X+7200000Y-3517060D01*
X+7199781Y-3516841D01*
X+7171640Y-3488700D02*
X+7199634Y-3516694D01*
X+7199634Y-3543510D01*
X+7199634Y-3562360D01*
X+7199620Y-3544520D02*
X+7199634Y-3543510D01*
X+7199864Y-3526916D01*
X+7199781Y-3516841D02*
X+7199634Y-3516694D01*
X+7171640Y-3488700D02*
X+7026860Y-3343920D01*
X+7026860Y-2741940D01*
X+7005080Y-2720160D01*
X+7005080Y-2710000D01*
X+5736540Y-2094240D02*
X+5778500Y-2094240D01*
X+5840000Y-2088400D01*
X+5850058Y-2905868D02*
X+5846346Y-2909580D01*
X+5850058Y-2905868D02*
X+5855920Y-2901960D01*
X+7047460Y-3521720D02*
X+7047460Y-3486440D01*
X+7052540Y-3486440D01*
X+6749520Y-3533820D02*
X+6749520Y-3509500D01*
X+6813500Y-3445520D01*
X+6813500Y-2841000D01*
X+6795720Y-2823220D01*
X+6826200Y-2823220D01*
D44*
X+5405000Y-2363500D02*
X+5292040Y-2363500D01*
X+5279340Y-2350800D01*
D10*
X+7047460Y-3711460D02*
X+7047460Y-3829060D01*
X+6999200Y-3877320D01*
X+6696660Y-3877320D01*
X+6432500Y-3613160D01*
X+6432500Y-3122940D01*
X+6313120Y-3003560D01*
X+6056580Y-3003560D01*
X+6015940Y-2962920D01*
X+5599380Y-3069600D02*
X+5528260Y-3069600D01*
X+5772100Y-3069600D02*
X+5772100Y-3135640D01*
X+5769660Y-3204200D02*
X+5772122Y-3159750D01*
X+5772122Y-3114050D01*
X+5772100Y-3069600D01*
X+5850058Y-2905868D02*
X+5848300Y-2907040D01*
X+1921760Y-3870000D02*
X+1939240Y-3887480D01*
D44*
X+5405000Y-2298500D02*
X+5405000Y-2260680D01*
X+5571440Y-2094240D01*
X+5736540Y-2094240D01*
D20*
X+5279340Y-2350800D02*
X+5279340Y-2259340D01*
X+5533340Y-2005340D01*
X+5947360Y-2005340D01*
X+6010860Y-2068840D01*
X+6010860Y-2170440D01*
X+5957520Y-2223780D01*
X+5901500Y-2223780D01*
X+5840000Y-2216340D01*
D44*
X+5700980Y-2363800D02*
X+5595000Y-2363500D01*
D10*
X+6897300Y-3708740D02*
X+6897300Y-3755420D01*
X+6849060Y-3803660D01*
X+6699200Y-3803660D01*
X+6488380Y-3592840D01*
X+6488380Y-3100080D01*
X+6330900Y-2942600D01*
X+6125160Y-2942600D01*
X+5960060Y-2358400D02*
X+5901500Y-2358400D01*
X+5840000Y-2344280D01*
X+1508063Y-2457431D02*
X+1502394Y-2455809D01*
X+1498100Y-2454580D01*
X+1508063Y-2453511D02*
X+1498100Y-2454580D01*
X+1508063Y-2449811D02*
X+1508063Y-2453511D01*
X+1508063Y-2455956D01*
D17*
X+2002780Y-2038300D02*
X+2002780Y-2025600D01*
X+2001754Y-2025660D01*
X+1855420Y-2025660D01*
D16*
X+1677620Y-2211080D02*
X+1649680Y-2183140D01*
X+1649680Y-2089160D01*
X+1642060Y-2025660D01*
D70*
X+2389340Y-2164940D02*
X+2302460Y-2164940D01*
X+2302460Y-2165360D01*
X+2157007Y-2165360D01*
X+2119366Y-2159689D01*
X+2104856Y-2152242D01*
X+2095167Y-2141089D01*
X+2091640Y-2127260D01*
X+2086937Y-2094272D01*
X+2074019Y-2067669D01*
X+2054671Y-2049907D01*
X+2047230Y-2047902D01*
X+2002780Y-2038300D01*
X+2389340Y-2214940D02*
X+2047230Y-2214940D01*
X+2002780Y-2211020D01*
D10*
X+1997662Y-2330495D02*
X+1997662Y-2255470D01*
X+2002780Y-2211020D01*
X+1997662Y-2330495D02*
X+2002800Y-2330500D01*
X+1855417Y-2211073D02*
X+1855417Y-2302520D01*
X+1870660Y-2317763D01*
D12*
X+1855417Y-2211073D02*
X+1850340Y-2211080D01*
D10*
X+1868120Y-2330460D02*
X+1934160Y-2330460D01*
X+1958350Y-2330460D01*
X+1997662Y-2330495D01*
X+2002800Y-2503220D02*
X+1995120Y-2503220D01*
X+1498100Y-2454580D02*
X+1453650Y-2431610D01*
X+1258520Y-2236480D01*
X+1047700Y-2236480D01*
X+1090480Y-2131820D01*
X+2389340Y-2314940D02*
X+2254200Y-2314940D01*
X+2223211Y-2321820D01*
X+2198220Y-2340718D01*
X+2181534Y-2369023D01*
X+2175460Y-2404120D01*
X+2172731Y-2444110D01*
X+2164878Y-2481091D01*
X+2152404Y-2514348D01*
X+2135812Y-2543165D01*
X+2115603Y-2566825D01*
X+2092280Y-2584611D01*
X+2066345Y-2595808D01*
X+2038300Y-2599700D01*
X+1090480Y-2981820D02*
X+1414180Y-2658120D01*
X+1467280Y-2658120D01*
X+1498100Y-2627300D01*
D12*
X+1642060Y-2025660D02*
X+1785590Y-1882130D01*
X+1822591Y-1842961D01*
X+1827580Y-1837680D01*
D14*
X+1822591Y-1842961D02*
X+1830020Y-1810165D01*
X+1830020Y-1671534D01*
X+1832660Y-1659880D01*
D12*
X+1929080Y-2211020D02*
X+1894790Y-2211020D01*
X+1855417Y-2211073D01*
D10*
X+1934160Y-2211020D02*
X+1934160Y-2274580D01*
X+1934160Y-2287280D01*
X+1934160Y-2330460D02*
X+1934160Y-2287280D01*
D12*
X+2002780Y-2211020D02*
X+1934160Y-2211020D01*
X+1929080Y-2211020D01*
D10*
X+1392900Y-3222600D02*
X+1165480Y-3222600D01*
X+1090480Y-2981820D01*
X+1647140Y-1837683D02*
X+1647140Y-1704330D01*
X+1659940Y-1659880D01*
X+1647140Y-1837683D02*
X+1654860Y-1837680D01*
X+1645286Y-2518296D02*
X+1645287Y-2518300D01*
X+1648608Y-2534940D01*
X+1658166Y-2550333D01*
X+1673349Y-2564175D01*
X+1693546Y-2576169D01*
X+1746534Y-2593420D01*
X+1812240Y-2599700D01*
X+1645286Y-2518296D02*
X+1644373Y-2513231D01*
X+1636410Y-2499036D01*
X+1623762Y-2486271D01*
X+1606938Y-2475210D01*
X+1562797Y-2459302D01*
X+1508063Y-2453511D01*
X+2038300Y-2599700D02*
X+1812240Y-2599700D01*
X+1553160Y-1863100D02*
X+1609040Y-1863083D01*
X+1647140Y-1863083D01*
X+1647140Y-1837683D01*
X+1316940Y-1865640D02*
X+1250900Y-1865640D01*
X+1147163Y-1969377D01*
X+1116280Y-1969780D01*
X+1113340Y-2159760D01*
X+1113340Y-2131820D01*
X+1090480Y-2131820D01*
X+1940000Y-3870000D02*
X+1931620Y-3870000D01*
X+1921760Y-3870000D01*
D18*
X+1743660Y-3870000D01*
X+1677620Y-3870000D01*
X+1615160Y-3807540D01*
X+1609505Y-3636005D01*
X+1608880Y-3617040D01*
D10*
X+1471880Y-3745240D02*
X+1500270Y-3745240D01*
D45*
X+1507280Y-3745240D01*
X+1534055Y-3711455D01*
D10*
X+1608880Y-3617040D01*
X+1471880Y-3707140D02*
X+1471880Y-3745240D01*
X+1471880Y-3752860D01*
X+1609505Y-3636005D02*
X+1534055Y-3711455D01*
X+1500270Y-3745240D01*
X+1471880Y-3773630D01*
X+1517600Y-3801120D02*
X+1530300Y-3813820D01*
X+1471880Y-3801120D02*
X+1517600Y-3801120D01*
X+1596340Y-3801120D01*
X+1596340Y-3813820D01*
X+1530300Y-3813820D01*
X+1479500Y-3813820D01*
X+1565860Y-3849380D02*
X+1581100Y-3864620D01*
X+1530300Y-3813820D02*
X+1565860Y-3849380D01*
X+1621740Y-3905260D02*
X+1634440Y-3917960D01*
X+1647140Y-3930660D01*
X+1929080Y-3930660D01*
X+1581100Y-3864620D02*
X+1621740Y-3905260D01*
X+1634440Y-3917960D02*
X+1903680Y-3917960D01*
X+1576020Y-3849380D02*
X+1593800Y-3849380D01*
X+1457910Y-3662690D02*
X+1454100Y-3666500D01*
X+1482040Y-3849380D02*
X+1553160Y-3849380D01*
X+1565860Y-3849380D01*
X+1576020Y-3849380D01*
X+1608880Y-3617040D02*
X+1611580Y-3603000D01*
X+1517600Y-3603000D01*
X+1476960Y-3643640D01*
X+1457910Y-3662690D01*
X+1484580Y-3844300D02*
X+1476960Y-3844300D01*
X+1482040Y-3849380D01*
X+1471880Y-3801120D02*
X+1471880Y-3826520D01*
X+1471880Y-3839220D01*
X+1471880Y-3844300D01*
X+1471880Y-3849380D01*
X+1553160Y-3849380D02*
X+1535380Y-3831600D01*
X+1492200Y-3831600D01*
X+1479500Y-3818900D01*
X+1479500Y-3834140D01*
X+1471880Y-3826520D01*
X+1461720Y-3816360D01*
X+1461720Y-3671580D01*
X+1517600Y-3615700D01*
X+1454100Y-3666500D02*
X+1433780Y-3686820D01*
X+1433780Y-3829060D01*
X+1454100Y-3849380D01*
X+1471880Y-3849380D01*
X+1482040Y-3849380D01*
X+1476960Y-3844300D02*
X+1471880Y-3844300D01*
X+1461720Y-3844300D01*
X+1451560Y-3834140D01*
X+1451560Y-3717300D01*
X+1454100Y-3666500D02*
X+1454100Y-3821440D01*
X+1471880Y-3839220D01*
X+1476960Y-3844300D01*
D20*
X+1019760Y-3724920D02*
X+1106120Y-3724920D01*
D10*
X+1106120Y-3691900D02*
X+1019760Y-3691900D01*
X+1019760Y-3684280D01*
X+1019760Y-3724920D01*
X+1019760Y-3727460D01*
X+1019760Y-3770640D01*
D20*
X+1019760Y-3691900D02*
X+1019760Y-3724920D01*
D10*
X+1106120Y-3724920D02*
X+1106120Y-3691900D01*
X+1106120Y-3618240D01*
X+1019760Y-3770640D02*
X+1022300Y-3773180D01*
X+1019760Y-3770640D01*
X+1606500Y-3308360D02*
X+1667460Y-3308360D01*
X+1606500Y-3308360D02*
X+1568400Y-3270260D01*
X+1568400Y-3267050D01*
X+1565620Y-3222600D01*
X+2838340Y-2713940D02*
X+2838340Y-2950220D01*
X+3478420Y-3590300D01*
X+3656220Y-3590300D01*
X+3691840Y-3625920D01*
X+3905200Y-3636020D02*
X+3811220Y-3542040D01*
X+3498800Y-3542040D01*
X+2889200Y-2932440D01*
X+2889200Y-2787940D01*
X+2888340Y-2713940D01*
X+3190000Y-3870000D02*
X+3190000Y-3625860D01*
X+3276360Y-3539500D01*
X+3719780Y-3096080D02*
X+3722320Y-3093540D01*
X+3722320Y-2485400D01*
X+3402280Y-2165360D01*
X+3311340Y-2165360D01*
X+3237340Y-2164940D01*
X+2940000Y-3870000D02*
X+2940000Y-3717300D01*
X+3178760Y-3478540D01*
X+3188920Y-3478540D01*
X+3181300Y-3478540D01*
X+3653740Y-3006100D02*
X+3663900Y-2995940D01*
X+3663900Y-2510800D01*
X+3367990Y-2214890D01*
X+3237340Y-2214940D01*
X+4430980Y-3628400D02*
X+4428440Y-3625860D01*
X+4276040Y-3625860D01*
X+4093160Y-3442980D01*
X+3547060Y-3442980D01*
X+2988260Y-2884180D01*
X+2988340Y-2713940D01*
X+3038340Y-2713940D02*
X+3038340Y-2851160D01*
X+3586980Y-3399800D01*
X+4116020Y-3399800D01*
X+4286200Y-3569980D01*
X+4664660Y-3569980D01*
X+4692600Y-3597920D01*
X+2538340Y-1865940D02*
X+2538340Y-1863400D01*
X+2538340Y-1865940D01*
D14*
X+1746200Y-3310900D02*
X+1609040Y-3310900D01*
X+1606500Y-3308360D01*
D10*
X+1995541Y-2502799D02*
X+2002800Y-2503220D01*
X+1995120Y-2503220D02*
X+1995541Y-2502799D01*
X+3539440Y-2998480D02*
X+3539440Y-2505720D01*
X+3349012Y-2315292D01*
X+3237340Y-2314940D01*
X+2157680Y-3115320D02*
X+2157680Y-3072140D01*
X+2157680Y-3158500D01*
X+2157680Y-3112780D01*
D12*
X+2157680Y-3067060D02*
X+2157680Y-3072140D01*
X+2157680Y-3112780D01*
X+2157680Y-3115320D01*
X+2157680Y-3158500D01*
D10*
X+2389340Y-2014940D02*
X+2396440Y-2012960D01*
X+2389340Y-2014940D01*
D71*
X+2998375Y-2428580D02*
X+2988260Y-2418465D01*
X+2988260Y-2378720D01*
D70*
X+2998375Y-2428580D02*
X+2990800Y-2428580D01*
D10*
X+3237340Y-2464940D02*
X+3422460Y-2464940D01*
X+3473400Y-2515880D01*
X+3473400Y-3054360D01*
X+3702000Y-3282960D01*
X+4161740Y-3282960D01*
X+4339540Y-3460760D01*
X+4903420Y-3460760D01*
D70*
X+3237340Y-2564940D02*
X+3232097Y-2564922D01*
X+3008580Y-2564140D01*
X+2987596Y-2551409D01*
D10*
X+3232097Y-2609860D02*
X+3191467Y-2569230D01*
D19*
X+3232097Y-2609860D02*
X+3232097Y-2797820D01*
X+3319790Y-2885513D01*
X+3364240Y-2904540D01*
D10*
X+3232097Y-2607322D02*
X+3262580Y-2576839D01*
X+3232097Y-2607322D02*
X+3232097Y-2609860D01*
X+3262580Y-2576839D02*
X+3232097Y-2576839D01*
X+3205428Y-2576839D01*
X+3232097Y-2576839D02*
X+3232097Y-2607322D01*
D70*
X+3364240Y-2731820D02*
X+3364240Y-2663200D01*
X+3237340Y-2514940D02*
X+3237340Y-2513340D01*
X+3131440Y-2513340D01*
X+3046680Y-2428580D01*
X+2998375Y-2428580D01*
D10*
X+2518360Y-3084840D02*
X+2518360Y-3055630D01*
X+2531060Y-3011180D01*
X+2518360Y-3089920D02*
X+2531060Y-3077220D01*
X+2531060Y-3011180D01*
D70*
X+2531060Y-2942600D01*
X+2531060Y-2933710D01*
X+2531060Y-2889260D01*
D10*
X+2518360Y-3084840D02*
X+2518360Y-3089920D01*
X+2518360Y-3124210D01*
D12*
X+2358340Y-3006100D02*
X+2358340Y-3011180D01*
X+2358340Y-2889260D02*
X+2358340Y-2966730D01*
X+2358340Y-3006100D01*
D10*
X+2165300Y-3115320D02*
X+2165300Y-3112780D01*
D12*
X+2157680Y-3112780D01*
D10*
X+2165300Y-3115320D02*
X+2157680Y-3115320D01*
X+2363420Y-2815600D02*
X+2363420Y-2807980D01*
X+2363420Y-2579940D01*
X+2389340Y-2564940D01*
D70*
X+2363420Y-2815600D02*
X+2363420Y-2844810D01*
X+2358340Y-2889260D01*
X+3034890Y-2013870D02*
X+3034890Y-2056140D01*
X+3038340Y-1865940D02*
X+3039060Y-1865940D01*
X+3039060Y-2009700D01*
X+3034890Y-2013870D01*
X+3033260Y-2015500D01*
X+3088340Y-1865940D02*
X+3088340Y-1939300D01*
X+3102560Y-1953520D01*
X+3186380Y-1953520D01*
D10*
X+3232097Y-2564922D02*
X+3232097Y-2564940D01*
X+3232097Y-2576839D01*
X+3237340Y-2564940D02*
X+3232097Y-2564940D01*
X+3049220Y-2564940D01*
X+3013660Y-2564940D01*
X+3012860Y-2564940D01*
X+2985720Y-2592080D01*
X+3013660Y-2564940D02*
X+2988260Y-2590340D01*
X+2983180Y-2595420D01*
X+2983180Y-2553980D01*
X+1995913Y-2502427D02*
X+2002800Y-2503220D01*
X+1995541Y-2502799D02*
X+1995913Y-2502427D01*
X+2091640Y-2406700D01*
X+2091640Y-2333000D01*
X+2160220Y-2264420D01*
X+2315340Y-2264420D01*
X+2389340Y-2264940D01*
X+1989029Y-2503220D02*
X+1995913Y-2502427D01*
X+1995120Y-2503220D02*
X+1989029Y-2503220D01*
X+1912570Y-2503220D01*
X+1868120Y-2503180D01*
X+1728420Y-3308360D02*
X+1802080Y-3308360D01*
X+1804620Y-3308360D01*
D14*
X+1799540Y-3310900D02*
X+1746200Y-3310900D01*
D10*
X+2588340Y-2724160D02*
X+2588340Y-2713940D01*
D70*
X+2588340Y-2724160D02*
X+2588340Y-2823220D01*
X+2566750Y-2844810D01*
X+2531060Y-2889260D01*
X+2538340Y-2713940D02*
X+2538340Y-2770220D01*
X+2523440Y-2785120D01*
X+2386280Y-2785120D01*
X+2363420Y-2807980D01*
D10*
X+1136440Y-3617040D02*
X+1136600Y-3625860D01*
X+1136600Y-3630940D01*
X+1136600Y-3691900D01*
X+1106120Y-3691900D01*
X+1525220Y-3338840D02*
X+1537920Y-3338840D01*
X+1771600Y-3338840D01*
X+1799540Y-3310900D01*
X+1802080Y-3308360D01*
X+1136600Y-3630940D02*
X+1421080Y-3346460D01*
X+1537920Y-3346460D01*
X+1537920Y-3338840D01*
X+1537920Y-3267050D01*
X+1565620Y-3222600D01*
X+2788340Y-2713940D02*
X+2788340Y-2975620D01*
X+3379420Y-3566700D01*
X+3379420Y-3585220D01*
D14*
X+2061160Y-2990860D02*
X+2038300Y-2990860D01*
X+2035760Y-2990860D01*
D12*
X+2015440Y-2990860D02*
X+2035760Y-2990860D01*
D14*
X+2028140Y-2998480D01*
X+2028140Y-3082300D01*
X+1802080Y-3308360D01*
D10*
X+2147688Y-3875973D02*
X+2192061Y-3831600D01*
D13*
X+2190000Y-3870000D02*
X+2147688Y-3875973D01*
X+2120150Y-3879860D01*
X+2009850Y-3879860D01*
X+1940000Y-3870000D01*
D10*
X+5840000Y-2726980D02*
X+5840000Y-2724440D01*
X+5728920Y-2724440D01*
X+5674350Y-2724440D01*
X+5629900Y-2719020D01*
D70*
X+2588340Y-2713940D02*
X+2588340Y-2583060D01*
X+2734260Y-2437140D01*
X+2734260Y-2272040D01*
X+2678380Y-2216160D01*
X+2457734Y-2216160D01*
X+2389340Y-2214940D01*
D10*
X+6902400Y-3470920D02*
X+6902400Y-3491570D01*
X+6897300Y-3536020D01*
X+6912540Y-3531880D02*
X+6902400Y-3531880D01*
X+6902400Y-3491570D01*
X+6902400Y-3473460D01*
X+6897301Y-3516640D02*
X+6897301Y-3501888D01*
X+6897301Y-2785101D01*
X+6897300Y-3536020D02*
X+6897301Y-3516640D01*
X+6897301Y-3501888D02*
X+6897322Y-2785122D01*
X+6897301Y-2785101D01*
X+6887160Y-2774960D01*
X+6887160Y-2762260D01*
X+6887160Y-2599700D02*
X+6887160Y-2594620D01*
X+6887160Y-2556520D01*
X+6960820Y-2482860D01*
X+7019240Y-2482860D01*
X+6887160Y-2762260D02*
X+6887160Y-2599700D01*
D71*
X+1629360Y-2297440D02*
X+1588720Y-2297440D01*
X+1609040Y-2297440D01*
X+1603960Y-2297440D01*
X+1629360Y-2297440D02*
X+1654760Y-2297440D01*
X+1677620Y-2274580D01*
X+1677620Y-2255530D01*
X+1677620Y-2211080D01*
D10*
X+2389340Y-2464940D02*
X+2485340Y-2464940D01*
X+2495640Y-2475240D01*
X+2546300Y-2475240D01*
X+2604720Y-2416820D01*
X+2604720Y-2289820D01*
X+2699800Y-999120D02*
X+2614390Y-999120D01*
X+3170000Y-980000D02*
X+3245850Y-980000D01*
X+3290300Y-999120D01*
X+3640000Y-1070000D02*
X+3760000Y-1070000D01*
X+3830000Y-1140000D01*
X+4330000Y-1140000D01*
X+4442729Y-1027271D01*
X+4487179Y-988631D01*
X+4487179Y-815911D02*
X+4673001Y-815911D01*
X+4717451Y-817451D01*
X+4090800Y-826400D02*
X+3900800Y-826400D01*
X+3500300Y-826400D02*
X+3334750Y-826400D01*
X+3290300Y-826400D01*
X+2909800Y-826400D02*
X+2865350Y-830000D01*
X+2744250Y-830000D01*
X+2699800Y-826400D01*
X+3900800Y-999120D02*
X+3856350Y-990000D01*
X+3660000Y-990000D01*
X+2665680Y-2401580D02*
X+2665680Y-2424440D01*
X+2571700Y-2518420D01*
X+2463340Y-2518420D01*
X+2389340Y-2514940D01*
X+2688340Y-2713940D02*
X+2688340Y-2627840D01*
X+2891740Y-2424440D01*
X+2891740Y-2294900D01*
X+2938340Y-2713940D02*
X+2938340Y-2912120D01*
X+3514920Y-3488700D01*
X+4018701Y-3488700D01*
X+4110940Y-3580939D01*
X+4110940Y-3623320D01*
X+3237340Y-2014940D02*
X+3311340Y-2020580D01*
X+3481020Y-2020580D01*
X+3902660Y-2442220D01*
X+3902660Y-2970540D01*
X+4020000Y-3087880D01*
X+4020000Y-3140720D01*
X+4020000Y-3590300D02*
X+4020000Y-3616172D01*
X+3966160Y-3760480D01*
X+3940000Y-3870000D01*
X+3088340Y-2713940D02*
X+3088340Y-2828300D01*
X+3616660Y-3356620D01*
X+4146500Y-3356620D01*
X+4309060Y-3519180D01*
X+4870000Y-3520000D01*
X+4933900Y-3580000D01*
X+2788340Y-1865940D02*
X+2790140Y-1791940D01*
X+2790140Y-1708900D01*
X+2919040Y-1580000D01*
X+3380800Y-1580000D01*
X+4166820Y-2366020D01*
X+4166820Y-3054360D01*
X+4448760Y-3336300D01*
X+4771340Y-3336300D01*
X+5165040Y-3483620D02*
X+5165040Y-3694740D01*
X+5190000Y-3870000D01*
X+7052540Y-3486440D02*
X+6960000Y-3393900D01*
X+6960000Y-2758900D01*
X+6945580Y-2744480D01*
X+6945580Y-2665740D01*
X+7011320Y-2600000D01*
X+7015080Y-2600000D01*
X+2838340Y-1865940D02*
X+2838340Y-1761500D01*
X+2959840Y-1640000D01*
X+3346820Y-1640000D01*
X+4100780Y-2393960D01*
X+4100780Y-3077220D01*
X+4420820Y-3397260D01*
X+4824680Y-3397260D01*
X+5378400Y-3625860D02*
X+5436820Y-3684280D01*
X+5436820Y-3694740D01*
X+5440000Y-3870000D01*
X+6190000Y-3870000D02*
X+6180000Y-3694740D01*
X+6180000Y-3570000D01*
X+6040000Y-3570000D02*
X+6040000Y-3450000D01*
X+6590000Y-2410000D02*
X+6210000Y-2410000D01*
X+6150000Y-1990000D02*
X+6150000Y-1920000D01*
X+7080000Y-1920000D01*
X+6880000Y-2120000D01*
X+6730000Y-2910000D02*
X+6730000Y-3070000D01*
X+6730000Y-3370000D01*
X+6640000Y-3460000D01*
X+6730000Y-2910000D02*
X+6730000Y-2900000D01*
X+5210000Y-930000D02*
X+5210000Y-980000D01*
X+5210000Y-1030000D02*
X+5210000Y-1080000D01*
X+4430000Y-1650000D02*
X+4430000Y-1620000D01*
X+4430000Y-1540000D01*
X+4340000Y-1450000D01*
X+4230000Y-1450000D01*
X+4430000Y-1770000D02*
X+4430000Y-1650000D01*
D70*
X+3364240Y-2663200D02*
X+3364240Y-2650500D01*
X+3389580Y-2625160D01*
X+3389580Y-2546360D01*
D10*
X+5261560Y-2823220D02*
X+5243403Y-2823220D01*
X+5237053Y-2824490D01*
X+5205303Y-2792740D01*
X+5205303Y-2193318D01*
X+5606683Y-1791938D01*
X+5610000Y-1450000D01*
X+4510000Y-2640000D02*
X+4570000Y-2700000D01*
X+3237340Y-2064940D02*
X+3459340Y-2064940D01*
X+3839160Y-2444760D01*
X+3839160Y-2767340D01*
X+4570000Y-2700000D02*
X+4490000Y-2790000D01*
X+4490000Y-2950000D01*
X+4530000Y-2990000D01*
X+2988340Y-1865940D02*
X+2988340Y-1771660D01*
X+3020000Y-1740000D01*
X+3289340Y-1740000D01*
X+3963620Y-2414280D01*
X+3963620Y-2846080D01*
X+3963620Y-2830000D01*
X+4560000Y-2830000D02*
X+4690000Y-2830000D01*
X+4735780Y-2868940D01*
X+5292040Y-3425200D01*
X+6749520Y-3706540D02*
X+6708760Y-3706540D01*
X+6541720Y-3539500D01*
X+6541720Y-3061980D01*
X+6369740Y-2890000D01*
X+6100000Y-2890000D01*
X+6084132Y-2905868D01*
X+5850058Y-2905868D01*
X+5405000Y-2428500D02*
X+5330000Y-2430000D01*
X+5330000Y-2579240D01*
X+5576520Y-2825760D01*
X+5810040Y-2825760D01*
X+5839740Y-2821800D01*
X+7200000Y-3716200D02*
X+7202120Y-3760650D01*
X+7202120Y-3823980D01*
X+7080200Y-3945900D01*
X+6676340Y-3945900D01*
X+6379160Y-3648720D01*
X+6379160Y-3150880D01*
X+6285180Y-3056900D01*
X+6000700Y-3056900D01*
X+5919420Y-2975620D01*
X+5835620Y-2975620D01*
X+5737830Y-2877830D01*
X+5542230Y-2877830D01*
X+5279340Y-2614940D01*
X+5279340Y-2350800D01*
X+3361445Y-2515880D02*
X+3386603Y-2541038D01*
D70*
X+3389580Y-2546360D02*
X+3361445Y-2515880D01*
X+3280815Y-2515880D01*
X+3237340Y-2514940D01*
D14*
X+2190000Y-3870000D02*
X+2200860Y-3694740D01*
X+2200860Y-3623320D01*
X+2238960Y-3623320D02*
X+2279600Y-3623320D01*
X+2325320Y-3623320D02*
X+2325320Y-3564900D01*
D10*
X+2638340Y-2713940D02*
X+2637740Y-2713940D01*
X+2637740Y-2614940D01*
X+2805380Y-2447300D01*
X+2805380Y-2204730D01*
X+2710000Y-2160000D01*
X+2552745Y-2120384D02*
X+2550000Y-2123129D01*
X+2550000Y-2140000D01*
X+2552745Y-2120384D02*
X+2550000Y-2140000D01*
X+2840570Y-2129430D02*
X+3127960Y-2416820D01*
X+3234059Y-2416820D01*
X+3234640Y-2419360D01*
X+3234944Y-2416576D01*
X+3237340Y-2414940D01*
X+2812999Y-2101859D02*
X+2815570Y-2104430D01*
X+2840570Y-2129430D01*
X+2812999Y-2101859D02*
X+2815570Y-2104430D01*
X+2840570Y-2129430D01*
X+3237340Y-2364940D02*
X+3147200Y-2364940D01*
X+2842260Y-2060000D01*
X+2613129Y-2060000D01*
X+2552745Y-2120384D01*
X+1553160Y-1863100D02*
X+1548080Y-1868180D01*
X+1520000Y-1896260D01*
X+1520000Y-2120000D01*
X+1489660Y-1865640D02*
X+1489660Y-1868180D01*
X+1548080Y-1868180D01*
X+1553160Y-1868180D01*
X+1553160Y-1863100D01*
X+2888340Y-1865940D02*
X+2888340Y-1960000D01*
X+2848340Y-2000000D01*
X+2510000Y-2000000D01*
X+2520000Y-2000000D01*
X+2420000Y-1900000D01*
X+2330000Y-1900000D01*
X+2738340Y-2713940D02*
X+2738340Y-3007100D01*
X+2559000Y-3186440D01*
X+2556460Y-3188980D01*
X+2475180Y-3188980D01*
X+2473398Y-3188980D01*
X+2475180Y-3188980D02*
X+2477489Y-3186440D01*
X+2559000Y-3186440D01*
X+2738340Y-3007100D02*
X+2739340Y-3006100D01*
X+2739340Y-2787940D01*
X+2738340Y-2713940D01*
X+1989029Y-2503220D02*
X+1932732Y-2509705D01*
X+1936700Y-2792740D02*
X+1944320Y-2800360D01*
X+1949400Y-2800360D01*
X+1999040Y-2850000D01*
X+2245924Y-2850000D01*
X+2260000Y-2860000D01*
D19*
X+2165300Y-3112780D02*
X+2177220Y-3112780D01*
X+2268660Y-3021340D01*
X+2299072Y-3021340D01*
X+2358340Y-3011180D01*
D10*
X+2198320Y-3115320D02*
X+2177220Y-3115320D01*
X+2165300Y-3115320D01*
D12*
X+2177220Y-3115320D02*
X+2177220Y-3112780D01*
D14*
X+2440000Y-3870000D02*
X+2459940Y-3850060D01*
X+2459940Y-3549940D01*
X+2220900Y-3310900D01*
X+1799540Y-3310900D01*
D12*
X+2690000Y-3870000D02*
X+2665680Y-3845680D01*
X+2665680Y-3625680D01*
X+2177220Y-3137220D01*
X+2177220Y-3115320D01*
D10*
X+2630000Y-2142939D02*
X+2653280Y-2101859D01*
X+2812999Y-2101859D01*
X+5680660Y-3620780D02*
X+5482540Y-3620780D01*
X+5341760Y-3480000D01*
X+5265560Y-3480000D01*
X+4690696Y-2905136D01*
X+4550000Y-2905136D01*
X+3999180Y-2942600D02*
X+4034740Y-2907040D01*
X+4034740Y-2406660D01*
X+3318080Y-1690000D01*
X+2980000Y-1690000D01*
X+2937460Y-1732540D01*
X+2937460Y-1791940D01*
X+2938340Y-1865940D01*
X+5774640Y-3448060D02*
X+5774640Y-3395990D01*
X+5767020Y-3351540D01*
X+5383280Y-824280D02*
X+5510000Y-824280D01*
X+3237340Y-2114940D02*
X+3438220Y-2114940D01*
X+3780740Y-2457460D01*
X+3780740Y-2934980D01*
X+3907740Y-3061980D01*
X+3907740Y-3102620D01*
X+3440000Y-3638560D02*
X+3440000Y-3870000D01*
X+4940000Y-3870000D02*
X+4944060Y-3694740D01*
X+4955260Y-3694740D01*
X+4987240Y-3662760D01*
X+4987240Y-3457240D01*
X+4800260Y-3270260D01*
X+4469080Y-3270260D01*
X+4240480Y-3041660D01*
X+4240480Y-2355800D01*
X+3414680Y-1530000D01*
X+2888400Y-1530000D01*
X+2739340Y-1679060D01*
X+2739340Y-1791940D01*
X+2738340Y-1865940D01*
X+2688340Y-1865940D02*
X+2688340Y-1661660D01*
X+2870000Y-1480000D01*
X+3448500Y-1480000D01*
X+4321760Y-2353260D01*
X+4321760Y-3044200D01*
X+4491940Y-3214380D01*
X+4537660Y-3214380D01*
X+4540200Y-3216920D01*
X+4563060Y-3216920D01*
X+4593540Y-3638560D02*
X+4649720Y-3694740D01*
X+4690000Y-3870000D01*
X+2638340Y-1865940D02*
X+2642820Y-1791940D01*
X+2642820Y-1627180D01*
X+2840000Y-1430000D01*
X+3492480Y-1430000D01*
X+4387800Y-2325320D01*
X+4387800Y-3026420D01*
X+4504640Y-3143260D01*
X+4504640Y-3155960D01*
X+4504640Y-3138180D01*
X+4507180Y-3638560D02*
X+4471620Y-3674120D01*
X+4471620Y-3694740D01*
X+4440000Y-3870000D01*
X+2389340Y-2064940D02*
X+2283320Y-2064940D01*
X+2256740Y-2038360D01*
X+2256740Y-1853260D01*
X+2780000Y-1330000D01*
X+3547420Y-1330000D01*
X+4514800Y-2297380D01*
X+4514800Y-2548900D01*
X+5505400Y-3539500D01*
X+5571440Y-3539500D01*
X+5856180Y-3559820D02*
X+5940000Y-3643640D01*
X+5940000Y-3870000D01*
X+5690000Y-3870000D02*
X+5690000Y-3780800D01*
X+5739080Y-3731720D01*
X+5739080Y-3587760D01*
X+5609540Y-3458220D01*
X+5535880Y-3458220D01*
X+4570680Y-2493020D01*
X+4570680Y-2282140D01*
X+3568540Y-1280000D01*
X+2760000Y-1280000D01*
X+2208480Y-1831520D01*
X+2208480Y-2091700D01*
X+2233880Y-2117100D01*
X+2334600Y-2117100D01*
X+2389340Y-2114940D01*
X+5594300Y-3351540D02*
X+5513020Y-3351540D01*
X+4636720Y-2475240D01*
X+4636720Y-2261820D01*
X+3604900Y-1230000D01*
X+2730000Y-1230000D01*
X+2492530Y-1467470D01*
X+2330570Y-1619430D01*
X+2513280Y-1753880D02*
X+2513280Y-1741180D01*
X+2513280Y-1753880D01*
X+2538680Y-1791980D01*
X+2538680Y-1825000D01*
X+2538340Y-1865940D01*
X+5596940Y-3204200D02*
X+5454592Y-3204212D01*
X+4695140Y-2444760D01*
X+4695140Y-2244040D01*
X+3631100Y-1180000D01*
X+2690000Y-1180000D01*
X+2142440Y-1727560D01*
X+2142440Y-1979940D01*
X+2325320Y-1977400D02*
X+2330400Y-2012960D01*
X+2389340Y-2014940D01*
X+5363160Y-3013720D02*
X+4758640Y-2409200D01*
X+4758640Y-2226260D01*
X+3662380Y-1130000D01*
X+2650000Y-1130000D01*
X+2071320Y-1708680D01*
X+2071320Y-1929140D01*
X+2528520Y-2414280D02*
X+2463340Y-2414280D01*
X+2389340Y-2414940D01*
X+2389340Y-2364940D02*
X+2294840Y-2364940D01*
X+2269849Y-2368354D01*
X+2249695Y-2377734D01*
X+2236239Y-2391781D01*
X+2231340Y-2409200D01*
X+2227550Y-2460615D01*
X+2216643Y-2508163D01*
X+2199319Y-2550922D01*
X+2176274Y-2587972D01*
X+2148206Y-2618392D01*
X+2115812Y-2641260D01*
X+2079791Y-2655657D01*
X+2070581Y-2656840D01*
X+1537460Y-2656840D01*
X+1498100Y-2627300D01*
X+2250000Y-2940000D02*
X+2220000Y-2910000D01*
X+1820000Y-2910000D01*
X+1672420Y-2762420D01*
X+1654820Y-934720D02*
X+2164080Y-934720D01*
X+3237340Y-2264940D02*
X+3359100Y-2264940D01*
X+3600400Y-2506240D01*
X+3600400Y-2894340D01*
X+2588340Y-1865940D02*
X+2586940Y-1856772D01*
X+2586940Y-1603060D01*
X+2810000Y-1380000D01*
X+3521220Y-1380000D01*
X+4448827Y-2307607D01*
X+4450074Y-3009166D01*
X+4451300Y-3003560D01*
X+4451300Y-3006100D01*
X+4189680Y-3623320D02*
X+4189680Y-3745240D01*
X+4191000Y-3794760D01*
X+4176741Y-3798819D01*
X+4171900Y-3798580D01*
X+4190000Y-3812850D01*
X+4190000Y-3870000D01*
X+1553160Y-1863100D02*
X+1559023Y-1877421D01*
X+1594035Y-1863088D01*
X+1559014Y-1848776D01*
X+1553160Y-1863100D01*
X+1471880Y-3801120D02*
X+1477738Y-3815443D01*
X+1512755Y-3801120D01*
X+1477738Y-3786797D01*
X+1471880Y-3801120D01*
X+1471880Y-3849380D02*
X+1473185Y-3833961D01*
X+1435488Y-3830768D01*
X+1460143Y-3859464D01*
X+1471880Y-3849380D01*
D20*
X+1019760Y-3724920D02*
X+1023772Y-3736546D01*
X+1057460Y-3724920D01*
X+1023772Y-3713294D01*
X+1019760Y-3724920D01*
D10*
X+1005437Y-3730778D01*
X+1019760Y-3765795D01*
X+1034083Y-3730778D01*
X+1019760Y-3724920D01*
X+1019760Y-3770640D02*
X+1034083Y-3764782D01*
X+1019760Y-3729765D01*
X+1005437Y-3764782D01*
X+1019760Y-3770640D01*
X+1606500Y-3308360D02*
X+1612485Y-3294090D01*
X+1577597Y-3279457D01*
X+1592230Y-3314345D01*
X+1606500Y-3308360D01*
X+1612358Y-3322683D01*
X+1647375Y-3308360D01*
X+1612358Y-3294037D01*
X+1606500Y-3308360D01*
X+1667460Y-3308360D02*
X+1661602Y-3294037D01*
X+1626585Y-3308360D01*
X+1661602Y-3322683D01*
X+1667460Y-3308360D01*
X+1728420Y-3308360D02*
X+1734278Y-3322683D01*
X+1769295Y-3308360D01*
X+1734278Y-3294037D01*
X+1728420Y-3308360D01*
D71*
X+1588720Y-2297440D02*
X+1588748Y-2298309D01*
X+1614990Y-2297440D01*
X+1588748Y-2296571D01*
X+1588720Y-2297440D01*
X+1629360Y-2297440D02*
X+1629332Y-2296571D01*
X+1603090Y-2297440D01*
X+1629332Y-2298309D01*
X+1629360Y-2297440D01*
X+1629417Y-2298308D01*
X+1655616Y-2296584D01*
X+1629360Y-2296571D01*
X+1629360Y-2297440D01*
D10*
X+1520000Y-2120000D02*
X+1534323Y-2114142D01*
X+1520000Y-2079125D01*
X+1505677Y-2114142D01*
X+1520000Y-2120000D01*
X+1672420Y-2762420D02*
X+1666435Y-2776690D01*
X+1701323Y-2791323D01*
X+1686690Y-2756435D01*
X+1672420Y-2762420D01*
X+1654820Y-934720D02*
X+1660678Y-949043D01*
X+1695695Y-934720D01*
X+1660678Y-920397D01*
X+1654820Y-934720D01*
X+7005080Y-2376200D02*
X+6999222Y-2361877D01*
X+6964205Y-2376200D01*
X+6999222Y-2390523D01*
X+7005080Y-2376200D01*
X+5958440Y-2726980D02*
X+5952582Y-2712657D01*
X+5917565Y-2726980D01*
X+5952582Y-2741303D01*
X+5958440Y-2726980D01*
X+7005080Y-2710000D02*
X+6996082Y-2722589D01*
X+7026860Y-2744588D01*
X+7020322Y-2707326D01*
X+7005080Y-2710000D01*
X+6015940Y-2962920D02*
X+6009955Y-2977190D01*
X+6044843Y-2991823D01*
X+6030210Y-2956935D01*
X+6015940Y-2962920D01*
X+5772100Y-3135640D02*
X+5786423Y-3129782D01*
X+5772100Y-3094765D01*
X+5757777Y-3129782D01*
X+5772100Y-3135640D01*
X+5528260Y-3069600D02*
X+5534118Y-3083923D01*
X+5569135Y-3069600D01*
X+5534118Y-3055277D01*
X+5528260Y-3069600D01*
X+5736540Y-2094240D02*
X+5742398Y-2108563D01*
X+5777415Y-2094240D01*
X+5742398Y-2079917D01*
X+5736540Y-2094240D01*
D44*
X+5731815Y-2081520D01*
X+5697570Y-2094240D01*
X+5731815Y-2106960D01*
X+5736540Y-2094240D01*
X+5700980Y-2363800D02*
X+5696291Y-2351066D01*
X+5662010Y-2363690D01*
X+5696219Y-2376507D01*
X+5700980Y-2363800D01*
D10*
X+6125160Y-2942600D02*
X+6131018Y-2956923D01*
X+6166035Y-2942600D01*
X+6131018Y-2928277D01*
X+6125160Y-2942600D01*
X+5960060Y-2358400D02*
X+5954202Y-2344077D01*
X+5919185Y-2358400D01*
X+5954202Y-2372723D01*
X+5960060Y-2358400D01*
X+1934160Y-2274580D02*
X+1948483Y-2268722D01*
X+1934160Y-2233705D01*
X+1919837Y-2268722D01*
X+1934160Y-2274580D01*
X+1934160Y-2330460D02*
X+1940013Y-2344785D01*
X+1975035Y-2330475D01*
X+1940023Y-2316140D01*
X+1934160Y-2330460D01*
X+1948483Y-2324602D01*
X+1934160Y-2289585D01*
X+1919837Y-2324602D01*
X+1934160Y-2330460D01*
X+1928302Y-2316137D01*
X+1893285Y-2330460D01*
X+1928302Y-2344783D01*
X+1934160Y-2330460D01*
X+3691840Y-3625920D02*
X+3697825Y-3611650D01*
X+3662937Y-3597017D01*
X+3677570Y-3631905D01*
X+3691840Y-3625920D01*
X+3905200Y-3636020D02*
X+3911185Y-3621750D01*
X+3876297Y-3607117D01*
X+3890930Y-3642005D01*
X+3905200Y-3636020D01*
X+3276360Y-3539500D02*
X+3262090Y-3533515D01*
X+3247457Y-3568403D01*
X+3282345Y-3553770D01*
X+3276360Y-3539500D01*
X+3719780Y-3096080D02*
X+3734439Y-3091123D01*
X+3722320Y-3055284D01*
X+3705849Y-3089343D01*
X+3719780Y-3096080D01*
X+3181300Y-3478540D02*
X+3167307Y-3471934D01*
X+3151155Y-3506145D01*
X+3186652Y-3493059D01*
X+3181300Y-3478540D01*
X+3653740Y-3006100D02*
X+3669069Y-3003986D01*
X+3663900Y-2966508D01*
X+3641323Y-2996865D01*
X+3653740Y-3006100D01*
X+4430980Y-3628400D02*
X+4426023Y-3613741D01*
X+4390184Y-3625860D01*
X+4424243Y-3642331D01*
X+4430980Y-3628400D01*
X+4692600Y-3597920D02*
X+4698114Y-3583461D01*
X+4662766Y-3569980D01*
X+4678534Y-3604369D01*
X+4692600Y-3597920D01*
X+2157680Y-3112780D02*
X+2143357Y-3118638D01*
X+2157680Y-3153655D01*
X+2172003Y-3118638D01*
X+2157680Y-3112780D01*
X+2157680Y-3158500D02*
X+2172003Y-3152642D01*
X+2157680Y-3117625D01*
X+2143357Y-3152642D01*
X+2157680Y-3158500D01*
X+2172003Y-3152642D01*
X+2157680Y-3117625D01*
X+2143357Y-3152642D01*
X+2157680Y-3158500D01*
X+3539440Y-2998480D02*
X+3553763Y-2992622D01*
X+3539440Y-2957605D01*
X+3525117Y-2992622D01*
X+3539440Y-2998480D01*
D70*
X+2987596Y-2551409D02*
X+2986715Y-2561129D01*
X+3020354Y-2564181D01*
X+2993526Y-2543658D01*
X+2987596Y-2551409D01*
D71*
X+2988260Y-2378720D02*
X+2987391Y-2378748D01*
X+2988260Y-2404990D01*
X+2989129Y-2378748D01*
X+2988260Y-2378720D01*
D10*
X+4903420Y-3460760D02*
X+4897562Y-3446437D01*
X+4862545Y-3460760D01*
X+4897562Y-3475083D01*
X+4903420Y-3460760D01*
X+2518360Y-3084840D02*
X+2533108Y-3080155D01*
X+2521655Y-3044098D01*
X+2504556Y-3077846D01*
X+2518360Y-3084840D01*
D70*
X+3034890Y-2056140D02*
X+3044266Y-2053431D01*
X+3034890Y-2020980D01*
X+3025514Y-2053431D01*
X+3034890Y-2056140D01*
X+3186380Y-1953520D02*
X+3183671Y-1944144D01*
X+3151220Y-1953520D01*
X+3183671Y-1962896D01*
X+3186380Y-1953520D01*
D10*
X+3379420Y-3585220D02*
X+3389661Y-3573620D01*
X+3361301Y-3548581D01*
X+3363984Y-3586317D01*
X+3379420Y-3585220D01*
X+5728920Y-2724440D02*
X+5723062Y-2710117D01*
X+5688045Y-2724440D01*
X+5723062Y-2738763D01*
X+5728920Y-2724440D01*
X+5734778Y-2738763D01*
X+5769795Y-2724440D01*
X+5734778Y-2710117D01*
X+5728920Y-2724440D01*
X+7019240Y-2482860D02*
X+7013382Y-2468537D01*
X+6978365Y-2482860D01*
X+7013382Y-2497183D01*
X+7019240Y-2482860D01*
X+2604720Y-2289820D02*
X+2590397Y-2295678D01*
X+2604720Y-2330695D01*
X+2619043Y-2295678D01*
X+2604720Y-2289820D01*
X+2614390Y-999120D02*
X+2620248Y-1013443D01*
X+2655265Y-999120D01*
X+2620248Y-984797D01*
X+2614390Y-999120D01*
X+3170000Y-980000D02*
X+3175858Y-994323D01*
X+3210875Y-980000D01*
X+3175858Y-965677D01*
X+3170000Y-980000D01*
X+3640000Y-1070000D02*
X+3645858Y-1084323D01*
X+3680875Y-1070000D01*
X+3645858Y-1055677D01*
X+3640000Y-1070000D01*
X+3660000Y-990000D02*
X+3665858Y-1004323D01*
X+3700875Y-990000D01*
X+3665858Y-975677D01*
X+3660000Y-990000D01*
X+2665680Y-2401580D02*
X+2650206Y-2401726D01*
X+2650563Y-2439557D01*
X+2676820Y-2412320D01*
X+2665680Y-2401580D01*
X+2891740Y-2294900D02*
X+2877417Y-2300758D01*
X+2891740Y-2335775D01*
X+2906063Y-2300758D01*
X+2891740Y-2294900D01*
X+4110940Y-3623320D02*
X+4125263Y-3617462D01*
X+4110940Y-3582445D01*
X+4096617Y-3617462D01*
X+4110940Y-3623320D01*
X+4020000Y-3140720D02*
X+4034323Y-3134862D01*
X+4020000Y-3099845D01*
X+4005677Y-3134862D01*
X+4020000Y-3140720D01*
X+4020000Y-3590300D02*
X+4005023Y-3594192D01*
X+4014539Y-3630809D01*
X+4033411Y-3598019D01*
X+4020000Y-3590300D01*
X+4933900Y-3580000D02*
X+4939433Y-3565549D01*
X+4904102Y-3552021D01*
X+4919825Y-3586431D01*
X+4933900Y-3580000D01*
X+4771340Y-3336300D02*
X+4765482Y-3321977D01*
X+4730465Y-3336300D01*
X+4765482Y-3350623D01*
X+4771340Y-3336300D01*
X+5165040Y-3483620D02*
X+5150717Y-3489478D01*
X+5165040Y-3524495D01*
X+5179363Y-3489478D01*
X+5165040Y-3483620D01*
X+7015080Y-2600000D02*
X+7001229Y-2593100D01*
X+6984358Y-2626962D01*
X+7020124Y-2614629D01*
X+7015080Y-2600000D01*
X+4824680Y-3397260D02*
X+4818822Y-3382937D01*
X+4783805Y-3397260D01*
X+4818822Y-3411583D01*
X+4824680Y-3397260D01*
X+5378400Y-3625860D02*
X+5372415Y-3640130D01*
X+5407303Y-3654763D01*
X+5392670Y-3619875D01*
X+5378400Y-3625860D01*
X+6180000Y-3570000D02*
X+6165677Y-3575858D01*
X+6180000Y-3610875D01*
X+6194323Y-3575858D01*
X+6180000Y-3570000D01*
X+6040000Y-3570000D02*
X+6054323Y-3564142D01*
X+6040000Y-3529125D01*
X+6025677Y-3564142D01*
X+6040000Y-3570000D01*
X+6040000Y-3450000D02*
X+6025677Y-3455858D01*
X+6040000Y-3490875D01*
X+6054323Y-3455858D01*
X+6040000Y-3450000D01*
X+6730000Y-3070000D02*
X+6715677Y-3075858D01*
X+6730000Y-3110875D01*
X+6744323Y-3075858D01*
X+6730000Y-3070000D01*
X+6744323Y-3064142D01*
X+6730000Y-3029125D01*
X+6715677Y-3064142D01*
X+6730000Y-3070000D01*
X+6210000Y-2410000D02*
X+6215858Y-2424323D01*
X+6250875Y-2410000D01*
X+6215858Y-2395677D01*
X+6210000Y-2410000D01*
X+6590000Y-2410000D02*
X+6584142Y-2395677D01*
X+6549125Y-2410000D01*
X+6584142Y-2424323D01*
X+6590000Y-2410000D01*
X+6880000Y-2120000D02*
X+6894270Y-2125985D01*
X+6908903Y-2091097D01*
X+6874015Y-2105730D01*
X+6880000Y-2120000D01*
X+6150000Y-1990000D02*
X+6164323Y-1984142D01*
X+6150000Y-1949125D01*
X+6135677Y-1984142D01*
X+6150000Y-1990000D01*
X+6640000Y-3460000D02*
X+6654270Y-3465985D01*
X+6668903Y-3431097D01*
X+6634015Y-3445730D01*
X+6640000Y-3460000D01*
X+5210000Y-930000D02*
X+5195677Y-935858D01*
X+5210000Y-970875D01*
X+5224323Y-935858D01*
X+5210000Y-930000D01*
X+5210000Y-980000D02*
X+5224323Y-974142D01*
X+5210000Y-939125D01*
X+5195677Y-974142D01*
X+5210000Y-980000D01*
X+5210000Y-1030000D02*
X+5195677Y-1035858D01*
X+5210000Y-1070875D01*
X+5224323Y-1035858D01*
X+5210000Y-1030000D01*
X+5210000Y-1080000D02*
X+5224323Y-1074142D01*
X+5210000Y-1039125D01*
X+5195677Y-1074142D01*
X+5210000Y-1080000D01*
X+5220000Y-1300000D02*
X+5205677Y-1305858D01*
X+5220000Y-1340875D01*
X+5234323Y-1305858D01*
X+5220000Y-1300000D01*
X+5220000Y-1350000D02*
X+5234323Y-1344142D01*
X+5220000Y-1309125D01*
X+5205677Y-1344142D01*
X+5220000Y-1350000D01*
X+5220000Y-1400000D02*
X+5205677Y-1405858D01*
X+5220000Y-1440875D01*
X+5234323Y-1405858D01*
X+5220000Y-1400000D01*
X+5220000Y-1450000D02*
X+5234323Y-1444142D01*
X+5220000Y-1409125D01*
X+5205677Y-1444142D01*
X+5220000Y-1450000D01*
X+5220000Y-1710000D02*
X+5205677Y-1715858D01*
X+5220000Y-1750875D01*
X+5234323Y-1715858D01*
X+5220000Y-1710000D01*
X+5220000Y-1760000D02*
X+5234323Y-1754142D01*
X+5220000Y-1719125D01*
X+5205677Y-1754142D01*
X+5220000Y-1760000D01*
X+5220000Y-1810000D02*
X+5205677Y-1815858D01*
X+5220000Y-1850875D01*
X+5234323Y-1815858D01*
X+5220000Y-1810000D01*
X+5220000Y-1860000D02*
X+5234323Y-1854142D01*
X+5220000Y-1819125D01*
X+5205677Y-1854142D01*
X+5220000Y-1860000D01*
X+4430000Y-1770000D02*
X+4444323Y-1764142D01*
X+4430000Y-1729125D01*
X+4415677Y-1764142D01*
X+4430000Y-1770000D01*
X+4430000Y-1620000D02*
X+4444323Y-1614142D01*
X+4430000Y-1579125D01*
X+4415677Y-1614142D01*
X+4430000Y-1620000D01*
X+4230000Y-1450000D02*
X+4235858Y-1464323D01*
X+4270875Y-1450000D01*
X+4235858Y-1435677D01*
X+4230000Y-1450000D01*
X+5261560Y-2823220D02*
X+5260554Y-2807778D01*
X+5222801Y-2810238D01*
X+5251456Y-2834940D01*
X+5261560Y-2823220D01*
X+5610000Y-1450000D02*
X+5595621Y-1455719D01*
X+5609604Y-1490873D01*
X+5624265Y-1455997D01*
X+5610000Y-1450000D01*
X+4510000Y-2640000D02*
X+4504015Y-2654270D01*
X+4538903Y-2668903D01*
X+4524270Y-2634015D01*
X+4510000Y-2640000D01*
X+4570000Y-2700000D02*
X+4555403Y-2694864D01*
X+4542844Y-2730550D01*
X+4576812Y-2713894D01*
X+4570000Y-2700000D01*
X+4575985Y-2685730D01*
X+4541097Y-2671097D01*
X+4555730Y-2705985D01*
X+4570000Y-2700000D01*
X+3839160Y-2767340D02*
X+3853483Y-2761482D01*
X+3839160Y-2726465D01*
X+3824837Y-2761482D01*
X+3839160Y-2767340D01*
X+4530000Y-2990000D02*
X+4535985Y-2975730D01*
X+4501097Y-2961097D01*
X+4515730Y-2995985D01*
X+4530000Y-2990000D01*
X+3963620Y-2830000D02*
X+3977943Y-2824142D01*
X+3963620Y-2789125D01*
X+3949297Y-2824142D01*
X+3963620Y-2830000D01*
X+4560000Y-2830000D02*
X+4565858Y-2844323D01*
X+4600875Y-2830000D01*
X+4565858Y-2815677D01*
X+4560000Y-2830000D01*
X+5292040Y-3425200D02*
X+5298025Y-3410930D01*
X+5263137Y-3396297D01*
X+5277770Y-3431185D01*
X+5292040Y-3425200D01*
X+2710000Y-2160000D02*
X+2709223Y-2175455D01*
X+2747007Y-2177355D01*
X+2721385Y-2149520D01*
X+2710000Y-2160000D01*
X+2330000Y-1900000D02*
X+2335858Y-1914323D01*
X+2370875Y-1900000D01*
X+2335858Y-1885677D01*
X+2330000Y-1900000D01*
X+1932732Y-2509705D02*
X+1940191Y-2523263D01*
X+1973338Y-2505028D01*
X+1936913Y-2494806D01*
X+1932732Y-2509705D01*
X+1936700Y-2792740D02*
X+1931993Y-2807481D01*
X+1968031Y-2818991D01*
X+1950389Y-2785524D01*
X+1936700Y-2792740D01*
X+2260000Y-2860000D02*
X+2257824Y-2844679D01*
X+2220368Y-2850000D01*
X+2250816Y-2872454D01*
X+2260000Y-2860000D01*
X+2630000Y-2142939D02*
X+2645349Y-2144903D01*
X+2650153Y-2107377D01*
X+2620428Y-2130781D01*
X+2630000Y-2142939D01*
X+5680660Y-3620780D02*
X+5674802Y-3606457D01*
X+5639785Y-3620780D01*
X+5674802Y-3635103D01*
X+5680660Y-3620780D01*
X+4550000Y-2905136D02*
X+4555858Y-2919459D01*
X+4590875Y-2905136D01*
X+4555858Y-2890813D01*
X+4550000Y-2905136D01*
X+3999180Y-2942600D02*
X+4013450Y-2948585D01*
X+4028083Y-2913697D01*
X+3993195Y-2928330D01*
X+3999180Y-2942600D01*
X+5774640Y-3448060D02*
X+5788963Y-3442202D01*
X+5774640Y-3407185D01*
X+5760317Y-3442202D01*
X+5774640Y-3448060D01*
X+5510000Y-824280D02*
X+5504142Y-809957D01*
X+5469125Y-824280D01*
X+5504142Y-838603D01*
X+5510000Y-824280D01*
X+3907740Y-3102620D02*
X+3922029Y-3096680D01*
X+3907506Y-3061745D01*
X+3893384Y-3096844D01*
X+3907740Y-3102620D01*
X+3440000Y-3638560D02*
X+3425677Y-3644418D01*
X+3440000Y-3679435D01*
X+3454323Y-3644418D01*
X+3440000Y-3638560D01*
X+4563060Y-3216920D02*
X+4558103Y-3202261D01*
X+4522264Y-3214380D01*
X+4556323Y-3230851D01*
X+4563060Y-3216920D01*
X+4593540Y-3638560D02*
X+4587555Y-3652830D01*
X+4622443Y-3667463D01*
X+4607810Y-3632575D01*
X+4593540Y-3638560D01*
X+4504640Y-3138180D02*
X+4509347Y-3123439D01*
X+4473309Y-3111929D01*
X+4490951Y-3145396D01*
X+4504640Y-3138180D01*
X+4507180Y-3638560D02*
X+4492910Y-3632575D01*
X+4478277Y-3667463D01*
X+4513165Y-3652830D01*
X+4507180Y-3638560D01*
X+5571440Y-3539500D02*
X+5565582Y-3525177D01*
X+5530565Y-3539500D01*
X+5565582Y-3553823D01*
X+5571440Y-3539500D01*
X+5856180Y-3559820D02*
X+5850195Y-3574090D01*
X+5885083Y-3588723D01*
X+5870450Y-3553835D01*
X+5856180Y-3559820D01*
X+2330570Y-1619430D02*
X+2344642Y-1625866D01*
X+2360378Y-1591462D01*
X+2325043Y-1604976D01*
X+2330570Y-1619430D01*
X+2513280Y-1753880D02*
X+2504613Y-1766699D01*
X+2535953Y-1787890D01*
X+2528447Y-1750810D01*
X+2513280Y-1753880D01*
X+2142440Y-1979940D02*
X+2156763Y-1974082D01*
X+2142440Y-1939065D01*
X+2128117Y-1974082D01*
X+2142440Y-1979940D01*
X+2325320Y-1977400D02*
X+2315457Y-1989324D01*
X+2344609Y-2013437D01*
X+2340712Y-1975807D01*
X+2325320Y-1977400D01*
X+5363160Y-3013720D02*
X+5369145Y-2999450D01*
X+5334257Y-2984817D01*
X+5348890Y-3019705D01*
X+5363160Y-3013720D01*
X+2071320Y-1929140D02*
X+2085643Y-1923282D01*
X+2071320Y-1888265D01*
X+2056997Y-1923282D01*
X+2071320Y-1929140D01*
X+2528520Y-2414280D02*
X+2522662Y-2399957D01*
X+2487645Y-2414280D01*
X+2522662Y-2428603D01*
X+2528520Y-2414280D01*
X+2475180Y-3188980D02*
X+2481917Y-3202911D01*
X+2515976Y-3186440D01*
X+2480137Y-3174321D01*
X+2475180Y-3188980D01*
X+2481038Y-3203303D01*
X+2516055Y-3188980D01*
X+2481038Y-3174657D01*
X+2475180Y-3188980D01*
X+2250000Y-2940000D02*
X+2255985Y-2925730D01*
X+2221097Y-2911097D01*
X+2235730Y-2945985D01*
X+2250000Y-2940000D01*
X+2164080Y-934720D02*
X+2158222Y-920397D01*
X+2123205Y-934720D01*
X+2158222Y-949043D01*
X+2164080Y-934720D01*
X+3600400Y-2894340D02*
X+3614723Y-2888482D01*
X+3600400Y-2853465D01*
X+3586077Y-2888482D01*
X+3600400Y-2894340D01*
X+4451300Y-3006100D02*
X+4465428Y-2999788D01*
X+4449996Y-2965246D01*
X+4436798Y-3000702D01*
X+4451300Y-3006100D01*
X+4189680Y-3623320D02*
X+4175357Y-3629178D01*
X+4189680Y-3664195D01*
X+4204003Y-3629178D01*
X+4189680Y-3623320D01*
D21*
X+7005080Y-2376200D03*
X+6827440Y-2819260D03*
X+5958440Y-2726980D03*
X+7005080Y-2710000D03*
X+7052540Y-3481080D03*
X+7199634Y-3486160D03*
X+6902400Y-3473460D03*
X+6015940Y-2962920D03*
X+5772100Y-3135640D03*
X+5528260Y-3069600D03*
X+5848300Y-2907040D03*
X+5736540Y-2094240D03*
X+5700980Y-2363800D03*
X+6125160Y-2942600D03*
X+5960060Y-2358400D03*
X+1934160Y-2274580D03*
X+1929080Y-2211020D03*
X+1934160Y-2330460D03*
X+1553160Y-1863100D03*
X+1471880Y-3707140D03*
X+1471880Y-3752860D03*
X+1471880Y-3801120D03*
X+1471880Y-3849380D03*
X+1019760Y-3684280D03*
X+1019760Y-3724920D03*
X+1019760Y-3770640D03*
X+1019760Y-3811280D03*
X+1606500Y-3308360D03*
X+1667460Y-3308360D03*
X+1728420Y-3308360D03*
X+1804620Y-3308360D03*
X+1868120Y-3308360D03*
X+3691840Y-3625920D03*
X+3905200Y-3636020D03*
X+3276360Y-3539500D03*
X+3719780Y-3096080D03*
X+3181300Y-3478540D03*
X+3653740Y-3006100D03*
X+4430980Y-3628400D03*
X+4692600Y-3597920D03*
X+2157680Y-3112780D03*
X+2157680Y-3067060D03*
X+2157680Y-3158500D03*
X+3539440Y-2998480D03*
X+1682700Y-1233180D03*
X+2990800Y-2428580D03*
X+2985720Y-2592080D03*
X+2987596Y-2551409D03*
X+2988260Y-2378720D03*
X+4903420Y-3460760D03*
X+2518360Y-3084840D03*
X+2518360Y-3124210D03*
X+3034890Y-2056140D03*
X+3033260Y-2015500D03*
X+3186380Y-1953520D03*
X+3227020Y-1953520D03*
X+2015440Y-2990860D03*
X+3379420Y-3585220D03*
X+2061160Y-2990860D03*
X+5728920Y-2724440D03*
X+6902400Y-3470920D03*
X+7019240Y-2482860D03*
X+1588720Y-2297440D03*
X+1629360Y-2297440D03*
X+2604720Y-2289820D03*
X+2614390Y-999120D03*
X+3170000Y-980000D03*
X+3640000Y-1070000D03*
X+3660000Y-990000D03*
X+2665680Y-2401580D03*
X+2891740Y-2294900D03*
X+4110940Y-3623320D03*
X+4020000Y-3140720D03*
X+4020000Y-3590300D03*
X+4933900Y-3580000D03*
X+4771340Y-3336300D03*
X+5165040Y-3483620D03*
X+7015080Y-2600000D03*
X+4824680Y-3397260D03*
X+5378400Y-3625860D03*
X+6180000Y-3570000D03*
X+6040000Y-3570000D03*
X+6040000Y-3450000D03*
X+6180000Y-3450000D03*
X+6730000Y-3070000D03*
X+6730000Y-2700000D03*
X+6210000Y-2700000D03*
X+6210000Y-2410000D03*
X+6590000Y-2410000D03*
X+6880000Y-2120000D03*
X+6150000Y-1990000D03*
X+6950000Y-1990000D03*
X+6640000Y-3460000D03*
X+5210000Y-930000D03*
X+5210000Y-980000D03*
X+5210000Y-1030000D03*
X+5210000Y-1080000D03*
X+5210000Y-1130000D03*
X+4430000Y-1770000D03*
X+4430000Y-1620000D03*
X+4230000Y-1450000D03*
X+5261560Y-2823220D03*
X+5610000Y-1450000D03*
X+4510000Y-2640000D03*
X+4570000Y-2700000D03*
X+3839160Y-2767340D03*
X+4530000Y-2990000D03*
X+4600000Y-3110000D03*
X+3963620Y-2830000D03*
X+4560000Y-2830000D03*
X+5292040Y-3425200D03*
X+3386603Y-2541038D03*
X+3386603Y-2620000D03*
X+2200860Y-3623320D03*
X+2238960Y-3623320D03*
X+2279600Y-3623320D03*
X+2325320Y-3623320D03*
X+2325320Y-3564900D03*
X+2710000Y-2160000D03*
X+2550000Y-2140000D03*
X+1520000Y-2120000D03*
X+2330000Y-1900000D03*
X+1932732Y-2509705D03*
X+1936700Y-2792740D03*
X+2260000Y-2860000D03*
X+2630000Y-2142939D03*
X+5680660Y-3620780D03*
X+4550000Y-2905136D03*
X+3999180Y-2942600D03*
X+5774640Y-3448060D03*
X+5510000Y-824280D03*
X+6723367Y-1207379D03*
X+6655587Y-1207379D03*
X+6587807Y-1207379D03*
X+6520027Y-1207379D03*
X+6452247Y-1207379D03*
X+6384467Y-1207379D03*
X+6316687Y-1207379D03*
X+6248907Y-1207379D03*
X+6181140Y-1208730D03*
X+6113437Y-1211959D03*
X+6046757Y-1224123D03*
X+5982674Y-1246201D03*
X+5924626Y-1281195D03*
X+5877260Y-1329678D03*
X+5854370Y-1393476D03*
X+5853039Y-1461242D03*
X+5853039Y-1529022D03*
X+5691281Y-1501267D03*
X+5691281Y-1433487D03*
X+5691935Y-1365710D03*
X+5711253Y-1300741D03*
X+5741806Y-1240238D03*
X+5784253Y-1187395D03*
X+5836474Y-1144186D03*
X+5894902Y-1109830D03*
X+5957284Y-1083324D03*
X+6022257Y-1064019D03*
X+6088774Y-1050997D03*
X+6156340Y-1045621D03*
X+6224120Y-1045621D03*
X+6291900Y-1045621D03*
X+6359680Y-1045621D03*
X+6427460Y-1045621D03*
X+6495240Y-1045621D03*
X+6563020Y-1045621D03*
X+6630800Y-1045621D03*
X+6698580Y-1045621D03*
X+3907740Y-3102620D03*
X+3440000Y-3638560D03*
X+4563060Y-3216920D03*
X+4593540Y-3638560D03*
X+4504640Y-3138180D03*
X+4507180Y-3638560D03*
X+5571440Y-3539500D03*
X+5856180Y-3559820D03*
X+2330570Y-1619430D03*
X+2513280Y-1753880D03*
X+2142440Y-1979940D03*
X+2325320Y-1977400D03*
X+5363160Y-3013720D03*
X+2071320Y-1929140D03*
X+2528520Y-2414280D03*
X+2475180Y-3188980D03*
X+2250000Y-2940000D03*
X+1672420Y-2762420D03*
X+1654820Y-934720D03*
X+2164080Y-934720D03*
X+2364740Y-1135380D03*
X+3600400Y-2894340D03*
X+4451300Y-3006100D03*
X+4189680Y-3623320D03*
D20*
X+2614711Y-797188D02*
X+2614711Y-911489D01*
X+2784889Y-911489D01*
X+2784889Y-870004D01*
X+2824711Y-870004D01*
X+2824711Y-911489D01*
X+2994889Y-911489D01*
X+2994889Y-797224D01*
X+3205211Y-797244D01*
X+3205211Y-911489D01*
X+3375389Y-911489D01*
X+3375389Y-866404D01*
X+3415211Y-866404D01*
X+3415211Y-911489D01*
X+3585389Y-911489D01*
X+3585389Y-797279D01*
X+3815711Y-797301D01*
X+3815711Y-911489D01*
X+3985889Y-911489D01*
X+3985889Y-866404D01*
X+4005711Y-866404D01*
X+4005711Y-911489D01*
X+4175889Y-911489D01*
X+4175889Y-797335D01*
X+4402090Y-797356D01*
X+4402090Y-901000D01*
X+4572268Y-901000D01*
X+4572268Y-855915D01*
X+4632362Y-855915D01*
X+4632362Y-902540D01*
X+4802540Y-902540D01*
X+4802540Y-797394D01*
X+5298191Y-797441D01*
X+5298191Y-909369D01*
X+5468369Y-909369D01*
X+5468369Y-867191D01*
X+5478662Y-871401D01*
X+5487020Y-879759D01*
X+5532980Y-879759D01*
X+5565479Y-847260D01*
X+5565479Y-801300D01*
X+5561644Y-797465D01*
X+6513360Y-797555D01*
X+6513360Y-984092D01*
X+6537168Y-1007900D01*
X+6611424Y-1007900D01*
X+6621445Y-1017921D01*
X+6619326Y-1017921D01*
X+6603100Y-1034147D01*
X+6603100Y-1057095D01*
X+6619326Y-1073321D01*
X+6642274Y-1073321D01*
X+6658500Y-1057095D01*
X+6658500Y-1034147D01*
X+6647532Y-1023179D01*
X+6681848Y-1023179D01*
X+6670880Y-1034147D01*
X+6670880Y-1057095D01*
X+6687106Y-1073321D01*
X+6710054Y-1073321D01*
X+6726280Y-1057095D01*
X+6726280Y-1034147D01*
X+6715312Y-1023179D01*
X+6751497Y-1023179D01*
X+6766776Y-1007900D01*
X+6806702Y-1007900D01*
X+6762761Y-1051841D01*
X+6762761Y-1201239D01*
X+6868401Y-1306879D01*
X+7017799Y-1306879D01*
X+7123439Y-1201239D01*
X+7123439Y-1051841D01*
X+7079498Y-1007900D01*
X+7119424Y-1007900D01*
X+7134703Y-1023179D01*
X+7259497Y-1023179D01*
X+7274776Y-1007900D01*
X+7297433Y-1007900D01*
X+7298329Y-4005734D01*
X+6323010Y-4005578D01*
X+6299200Y-4029386D01*
X+6299200Y-4178300D01*
X+5382260Y-4178300D01*
X+5382260Y-4075739D01*
X+5540329Y-4075739D01*
X+5540329Y-3664261D01*
X+5473375Y-3664261D01*
X+5469898Y-3660784D01*
X+5631922Y-3660784D01*
X+5640422Y-3664261D01*
X+5589671Y-3664261D01*
X+5589671Y-4075739D01*
X+5790329Y-4075739D01*
X+5790329Y-3664261D01*
X+5779084Y-3664261D01*
X+5779084Y-3571190D01*
X+5644523Y-3436629D01*
X+5679389Y-3436629D01*
X+5679389Y-3289289D01*
X+5681931Y-3289289D01*
X+5681931Y-3436629D01*
X+5719161Y-3436629D01*
X+5719161Y-3471040D01*
X+5751660Y-3503539D01*
X+5797620Y-3503539D01*
X+5830119Y-3471040D01*
X+5830119Y-3436629D01*
X+5852109Y-3436629D01*
X+5852109Y-3289289D01*
X+5854749Y-3289289D01*
X+5854749Y-3154689D01*
X+5857189Y-3154689D01*
X+5857189Y-3015623D01*
X+5902849Y-3015623D01*
X+5984130Y-3096904D01*
X+6268610Y-3096904D01*
X+6339156Y-3167450D01*
X+6339156Y-3665290D01*
X+6659770Y-3985904D01*
X+7096770Y-3985904D01*
X+7242124Y-3840550D01*
X+7242124Y-3801289D01*
X+7285089Y-3801289D01*
X+7285089Y-3631111D01*
X+7132549Y-3631111D01*
X+7132549Y-3628569D01*
X+7285089Y-3628569D01*
X+7285089Y-3458391D01*
X+7250324Y-3458391D01*
X+7222614Y-3430681D01*
X+7176654Y-3430681D01*
X+7173424Y-3433910D01*
X+7066864Y-3327350D01*
X+7066864Y-2725370D01*
X+7063515Y-2722021D01*
X+7060559Y-2705172D01*
X+7060559Y-2687020D01*
X+7029018Y-2655479D01*
X+7038060Y-2655479D01*
X+7070559Y-2622980D01*
X+7070559Y-2577020D01*
X+7038060Y-2544521D01*
X+6992100Y-2544521D01*
X+6959601Y-2577020D01*
X+6959601Y-2586946D01*
X+6951460Y-2603286D01*
X+6927164Y-2627582D01*
X+6927164Y-2573090D01*
X+6975390Y-2524864D01*
X+6987902Y-2529981D01*
X+6996260Y-2538339D01*
X+7042220Y-2538339D01*
X+7074719Y-2505840D01*
X+7074719Y-2459880D01*
X+7042220Y-2427381D01*
X+7032358Y-2427381D01*
X+7060559Y-2399180D01*
X+7060559Y-2353220D01*
X+7028060Y-2320721D01*
X+6982100Y-2320721D01*
X+6973742Y-2329079D01*
X+6956342Y-2336196D01*
X+6832310Y-2336196D01*
X+6598510Y-2569996D01*
X+5931979Y-2569996D01*
X+5931979Y-2536541D01*
X+5748021Y-2536541D01*
X+5748021Y-2550171D01*
X+5714989Y-2550171D01*
X+5714989Y-2461211D01*
X+5675479Y-2461211D01*
X+5675479Y-2378021D01*
X+5514521Y-2378021D01*
X+5514521Y-2478979D01*
X+5544811Y-2478979D01*
X+5544811Y-2631389D01*
X+5655621Y-2631389D01*
X+5658221Y-2633989D01*
X+5748021Y-2633989D01*
X+5748021Y-2662499D01*
X+5931979Y-2662499D01*
X+5931979Y-2650004D01*
X+6631650Y-2650004D01*
X+6865450Y-2416204D01*
X+6956342Y-2416204D01*
X+6973742Y-2423321D01*
X+6982100Y-2431679D01*
X+6991962Y-2431679D01*
X+6987902Y-2435739D01*
X+6970502Y-2442856D01*
X+6944250Y-2442856D01*
X+6847156Y-2539950D01*
X+6847156Y-2763781D01*
X+6804460Y-2763781D01*
X+6790105Y-2778136D01*
X+6735970Y-2778136D01*
X+6734850Y-2779256D01*
X+5931719Y-2779256D01*
X+5931719Y-2758821D01*
X+5747761Y-2758821D01*
X+5747761Y-2785756D01*
X+5593090Y-2785756D01*
X+5370004Y-2562670D01*
X+5370004Y-2478979D01*
X+5485479Y-2478979D01*
X+5485479Y-2248021D01*
X+5476927Y-2248021D01*
X+5588799Y-2136149D01*
X+5690040Y-2136149D01*
X+5705870Y-2142029D01*
X+5713560Y-2149719D01*
X+5748021Y-2149719D01*
X+5748021Y-2151379D01*
X+5931979Y-2151379D01*
X+5931979Y-2051023D01*
X+5967681Y-2086725D01*
X+5967681Y-2152555D01*
X+5939635Y-2180601D01*
X+5931979Y-2180601D01*
X+5931979Y-2153361D01*
X+5748021Y-2153361D01*
X+5748021Y-2256591D01*
X+5675479Y-2256591D01*
X+5675479Y-2248021D01*
X+5514521Y-2248021D01*
X+5514521Y-2348979D01*
X+5675479Y-2348979D01*
X+5675479Y-2340409D01*
X+5685197Y-2340409D01*
X+5673280Y-2352326D01*
X+5673280Y-2375274D01*
X+5689506Y-2391500D01*
X+5712454Y-2391500D01*
X+5728680Y-2375274D01*
X+5728680Y-2352326D01*
X+5716763Y-2340409D01*
X+5721721Y-2340409D01*
X+5748021Y-2366709D01*
X+5748021Y-2407259D01*
X+5930460Y-2407259D01*
X+5931802Y-2408601D01*
X+5748021Y-2408601D01*
X+5748021Y-2534559D01*
X+5931979Y-2534559D01*
X+5931979Y-2408778D01*
X+5937080Y-2413879D01*
X+5983040Y-2413879D01*
X+6015539Y-2381380D01*
X+6015539Y-2335420D01*
X+5983040Y-2302921D01*
X+5937080Y-2302921D01*
X+5931979Y-2308022D01*
X+5931979Y-2281301D01*
X+5781149Y-2281301D01*
X+5779167Y-2279319D01*
X+5931979Y-2279319D01*
X+5931979Y-2266959D01*
X+5975405Y-2266959D01*
X+6054039Y-2188325D01*
X+6054039Y-2050955D01*
X+5965245Y-1962161D01*
X+5515455Y-1962161D01*
X+5245307Y-2232309D01*
X+5245307Y-2209888D01*
X+5646526Y-1808669D01*
X+5649677Y-1498776D01*
X+5656924Y-1481535D01*
X+5665479Y-1472980D01*
X+5665479Y-1446859D01*
X+5679807Y-1461187D01*
X+5702755Y-1461187D01*
X+5718981Y-1444961D01*
X+5718981Y-1422013D01*
X+5702755Y-1405787D01*
X+5679807Y-1405787D01*
X+5663581Y-1422013D01*
X+5663581Y-1425122D01*
X+5632980Y-1394521D01*
X+5587020Y-1394521D01*
X+5554521Y-1427020D01*
X+5554521Y-1472980D01*
X+5562680Y-1481139D01*
X+5569398Y-1498028D01*
X+5566832Y-1775215D01*
X+5165299Y-2176748D01*
X+5165299Y-2759285D01*
X+4798644Y-2392630D01*
X+4798644Y-2209690D01*
X+3698958Y-1110004D01*
X+3743430Y-1110004D01*
X+3813430Y-1180004D01*
X+4346570Y-1180004D01*
X+4452854Y-1073720D01*
X+4572268Y-1073720D01*
X+4572268Y-903542D01*
X+4402090Y-903542D01*
X+4402090Y-1011336D01*
X+4313430Y-1099996D01*
X+3846570Y-1099996D01*
X+3830783Y-1084209D01*
X+3985889Y-1084209D01*
X+3985889Y-914031D01*
X+3815711Y-914031D01*
X+3815711Y-949996D01*
X+3708738Y-949996D01*
X+3691338Y-942879D01*
X+3682980Y-934521D01*
X+3637020Y-934521D01*
X+3604521Y-967020D01*
X+3604521Y-1012980D01*
X+3611541Y-1020000D01*
X+3584521Y-1047020D01*
X+3584521Y-1089996D01*
X+2633430Y-1089996D01*
X+2031316Y-1692110D01*
X+2031316Y-1880402D01*
X+2024199Y-1897802D01*
X+2015841Y-1906160D01*
X+2015841Y-1952120D01*
X+2016932Y-1953211D01*
X+1946859Y-1953211D01*
X+1946859Y-1921521D01*
X+1912669Y-1921521D01*
X+1912669Y-1752591D01*
X+1898599Y-1752591D01*
X+1898599Y-1744969D01*
X+1917749Y-1744969D01*
X+1917749Y-1574791D01*
X+1747571Y-1574791D01*
X+1747571Y-1744969D01*
X+1761441Y-1744969D01*
X+1761441Y-1752591D01*
X+1742491Y-1752591D01*
X+1742491Y-1846205D01*
X+1667175Y-1921521D01*
X+1550621Y-1921521D01*
X+1550621Y-2129799D01*
X+1588721Y-2129799D01*
X+1588721Y-2208389D01*
X+1592531Y-2212199D01*
X+1592531Y-2241961D01*
X+1565740Y-2241961D01*
X+1533241Y-2274460D01*
X+1533241Y-2320420D01*
X+1565740Y-2352919D01*
X+1652340Y-2352919D01*
X+1653210Y-2352049D01*
X+1677379Y-2352049D01*
X+1732229Y-2297199D01*
X+1732229Y-2296169D01*
X+1762709Y-2296169D01*
X+1762709Y-2125991D01*
X+1733499Y-2125991D01*
X+1733499Y-2013245D01*
X+1763981Y-1982763D01*
X+1763981Y-2129799D01*
X+1946859Y-2129799D01*
X+1946859Y-2123389D01*
X+2043792Y-2123389D01*
X+2045921Y-2146197D01*
X+2053546Y-2162889D01*
X+2060654Y-2171072D01*
X+2076130Y-2188887D01*
X+2105153Y-2203782D01*
X+2138070Y-2211079D01*
X+2321397Y-2211079D01*
X+2321817Y-2210659D01*
X+2376640Y-2210659D01*
X+2376640Y-2219461D01*
X+2284861Y-2219461D01*
X+2284861Y-2224416D01*
X+2143650Y-2224416D01*
X+2051636Y-2316430D01*
X+2051636Y-2390130D01*
X+2023635Y-2418131D01*
X+1953209Y-2418131D01*
X+1953209Y-2418091D01*
X+1783031Y-2418091D01*
X+1783031Y-2556138D01*
X+1754410Y-2553914D01*
X+1710156Y-2539507D01*
X+1697282Y-2531862D01*
X+1689221Y-2524513D01*
X+1687260Y-2521355D01*
X+1685290Y-2501726D01*
X+1681865Y-2498301D01*
X+1668645Y-2474734D01*
X+1664827Y-2470880D01*
X+1649237Y-2455146D01*
X+1645738Y-2452845D01*
X+1624957Y-2439182D01*
X+1583189Y-2424129D01*
X+1583189Y-2369491D01*
X+1448105Y-2369491D01*
X+1275090Y-2196476D01*
X+1195959Y-2196476D01*
X+1195959Y-1977155D01*
X+1231851Y-1941263D01*
X+1231851Y-1950729D01*
X+1402029Y-1950729D01*
X+1402029Y-1780551D01*
X+1231851Y-1780551D01*
X+1231851Y-1828115D01*
X+1195959Y-1864007D01*
X+1195959Y-1826341D01*
X+985001Y-1826341D01*
X+985001Y-2437299D01*
X+1195959Y-2437299D01*
X+1195959Y-2276484D01*
X+1241950Y-2276484D01*
X+1413011Y-2447545D01*
X+1413011Y-2539669D01*
X+1583189Y-2539669D01*
X+1583189Y-2509173D01*
X+1588921Y-2511239D01*
X+1598288Y-2517397D01*
X+1604176Y-2523339D01*
X+1605093Y-2524974D01*
X+1605283Y-2534870D01*
X+1610797Y-2549880D01*
X+1627111Y-2576154D01*
X+1649416Y-2596488D01*
X+1652923Y-2598571D01*
X+1676937Y-2612832D01*
X+1689236Y-2616836D01*
X+1583189Y-2616836D01*
X+1583189Y-2542211D01*
X+1413011Y-2542211D01*
X+1413011Y-2618116D01*
X+1397610Y-2618116D01*
X+1195959Y-2819767D01*
X+1195959Y-2676341D01*
X+985001Y-2676341D01*
X+985001Y-3287299D01*
X+1195959Y-3287299D01*
X+1195959Y-3262604D01*
X+1307811Y-3262604D01*
X+1307811Y-3307689D01*
X+1477989Y-3307689D01*
X+1477989Y-3137511D01*
X+1307811Y-3137511D01*
X+1307811Y-3182596D01*
X+1195959Y-3182596D01*
X+1195959Y-2932915D01*
X+1416485Y-2712389D01*
X+1583189Y-2712389D01*
X+1583189Y-2696844D01*
X+2087151Y-2696844D01*
X+2089919Y-2694689D01*
X+2135035Y-2676657D01*
X+2151782Y-2664834D01*
X+2174733Y-2648633D01*
X+2208244Y-2612314D01*
X+2235103Y-2569131D01*
X+2236395Y-2565943D01*
X+2254921Y-2520217D01*
X+2267222Y-2466591D01*
X+2271344Y-2425770D01*
X+2273551Y-2410755D01*
X+2280429Y-2407554D01*
X+2284861Y-2407180D01*
X+2284861Y-2610419D01*
X+2323416Y-2610419D01*
X+2323416Y-2783328D01*
X+2317701Y-2789043D01*
X+2317701Y-2804171D01*
X+2273251Y-2804171D01*
X+2273251Y-2804521D01*
X+2237020Y-2804521D01*
X+2233863Y-2807678D01*
X+2217544Y-2809996D01*
X+2015610Y-2809996D01*
X+2000596Y-2794982D01*
X+1992179Y-2779015D01*
X+1992179Y-2769760D01*
X+1959680Y-2737261D01*
X+1913720Y-2737261D01*
X+1881221Y-2769760D01*
X+1881221Y-2815720D01*
X+1913720Y-2848219D01*
X+1928061Y-2848219D01*
X+1946609Y-2854143D01*
X+1962462Y-2869996D01*
X+1836570Y-2869996D01*
X+1735170Y-2768596D01*
X+1727899Y-2751260D01*
X+1727899Y-2739440D01*
X+1695400Y-2706941D01*
X+1649440Y-2706941D01*
X+1616941Y-2739440D01*
X+1616941Y-2785400D01*
X+1649440Y-2817899D01*
X+1661260Y-2817899D01*
X+1678596Y-2825170D01*
X+1803430Y-2950004D01*
X+2194036Y-2950004D01*
X+2194521Y-2951160D01*
X+2194521Y-2962980D01*
X+2219462Y-2987922D01*
X+2188514Y-3018870D01*
X+2180826Y-3011181D01*
X+2134534Y-3011181D01*
X+2101801Y-3043914D01*
X+2101801Y-3181646D01*
X+2134534Y-3214379D01*
X+2175355Y-3214379D01*
X+2609801Y-3648825D01*
X+2609801Y-3664261D01*
X+2589671Y-3664261D01*
X+2589671Y-4075739D01*
X+2776323Y-4075739D01*
X+2776679Y-4177725D01*
X+1859280Y-4178277D01*
X+1859280Y-4075739D01*
X+2040329Y-4075739D01*
X+2040329Y-3961139D01*
X+2089671Y-3961139D01*
X+2089671Y-4075739D01*
X+2290329Y-4075739D01*
X+2290329Y-3691899D01*
X+2353726Y-3691899D01*
X+2393899Y-3651726D01*
X+2393899Y-3536494D01*
X+2353726Y-3496321D01*
X+2296914Y-3496321D01*
X+2256741Y-3536494D01*
X+2256741Y-3554741D01*
X+2172454Y-3554741D01*
X+2132281Y-3594914D01*
X+2132281Y-3664261D01*
X+2089671Y-3664261D01*
X+2089671Y-3798581D01*
X+2040329Y-3798581D01*
X+2040329Y-3664261D01*
X+1839671Y-3664261D01*
X+1839671Y-3776021D01*
X+1751119Y-3776021D01*
X+1751119Y-3385901D01*
X+1466641Y-3385901D01*
X+1466641Y-3597385D01*
X+1393776Y-3670250D01*
X+1393776Y-3699071D01*
X+1392321Y-3700526D01*
X+1392321Y-3789954D01*
X+1393776Y-3791409D01*
X+1393776Y-3845630D01*
X+1406140Y-3857994D01*
X+1416401Y-3869937D01*
X+1416401Y-3872360D01*
X+1448900Y-3904859D01*
X+1494860Y-3904859D01*
X+1510335Y-3889384D01*
X+1549290Y-3889384D01*
X+1630570Y-3970664D01*
X+1839671Y-3970664D01*
X+1839671Y-4009779D01*
X+1835470Y-4005578D01*
X+859620Y-4005734D01*
X+859620Y-797023D01*
X+2614711Y-797188D01*
X+6663129Y-1317840D02*
X+6715071Y-1317840D01*
X+6751800Y-1354569D01*
X+6751800Y-1406511D01*
X+6715071Y-1443240D01*
X+6663129Y-1443240D01*
X+6626400Y-1406511D01*
X+6626400Y-1354569D01*
X+6663129Y-1317840D01*
X+7171129Y-1317840D02*
X+7223071Y-1317840D01*
X+7259800Y-1354569D01*
X+7259800Y-1406511D01*
X+7223071Y-1443240D01*
X+7171129Y-1443240D01*
X+7134400Y-1406511D01*
X+7134400Y-1354569D01*
X+7171129Y-1317840D01*
X+5582300Y-2368761D02*
X+5582300Y-2358239D01*
X+5589739Y-2350800D01*
X+5600261Y-2350800D01*
X+5607700Y-2358239D01*
X+5607700Y-2368761D01*
X+5600261Y-2376200D01*
X+5589739Y-2376200D01*
X+5582300Y-2368761D01*
X+1149140Y-3611779D02*
X+1149140Y-3622301D01*
X+1141701Y-3629740D01*
X+1131179Y-3629740D01*
X+1123740Y-3622301D01*
X+1123740Y-3611779D01*
X+1131179Y-3604340D01*
X+1141701Y-3604340D01*
X+1149140Y-3611779D01*
X+5834739Y-2714280D02*
X+5845261Y-2714280D01*
X+5852700Y-2721719D01*
X+5852700Y-2732241D01*
X+5845261Y-2739680D01*
X+5834739Y-2739680D01*
X+5827300Y-2732241D01*
X+5827300Y-2721719D01*
X+5834739Y-2714280D01*
X+6011260Y-1911179D02*
X+6011260Y-1921701D01*
X+6003821Y-1929140D01*
X+5993299Y-1929140D01*
X+5985860Y-1921701D01*
X+5985860Y-1911179D01*
X+5993299Y-1903740D01*
X+6003821Y-1903740D01*
X+6011260Y-1911179D01*
X+7215560Y-1912339D02*
X+7215560Y-1922861D01*
X+7208121Y-1930300D01*
X+7197599Y-1930300D01*
X+7190160Y-1922861D01*
X+7190160Y-1912339D01*
X+7197599Y-1904900D01*
X+7208121Y-1904900D01*
X+7215560Y-1912339D01*
X+7212680Y-3206699D02*
X+7212680Y-3217221D01*
X+7205241Y-3224660D01*
X+7194719Y-3224660D01*
X+7187280Y-3217221D01*
X+7187280Y-3206699D01*
X+7194719Y-3199260D01*
X+7205241Y-3199260D01*
X+7212680Y-3206699D01*
X+6011260Y-3206419D02*
X+6011260Y-3216941D01*
X+6003821Y-3224380D01*
X+5993299Y-3224380D01*
X+5985860Y-3216941D01*
X+5985860Y-3206419D01*
X+5993299Y-3198980D01*
X+6003821Y-3198980D01*
X+6011260Y-3206419D01*
X+2427300Y-3875261D02*
X+2427300Y-3864739D01*
X+2434739Y-3857300D01*
X+2445261Y-3857300D01*
X+2452700Y-3864739D01*
X+2452700Y-3875261D01*
X+2445261Y-3882700D01*
X+2434739Y-3882700D01*
X+2427300Y-3875261D01*
X+5911659Y-3536840D02*
X+5911659Y-3548660D01*
X+5918930Y-3565996D01*
X+5980004Y-3627070D01*
X+5980004Y-3664261D01*
X+6040329Y-3664261D01*
X+6040329Y-4075739D01*
X+5839671Y-4075739D01*
X+5839671Y-3664261D01*
X+5899996Y-3664261D01*
X+5899996Y-3660210D01*
X+5862356Y-3622570D01*
X+5845020Y-3615299D01*
X+5833200Y-3615299D01*
X+5800701Y-3582800D01*
X+5800701Y-3536840D01*
X+5833200Y-3504341D01*
X+5879160Y-3504341D01*
X+5911659Y-3536840D01*
X+6177300Y-3875261D02*
X+6177300Y-3864739D01*
X+6184739Y-3857300D01*
X+6195261Y-3857300D01*
X+6202700Y-3864739D01*
X+6202700Y-3875261D01*
X+6195261Y-3882700D01*
X+6184739Y-3882700D01*
X+6177300Y-3875261D01*
X+1269678Y-1629280D02*
X+1230162Y-1629280D01*
X+1202220Y-1601338D01*
X+1202220Y-1561822D01*
X+1230162Y-1533880D01*
X+1269678Y-1533880D01*
X+1297620Y-1561822D01*
X+1297620Y-1601338D01*
X+1269678Y-1629280D01*
X+1269678Y-1139280D02*
X+1230162Y-1139280D01*
X+1202220Y-1111338D01*
X+1202220Y-1071822D01*
X+1230162Y-1043880D01*
X+1269678Y-1043880D01*
X+1297620Y-1071822D01*
X+1297620Y-1111338D01*
X+1269678Y-1139280D01*
X+996462Y-1735280D02*
X+964898Y-1735280D01*
X+942580Y-1712962D01*
X+942580Y-1681398D01*
X+964898Y-1659080D01*
X+996462Y-1659080D01*
X+1018780Y-1681398D01*
X+1018780Y-1712962D01*
X+996462Y-1735280D01*
X+996462Y-1011380D02*
X+964898Y-1011380D01*
X+942580Y-989062D01*
X+942580Y-957498D01*
X+964898Y-935180D01*
X+996462Y-935180D01*
X+1018780Y-957498D01*
X+1018780Y-989062D01*
X+996462Y-1011380D01*
X+1552920Y-3227861D02*
X+1552920Y-3217339D01*
X+1560359Y-3209900D01*
X+1570881Y-3209900D01*
X+1578320Y-3217339D01*
X+1578320Y-3227861D01*
X+1570881Y-3235300D01*
X+1560359Y-3235300D01*
X+1552920Y-3227861D01*
X+5624639Y-2706320D02*
X+5635161Y-2706320D01*
X+5642600Y-2713759D01*
X+5642600Y-2724281D01*
X+5635161Y-2731720D01*
X+5624639Y-2731720D01*
X+5617200Y-2724281D01*
X+5617200Y-2713759D01*
X+5624639Y-2706320D01*
X+5388541Y-1009700D02*
X+5378019Y-1009700D01*
X+5370580Y-1002261D01*
X+5370580Y-991739D01*
X+5378019Y-984300D01*
X+5388541Y-984300D01*
X+5395980Y-991739D01*
X+5395980Y-1002261D01*
X+5388541Y-1009700D01*
X+2008041Y-2223720D02*
X+1997519Y-2223720D01*
X+1990080Y-2216281D01*
X+1990080Y-2205759D01*
X+1997519Y-2198320D01*
X+2008041Y-2198320D01*
X+2015480Y-2205759D01*
X+2015480Y-2216281D01*
X+2008041Y-2223720D01*
X+1837640Y-2216341D02*
X+1837640Y-2205819D01*
X+1845079Y-2198380D01*
X+1855601Y-2198380D01*
X+1863040Y-2205819D01*
X+1863040Y-2216341D01*
X+1855601Y-2223780D01*
X+1845079Y-2223780D01*
X+1837640Y-2216341D01*
X+1997539Y-2317800D02*
X+2008061Y-2317800D01*
X+2015500Y-2325239D01*
X+2015500Y-2335761D01*
X+2008061Y-2343200D01*
X+1997539Y-2343200D01*
X+1990100Y-2335761D01*
X+1990100Y-2325239D01*
X+1997539Y-2317800D01*
X+1862859Y-2317760D02*
X+1873381Y-2317760D01*
X+1880820Y-2325199D01*
X+1880820Y-2335721D01*
X+1873381Y-2343160D01*
X+1862859Y-2343160D01*
X+1855420Y-2335721D01*
X+1855420Y-2325199D01*
X+1862859Y-2317760D01*
X+1647240Y-1665141D02*
X+1647240Y-1654619D01*
X+1654679Y-1647180D01*
X+1665201Y-1647180D01*
X+1672640Y-1654619D01*
X+1672640Y-1665141D01*
X+1665201Y-1672580D01*
X+1654679Y-1672580D01*
X+1647240Y-1665141D01*
X+1642160Y-1842941D02*
X+1642160Y-1832419D01*
X+1649599Y-1824980D01*
X+1660121Y-1824980D01*
X+1667560Y-1832419D01*
X+1667560Y-1842941D01*
X+1660121Y-1850380D01*
X+1649599Y-1850380D01*
X+1642160Y-1842941D01*
X+1502360Y-1860379D02*
X+1502360Y-1870901D01*
X+1494921Y-1878340D01*
X+1484399Y-1878340D01*
X+1476960Y-1870901D01*
X+1476960Y-1860379D01*
X+1484399Y-1852940D01*
X+1494921Y-1852940D01*
X+1502360Y-1860379D01*
X+3505561Y-1011820D02*
X+3495039Y-1011820D01*
X+3487600Y-1004381D01*
X+3487600Y-993859D01*
X+3495039Y-986420D01*
X+3505561Y-986420D01*
X+3513000Y-993859D01*
X+3513000Y-1004381D01*
X+3505561Y-1011820D01*
X+4096061Y-1011820D02*
X+4085539Y-1011820D01*
X+4078100Y-1004381D01*
X+4078100Y-993859D01*
X+4085539Y-986420D01*
X+4096061Y-986420D01*
X+4103500Y-993859D01*
X+4103500Y-1004381D01*
X+4096061Y-1011820D01*
X+4722712Y-1002871D02*
X+4712190Y-1002871D01*
X+4704751Y-995432D01*
X+4704751Y-984910D01*
X+4712190Y-977471D01*
X+4722712Y-977471D01*
X+4730151Y-984910D01*
X+4730151Y-995432D01*
X+4722712Y-1002871D01*
X+2915061Y-1011820D02*
X+2904539Y-1011820D01*
X+2897100Y-1004381D01*
X+2897100Y-993859D01*
X+2904539Y-986420D01*
X+2915061Y-986420D01*
X+2922500Y-993859D01*
X+2922500Y-1004381D01*
X+2915061Y-1011820D01*
X+2784889Y-1084209D02*
X+2614711Y-1084209D01*
X+2614711Y-1054599D01*
X+2591410Y-1054599D01*
X+2558911Y-1022100D01*
X+2558911Y-976140D01*
X+2591410Y-943641D01*
X+2614711Y-943641D01*
X+2614711Y-914031D01*
X+2784889Y-914031D01*
X+2784889Y-1084209D01*
X+3375389Y-1084209D02*
X+3205211Y-1084209D01*
X+3205211Y-1025537D01*
X+3201338Y-1027121D01*
X+3192980Y-1035479D01*
X+3147020Y-1035479D01*
X+3114521Y-1002980D01*
X+3114521Y-957020D01*
X+3147020Y-924521D01*
X+3192980Y-924521D01*
X+3201338Y-932879D01*
X+3205211Y-934463D01*
X+3205211Y-914031D01*
X+3375389Y-914031D01*
X+3375389Y-1084209D01*
X+5930740Y-2738454D02*
X+5930740Y-2715506D01*
X+5946966Y-2699280D01*
X+5969914Y-2699280D01*
X+5986140Y-2715506D01*
X+5986140Y-2738454D01*
X+5969914Y-2754680D01*
X+5946966Y-2754680D01*
X+5930740Y-2738454D01*
X+5355580Y-1084634D02*
X+5355580Y-1061686D01*
X+5371806Y-1045460D01*
X+5394754Y-1045460D01*
X+5410980Y-1061686D01*
X+5410980Y-1084634D01*
X+5394754Y-1100860D01*
X+5371806Y-1100860D01*
X+5355580Y-1084634D01*
X+1906460Y-2286054D02*
X+1906460Y-2263106D01*
X+1922686Y-2246880D01*
X+1945634Y-2246880D01*
X+1961860Y-2263106D01*
X+1961860Y-2286054D01*
X+1945634Y-2302280D01*
X+1922686Y-2302280D01*
X+1906460Y-2286054D01*
X+1901380Y-2222494D02*
X+1901380Y-2199546D01*
X+1917606Y-2183320D01*
X+1940554Y-2183320D01*
X+1956780Y-2199546D01*
X+1956780Y-2222494D01*
X+1940554Y-2238720D01*
X+1917606Y-2238720D01*
X+1901380Y-2222494D01*
X+1906460Y-2341934D02*
X+1906460Y-2318986D01*
X+1922686Y-2302760D01*
X+1945634Y-2302760D01*
X+1961860Y-2318986D01*
X+1961860Y-2341934D01*
X+1945634Y-2358160D01*
X+1922686Y-2358160D01*
X+1906460Y-2341934D01*
X+1525460Y-1874574D02*
X+1525460Y-1851626D01*
X+1541686Y-1835400D01*
X+1564634Y-1835400D01*
X+1580860Y-1851626D01*
X+1580860Y-1874574D01*
X+1564634Y-1890800D01*
X+1541686Y-1890800D01*
X+1525460Y-1874574D01*
X+1047460Y-3672806D02*
X+1047460Y-3695754D01*
X+1038614Y-3704600D01*
X+1047460Y-3713446D01*
X+1047460Y-3736394D01*
X+1036074Y-3747780D01*
X+1047460Y-3759166D01*
X+1047460Y-3782114D01*
X+1038614Y-3790960D01*
X+1047460Y-3799806D01*
X+1047460Y-3822754D01*
X+1031234Y-3838980D01*
X+1008286Y-3838980D01*
X+992060Y-3822754D01*
X+992060Y-3799806D01*
X+1000906Y-3790960D01*
X+992060Y-3782114D01*
X+992060Y-3759166D01*
X+1003446Y-3747780D01*
X+992060Y-3736394D01*
X+992060Y-3713446D01*
X+1000906Y-3704600D01*
X+992060Y-3695754D01*
X+992060Y-3672806D01*
X+1008286Y-3656580D01*
X+1031234Y-3656580D01*
X+1047460Y-3672806D01*
X+1578800Y-3319834D02*
X+1578800Y-3296886D01*
X+1595026Y-3280660D01*
X+1617974Y-3280660D01*
X+1634200Y-3296886D01*
X+1634200Y-3319834D01*
X+1617974Y-3336060D01*
X+1595026Y-3336060D01*
X+1578800Y-3319834D01*
X+1639760Y-3319834D02*
X+1639760Y-3296886D01*
X+1655986Y-3280660D01*
X+1678934Y-3280660D01*
X+1695160Y-3296886D01*
X+1695160Y-3319834D01*
X+1678934Y-3336060D01*
X+1655986Y-3336060D01*
X+1639760Y-3319834D01*
X+1700720Y-3319834D02*
X+1700720Y-3296886D01*
X+1716946Y-3280660D01*
X+1739894Y-3280660D01*
X+1756120Y-3296886D01*
X+1756120Y-3319834D01*
X+1739894Y-3336060D01*
X+1716946Y-3336060D01*
X+1700720Y-3319834D01*
X+1776920Y-3319834D02*
X+1776920Y-3296886D01*
X+1793146Y-3280660D01*
X+1816094Y-3280660D01*
X+1832320Y-3296886D01*
X+1832320Y-3319834D01*
X+1816094Y-3336060D01*
X+1793146Y-3336060D01*
X+1776920Y-3319834D01*
X+1840420Y-3319834D02*
X+1840420Y-3296886D01*
X+1856646Y-3280660D01*
X+1879594Y-3280660D01*
X+1895820Y-3296886D01*
X+1895820Y-3319834D01*
X+1879594Y-3336060D01*
X+1856646Y-3336060D01*
X+1840420Y-3319834D01*
X+1655000Y-1244654D02*
X+1655000Y-1221706D01*
X+1671226Y-1205480D01*
X+1694174Y-1205480D01*
X+1710400Y-1221706D01*
X+1710400Y-1244654D01*
X+1694174Y-1260880D01*
X+1671226Y-1260880D01*
X+1655000Y-1244654D01*
X+2088860Y-2979386D02*
X+2088860Y-3002334D01*
X+2072634Y-3018560D01*
X+2049686Y-3018560D01*
X+2038300Y-3007174D01*
X+2026914Y-3018560D01*
X+2003966Y-3018560D01*
X+1987740Y-3002334D01*
X+1987740Y-2979386D01*
X+2003966Y-2963160D01*
X+2026914Y-2963160D01*
X+2038300Y-2974546D01*
X+2049686Y-2963160D01*
X+2072634Y-2963160D01*
X+2088860Y-2979386D01*
X+5701220Y-2735914D02*
X+5701220Y-2712966D01*
X+5717446Y-2696740D01*
X+5740394Y-2696740D01*
X+5756620Y-2712966D01*
X+5756620Y-2735914D01*
X+5740394Y-2752140D01*
X+5717446Y-2752140D01*
X+5701220Y-2735914D01*
X+6152300Y-3581474D02*
X+6152300Y-3558526D01*
X+6168526Y-3542300D01*
X+6191474Y-3542300D01*
X+6207700Y-3558526D01*
X+6207700Y-3581474D01*
X+6191474Y-3597700D01*
X+6168526Y-3597700D01*
X+6152300Y-3581474D01*
X+6012300Y-3581474D02*
X+6012300Y-3558526D01*
X+6028526Y-3542300D01*
X+6051474Y-3542300D01*
X+6067700Y-3558526D01*
X+6067700Y-3581474D01*
X+6051474Y-3597700D01*
X+6028526Y-3597700D01*
X+6012300Y-3581474D01*
X+6012300Y-3461474D02*
X+6012300Y-3438526D01*
X+6028526Y-3422300D01*
X+6051474Y-3422300D01*
X+6067700Y-3438526D01*
X+6067700Y-3461474D01*
X+6051474Y-3477700D01*
X+6028526Y-3477700D01*
X+6012300Y-3461474D01*
X+6152300Y-3461474D02*
X+6152300Y-3438526D01*
X+6168526Y-3422300D01*
X+6191474Y-3422300D01*
X+6207700Y-3438526D01*
X+6207700Y-3461474D01*
X+6191474Y-3477700D01*
X+6168526Y-3477700D01*
X+6152300Y-3461474D01*
X+6702300Y-2711474D02*
X+6702300Y-2688526D01*
X+6718526Y-2672300D01*
X+6741474Y-2672300D01*
X+6757700Y-2688526D01*
X+6757700Y-2711474D01*
X+6741474Y-2727700D01*
X+6718526Y-2727700D01*
X+6702300Y-2711474D01*
X+6182300Y-2711474D02*
X+6182300Y-2688526D01*
X+6198526Y-2672300D01*
X+6221474Y-2672300D01*
X+6237700Y-2688526D01*
X+6237700Y-2711474D01*
X+6221474Y-2727700D01*
X+6198526Y-2727700D01*
X+6182300Y-2711474D01*
X+6182300Y-2421474D02*
X+6182300Y-2398526D01*
X+6198526Y-2382300D01*
X+6221474Y-2382300D01*
X+6237700Y-2398526D01*
X+6237700Y-2421474D01*
X+6221474Y-2437700D01*
X+6198526Y-2437700D01*
X+6182300Y-2421474D01*
X+6562300Y-2421474D02*
X+6562300Y-2398526D01*
X+6578526Y-2382300D01*
X+6601474Y-2382300D01*
X+6617700Y-2398526D01*
X+6617700Y-2421474D01*
X+6601474Y-2437700D01*
X+6578526Y-2437700D01*
X+6562300Y-2421474D01*
X+6852300Y-2131474D02*
X+6852300Y-2108526D01*
X+6868526Y-2092300D01*
X+6891474Y-2092300D01*
X+6907700Y-2108526D01*
X+6907700Y-2131474D01*
X+6891474Y-2147700D01*
X+6868526Y-2147700D01*
X+6852300Y-2131474D01*
X+6122300Y-2001474D02*
X+6122300Y-1978526D01*
X+6138526Y-1962300D01*
X+6161474Y-1962300D01*
X+6177700Y-1978526D01*
X+6177700Y-2001474D01*
X+6161474Y-2017700D01*
X+6138526Y-2017700D01*
X+6122300Y-2001474D01*
X+6922300Y-2001474D02*
X+6922300Y-1978526D01*
X+6938526Y-1962300D01*
X+6961474Y-1962300D01*
X+6977700Y-1978526D01*
X+6977700Y-2001474D01*
X+6961474Y-2017700D01*
X+6938526Y-2017700D01*
X+6922300Y-2001474D01*
X+5237700Y-918526D02*
X+5237700Y-941474D01*
X+5224174Y-955000D01*
X+5237700Y-968526D01*
X+5237700Y-991474D01*
X+5224174Y-1005000D01*
X+5237700Y-1018526D01*
X+5237700Y-1041474D01*
X+5224174Y-1055000D01*
X+5237700Y-1068526D01*
X+5237700Y-1091474D01*
X+5224174Y-1105000D01*
X+5237700Y-1118526D01*
X+5237700Y-1141474D01*
X+5221474Y-1157700D01*
X+5198526Y-1157700D01*
X+5182300Y-1141474D01*
X+5182300Y-1118526D01*
X+5195826Y-1105000D01*
X+5182300Y-1091474D01*
X+5182300Y-1068526D01*
X+5195826Y-1055000D01*
X+5182300Y-1041474D01*
X+5182300Y-1018526D01*
X+5195826Y-1005000D01*
X+5182300Y-991474D01*
X+5182300Y-968526D01*
X+5195826Y-955000D01*
X+5182300Y-941474D01*
X+5182300Y-918526D01*
X+5198526Y-902300D01*
X+5221474Y-902300D01*
X+5237700Y-918526D01*
X+5247700Y-1288526D02*
X+5247700Y-1311474D01*
X+5234174Y-1325000D01*
X+5247700Y-1338526D01*
X+5247700Y-1361474D01*
X+5234174Y-1375000D01*
X+5247700Y-1388526D01*
X+5247700Y-1411474D01*
X+5234174Y-1425000D01*
X+5247700Y-1438526D01*
X+5247700Y-1461474D01*
X+5234174Y-1475000D01*
X+5247700Y-1488526D01*
X+5247700Y-1511474D01*
X+5231474Y-1527700D01*
X+5208526Y-1527700D01*
X+5192300Y-1511474D01*
X+5192300Y-1488526D01*
X+5205826Y-1475000D01*
X+5192300Y-1461474D01*
X+5192300Y-1438526D01*
X+5205826Y-1425000D01*
X+5192300Y-1411474D01*
X+5192300Y-1388526D01*
X+5205826Y-1375000D01*
X+5192300Y-1361474D01*
X+5192300Y-1338526D01*
X+5205826Y-1325000D01*
X+5192300Y-1311474D01*
X+5192300Y-1288526D01*
X+5208526Y-1272300D01*
X+5231474Y-1272300D01*
X+5247700Y-1288526D01*
X+5247700Y-1698526D02*
X+5247700Y-1721474D01*
X+5234174Y-1735000D01*
X+5247700Y-1748526D01*
X+5247700Y-1771474D01*
X+5234174Y-1785000D01*
X+5247700Y-1798526D01*
X+5247700Y-1821474D01*
X+5234174Y-1835000D01*
X+5247700Y-1848526D01*
X+5247700Y-1871474D01*
X+5234174Y-1885000D01*
X+5247700Y-1898526D01*
X+5247700Y-1921474D01*
X+5231474Y-1937700D01*
X+5208526Y-1937700D01*
X+5192300Y-1921474D01*
X+5192300Y-1898526D01*
X+5205826Y-1885000D01*
X+5192300Y-1871474D01*
X+5192300Y-1848526D01*
X+5205826Y-1835000D01*
X+5192300Y-1821474D01*
X+5192300Y-1798526D01*
X+5205826Y-1785000D01*
X+5192300Y-1771474D01*
X+5192300Y-1748526D01*
X+5205826Y-1735000D01*
X+5192300Y-1721474D01*
X+5192300Y-1698526D01*
X+5208526Y-1682300D01*
X+5231474Y-1682300D01*
X+5247700Y-1698526D01*
X+4402300Y-1781474D02*
X+4402300Y-1758526D01*
X+4418526Y-1742300D01*
X+4441474Y-1742300D01*
X+4457700Y-1758526D01*
X+4457700Y-1781474D01*
X+4441474Y-1797700D01*
X+4418526Y-1797700D01*
X+4402300Y-1781474D01*
X+4402300Y-1631474D02*
X+4402300Y-1608526D01*
X+4418526Y-1592300D01*
X+4441474Y-1592300D01*
X+4457700Y-1608526D01*
X+4457700Y-1631474D01*
X+4441474Y-1647700D01*
X+4418526Y-1647700D01*
X+4402300Y-1631474D01*
X+4202300Y-1461474D02*
X+4202300Y-1438526D01*
X+4218526Y-1422300D01*
X+4241474Y-1422300D01*
X+4257700Y-1438526D01*
X+4257700Y-1461474D01*
X+4241474Y-1477700D01*
X+4218526Y-1477700D01*
X+4202300Y-1461474D01*
X+1492300Y-2131474D02*
X+1492300Y-2108526D01*
X+1508526Y-2092300D01*
X+1531474Y-2092300D01*
X+1547700Y-2108526D01*
X+1547700Y-2131474D01*
X+1531474Y-2147700D01*
X+1508526Y-2147700D01*
X+1492300Y-2131474D01*
X+6695667Y-1218853D02*
X+6695667Y-1195905D01*
X+6711893Y-1179679D01*
X+6734841Y-1179679D01*
X+6751067Y-1195905D01*
X+6751067Y-1218853D01*
X+6734841Y-1235079D01*
X+6711893Y-1235079D01*
X+6695667Y-1218853D01*
X+6627887Y-1218853D02*
X+6627887Y-1195905D01*
X+6644113Y-1179679D01*
X+6667061Y-1179679D01*
X+6683287Y-1195905D01*
X+6683287Y-1218853D01*
X+6667061Y-1235079D01*
X+6644113Y-1235079D01*
X+6627887Y-1218853D01*
X+6560107Y-1218853D02*
X+6560107Y-1195905D01*
X+6576333Y-1179679D01*
X+6599281Y-1179679D01*
X+6615507Y-1195905D01*
X+6615507Y-1218853D01*
X+6599281Y-1235079D01*
X+6576333Y-1235079D01*
X+6560107Y-1218853D01*
X+6492327Y-1218853D02*
X+6492327Y-1195905D01*
X+6508553Y-1179679D01*
X+6531501Y-1179679D01*
X+6547727Y-1195905D01*
X+6547727Y-1218853D01*
X+6531501Y-1235079D01*
X+6508553Y-1235079D01*
X+6492327Y-1218853D01*
X+6424547Y-1218853D02*
X+6424547Y-1195905D01*
X+6440773Y-1179679D01*
X+6463721Y-1179679D01*
X+6479947Y-1195905D01*
X+6479947Y-1218853D01*
X+6463721Y-1235079D01*
X+6440773Y-1235079D01*
X+6424547Y-1218853D01*
X+6356767Y-1218853D02*
X+6356767Y-1195905D01*
X+6372993Y-1179679D01*
X+6395941Y-1179679D01*
X+6412167Y-1195905D01*
X+6412167Y-1218853D01*
X+6395941Y-1235079D01*
X+6372993Y-1235079D01*
X+6356767Y-1218853D01*
X+6288987Y-1218853D02*
X+6288987Y-1195905D01*
X+6305213Y-1179679D01*
X+6328161Y-1179679D01*
X+6344387Y-1195905D01*
X+6344387Y-1218853D01*
X+6328161Y-1235079D01*
X+6305213Y-1235079D01*
X+6288987Y-1218853D01*
X+6221207Y-1218853D02*
X+6221207Y-1195905D01*
X+6237433Y-1179679D01*
X+6260381Y-1179679D01*
X+6276607Y-1195905D01*
X+6276607Y-1218853D01*
X+6260381Y-1235079D01*
X+6237433Y-1235079D01*
X+6221207Y-1218853D01*
X+6153440Y-1220204D02*
X+6153440Y-1197256D01*
X+6169666Y-1181030D01*
X+6192614Y-1181030D01*
X+6208840Y-1197256D01*
X+6208840Y-1220204D01*
X+6192614Y-1236430D01*
X+6169666Y-1236430D01*
X+6153440Y-1220204D01*
X+6085737Y-1223433D02*
X+6085737Y-1200485D01*
X+6101963Y-1184259D01*
X+6124911Y-1184259D01*
X+6141137Y-1200485D01*
X+6141137Y-1223433D01*
X+6124911Y-1239659D01*
X+6101963Y-1239659D01*
X+6085737Y-1223433D01*
X+6019057Y-1235597D02*
X+6019057Y-1212649D01*
X+6035283Y-1196423D01*
X+6058231Y-1196423D01*
X+6074457Y-1212649D01*
X+6074457Y-1235597D01*
X+6058231Y-1251823D01*
X+6035283Y-1251823D01*
X+6019057Y-1235597D01*
X+5954974Y-1257675D02*
X+5954974Y-1234727D01*
X+5971200Y-1218501D01*
X+5994148Y-1218501D01*
X+6010374Y-1234727D01*
X+6010374Y-1257675D01*
X+5994148Y-1273901D01*
X+5971200Y-1273901D01*
X+5954974Y-1257675D01*
X+5896926Y-1292669D02*
X+5896926Y-1269721D01*
X+5913152Y-1253495D01*
X+5936100Y-1253495D01*
X+5952326Y-1269721D01*
X+5952326Y-1292669D01*
X+5936100Y-1308895D01*
X+5913152Y-1308895D01*
X+5896926Y-1292669D01*
X+5849560Y-1341152D02*
X+5849560Y-1318204D01*
X+5865786Y-1301978D01*
X+5888734Y-1301978D01*
X+5904960Y-1318204D01*
X+5904960Y-1341152D01*
X+5888734Y-1357378D01*
X+5865786Y-1357378D01*
X+5849560Y-1341152D01*
X+5826670Y-1404950D02*
X+5826670Y-1382002D01*
X+5842896Y-1365776D01*
X+5865844Y-1365776D01*
X+5882070Y-1382002D01*
X+5882070Y-1404950D01*
X+5865844Y-1421176D01*
X+5842896Y-1421176D01*
X+5826670Y-1404950D01*
X+5825339Y-1472716D02*
X+5825339Y-1449768D01*
X+5841565Y-1433542D01*
X+5864513Y-1433542D01*
X+5880739Y-1449768D01*
X+5880739Y-1472716D01*
X+5864513Y-1488942D01*
X+5841565Y-1488942D01*
X+5825339Y-1472716D01*
X+5825339Y-1540496D02*
X+5825339Y-1517548D01*
X+5841565Y-1501322D01*
X+5864513Y-1501322D01*
X+5880739Y-1517548D01*
X+5880739Y-1540496D01*
X+5864513Y-1556722D01*
X+5841565Y-1556722D01*
X+5825339Y-1540496D01*
X+5663581Y-1512741D02*
X+5663581Y-1489793D01*
X+5679807Y-1473567D01*
X+5702755Y-1473567D01*
X+5718981Y-1489793D01*
X+5718981Y-1512741D01*
X+5702755Y-1528967D01*
X+5679807Y-1528967D01*
X+5663581Y-1512741D01*
X+5664235Y-1377184D02*
X+5664235Y-1354236D01*
X+5680461Y-1338010D01*
X+5703409Y-1338010D01*
X+5719635Y-1354236D01*
X+5719635Y-1377184D01*
X+5703409Y-1393410D01*
X+5680461Y-1393410D01*
X+5664235Y-1377184D01*
X+5683553Y-1312215D02*
X+5683553Y-1289267D01*
X+5699779Y-1273041D01*
X+5722727Y-1273041D01*
X+5738953Y-1289267D01*
X+5738953Y-1312215D01*
X+5722727Y-1328441D01*
X+5699779Y-1328441D01*
X+5683553Y-1312215D01*
X+5714106Y-1251712D02*
X+5714106Y-1228764D01*
X+5730332Y-1212538D01*
X+5753280Y-1212538D01*
X+5769506Y-1228764D01*
X+5769506Y-1251712D01*
X+5753280Y-1267938D01*
X+5730332Y-1267938D01*
X+5714106Y-1251712D01*
X+5756553Y-1198869D02*
X+5756553Y-1175921D01*
X+5772779Y-1159695D01*
X+5795727Y-1159695D01*
X+5811953Y-1175921D01*
X+5811953Y-1198869D01*
X+5795727Y-1215095D01*
X+5772779Y-1215095D01*
X+5756553Y-1198869D01*
X+5808774Y-1155660D02*
X+5808774Y-1132712D01*
X+5825000Y-1116486D01*
X+5847948Y-1116486D01*
X+5864174Y-1132712D01*
X+5864174Y-1155660D01*
X+5847948Y-1171886D01*
X+5825000Y-1171886D01*
X+5808774Y-1155660D01*
X+5867202Y-1121304D02*
X+5867202Y-1098356D01*
X+5883428Y-1082130D01*
X+5906376Y-1082130D01*
X+5922602Y-1098356D01*
X+5922602Y-1121304D01*
X+5906376Y-1137530D01*
X+5883428Y-1137530D01*
X+5867202Y-1121304D01*
X+5929584Y-1094798D02*
X+5929584Y-1071850D01*
X+5945810Y-1055624D01*
X+5968758Y-1055624D01*
X+5984984Y-1071850D01*
X+5984984Y-1094798D01*
X+5968758Y-1111024D01*
X+5945810Y-1111024D01*
X+5929584Y-1094798D01*
X+5994557Y-1075493D02*
X+5994557Y-1052545D01*
X+6010783Y-1036319D01*
X+6033731Y-1036319D01*
X+6049957Y-1052545D01*
X+6049957Y-1075493D01*
X+6033731Y-1091719D01*
X+6010783Y-1091719D01*
X+5994557Y-1075493D01*
X+6061074Y-1062471D02*
X+6061074Y-1039523D01*
X+6077300Y-1023297D01*
X+6100248Y-1023297D01*
X+6116474Y-1039523D01*
X+6116474Y-1062471D01*
X+6100248Y-1078697D01*
X+6077300Y-1078697D01*
X+6061074Y-1062471D01*
X+6128640Y-1057095D02*
X+6128640Y-1034147D01*
X+6144866Y-1017921D01*
X+6167814Y-1017921D01*
X+6184040Y-1034147D01*
X+6184040Y-1057095D01*
X+6167814Y-1073321D01*
X+6144866Y-1073321D01*
X+6128640Y-1057095D01*
X+6196420Y-1057095D02*
X+6196420Y-1034147D01*
X+6212646Y-1017921D01*
X+6235594Y-1017921D01*
X+6251820Y-1034147D01*
X+6251820Y-1057095D01*
X+6235594Y-1073321D01*
X+6212646Y-1073321D01*
X+6196420Y-1057095D01*
X+6264200Y-1057095D02*
X+6264200Y-1034147D01*
X+6280426Y-1017921D01*
X+6303374Y-1017921D01*
X+6319600Y-1034147D01*
X+6319600Y-1057095D01*
X+6303374Y-1073321D01*
X+6280426Y-1073321D01*
X+6264200Y-1057095D01*
X+6331980Y-1057095D02*
X+6331980Y-1034147D01*
X+6348206Y-1017921D01*
X+6371154Y-1017921D01*
X+6387380Y-1034147D01*
X+6387380Y-1057095D01*
X+6371154Y-1073321D01*
X+6348206Y-1073321D01*
X+6331980Y-1057095D01*
X+6399760Y-1057095D02*
X+6399760Y-1034147D01*
X+6415986Y-1017921D01*
X+6438934Y-1017921D01*
X+6455160Y-1034147D01*
X+6455160Y-1057095D01*
X+6438934Y-1073321D01*
X+6415986Y-1073321D01*
X+6399760Y-1057095D01*
X+6467540Y-1057095D02*
X+6467540Y-1034147D01*
X+6483766Y-1017921D01*
X+6506714Y-1017921D01*
X+6522940Y-1034147D01*
X+6522940Y-1057095D01*
X+6506714Y-1073321D01*
X+6483766Y-1073321D01*
X+6467540Y-1057095D01*
X+6535320Y-1057095D02*
X+6535320Y-1034147D01*
X+6551546Y-1017921D01*
X+6574494Y-1017921D01*
X+6590720Y-1034147D01*
X+6590720Y-1057095D01*
X+6574494Y-1073321D01*
X+6551546Y-1073321D01*
X+6535320Y-1057095D01*
X+1627120Y-946194D02*
X+1627120Y-923246D01*
X+1643346Y-907020D01*
X+1666294Y-907020D01*
X+1682520Y-923246D01*
X+1682520Y-946194D01*
X+1666294Y-962420D01*
X+1643346Y-962420D01*
X+1627120Y-946194D01*
X+2136380Y-946194D02*
X+2136380Y-923246D01*
X+2152606Y-907020D01*
X+2175554Y-907020D01*
X+2191780Y-923246D01*
X+2191780Y-946194D01*
X+2175554Y-962420D01*
X+2152606Y-962420D01*
X+2136380Y-946194D01*
X+2337040Y-1146854D02*
X+2337040Y-1123906D01*
X+2353266Y-1107680D01*
X+2376214Y-1107680D01*
X+2392440Y-1123906D01*
X+2392440Y-1146854D01*
X+2376214Y-1163080D01*
X+2353266Y-1163080D01*
X+2337040Y-1146854D01*
X+4699322Y-2789996D02*
X+4608738Y-2789996D01*
X+4591338Y-2782879D01*
X+4582980Y-2774521D01*
X+4537020Y-2774521D01*
X+4504521Y-2807020D01*
X+4504521Y-2852980D01*
X+4514109Y-2862568D01*
X+4494521Y-2882156D01*
X+4494521Y-2928116D01*
X+4527020Y-2960615D01*
X+4572980Y-2960615D01*
X+4581338Y-2952257D01*
X+4598738Y-2945140D01*
X+4674126Y-2945140D01*
X+5157127Y-3428141D01*
X+5142060Y-3428141D01*
X+5109561Y-3460640D01*
X+5109561Y-3506600D01*
X+5117919Y-3514958D01*
X+5125036Y-3532358D01*
X+5125036Y-3664261D01*
X+5089671Y-3664261D01*
X+5089671Y-4005580D01*
X+5040329Y-4005580D01*
X+5040329Y-3664261D01*
X+5027244Y-3664261D01*
X+5027244Y-3440670D01*
X+4816830Y-3230256D01*
X+4618539Y-3230256D01*
X+4618539Y-3193940D01*
X+4586040Y-3161441D01*
X+4559838Y-3161441D01*
X+4560119Y-3161160D01*
X+4560119Y-3115200D01*
X+4527620Y-3082701D01*
X+4513279Y-3082701D01*
X+4494731Y-3076777D01*
X+4476906Y-3058952D01*
X+4506779Y-3029080D01*
X+4506779Y-3005953D01*
X+4518526Y-3017700D01*
X+4541474Y-3017700D01*
X+4557700Y-3001474D01*
X+4557700Y-2978526D01*
X+4541474Y-2962300D01*
X+4518526Y-2962300D01*
X+4502300Y-2978526D01*
X+4502300Y-2978641D01*
X+4497771Y-2974112D01*
X+4489984Y-2956682D01*
X+4489454Y-2658628D01*
X+4498526Y-2667700D01*
X+4521474Y-2667700D01*
X+4537700Y-2651474D01*
X+4537700Y-2628526D01*
X+4521474Y-2612300D01*
X+4498526Y-2612300D01*
X+4489388Y-2621438D01*
X+4489315Y-2579989D01*
X+4699322Y-2789996D01*
X+4542300Y-2711474D02*
X+4542300Y-2688526D01*
X+4558526Y-2672300D01*
X+4581474Y-2672300D01*
X+4597700Y-2688526D01*
X+4597700Y-2711474D01*
X+4581474Y-2727700D01*
X+4558526Y-2727700D01*
X+4542300Y-2711474D01*
X+4572300Y-3121474D02*
X+4572300Y-3098526D01*
X+4588526Y-3082300D01*
X+4611474Y-3082300D01*
X+4627700Y-3098526D01*
X+4627700Y-3121474D01*
X+4611474Y-3137700D01*
X+4588526Y-3137700D01*
X+4572300Y-3121474D01*
X+2592861Y-2818419D02*
X+2698336Y-2818419D01*
X+2698336Y-2990530D01*
X+2542430Y-3146436D01*
X+2535308Y-3146436D01*
X+2546060Y-3135684D01*
X+2546060Y-3112736D01*
X+2537849Y-3104525D01*
X+2546060Y-3096314D01*
X+2546060Y-3073366D01*
X+2529834Y-3057140D01*
X+2506886Y-3057140D01*
X+2490660Y-3073366D01*
X+2490660Y-3096314D01*
X+2498871Y-3104525D01*
X+2490660Y-3112736D01*
X+2490660Y-3133501D01*
X+2452200Y-3133501D01*
X+2419701Y-3166000D01*
X+2419701Y-3211960D01*
X+2452200Y-3244459D01*
X+2498160Y-3244459D01*
X+2506518Y-3236101D01*
X+2523918Y-3228984D01*
X+2573030Y-3228984D01*
X+2779080Y-3022934D01*
X+3179207Y-3423061D01*
X+3158320Y-3423061D01*
X+3125821Y-3455560D01*
X+3125821Y-3466106D01*
X+3117951Y-3482775D01*
X+2936465Y-3664261D01*
X+2839671Y-3664261D01*
X+2839671Y-4005580D01*
X+2799986Y-4005580D01*
X+2790329Y-4015270D01*
X+2790329Y-3664261D01*
X+2721559Y-3664261D01*
X+2721559Y-3602535D01*
X+2245820Y-3126796D01*
X+2276347Y-3096269D01*
X+2443429Y-3096269D01*
X+2443429Y-2830839D01*
X+2542377Y-2830839D01*
X+2554797Y-2818419D01*
X+2583819Y-2818419D01*
X+2583819Y-2789397D01*
X+2584059Y-2789157D01*
X+2584059Y-2726640D01*
X+2592861Y-2726640D01*
X+2592861Y-2818419D01*
X+2518360Y-2894521D02*
X+2518360Y-2883999D01*
X+2525799Y-2876560D01*
X+2536321Y-2876560D01*
X+2543760Y-2883999D01*
X+2543760Y-2894521D01*
X+2536321Y-2901960D01*
X+2525799Y-2901960D01*
X+2518360Y-2894521D01*
X+2518360Y-3016441D02*
X+2518360Y-3005919D01*
X+2525799Y-2998480D01*
X+2536321Y-2998480D01*
X+2543760Y-3005919D01*
X+2543760Y-3016441D01*
X+2536321Y-3023880D01*
X+2525799Y-3023880D01*
X+2518360Y-3016441D01*
X+3042861Y-1846763D02*
X+3042621Y-1847003D01*
X+3042621Y-1853240D01*
X+3033819Y-1853240D01*
X+3033819Y-1782755D01*
X+3036570Y-1780004D01*
X+3042861Y-1780004D01*
X+3042861Y-1846763D01*
X+3042621Y-1939300D02*
X+3042621Y-1958237D01*
X+3042861Y-1958477D01*
X+3042861Y-1970419D01*
X+3054803Y-1970419D01*
X+3083623Y-1999239D01*
X+3132861Y-1999239D01*
X+3132861Y-2294027D01*
X+2871874Y-2033040D01*
X+2928344Y-1976570D01*
X+2928344Y-1970419D01*
X+3033819Y-1970419D01*
X+3033819Y-1878640D01*
X+3042621Y-1878640D01*
X+3042621Y-1939300D01*
X+3060960Y-2004026D02*
X+3060960Y-2026974D01*
X+3052929Y-2035005D01*
X+3062590Y-2044666D01*
X+3062590Y-2067614D01*
X+3046364Y-2083840D01*
X+3023416Y-2083840D01*
X+3007190Y-2067614D01*
X+3007190Y-2044666D01*
X+3015221Y-2036635D01*
X+3005560Y-2026974D01*
X+3005560Y-2004026D01*
X+3021786Y-1987800D01*
X+3044734Y-1987800D01*
X+3060960Y-2004026D01*
X+3099673Y-2445107D02*
X+3111390Y-2456824D01*
X+3132861Y-2456824D01*
X+3132861Y-2510419D01*
X+3224640Y-2510419D01*
X+3224640Y-2519118D01*
X+3035897Y-2518510D01*
X+3024231Y-2509585D01*
X+3010576Y-2495930D01*
X+2964616Y-2495930D01*
X+2932117Y-2528429D01*
X+2932117Y-2567224D01*
X+2930241Y-2569100D01*
X+2930241Y-2609461D01*
X+2763293Y-2609461D01*
X+2931744Y-2441010D01*
X+2931744Y-2343638D01*
X+2938861Y-2326238D01*
X+2947219Y-2317880D01*
X+2947219Y-2292653D01*
X+3099673Y-2445107D01*
X+3015960Y-2367246D02*
X+3015960Y-2390194D01*
X+3003774Y-2402380D01*
X+3018500Y-2417106D01*
X+3018500Y-2440054D01*
X+3002274Y-2456280D01*
X+2979326Y-2456280D01*
X+2963100Y-2440054D01*
X+2963100Y-2417106D01*
X+2975286Y-2404920D01*
X+2960560Y-2390194D01*
X+2960560Y-2367246D01*
X+2976786Y-2351020D01*
X+2999734Y-2351020D01*
X+3015960Y-2367246D01*
X+2532034Y-2084521D02*
X+2527020Y-2084521D01*
X+2494521Y-2117020D01*
X+2494521Y-2162980D01*
X+2527020Y-2195479D01*
X+2572980Y-2195479D01*
X+2588530Y-2179928D01*
X+2607020Y-2198418D01*
X+2652980Y-2198418D01*
X+2661470Y-2189928D01*
X+2687020Y-2215479D01*
X+2708626Y-2215479D01*
X+2732055Y-2216657D01*
X+2765376Y-2231023D01*
X+2765376Y-2430730D01*
X+2597736Y-2598370D01*
X+2597736Y-2609461D01*
X+2592861Y-2609461D01*
X+2592861Y-2701240D01*
X+2584059Y-2701240D01*
X+2584059Y-2695003D01*
X+2583819Y-2694763D01*
X+2583819Y-2609461D01*
X+2493819Y-2609461D01*
X+2493819Y-2558424D01*
X+2588270Y-2558424D01*
X+2705684Y-2441010D01*
X+2705684Y-2440035D01*
X+2721159Y-2424560D01*
X+2721159Y-2378600D01*
X+2688660Y-2346101D01*
X+2644724Y-2346101D01*
X+2644724Y-2338558D01*
X+2651841Y-2321158D01*
X+2660199Y-2312800D01*
X+2660199Y-2266840D01*
X+2627700Y-2234341D01*
X+2581740Y-2234341D01*
X+2549241Y-2266840D01*
X+2549241Y-2312800D01*
X+2557599Y-2321158D01*
X+2564716Y-2338558D01*
X+2564716Y-2372017D01*
X+2551500Y-2358801D01*
X+2505540Y-2358801D01*
X+2497182Y-2367159D01*
X+2493819Y-2368534D01*
X+2493819Y-2219461D01*
X+2402040Y-2219461D01*
X+2402040Y-2210659D01*
X+2408277Y-2210659D01*
X+2408517Y-2210419D01*
X+2493819Y-2210419D01*
X+2493819Y-2040004D01*
X+2576551Y-2040004D01*
X+2532034Y-2084521D01*
X+3433396Y-2532450D02*
X+3433396Y-2819451D01*
X+3336344Y-2819451D01*
X+3290516Y-2773623D01*
X+3290516Y-2610419D01*
X+3341819Y-2610419D01*
X+3341819Y-2519461D01*
X+3256517Y-2519461D01*
X+3256277Y-2519221D01*
X+3251048Y-2519217D01*
X+3251034Y-2519203D01*
X+3250040Y-2519200D01*
X+3250040Y-2510419D01*
X+3341819Y-2510419D01*
X+3341819Y-2504944D01*
X+3405890Y-2504944D01*
X+3433396Y-2532450D01*
X+3358979Y-2719120D02*
X+3369501Y-2719120D01*
X+3376940Y-2726559D01*
X+3376940Y-2737081D01*
X+3369501Y-2744520D01*
X+3358979Y-2744520D01*
X+3351540Y-2737081D01*
X+3351540Y-2726559D01*
X+3358979Y-2719120D01*
X+3358903Y-2552512D02*
X+3358903Y-2529564D01*
X+3375129Y-2513338D01*
X+3398077Y-2513338D01*
X+3414303Y-2529564D01*
X+3414303Y-2552512D01*
X+3398077Y-2568738D01*
X+3375129Y-2568738D01*
X+3358903Y-2552512D01*
X+3358903Y-2631474D02*
X+3358903Y-2608526D01*
X+3375129Y-2592300D01*
X+3398077Y-2592300D01*
X+3414303Y-2608526D01*
X+3414303Y-2631474D01*
X+3398077Y-2647700D01*
X+3375129Y-2647700D01*
X+3358903Y-2631474D01*
X+5513943Y-2906117D02*
X+5525660Y-2917834D01*
X+5721260Y-2917834D01*
X+5787937Y-2984511D01*
X+5687011Y-2984511D01*
X+5687011Y-3119111D01*
X+5684571Y-3119111D01*
X+5684571Y-3266451D01*
X+5682029Y-3266451D01*
X+5682029Y-3119111D01*
X+5511851Y-3119111D01*
X+5511851Y-3164203D01*
X+5471161Y-3164207D01*
X+5376153Y-3069199D01*
X+5386140Y-3069199D01*
X+5418639Y-3036700D01*
X+5418639Y-2990740D01*
X+5386140Y-2958241D01*
X+5374320Y-2958241D01*
X+5356984Y-2950970D01*
X+5284626Y-2878612D01*
X+5317039Y-2846200D01*
X+5317039Y-2800240D01*
X+5284540Y-2767741D01*
X+5245307Y-2767741D01*
X+5245307Y-2637481D01*
X+5513943Y-2906117D01*
X+5586680Y-3074861D02*
X+5586680Y-3064339D01*
X+5594119Y-3056900D01*
X+5604641Y-3056900D01*
X+5612080Y-3064339D01*
X+5612080Y-3074861D01*
X+5604641Y-3082300D01*
X+5594119Y-3082300D01*
X+5586680Y-3074861D01*
X+5500560Y-3081074D02*
X+5500560Y-3058126D01*
X+5516786Y-3041900D01*
X+5539734Y-3041900D01*
X+5555960Y-3058126D01*
X+5555960Y-3081074D01*
X+5539734Y-3097300D01*
X+5516786Y-3097300D01*
X+5500560Y-3081074D01*
X+6773496Y-3428950D02*
X+6753715Y-3448731D01*
X+6667700Y-3448731D01*
X+6667700Y-3448526D01*
X+6651474Y-3432300D01*
X+6628526Y-3432300D01*
X+6612300Y-3448526D01*
X+6612300Y-3471474D01*
X+6628526Y-3487700D01*
X+6651474Y-3487700D01*
X+6664431Y-3474743D01*
X+6664431Y-3605637D01*
X+6581724Y-3522930D01*
X+6581724Y-3045410D01*
X+6395578Y-2859264D01*
X+6773496Y-2859264D01*
X+6773496Y-3428950D01*
X+6702300Y-3081474D02*
X+6702300Y-3058526D01*
X+6718526Y-3042300D01*
X+6741474Y-3042300D01*
X+6757700Y-3058526D01*
X+6757700Y-3081474D01*
X+6741474Y-3097700D01*
X+6718526Y-3097700D01*
X+6702300Y-3081474D01*
X+6689100Y-1317840D02*
X+6689100Y-1380540D01*
X+6689100Y-1443240D02*
X+6689100Y-1380540D01*
X+6626400Y-1380540D02*
X+6689100Y-1380540D01*
X+6751800Y-1380540D02*
X+6689100Y-1380540D01*
X+7197100Y-1317840D02*
X+7197100Y-1380540D01*
X+7197100Y-1443240D02*
X+7197100Y-1380540D01*
X+7134400Y-1380540D02*
X+7197100Y-1380540D01*
X+7259800Y-1380540D02*
X+7197100Y-1380540D01*
X+2376640Y-2214940D02*
X+2389340Y-2214940D01*
X+2402040Y-2214940D02*
X+2389340Y-2214940D01*
X+3038340Y-1878640D02*
X+3038340Y-1865940D01*
X+3038340Y-1853240D02*
X+3038340Y-1865940D01*
X+3224640Y-2514940D02*
X+3237340Y-2514940D01*
X+3250040Y-2514940D02*
X+3237340Y-2514940D01*
X+2588340Y-2726640D02*
X+2588340Y-2713940D01*
X+2588340Y-2701240D02*
X+2588340Y-2713940D01*
X+5582300Y-2363500D02*
X+5595000Y-2363500D01*
X+5607700Y-2363500D02*
X+5595000Y-2363500D01*
X+5595000Y-2376200D02*
X+5595000Y-2363500D01*
X+5595000Y-2350800D02*
X+5595000Y-2363500D01*
X+1149140Y-3617040D02*
X+1136440Y-3617040D01*
X+1123740Y-3617040D02*
X+1136440Y-3617040D01*
X+1136440Y-3604340D02*
X+1136440Y-3617040D01*
X+1136440Y-3629740D02*
X+1136440Y-3617040D01*
X+5840000Y-2714280D02*
X+5840000Y-2726980D01*
X+5840000Y-2739680D02*
X+5840000Y-2726980D01*
X+5827300Y-2726980D02*
X+5840000Y-2726980D01*
X+5852700Y-2726980D02*
X+5840000Y-2726980D01*
X+6011260Y-1916440D02*
X+5998560Y-1916440D01*
X+5985860Y-1916440D02*
X+5998560Y-1916440D01*
X+5998560Y-1903740D02*
X+5998560Y-1916440D01*
X+5998560Y-1929140D02*
X+5998560Y-1916440D01*
X+7215560Y-1917600D02*
X+7202860Y-1917600D01*
X+7190160Y-1917600D02*
X+7202860Y-1917600D01*
X+7202860Y-1904900D02*
X+7202860Y-1917600D01*
X+7202860Y-1930300D02*
X+7202860Y-1917600D01*
X+7212680Y-3211960D02*
X+7199980Y-3211960D01*
X+7187280Y-3211960D02*
X+7199980Y-3211960D01*
X+7199980Y-3199260D02*
X+7199980Y-3211960D01*
X+7199980Y-3224660D02*
X+7199980Y-3211960D01*
X+6011260Y-3211680D02*
X+5998560Y-3211680D01*
X+5985860Y-3211680D02*
X+5998560Y-3211680D01*
X+5998560Y-3198980D02*
X+5998560Y-3211680D01*
X+5998560Y-3224380D02*
X+5998560Y-3211680D01*
X+2427300Y-3870000D02*
X+2440000Y-3870000D01*
X+2452700Y-3870000D02*
X+2440000Y-3870000D01*
X+2440000Y-3882700D02*
X+2440000Y-3870000D01*
X+2440000Y-3857300D02*
X+2440000Y-3870000D01*
X+6177300Y-3870000D02*
X+6190000Y-3870000D01*
X+6202700Y-3870000D02*
X+6190000Y-3870000D01*
X+6190000Y-3882700D02*
X+6190000Y-3870000D01*
X+6190000Y-3857300D02*
X+6190000Y-3870000D01*
X+1249920Y-1629280D02*
X+1249920Y-1581580D01*
X+1249920Y-1533880D02*
X+1249920Y-1581580D01*
X+1297620Y-1581580D02*
X+1249920Y-1581580D01*
X+1202220Y-1581580D02*
X+1249920Y-1581580D01*
X+1249920Y-1139280D02*
X+1249920Y-1091580D01*
X+1249920Y-1043880D02*
X+1249920Y-1091580D01*
X+1297620Y-1091580D02*
X+1249920Y-1091580D01*
X+1202220Y-1091580D02*
X+1249920Y-1091580D01*
X+980680Y-1735280D02*
X+980680Y-1697180D01*
X+980680Y-1659080D02*
X+980680Y-1697180D01*
X+1018780Y-1697180D02*
X+980680Y-1697180D01*
X+942580Y-1697180D02*
X+980680Y-1697180D01*
X+980680Y-1011380D02*
X+980680Y-973280D01*
X+980680Y-935180D02*
X+980680Y-973280D01*
X+1018780Y-973280D02*
X+980680Y-973280D01*
X+942580Y-973280D02*
X+980680Y-973280D01*
X+1552920Y-3222600D02*
X+1565620Y-3222600D01*
X+1578320Y-3222600D02*
X+1565620Y-3222600D01*
X+1565620Y-3235300D02*
X+1565620Y-3222600D01*
X+1565620Y-3209900D02*
X+1565620Y-3222600D01*
X+5629900Y-2706320D02*
X+5629900Y-2719020D01*
X+5629900Y-2731720D02*
X+5629900Y-2719020D01*
X+5617200Y-2719020D02*
X+5629900Y-2719020D01*
X+5642600Y-2719020D02*
X+5629900Y-2719020D01*
X+5586680Y-3069600D02*
X+5599380Y-3069600D01*
X+5612080Y-3069600D02*
X+5599380Y-3069600D01*
X+5599380Y-3082300D02*
X+5599380Y-3069600D01*
X+5599380Y-3056900D02*
X+5599380Y-3069600D01*
X+5383280Y-1009700D02*
X+5383280Y-997000D01*
X+5383280Y-984300D02*
X+5383280Y-997000D01*
X+5395980Y-997000D02*
X+5383280Y-997000D01*
X+5370580Y-997000D02*
X+5383280Y-997000D01*
X+2002780Y-2223720D02*
X+2002780Y-2211020D01*
X+2002780Y-2198320D02*
X+2002780Y-2211020D01*
X+2015480Y-2211020D02*
X+2002780Y-2211020D01*
X+1990080Y-2211020D02*
X+2002780Y-2211020D01*
X+1837640Y-2211080D02*
X+1850340Y-2211080D01*
X+1863040Y-2211080D02*
X+1850340Y-2211080D01*
X+1850340Y-2223780D02*
X+1850340Y-2211080D01*
X+1850340Y-2198380D02*
X+1850340Y-2211080D01*
X+2002800Y-2317800D02*
X+2002800Y-2330500D01*
X+2002800Y-2343200D02*
X+2002800Y-2330500D01*
X+1990100Y-2330500D02*
X+2002800Y-2330500D01*
X+2015500Y-2330500D02*
X+2002800Y-2330500D01*
X+1868120Y-2317760D02*
X+1868120Y-2330460D01*
X+1868120Y-2343160D02*
X+1868120Y-2330460D01*
X+1855420Y-2330460D02*
X+1868120Y-2330460D01*
X+1880820Y-2330460D02*
X+1868120Y-2330460D01*
X+1647240Y-1659880D02*
X+1659940Y-1659880D01*
X+1672640Y-1659880D02*
X+1659940Y-1659880D01*
X+1659940Y-1672580D02*
X+1659940Y-1659880D01*
X+1659940Y-1647180D02*
X+1659940Y-1659880D01*
X+1642160Y-1837680D02*
X+1654860Y-1837680D01*
X+1667560Y-1837680D02*
X+1654860Y-1837680D01*
X+1654860Y-1850380D02*
X+1654860Y-1837680D01*
X+1654860Y-1824980D02*
X+1654860Y-1837680D01*
X+1502360Y-1865640D02*
X+1489660Y-1865640D01*
X+1476960Y-1865640D02*
X+1489660Y-1865640D01*
X+1489660Y-1852940D02*
X+1489660Y-1865640D01*
X+1489660Y-1878340D02*
X+1489660Y-1865640D01*
X+3500300Y-1011820D02*
X+3500300Y-999120D01*
X+3500300Y-986420D02*
X+3500300Y-999120D01*
X+3513000Y-999120D02*
X+3500300Y-999120D01*
X+3487600Y-999120D02*
X+3500300Y-999120D01*
X+4090800Y-1011820D02*
X+4090800Y-999120D01*
X+4090800Y-986420D02*
X+4090800Y-999120D01*
X+4103500Y-999120D02*
X+4090800Y-999120D01*
X+4078100Y-999120D02*
X+4090800Y-999120D01*
X+4717451Y-1002871D02*
X+4717451Y-990171D01*
X+4717451Y-977471D02*
X+4717451Y-990171D01*
X+4730151Y-990171D02*
X+4717451Y-990171D01*
X+4704751Y-990171D02*
X+4717451Y-990171D01*
X+2909800Y-1011820D02*
X+2909800Y-999120D01*
X+2909800Y-986420D02*
X+2909800Y-999120D01*
X+2922500Y-999120D02*
X+2909800Y-999120D01*
X+2897100Y-999120D02*
X+2909800Y-999120D01*
X+3364240Y-2719120D02*
X+3364240Y-2731820D01*
X+3364240Y-2744520D02*
X+3364240Y-2731820D01*
X+3351540Y-2731820D02*
X+3364240Y-2731820D01*
X+3376940Y-2731820D02*
X+3364240Y-2731820D01*
X+2518360Y-2889260D02*
X+2531060Y-2889260D01*
X+2543760Y-2889260D02*
X+2531060Y-2889260D01*
X+2531060Y-2901960D02*
X+2531060Y-2889260D01*
X+2531060Y-2876560D02*
X+2531060Y-2889260D01*
X+2518360Y-3011180D02*
X+2531060Y-3011180D01*
X+2543760Y-3011180D02*
X+2531060Y-3011180D01*
X+2531060Y-3023880D02*
X+2531060Y-3011180D01*
X+2531060Y-2998480D02*
X+2531060Y-3011180D01*
D24*
X+6943100Y-1126540D03*
D25*
X+6689100Y-1380540D03*
X+7197100Y-1380540D03*
X+7197100Y-872540D03*
X+6689100Y-872540D03*
D46*
X+2389340Y-2564940D03*
X+2389340Y-2514940D03*
X+2389340Y-2464940D03*
X+2389340Y-2414940D03*
X+2389340Y-2364940D03*
X+2389340Y-2314940D03*
X+2389340Y-2264940D03*
X+2389340Y-2214940D03*
X+2389340Y-2164940D03*
X+2389340Y-2114940D03*
X+2389340Y-2064940D03*
X+2389340Y-2014940D03*
D47*
X+2538340Y-1865940D03*
X+2588340Y-1865940D03*
X+2638340Y-1865940D03*
X+2688340Y-1865940D03*
X+2738340Y-1865940D03*
X+2788340Y-1865940D03*
X+2838340Y-1865940D03*
X+2888340Y-1865940D03*
X+2938340Y-1865940D03*
X+2988340Y-1865940D03*
X+3038340Y-1865940D03*
X+3088340Y-1865940D03*
D46*
X+3237340Y-2014940D03*
X+3237340Y-2064940D03*
X+3237340Y-2114940D03*
X+3237340Y-2164940D03*
X+3237340Y-2214940D03*
X+3237340Y-2264940D03*
X+3237340Y-2314940D03*
X+3237340Y-2364940D03*
X+3237340Y-2414940D03*
X+3237340Y-2464940D03*
X+3237340Y-2514940D03*
X+3237340Y-2564940D03*
D47*
X+3088340Y-2713940D03*
X+3038340Y-2713940D03*
X+2988340Y-2713940D03*
X+2938340Y-2713940D03*
X+2888340Y-2713940D03*
X+2838340Y-2713940D03*
X+2788340Y-2713940D03*
X+2738340Y-2713940D03*
X+2688340Y-2713940D03*
X+2638340Y-2713940D03*
X+2588340Y-2713940D03*
X+2538340Y-2713940D03*
D48*
X+5595000Y-2298500D03*
X+5595000Y-2363500D03*
X+5595000Y-2428500D03*
X+5405000Y-2428500D03*
X+5405000Y-2363500D03*
X+5405000Y-2298500D03*
D23*
X+1608880Y-3617040D03*
X+1136440Y-3617040D03*
D49*
X+5840000Y-2599520D03*
X+5840000Y-2344280D03*
X+5840000Y-2088400D03*
X+5840000Y-2726980D03*
X+5840000Y-2471580D03*
X+5840000Y-2216340D03*
X+5839740Y-2821800D03*
D50*
X+5998560Y-1916440D03*
X+7202860Y-1917600D03*
X+7199980Y-3211960D03*
X+5998560Y-3211680D03*
D31*
X+1940000Y-3870000D03*
X+2190000Y-3870000D03*
X+2440000Y-3870000D03*
X+2690000Y-3870000D03*
X+2940000Y-3870000D03*
X+3190000Y-3870000D03*
X+3440000Y-3870000D03*
X+3690000Y-3870000D03*
X+3940000Y-3870000D03*
X+4190000Y-3870000D03*
X+4440000Y-3870000D03*
X+4690000Y-3870000D03*
X+4940000Y-3870000D03*
X+5190000Y-3870000D03*
X+5440000Y-3870000D03*
X+5690000Y-3870000D03*
X+5940000Y-3870000D03*
X+6190000Y-3870000D03*
D34*
X+1249920Y-1581580D03*
X+1249920Y-1091580D03*
D36*
X+980680Y-1697180D03*
D37*
X+930680Y-1707180D02*
X+930680Y-1687180D01*
X+1030680Y-1687180D01*
X+1030680Y-1707180D01*
X+930680Y-1707180D01*
D36*
X+980680Y-973280D03*
D37*
X+930680Y-983280D02*
X+930680Y-963280D01*
X+1030680Y-963280D01*
X+1030680Y-983280D01*
X+930680Y-983280D01*
D51*
X+1090480Y-2981820D03*
X+1090480Y-2131820D03*
D39*
X+1498100Y-2454580D03*
X+1498100Y-2627300D03*
X+1392900Y-3222600D03*
X+1565620Y-3222600D03*
X+7200000Y-3716200D03*
X+7200000Y-3543480D03*
X+7047460Y-3711460D03*
X+7047460Y-3538740D03*
X+6897300Y-3708740D03*
X+6897300Y-3536020D03*
X+6749520Y-3533820D03*
X+6749520Y-3706540D03*
X+5629900Y-2546300D03*
X+5629900Y-2719020D03*
X+5772100Y-3069600D03*
X+5599380Y-3069600D03*
X+5596940Y-3204200D03*
X+5769660Y-3204200D03*
X+5594300Y-3351540D03*
X+5767020Y-3351540D03*
X+5383280Y-824280D03*
X+5383280Y-997000D03*
D52*
X+1642060Y-2025660D03*
X+1855420Y-2025660D03*
D39*
X+2002780Y-2038300D03*
X+2002780Y-2211020D03*
X+1677620Y-2211080D03*
X+1850340Y-2211080D03*
X+2002800Y-2503220D03*
X+2002800Y-2330500D03*
X+1868120Y-2330460D03*
X+1868120Y-2503180D03*
X+1832660Y-1659880D03*
X+1659940Y-1659880D03*
X+1827580Y-1837680D03*
X+1654860Y-1837680D03*
X+1316940Y-1865640D03*
X+1489660Y-1865640D03*
X+3500300Y-826400D03*
X+3500300Y-999120D03*
X+4090800Y-826400D03*
X+4090800Y-999120D03*
X+4717451Y-817451D03*
X+4717451Y-990171D03*
X+2909800Y-826400D03*
X+2909800Y-999120D03*
X+2699800Y-826400D03*
X+2699800Y-999120D03*
X+3290300Y-826400D03*
X+3290300Y-999120D03*
X+3900800Y-826400D03*
X+3900800Y-999120D03*
X+4487179Y-815911D03*
X+4487179Y-988631D03*
X+3364240Y-2904540D03*
X+3364240Y-2731820D03*
X+2358340Y-2889260D03*
X+2531060Y-2889260D03*
X+2358340Y-3011180D03*
X+2531060Y-3011180D03*
D42*
X+818980Y-4046380D02*
X+818980Y-756380D01*
X+7338980Y-4046380D02*
X+7336440Y-966720D01*
X+817880Y-754380D02*
X+6554000Y-756920D01*
X+1818640Y-4046220D02*
X+1818640Y-4216700D01*
X+1818640Y-4218940D02*
X+2016760Y-4218940D01*
X+1818640Y-4218940D02*
X+2817020Y-4218940D01*
X+2817460Y-4047860D02*
X+2817460Y-4218340D01*
X+2816860Y-4046220D02*
X+5341620Y-4046220D01*
X+1818640Y-4046220D02*
X+817880Y-4046220D01*
X+5341620Y-4218940D02*
X+5341620Y-4046220D01*
X+6339840Y-4046220D02*
X+7338060Y-4046220D01*
X+6339840Y-4218940D02*
X+6339840Y-4046220D01*
X+5341620Y-4218940D02*
X+6339840Y-4218940D01*
X+6554000Y-756920D02*
X+6554000Y-967260D01*
X+7338060Y-967260D01*
M02*
