M48
METRIC,TZ
T01C0.3000
T02C1.5000
T03C1.0000
T04C0.7000
%
T01
X+70051Y-23762
X+68274Y-28193
X+59584Y-27270
X+70051Y-27100
X+70525Y-34811
X+71996Y-34862
X+69024Y-34735
X+60159Y-29629
X+57721Y-31356
X+55283Y-30696
X+58483Y-29070
X+57365Y-20942
X+57010Y-23638
X+61252Y-29426
X+59601Y-23584
X+19342Y-22746
X+19291Y-22110
X+19342Y-23305
X+15532Y-18631
X+14719Y-37071
X+14719Y-37529
X+14719Y-38011
X+14719Y-38494
X+10198Y-36843
X+10198Y-37249
X+10198Y-37706
X+10198Y-38113
X+16065Y-33084
X+16675Y-33084
X+17284Y-33084
X+18046Y-33084
X+18681Y-33084
X+36918Y-36259
X+39052Y-36360
X+32764Y-35395
X+37198Y-30961
X+31813Y-34785
X+36537Y-30061
X+44310Y-36284
X+46926Y-35979
X+21577Y-31128
X+21577Y-30671
X+21577Y-31585
X+35394Y-29985
X+16827Y-12332
X+29908Y-24286
X+29857Y-25921
X+29876Y-25514
X+29883Y-23787
X+49034Y-34608
X+25184Y-30848
X+25184Y-31242
X+30349Y-20561
X+30333Y-20155
X+31864Y-19535
X+32270Y-19535
X+20154Y-29909
X+33794Y-35852
X+20612Y-29909
X+57289Y-27244
X+69024Y-34709
X+70192Y-24829
X+15887Y-22974
X+16294Y-22974
X+26047Y-22898
X+26144Y-9991
X+31700Y-9800
X+36400Y-10700
X+36600Y-9900
X+26657Y-24016
X+28917Y-22949
X+41109Y-36233
X+40200Y-31407
X+40200Y-35903
X+49339Y-35800
X+47713Y-33363
X+51650Y-34836
X+70151Y-26000
X+48247Y-33973
X+53784Y-36259
X+61800Y-35700
X+60400Y-35700
X+60400Y-34500
X+61800Y-34500
X+67300Y-30700
X+67300Y-27000
X+62100Y-27000
X+62100Y-24100
X+65900Y-24100
X+68800Y-21200
X+61500Y-19900
X+69500Y-19900
X+66400Y-34600
X+52100Y-9300
X+52100Y-9800
X+52100Y-10300
X+52100Y-10800
X+52100Y-11300
X+44300Y-17700
X+44300Y-16200
X+42300Y-14500
X+52616Y-28232
X+56100Y-14500
X+45100Y-26400
X+45700Y-27000
X+38392Y-27673
X+45300Y-29900
X+46000Y-31100
X+39636Y-28300
X+45600Y-28300
X+52920Y-34252
X+33866Y-25410
X+33866Y-26200
X+22009Y-36233
X+22390Y-36233
X+22796Y-36233
X+23253Y-36233
X+23253Y-35649
X+27100Y-21600
X+25500Y-21400
X+15200Y-21200
X+23300Y-19000
X+19327Y-25097
X+19367Y-27927
X+22600Y-28600
X+26300Y-21429
X+56807Y-36208
X+45500Y-29051
X+39992Y-29426
X+57746Y-34481
X+55100Y-8243
X+67234Y-12074
X+66556Y-12074
X+65878Y-12074
X+65200Y-12074
X+64522Y-12074
X+63845Y-12074
X+63167Y-12074
X+62489Y-12074
X+61811Y-12087
X+61134Y-12120
X+60468Y-12241
X+59827Y-12462
X+59246Y-12812
X+58773Y-13297
X+58544Y-13935
X+58530Y-14612
X+58530Y-15290
X+56913Y-15013
X+56913Y-14335
X+56919Y-13657
X+57113Y-13007
X+57418Y-12402
X+57843Y-11874
X+58365Y-11442
X+58949Y-11098
X+59573Y-10833
X+60223Y-10640
X+60888Y-10510
X+61563Y-10456
X+62241Y-10456
X+62919Y-10456
X+63597Y-10456
X+64275Y-10456
X+64952Y-10456
X+65630Y-10456
X+66308Y-10456
X+66986Y-10456
X+39077Y-31026
X+34400Y-36386
X+45631Y-32169
X+45935Y-36386
X+45046Y-31382
X+45072Y-36386
X+55714Y-35395
X+58562Y-35598
X+23306Y-16194
X+25133Y-17539
X+21424Y-19799
X+23253Y-19774
X+53632Y-30137
X+20713Y-19291
X+25285Y-24143
X+24752Y-31890
X+22500Y-29400
X+16724Y-27624
X+16548Y-9347
X+21641Y-9347
X+23647Y-11354
X+36004Y-28943
X+44513Y-30061
X+41897Y-36233
T02
X+69431Y-11265
T03
X+66891Y-13805
X+71971Y-13805
X+71971Y-8725
X+66891Y-8725
T04
X+12499Y-15816
X+12499Y-10916
M30
