G04 PROTEUS RS274X GERBER FILE*
%FSLAX45Y45*%
%MOMM*%
G01*
%ADD46R,1.480000X0.300000*%
%ADD47R,0.300000X1.480000*%
%ADD48R,1.000000X0.400000*%
%ADD23R,2.032000X3.810000*%
%ADD49R,1.230000X0.650000*%
%ADD50R,2.100000X0.700000*%
%ADD31R,1.397000X3.505200*%
%ADD51R,1.500000X5.500000*%
%ADD39R,0.889000X0.889000*%
%ADD52R,1.016000X1.270000*%
%ADD42C,0.203200*%
D46*
X+2389340Y-2564940D03*
X+2389340Y-2514940D03*
X+2389340Y-2464940D03*
X+2389340Y-2414940D03*
X+2389340Y-2364940D03*
X+2389340Y-2314940D03*
X+2389340Y-2264940D03*
X+2389340Y-2214940D03*
X+2389340Y-2164940D03*
X+2389340Y-2114940D03*
X+2389340Y-2064940D03*
X+2389340Y-2014940D03*
D47*
X+2538340Y-1865940D03*
X+2588340Y-1865940D03*
X+2638340Y-1865940D03*
X+2688340Y-1865940D03*
X+2738340Y-1865940D03*
X+2788340Y-1865940D03*
X+2838340Y-1865940D03*
X+2888340Y-1865940D03*
X+2938340Y-1865940D03*
X+2988340Y-1865940D03*
X+3038340Y-1865940D03*
X+3088340Y-1865940D03*
D46*
X+3237340Y-2014940D03*
X+3237340Y-2064940D03*
X+3237340Y-2114940D03*
X+3237340Y-2164940D03*
X+3237340Y-2214940D03*
X+3237340Y-2264940D03*
X+3237340Y-2314940D03*
X+3237340Y-2364940D03*
X+3237340Y-2414940D03*
X+3237340Y-2464940D03*
X+3237340Y-2514940D03*
X+3237340Y-2564940D03*
D47*
X+3088340Y-2713940D03*
X+3038340Y-2713940D03*
X+2988340Y-2713940D03*
X+2938340Y-2713940D03*
X+2888340Y-2713940D03*
X+2838340Y-2713940D03*
X+2788340Y-2713940D03*
X+2738340Y-2713940D03*
X+2688340Y-2713940D03*
X+2638340Y-2713940D03*
X+2588340Y-2713940D03*
X+2538340Y-2713940D03*
D48*
X+5595000Y-2298500D03*
X+5595000Y-2363500D03*
X+5595000Y-2428500D03*
X+5405000Y-2428500D03*
X+5405000Y-2363500D03*
X+5405000Y-2298500D03*
D23*
X+1608880Y-3617040D03*
X+1136440Y-3617040D03*
D49*
X+5840000Y-2599520D03*
X+5840000Y-2344280D03*
X+5840000Y-2088400D03*
X+5840000Y-2726980D03*
X+5840000Y-2471580D03*
X+5840000Y-2216340D03*
X+5839740Y-2821800D03*
D50*
X+5998560Y-1916440D03*
X+7202860Y-1917600D03*
X+7199980Y-3211960D03*
X+5998560Y-3211680D03*
D31*
X+1940000Y-3870000D03*
X+2190000Y-3870000D03*
X+2440000Y-3870000D03*
X+2690000Y-3870000D03*
X+2940000Y-3870000D03*
X+3190000Y-3870000D03*
X+3440000Y-3870000D03*
X+3690000Y-3870000D03*
X+3940000Y-3870000D03*
X+4190000Y-3870000D03*
X+4440000Y-3870000D03*
X+4690000Y-3870000D03*
X+4940000Y-3870000D03*
X+5190000Y-3870000D03*
X+5440000Y-3870000D03*
X+5690000Y-3870000D03*
X+5940000Y-3870000D03*
X+6190000Y-3870000D03*
D51*
X+1090480Y-2981820D03*
X+1090480Y-2131820D03*
D39*
X+1498100Y-2454580D03*
X+1498100Y-2627300D03*
X+1392900Y-3222600D03*
X+1565620Y-3222600D03*
X+7200000Y-3716200D03*
X+7200000Y-3543480D03*
X+7047460Y-3711460D03*
X+7047460Y-3538740D03*
X+6897300Y-3708740D03*
X+6897300Y-3536020D03*
X+6749520Y-3533820D03*
X+6749520Y-3706540D03*
X+5629900Y-2546300D03*
X+5629900Y-2719020D03*
X+5772100Y-3069600D03*
X+5599380Y-3069600D03*
X+5596940Y-3204200D03*
X+5769660Y-3204200D03*
X+5594300Y-3351540D03*
X+5767020Y-3351540D03*
X+5383280Y-824280D03*
X+5383280Y-997000D03*
D52*
X+1642060Y-2025660D03*
X+1855420Y-2025660D03*
D39*
X+2002780Y-2038300D03*
X+2002780Y-2211020D03*
X+1677620Y-2211080D03*
X+1850340Y-2211080D03*
X+2002800Y-2503220D03*
X+2002800Y-2330500D03*
X+1868120Y-2330460D03*
X+1868120Y-2503180D03*
X+1832660Y-1659880D03*
X+1659940Y-1659880D03*
X+1827580Y-1837680D03*
X+1654860Y-1837680D03*
X+1316940Y-1865640D03*
X+1489660Y-1865640D03*
X+3500300Y-826400D03*
X+3500300Y-999120D03*
X+4090800Y-826400D03*
X+4090800Y-999120D03*
X+4717451Y-817451D03*
X+4717451Y-990171D03*
X+2909800Y-826400D03*
X+2909800Y-999120D03*
X+2699800Y-826400D03*
X+2699800Y-999120D03*
X+3290300Y-826400D03*
X+3290300Y-999120D03*
X+3900800Y-826400D03*
X+3900800Y-999120D03*
X+4487179Y-815911D03*
X+4487179Y-988631D03*
X+3364240Y-2904540D03*
X+3364240Y-2731820D03*
X+2358340Y-2889260D03*
X+2531060Y-2889260D03*
X+2358340Y-3011180D03*
X+2531060Y-3011180D03*
D42*
X+818980Y-4046380D02*
X+818980Y-756380D01*
X+7338980Y-4046380D02*
X+7336440Y-966720D01*
X+817880Y-754380D02*
X+6554000Y-756920D01*
X+1818640Y-4046220D02*
X+1818640Y-4216700D01*
X+1818640Y-4218940D02*
X+2016760Y-4218940D01*
X+1818640Y-4218940D02*
X+2817020Y-4218940D01*
X+2817460Y-4047860D02*
X+2817460Y-4218340D01*
X+2816860Y-4046220D02*
X+5341620Y-4046220D01*
X+1818640Y-4046220D02*
X+817880Y-4046220D01*
X+5341620Y-4218940D02*
X+5341620Y-4046220D01*
X+6339840Y-4046220D02*
X+7338060Y-4046220D01*
X+6339840Y-4218940D02*
X+6339840Y-4046220D01*
X+5341620Y-4218940D02*
X+6339840Y-4218940D01*
X+6554000Y-756920D02*
X+6554000Y-967260D01*
X+7338060Y-967260D01*
M02*
