G04 PROTEUS RS274X GERBER FILE*
%FSLAX45Y45*%
%MOMM*%
G01*
%ADD42C,0.203200*%
%ADD100C,0.050000*%
%ADD117C,0.270000*%
%ADD118C,0.262250*%
%ADD108C,0.360000*%
%ADD119C,0.086250*%
%ADD11C,1.524000*%
%ADD105C,0.225210*%
%ADD120C,0.382400*%
%ADD121C,1.350000*%
%ADD122C,0.294000*%
%ADD111C,0.355600*%
%ADD112C,0.060960*%
%ADD12C,0.508000*%
%ADD123C,0.085340*%
D42*
X+818980Y-4046380D02*
X+818980Y-756380D01*
D100*
X+2291340Y-2811940D02*
X+3335340Y-2811940D01*
X+3335340Y-1767940D01*
X+2291340Y-1767940D01*
X+2291340Y-2811940D01*
D117*
X+2389340Y-2564940D02*
X+2389340Y-2564940D01*
D118*
X+2498640Y-2368615D02*
X+2498640Y-2237490D01*
X+2524865Y-2211265D01*
X+2629765Y-2211265D01*
X+2655990Y-2237490D01*
X+2655990Y-2368615D01*
X+2760890Y-2316165D02*
X+2813340Y-2368615D01*
X+2813340Y-2211265D01*
X+2944465Y-2342390D02*
X+2970690Y-2368615D01*
X+3049365Y-2368615D01*
X+3075590Y-2342390D01*
X+3075590Y-2316165D01*
X+3049365Y-2289940D01*
X+3075590Y-2263715D01*
X+3075590Y-2237490D01*
X+3049365Y-2211265D01*
X+2970690Y-2211265D01*
X+2944465Y-2237490D01*
X+2996915Y-2289940D02*
X+3049365Y-2289940D01*
D42*
X+7338980Y-4046380D02*
X+7336440Y-966720D01*
X+817880Y-754380D02*
X+6554000Y-756920D01*
X+1818640Y-4046220D02*
X+1818640Y-4216700D01*
X+1818640Y-4218940D02*
X+2016760Y-4218940D01*
X+1818640Y-4218940D02*
X+2817020Y-4218940D01*
X+2817460Y-4047860D02*
X+2817460Y-4218340D01*
D100*
X+5330000Y-2493500D02*
X+5670000Y-2493500D01*
X+5670000Y-2233500D01*
X+5330000Y-2233500D01*
X+5330000Y-2493500D01*
D108*
X+5595000Y-2298500D02*
X+5595000Y-2298500D01*
D119*
X+5603500Y-2389375D02*
X+5603500Y-2337625D01*
X+5569000Y-2337625D01*
X+5551750Y-2354875D01*
X+5551750Y-2372125D01*
X+5569000Y-2389375D01*
X+5603500Y-2389375D01*
X+5525875Y-2346250D02*
X+5517250Y-2337625D01*
X+5491375Y-2337625D01*
X+5482750Y-2346250D01*
X+5482750Y-2354875D01*
X+5491375Y-2363500D01*
X+5517250Y-2363500D01*
X+5525875Y-2372125D01*
X+5525875Y-2389375D01*
X+5482750Y-2389375D01*
X+5465500Y-2380750D02*
X+5465500Y-2346250D01*
X+5456875Y-2337625D01*
X+5422375Y-2337625D01*
X+5413750Y-2346250D01*
X+5413750Y-2380750D01*
X+5422375Y-2389375D01*
X+5456875Y-2389375D01*
X+5465500Y-2380750D01*
X+5465500Y-2389375D02*
X+5413750Y-2337625D01*
D42*
X+1034840Y-3881200D02*
X+1710480Y-3881200D01*
X+1710480Y-3426540D01*
X+1034840Y-3426540D01*
X+1034840Y-3881200D01*
D11*
X+1136440Y-3617040D02*
X+1136440Y-3617040D01*
D105*
X+1417703Y-3698913D02*
X+1440224Y-3721434D01*
X+1507788Y-3721434D01*
X+1552830Y-3676391D01*
X+1552830Y-3631349D01*
X+1507788Y-3586306D01*
X+1440224Y-3586306D01*
X+1417703Y-3608827D01*
X+1327618Y-3631349D02*
X+1282575Y-3586306D01*
X+1282575Y-3721434D01*
D42*
X+5778240Y-3246960D02*
X+7307860Y-3246960D01*
X+7307860Y-1881440D01*
X+5778240Y-1881440D01*
X+5778240Y-3246960D01*
D120*
X+6084164Y-2525960D02*
X+6084164Y-2487719D01*
X+6122404Y-2449479D01*
X+6275366Y-2449479D01*
X+6313607Y-2487719D01*
X+6313607Y-2678922D01*
X+6466569Y-2602441D02*
X+6543050Y-2678922D01*
X+6543050Y-2449479D01*
X+6696012Y-2487719D02*
X+6696012Y-2640681D01*
X+6734252Y-2678922D01*
X+6887214Y-2678922D01*
X+6925455Y-2640681D01*
X+6925455Y-2487719D01*
X+6887214Y-2449479D01*
X+6734252Y-2449479D01*
X+6696012Y-2487719D01*
X+6696012Y-2449479D02*
X+6925455Y-2678922D01*
D42*
X+2816860Y-4046220D02*
X+5341620Y-4046220D01*
X+1818640Y-4046220D02*
X+817880Y-4046220D01*
X+5341620Y-4218940D02*
X+5341620Y-4046220D01*
X+6339840Y-4046220D02*
X+7338060Y-4046220D01*
X+6339840Y-4218940D02*
X+6339840Y-4046220D01*
X+5341620Y-4218940D02*
X+6339840Y-4218940D01*
X+845480Y-3352820D02*
X+1335480Y-3352820D01*
X+1335480Y-1856820D01*
X+845480Y-1856820D01*
X+845480Y-3352820D01*
D121*
X+1090480Y-2981820D02*
X+1090480Y-2981820D01*
D122*
X+1002280Y-2252020D02*
X+1149280Y-2252020D01*
X+1178680Y-2281420D01*
X+1178680Y-2399020D01*
X+1149280Y-2428420D01*
X+1002280Y-2428420D01*
X+1061080Y-2546020D02*
X+1002280Y-2604820D01*
X+1178680Y-2604820D01*
X+1002280Y-2751820D02*
X+1002280Y-2898820D01*
X+1031680Y-2898820D01*
X+1178680Y-2751820D01*
D42*
X+1447300Y-2671750D02*
X+1548900Y-2671750D01*
X+1548900Y-2410130D01*
X+1447300Y-2410130D01*
X+1447300Y-2671750D01*
D111*
X+1498100Y-2454580D02*
X+1498100Y-2454580D01*
D112*
X+1516388Y-2467788D02*
X+1479812Y-2467788D01*
X+1479812Y-2498268D01*
X+1485908Y-2504364D01*
X+1492004Y-2504364D01*
X+1498100Y-2498268D01*
X+1498100Y-2467788D01*
X+1498100Y-2498268D02*
X+1504196Y-2504364D01*
X+1516388Y-2504364D01*
X+1479812Y-2553132D02*
X+1479812Y-2522652D01*
X+1492004Y-2522652D01*
X+1492004Y-2547036D01*
X+1498100Y-2553132D01*
X+1510292Y-2553132D01*
X+1516388Y-2547036D01*
X+1516388Y-2528748D01*
X+1510292Y-2522652D01*
X+1485908Y-2571420D02*
X+1479812Y-2577516D01*
X+1479812Y-2595804D01*
X+1485908Y-2601900D01*
X+1492004Y-2601900D01*
X+1498100Y-2595804D01*
X+1504196Y-2601900D01*
X+1510292Y-2601900D01*
X+1516388Y-2595804D01*
X+1516388Y-2577516D01*
X+1510292Y-2571420D01*
X+1498100Y-2583612D02*
X+1498100Y-2595804D01*
D42*
X+1348450Y-3273400D02*
X+1610070Y-3273400D01*
X+1610070Y-3171800D01*
X+1348450Y-3171800D01*
X+1348450Y-3273400D01*
D111*
X+1392900Y-3222600D02*
X+1392900Y-3222600D01*
D112*
X+1442684Y-3210408D02*
X+1436588Y-3204312D01*
X+1418300Y-3204312D01*
X+1406108Y-3216504D01*
X+1406108Y-3228696D01*
X+1418300Y-3240888D01*
X+1436588Y-3240888D01*
X+1442684Y-3234792D01*
X+1491452Y-3216504D02*
X+1454876Y-3216504D01*
X+1479260Y-3240888D01*
X+1479260Y-3204312D01*
X+1509740Y-3234792D02*
X+1515836Y-3240888D01*
X+1534124Y-3240888D01*
X+1540220Y-3234792D01*
X+1540220Y-3228696D01*
X+1534124Y-3222600D01*
X+1515836Y-3222600D01*
X+1509740Y-3216504D01*
X+1509740Y-3204312D01*
X+1540220Y-3204312D01*
D42*
X+7149200Y-3760650D02*
X+7250800Y-3760650D01*
X+7250800Y-3499030D01*
X+7149200Y-3499030D01*
X+7149200Y-3760650D01*
D111*
X+7200000Y-3716200D02*
X+7200000Y-3716200D01*
D112*
X+7218288Y-3556688D02*
X+7181712Y-3556688D01*
X+7181712Y-3587168D01*
X+7187808Y-3593264D01*
X+7193904Y-3593264D01*
X+7200000Y-3587168D01*
X+7200000Y-3556688D01*
X+7200000Y-3587168D02*
X+7206096Y-3593264D01*
X+7218288Y-3593264D01*
X+7181712Y-3642032D02*
X+7181712Y-3611552D01*
X+7193904Y-3611552D01*
X+7193904Y-3635936D01*
X+7200000Y-3642032D01*
X+7212192Y-3642032D01*
X+7218288Y-3635936D01*
X+7218288Y-3617648D01*
X+7212192Y-3611552D01*
X+7181712Y-3690800D02*
X+7181712Y-3660320D01*
X+7193904Y-3660320D01*
X+7193904Y-3684704D01*
X+7200000Y-3690800D01*
X+7212192Y-3690800D01*
X+7218288Y-3684704D01*
X+7218288Y-3666416D01*
X+7212192Y-3660320D01*
D42*
X+6996660Y-3755910D02*
X+7098260Y-3755910D01*
X+7098260Y-3494290D01*
X+6996660Y-3494290D01*
X+6996660Y-3755910D01*
D111*
X+7047460Y-3711460D02*
X+7047460Y-3711460D01*
D112*
X+7065748Y-3551948D02*
X+7029172Y-3551948D01*
X+7029172Y-3582428D01*
X+7035268Y-3588524D01*
X+7041364Y-3588524D01*
X+7047460Y-3582428D01*
X+7047460Y-3551948D01*
X+7047460Y-3582428D02*
X+7053556Y-3588524D01*
X+7065748Y-3588524D01*
X+7029172Y-3637292D02*
X+7029172Y-3606812D01*
X+7041364Y-3606812D01*
X+7041364Y-3631196D01*
X+7047460Y-3637292D01*
X+7059652Y-3637292D01*
X+7065748Y-3631196D01*
X+7065748Y-3612908D01*
X+7059652Y-3606812D01*
X+7035268Y-3686060D02*
X+7029172Y-3679964D01*
X+7029172Y-3661676D01*
X+7035268Y-3655580D01*
X+7059652Y-3655580D01*
X+7065748Y-3661676D01*
X+7065748Y-3679964D01*
X+7059652Y-3686060D01*
X+7053556Y-3686060D01*
X+7047460Y-3679964D01*
X+7047460Y-3655580D01*
D42*
X+6846500Y-3753190D02*
X+6948100Y-3753190D01*
X+6948100Y-3491570D01*
X+6846500Y-3491570D01*
X+6846500Y-3753190D01*
D111*
X+6897300Y-3708740D02*
X+6897300Y-3708740D01*
D112*
X+6915588Y-3549228D02*
X+6879012Y-3549228D01*
X+6879012Y-3579708D01*
X+6885108Y-3585804D01*
X+6891204Y-3585804D01*
X+6897300Y-3579708D01*
X+6897300Y-3549228D01*
X+6897300Y-3579708D02*
X+6903396Y-3585804D01*
X+6915588Y-3585804D01*
X+6879012Y-3634572D02*
X+6879012Y-3604092D01*
X+6891204Y-3604092D01*
X+6891204Y-3628476D01*
X+6897300Y-3634572D01*
X+6909492Y-3634572D01*
X+6915588Y-3628476D01*
X+6915588Y-3610188D01*
X+6909492Y-3604092D01*
X+6879012Y-3652860D02*
X+6879012Y-3683340D01*
X+6885108Y-3683340D01*
X+6915588Y-3652860D01*
D42*
X+6698720Y-3750990D02*
X+6800320Y-3750990D01*
X+6800320Y-3489370D01*
X+6698720Y-3489370D01*
X+6698720Y-3750990D01*
D111*
X+6749520Y-3533820D02*
X+6749520Y-3533820D01*
D112*
X+6767808Y-3547028D02*
X+6731232Y-3547028D01*
X+6731232Y-3577508D01*
X+6737328Y-3583604D01*
X+6743424Y-3583604D01*
X+6749520Y-3577508D01*
X+6749520Y-3547028D01*
X+6749520Y-3577508D02*
X+6755616Y-3583604D01*
X+6767808Y-3583604D01*
X+6731232Y-3632372D02*
X+6731232Y-3601892D01*
X+6743424Y-3601892D01*
X+6743424Y-3626276D01*
X+6749520Y-3632372D01*
X+6761712Y-3632372D01*
X+6767808Y-3626276D01*
X+6767808Y-3607988D01*
X+6761712Y-3601892D01*
X+6749520Y-3656756D02*
X+6743424Y-3650660D01*
X+6737328Y-3650660D01*
X+6731232Y-3656756D01*
X+6731232Y-3675044D01*
X+6737328Y-3681140D01*
X+6743424Y-3681140D01*
X+6749520Y-3675044D01*
X+6749520Y-3656756D01*
X+6755616Y-3650660D01*
X+6761712Y-3650660D01*
X+6767808Y-3656756D01*
X+6767808Y-3675044D01*
X+6761712Y-3681140D01*
X+6755616Y-3681140D01*
X+6749520Y-3675044D01*
D42*
X+5579100Y-2763470D02*
X+5680700Y-2763470D01*
X+5680700Y-2501850D01*
X+5579100Y-2501850D01*
X+5579100Y-2763470D01*
D111*
X+5629900Y-2546300D02*
X+5629900Y-2546300D01*
D112*
X+5617708Y-2669236D02*
X+5611612Y-2675332D01*
X+5611612Y-2693620D01*
X+5623804Y-2705812D01*
X+5635996Y-2705812D01*
X+5648188Y-2693620D01*
X+5648188Y-2675332D01*
X+5642092Y-2669236D01*
X+5623804Y-2620468D02*
X+5623804Y-2657044D01*
X+5648188Y-2632660D01*
X+5611612Y-2632660D01*
X+5635996Y-2571700D02*
X+5629900Y-2577796D01*
X+5629900Y-2596084D01*
X+5635996Y-2602180D01*
X+5642092Y-2602180D01*
X+5648188Y-2596084D01*
X+5648188Y-2577796D01*
X+5642092Y-2571700D01*
X+5617708Y-2571700D01*
X+5611612Y-2577796D01*
X+5611612Y-2596084D01*
D42*
X+5554930Y-3120400D02*
X+5816550Y-3120400D01*
X+5816550Y-3018800D01*
X+5554930Y-3018800D01*
X+5554930Y-3120400D01*
D111*
X+5772100Y-3069600D02*
X+5772100Y-3069600D01*
D112*
X+5758892Y-3087888D02*
X+5758892Y-3051312D01*
X+5728412Y-3051312D01*
X+5722316Y-3057408D01*
X+5722316Y-3063504D01*
X+5728412Y-3069600D01*
X+5758892Y-3069600D01*
X+5728412Y-3069600D02*
X+5722316Y-3075696D01*
X+5722316Y-3087888D01*
X+5704028Y-3051312D02*
X+5673548Y-3051312D01*
X+5673548Y-3057408D01*
X+5704028Y-3087888D01*
X+5661356Y-3081792D02*
X+5661356Y-3057408D01*
X+5655260Y-3051312D01*
X+5630876Y-3051312D01*
X+5624780Y-3057408D01*
X+5624780Y-3081792D01*
X+5630876Y-3087888D01*
X+5655260Y-3087888D01*
X+5661356Y-3081792D01*
X+5661356Y-3087888D02*
X+5624780Y-3051312D01*
D42*
X+5552490Y-3255000D02*
X+5814110Y-3255000D01*
X+5814110Y-3153400D01*
X+5552490Y-3153400D01*
X+5552490Y-3255000D01*
D111*
X+5596940Y-3204200D02*
X+5596940Y-3204200D01*
D112*
X+5756452Y-3222488D02*
X+5756452Y-3185912D01*
X+5725972Y-3185912D01*
X+5719876Y-3192008D01*
X+5719876Y-3198104D01*
X+5725972Y-3204200D01*
X+5756452Y-3204200D01*
X+5725972Y-3204200D02*
X+5719876Y-3210296D01*
X+5719876Y-3222488D01*
X+5701588Y-3185912D02*
X+5671108Y-3185912D01*
X+5671108Y-3192008D01*
X+5701588Y-3222488D01*
X+5646724Y-3198104D02*
X+5634532Y-3185912D01*
X+5634532Y-3222488D01*
D42*
X+5549850Y-3402340D02*
X+5811470Y-3402340D01*
X+5811470Y-3300740D01*
X+5549850Y-3300740D01*
X+5549850Y-3402340D01*
D111*
X+5594300Y-3351540D02*
X+5594300Y-3351540D01*
D112*
X+5753812Y-3369828D02*
X+5753812Y-3333252D01*
X+5723332Y-3333252D01*
X+5717236Y-3339348D01*
X+5717236Y-3345444D01*
X+5723332Y-3351540D01*
X+5753812Y-3351540D01*
X+5723332Y-3351540D02*
X+5717236Y-3357636D01*
X+5717236Y-3369828D01*
X+5668468Y-3339348D02*
X+5674564Y-3333252D01*
X+5692852Y-3333252D01*
X+5698948Y-3339348D01*
X+5698948Y-3363732D01*
X+5692852Y-3369828D01*
X+5674564Y-3369828D01*
X+5668468Y-3363732D01*
X+5668468Y-3357636D01*
X+5674564Y-3351540D01*
X+5698948Y-3351540D01*
X+5619700Y-3345444D02*
X+5625796Y-3351540D01*
X+5644084Y-3351540D01*
X+5650180Y-3345444D01*
X+5650180Y-3339348D01*
X+5644084Y-3333252D01*
X+5625796Y-3333252D01*
X+5619700Y-3339348D01*
X+5619700Y-3363732D01*
X+5625796Y-3369828D01*
X+5644084Y-3369828D01*
D42*
X+5332480Y-1041450D02*
X+5434080Y-1041450D01*
X+5434080Y-779830D01*
X+5332480Y-779830D01*
X+5332480Y-1041450D01*
D111*
X+5383280Y-997000D02*
X+5383280Y-997000D01*
D112*
X+5401568Y-861872D02*
X+5364992Y-861872D01*
X+5364992Y-886256D01*
X+5377184Y-898448D01*
X+5389376Y-898448D01*
X+5401568Y-886256D01*
X+5401568Y-861872D01*
X+5383280Y-922832D02*
X+5377184Y-916736D01*
X+5371088Y-916736D01*
X+5364992Y-922832D01*
X+5364992Y-941120D01*
X+5371088Y-947216D01*
X+5377184Y-947216D01*
X+5383280Y-941120D01*
X+5383280Y-922832D01*
X+5389376Y-916736D01*
X+5395472Y-916736D01*
X+5401568Y-922832D01*
X+5401568Y-941120D01*
X+5395472Y-947216D01*
X+5389376Y-947216D01*
X+5383280Y-941120D01*
D42*
X+1591260Y-2094240D02*
X+1906220Y-2094240D01*
X+1906220Y-1952000D01*
X+1591260Y-1952000D01*
X+1591260Y-2094240D01*
D12*
X+1642060Y-2025660D02*
X+1642060Y-2025660D01*
D123*
X+1817015Y-1997517D02*
X+1817015Y-2048724D01*
X+1765809Y-2048724D01*
X+1697534Y-2031655D02*
X+1748740Y-2031655D01*
X+1714603Y-1997517D01*
X+1714603Y-2048724D01*
D42*
X+1951980Y-2255470D02*
X+2053580Y-2255470D01*
X+2053580Y-1993850D01*
X+1951980Y-1993850D01*
X+1951980Y-2255470D01*
D111*
X+2002780Y-2038300D02*
X+2002780Y-2038300D01*
D112*
X+2014972Y-2088084D02*
X+2021068Y-2081988D01*
X+2021068Y-2063700D01*
X+2008876Y-2051508D01*
X+1996684Y-2051508D01*
X+1984492Y-2063700D01*
X+1984492Y-2081988D01*
X+1990588Y-2088084D01*
X+1984492Y-2136852D02*
X+1984492Y-2106372D01*
X+1996684Y-2106372D01*
X+1996684Y-2130756D01*
X+2002780Y-2136852D01*
X+2014972Y-2136852D01*
X+2021068Y-2130756D01*
X+2021068Y-2112468D01*
X+2014972Y-2106372D01*
X+1996684Y-2161236D02*
X+1984492Y-2173428D01*
X+2021068Y-2173428D01*
D42*
X+1633170Y-2261880D02*
X+1894790Y-2261880D01*
X+1894790Y-2160280D01*
X+1633170Y-2160280D01*
X+1633170Y-2261880D01*
D111*
X+1677620Y-2211080D02*
X+1677620Y-2211080D01*
D112*
X+1727404Y-2198888D02*
X+1721308Y-2192792D01*
X+1703020Y-2192792D01*
X+1690828Y-2204984D01*
X+1690828Y-2217176D01*
X+1703020Y-2229368D01*
X+1721308Y-2229368D01*
X+1727404Y-2223272D01*
X+1745692Y-2223272D02*
X+1751788Y-2229368D01*
X+1770076Y-2229368D01*
X+1776172Y-2223272D01*
X+1776172Y-2217176D01*
X+1770076Y-2211080D01*
X+1776172Y-2204984D01*
X+1776172Y-2198888D01*
X+1770076Y-2192792D01*
X+1751788Y-2192792D01*
X+1745692Y-2198888D01*
X+1757884Y-2211080D02*
X+1770076Y-2211080D01*
X+1824940Y-2204984D02*
X+1788364Y-2204984D01*
X+1812748Y-2229368D01*
X+1812748Y-2192792D01*
D42*
X+1952000Y-2547670D02*
X+2053600Y-2547670D01*
X+2053600Y-2286050D01*
X+1952000Y-2286050D01*
X+1952000Y-2547670D01*
D111*
X+2002800Y-2503220D02*
X+2002800Y-2503220D01*
D112*
X+2021088Y-2343708D02*
X+1984512Y-2343708D01*
X+1984512Y-2374188D01*
X+1990608Y-2380284D01*
X+1996704Y-2380284D01*
X+2002800Y-2374188D01*
X+2002800Y-2343708D01*
X+2002800Y-2374188D02*
X+2008896Y-2380284D01*
X+2021088Y-2380284D01*
X+2008896Y-2429052D02*
X+2008896Y-2392476D01*
X+1984512Y-2416860D01*
X+2021088Y-2416860D01*
X+1984512Y-2477820D02*
X+1984512Y-2447340D01*
X+1996704Y-2447340D01*
X+1996704Y-2471724D01*
X+2002800Y-2477820D01*
X+2014992Y-2477820D01*
X+2021088Y-2471724D01*
X+2021088Y-2453436D01*
X+2014992Y-2447340D01*
D42*
X+1817320Y-2547630D02*
X+1918920Y-2547630D01*
X+1918920Y-2286010D01*
X+1817320Y-2286010D01*
X+1817320Y-2547630D01*
D111*
X+1868120Y-2330460D02*
X+1868120Y-2330460D01*
D112*
X+1855928Y-2453396D02*
X+1849832Y-2459492D01*
X+1849832Y-2477780D01*
X+1862024Y-2489972D01*
X+1874216Y-2489972D01*
X+1886408Y-2477780D01*
X+1886408Y-2459492D01*
X+1880312Y-2453396D01*
X+1886408Y-2404628D02*
X+1886408Y-2435108D01*
X+1874216Y-2435108D01*
X+1874216Y-2410724D01*
X+1868120Y-2404628D01*
X+1855928Y-2404628D01*
X+1849832Y-2410724D01*
X+1849832Y-2429012D01*
X+1855928Y-2435108D01*
X+1880312Y-2386340D02*
X+1886408Y-2380244D01*
X+1886408Y-2361956D01*
X+1880312Y-2355860D01*
X+1874216Y-2355860D01*
X+1868120Y-2361956D01*
X+1868120Y-2380244D01*
X+1862024Y-2386340D01*
X+1849832Y-2386340D01*
X+1849832Y-2355860D01*
D42*
X+1615490Y-1710680D02*
X+1877110Y-1710680D01*
X+1877110Y-1609080D01*
X+1615490Y-1609080D01*
X+1615490Y-1710680D01*
D111*
X+1832660Y-1659880D02*
X+1832660Y-1659880D01*
D112*
X+1782876Y-1672072D02*
X+1788972Y-1678168D01*
X+1807260Y-1678168D01*
X+1819452Y-1665976D01*
X+1819452Y-1653784D01*
X+1807260Y-1641592D01*
X+1788972Y-1641592D01*
X+1782876Y-1647688D01*
X+1764588Y-1647688D02*
X+1758492Y-1641592D01*
X+1740204Y-1641592D01*
X+1734108Y-1647688D01*
X+1734108Y-1653784D01*
X+1740204Y-1659880D01*
X+1734108Y-1665976D01*
X+1734108Y-1672072D01*
X+1740204Y-1678168D01*
X+1758492Y-1678168D01*
X+1764588Y-1672072D01*
X+1752396Y-1659880D02*
X+1740204Y-1659880D01*
X+1715820Y-1641592D02*
X+1685340Y-1641592D01*
X+1685340Y-1647688D01*
X+1715820Y-1678168D01*
D42*
X+1610410Y-1888480D02*
X+1872030Y-1888480D01*
X+1872030Y-1786880D01*
X+1610410Y-1786880D01*
X+1610410Y-1888480D01*
D111*
X+1827580Y-1837680D02*
X+1827580Y-1837680D01*
D112*
X+1777796Y-1849872D02*
X+1783892Y-1855968D01*
X+1802180Y-1855968D01*
X+1814372Y-1843776D01*
X+1814372Y-1831584D01*
X+1802180Y-1819392D01*
X+1783892Y-1819392D01*
X+1777796Y-1825488D01*
X+1759508Y-1825488D02*
X+1753412Y-1819392D01*
X+1735124Y-1819392D01*
X+1729028Y-1825488D01*
X+1729028Y-1831584D01*
X+1735124Y-1837680D01*
X+1729028Y-1843776D01*
X+1729028Y-1849872D01*
X+1735124Y-1855968D01*
X+1753412Y-1855968D01*
X+1759508Y-1849872D01*
X+1747316Y-1837680D02*
X+1735124Y-1837680D01*
X+1680260Y-1825488D02*
X+1686356Y-1819392D01*
X+1704644Y-1819392D01*
X+1710740Y-1825488D01*
X+1710740Y-1849872D01*
X+1704644Y-1855968D01*
X+1686356Y-1855968D01*
X+1680260Y-1849872D01*
X+1680260Y-1843776D01*
X+1686356Y-1837680D01*
X+1710740Y-1837680D01*
D42*
X+1272490Y-1916440D02*
X+1534110Y-1916440D01*
X+1534110Y-1814840D01*
X+1272490Y-1814840D01*
X+1272490Y-1916440D01*
D111*
X+1316940Y-1865640D02*
X+1316940Y-1865640D01*
D112*
X+1439876Y-1877832D02*
X+1445972Y-1883928D01*
X+1464260Y-1883928D01*
X+1476452Y-1871736D01*
X+1476452Y-1859544D01*
X+1464260Y-1847352D01*
X+1445972Y-1847352D01*
X+1439876Y-1853448D01*
X+1391108Y-1871736D02*
X+1427684Y-1871736D01*
X+1403300Y-1847352D01*
X+1403300Y-1883928D01*
X+1372820Y-1853448D02*
X+1366724Y-1847352D01*
X+1348436Y-1847352D01*
X+1342340Y-1853448D01*
X+1342340Y-1859544D01*
X+1348436Y-1865640D01*
X+1342340Y-1871736D01*
X+1342340Y-1877832D01*
X+1348436Y-1883928D01*
X+1366724Y-1883928D01*
X+1372820Y-1877832D01*
X+1360628Y-1865640D02*
X+1348436Y-1865640D01*
D42*
X+3449500Y-1043570D02*
X+3551100Y-1043570D01*
X+3551100Y-781950D01*
X+3449500Y-781950D01*
X+3449500Y-1043570D01*
D111*
X+3500300Y-999120D02*
X+3500300Y-999120D01*
D112*
X+3518588Y-863992D02*
X+3482012Y-863992D01*
X+3482012Y-888376D01*
X+3494204Y-900568D01*
X+3506396Y-900568D01*
X+3518588Y-888376D01*
X+3518588Y-863992D01*
X+3488108Y-918856D02*
X+3482012Y-924952D01*
X+3482012Y-943240D01*
X+3488108Y-949336D01*
X+3494204Y-949336D01*
X+3500300Y-943240D01*
X+3500300Y-924952D01*
X+3506396Y-918856D01*
X+3518588Y-918856D01*
X+3518588Y-949336D01*
D42*
X+4040000Y-1043570D02*
X+4141600Y-1043570D01*
X+4141600Y-781950D01*
X+4040000Y-781950D01*
X+4040000Y-1043570D01*
D111*
X+4090800Y-999120D02*
X+4090800Y-999120D01*
D112*
X+4109088Y-863992D02*
X+4072512Y-863992D01*
X+4072512Y-888376D01*
X+4084704Y-900568D01*
X+4096896Y-900568D01*
X+4109088Y-888376D01*
X+4109088Y-863992D01*
X+4078608Y-918856D02*
X+4072512Y-924952D01*
X+4072512Y-943240D01*
X+4078608Y-949336D01*
X+4084704Y-949336D01*
X+4090800Y-943240D01*
X+4096896Y-949336D01*
X+4102992Y-949336D01*
X+4109088Y-943240D01*
X+4109088Y-924952D01*
X+4102992Y-918856D01*
X+4090800Y-931048D02*
X+4090800Y-943240D01*
D42*
X+4666651Y-1034621D02*
X+4768251Y-1034621D01*
X+4768251Y-773001D01*
X+4666651Y-773001D01*
X+4666651Y-1034621D01*
D111*
X+4717451Y-990171D02*
X+4717451Y-990171D01*
D112*
X+4735739Y-830659D02*
X+4699163Y-830659D01*
X+4699163Y-855043D01*
X+4711355Y-867235D01*
X+4723547Y-867235D01*
X+4735739Y-855043D01*
X+4735739Y-830659D01*
X+4711355Y-891619D02*
X+4699163Y-903811D01*
X+4735739Y-903811D01*
X+4717451Y-940387D02*
X+4711355Y-934291D01*
X+4705259Y-934291D01*
X+4699163Y-940387D01*
X+4699163Y-958675D01*
X+4705259Y-964771D01*
X+4711355Y-964771D01*
X+4717451Y-958675D01*
X+4717451Y-940387D01*
X+4723547Y-934291D01*
X+4729643Y-934291D01*
X+4735739Y-940387D01*
X+4735739Y-958675D01*
X+4729643Y-964771D01*
X+4723547Y-964771D01*
X+4717451Y-958675D01*
D42*
X+2859000Y-1043570D02*
X+2960600Y-1043570D01*
X+2960600Y-781950D01*
X+2859000Y-781950D01*
X+2859000Y-1043570D01*
D111*
X+2909800Y-999120D02*
X+2909800Y-999120D01*
D112*
X+2928088Y-863992D02*
X+2891512Y-863992D01*
X+2891512Y-888376D01*
X+2903704Y-900568D01*
X+2915896Y-900568D01*
X+2928088Y-888376D01*
X+2928088Y-863992D01*
X+2903704Y-924952D02*
X+2891512Y-937144D01*
X+2928088Y-937144D01*
D42*
X+2649000Y-1043570D02*
X+2750600Y-1043570D01*
X+2750600Y-781950D01*
X+2649000Y-781950D01*
X+2649000Y-1043570D01*
D111*
X+2699800Y-826400D02*
X+2699800Y-826400D01*
D112*
X+2718088Y-863992D02*
X+2681512Y-863992D01*
X+2681512Y-894472D01*
X+2687608Y-900568D01*
X+2693704Y-900568D01*
X+2699800Y-894472D01*
X+2699800Y-863992D01*
X+2699800Y-894472D02*
X+2705896Y-900568D01*
X+2718088Y-900568D01*
X+2705896Y-949336D02*
X+2705896Y-912760D01*
X+2681512Y-937144D01*
X+2718088Y-937144D01*
D42*
X+3239500Y-1043570D02*
X+3341100Y-1043570D01*
X+3341100Y-781950D01*
X+3239500Y-781950D01*
X+3239500Y-1043570D01*
D111*
X+3290300Y-826400D02*
X+3290300Y-826400D01*
D112*
X+3308588Y-863992D02*
X+3272012Y-863992D01*
X+3272012Y-894472D01*
X+3278108Y-900568D01*
X+3284204Y-900568D01*
X+3290300Y-894472D01*
X+3290300Y-863992D01*
X+3290300Y-894472D02*
X+3296396Y-900568D01*
X+3308588Y-900568D01*
X+3272012Y-949336D02*
X+3272012Y-918856D01*
X+3284204Y-918856D01*
X+3284204Y-943240D01*
X+3290300Y-949336D01*
X+3302492Y-949336D01*
X+3308588Y-943240D01*
X+3308588Y-924952D01*
X+3302492Y-918856D01*
D42*
X+3850000Y-1043570D02*
X+3951600Y-1043570D01*
X+3951600Y-781950D01*
X+3850000Y-781950D01*
X+3850000Y-1043570D01*
D111*
X+3900800Y-826400D02*
X+3900800Y-826400D01*
D112*
X+3919088Y-863992D02*
X+3882512Y-863992D01*
X+3882512Y-894472D01*
X+3888608Y-900568D01*
X+3894704Y-900568D01*
X+3900800Y-894472D01*
X+3900800Y-863992D01*
X+3900800Y-894472D02*
X+3906896Y-900568D01*
X+3919088Y-900568D01*
X+3888608Y-949336D02*
X+3882512Y-943240D01*
X+3882512Y-924952D01*
X+3888608Y-918856D01*
X+3912992Y-918856D01*
X+3919088Y-924952D01*
X+3919088Y-943240D01*
X+3912992Y-949336D01*
X+3906896Y-949336D01*
X+3900800Y-943240D01*
X+3900800Y-918856D01*
D42*
X+4436379Y-1033081D02*
X+4537979Y-1033081D01*
X+4537979Y-771461D01*
X+4436379Y-771461D01*
X+4436379Y-1033081D01*
D111*
X+4487179Y-815911D02*
X+4487179Y-815911D01*
D112*
X+4505467Y-829119D02*
X+4468891Y-829119D01*
X+4468891Y-859599D01*
X+4474987Y-865695D01*
X+4481083Y-865695D01*
X+4487179Y-859599D01*
X+4487179Y-829119D01*
X+4487179Y-859599D02*
X+4493275Y-865695D01*
X+4505467Y-865695D01*
X+4468891Y-914463D02*
X+4468891Y-883983D01*
X+4481083Y-883983D01*
X+4481083Y-908367D01*
X+4487179Y-914463D01*
X+4499371Y-914463D01*
X+4505467Y-908367D01*
X+4505467Y-890079D01*
X+4499371Y-883983D01*
X+4493275Y-963231D02*
X+4493275Y-926655D01*
X+4468891Y-951039D01*
X+4505467Y-951039D01*
D42*
X+3313440Y-2948990D02*
X+3415040Y-2948990D01*
X+3415040Y-2687370D01*
X+3313440Y-2687370D01*
X+3313440Y-2948990D01*
D111*
X+3364240Y-2904540D02*
X+3364240Y-2904540D01*
D112*
X+3376432Y-2781604D02*
X+3382528Y-2775508D01*
X+3382528Y-2757220D01*
X+3370336Y-2745028D01*
X+3358144Y-2745028D01*
X+3345952Y-2757220D01*
X+3345952Y-2775508D01*
X+3352048Y-2781604D01*
X+3352048Y-2799892D02*
X+3345952Y-2805988D01*
X+3345952Y-2824276D01*
X+3352048Y-2830372D01*
X+3358144Y-2830372D01*
X+3364240Y-2824276D01*
X+3370336Y-2830372D01*
X+3376432Y-2830372D01*
X+3382528Y-2824276D01*
X+3382528Y-2805988D01*
X+3376432Y-2799892D01*
X+3364240Y-2812084D02*
X+3364240Y-2824276D01*
X+3358144Y-2879140D02*
X+3364240Y-2873044D01*
X+3364240Y-2854756D01*
X+3358144Y-2848660D01*
X+3352048Y-2848660D01*
X+3345952Y-2854756D01*
X+3345952Y-2873044D01*
X+3352048Y-2879140D01*
X+3376432Y-2879140D01*
X+3382528Y-2873044D01*
X+3382528Y-2854756D01*
D42*
X+2313890Y-2940060D02*
X+2575510Y-2940060D01*
X+2575510Y-2838460D01*
X+2313890Y-2838460D01*
X+2313890Y-2940060D01*
D111*
X+2358340Y-2889260D02*
X+2358340Y-2889260D01*
D112*
X+2408124Y-2877068D02*
X+2402028Y-2870972D01*
X+2383740Y-2870972D01*
X+2371548Y-2883164D01*
X+2371548Y-2895356D01*
X+2383740Y-2907548D01*
X+2402028Y-2907548D01*
X+2408124Y-2901452D01*
X+2426412Y-2901452D02*
X+2432508Y-2907548D01*
X+2450796Y-2907548D01*
X+2456892Y-2901452D01*
X+2456892Y-2895356D01*
X+2450796Y-2889260D01*
X+2456892Y-2883164D01*
X+2456892Y-2877068D01*
X+2450796Y-2870972D01*
X+2432508Y-2870972D01*
X+2426412Y-2877068D01*
X+2438604Y-2889260D02*
X+2450796Y-2889260D01*
X+2469084Y-2877068D02*
X+2469084Y-2901452D01*
X+2475180Y-2907548D01*
X+2499564Y-2907548D01*
X+2505660Y-2901452D01*
X+2505660Y-2877068D01*
X+2499564Y-2870972D01*
X+2475180Y-2870972D01*
X+2469084Y-2877068D01*
X+2469084Y-2870972D02*
X+2505660Y-2907548D01*
D42*
X+2313890Y-3061980D02*
X+2575510Y-3061980D01*
X+2575510Y-2960380D01*
X+2313890Y-2960380D01*
X+2313890Y-3061980D01*
D111*
X+2358340Y-3011180D02*
X+2358340Y-3011180D01*
D112*
X+2408124Y-2998988D02*
X+2402028Y-2992892D01*
X+2383740Y-2992892D01*
X+2371548Y-3005084D01*
X+2371548Y-3017276D01*
X+2383740Y-3029468D01*
X+2402028Y-3029468D01*
X+2408124Y-3023372D01*
X+2426412Y-3023372D02*
X+2432508Y-3029468D01*
X+2450796Y-3029468D01*
X+2456892Y-3023372D01*
X+2456892Y-3017276D01*
X+2450796Y-3011180D01*
X+2456892Y-3005084D01*
X+2456892Y-2998988D01*
X+2450796Y-2992892D01*
X+2432508Y-2992892D01*
X+2426412Y-2998988D01*
X+2438604Y-3011180D02*
X+2450796Y-3011180D01*
X+2481276Y-3017276D02*
X+2493468Y-3029468D01*
X+2493468Y-2992892D01*
D42*
X+6554000Y-756920D02*
X+6554000Y-967260D01*
X+7338060Y-967260D01*
M02*
