G04 PROTEUS RS274X GERBER FILE*
%FSLAX45Y45*%
%MOMM*%
G01*
%ADD42C,0.203200*%
%ADD11C,1.524000*%
%ADD94C,0.168910*%
%ADD53C,0.100000*%
%ADD13C,1.016000*%
%ADD95C,0.324660*%
%ADD96C,0.684000*%
%ADD97C,0.326250*%
%ADD98C,0.540000*%
%ADD99C,0.653330*%
%ADD100C,0.050000*%
%ADD101C,0.845820*%
%ADD102C,0.213750*%
%ADD103C,0.460000*%
%ADD104C,0.130250*%
%ADD105C,0.225210*%
%ADD106C,1.257300*%
%ADD107C,0.210310*%
%ADD108C,0.360000*%
%ADD109C,0.174060*%
%ADD20C,0.254000*%
%ADD110C,0.075560*%
%ADD111C,0.355600*%
%ADD112C,0.060960*%
%ADD113C,0.406400*%
%ADD114C,0.103290*%
%ADD115C,1.198880*%
%ADD116C,0.224340*%
D42*
X+4526160Y-1264540D02*
X+5201800Y-1264540D01*
X+5201800Y-809880D01*
X+4526160Y-809880D01*
X+4526160Y-1264540D01*
D11*
X+5100200Y-1000380D02*
X+5100200Y-1000380D01*
D94*
X+4762634Y-1070992D02*
X+4745743Y-1087883D01*
X+4695070Y-1087883D01*
X+4661288Y-1054101D01*
X+4661288Y-1020319D01*
X+4695070Y-986537D01*
X+4745743Y-986537D01*
X+4762634Y-1003428D01*
X+4830198Y-1020319D02*
X+4863980Y-986537D01*
X+4863980Y-1087883D01*
X+5032890Y-1003428D02*
X+5015999Y-986537D01*
X+4965326Y-986537D01*
X+4948435Y-1003428D01*
X+4948435Y-1070992D01*
X+4965326Y-1087883D01*
X+5015999Y-1087883D01*
X+5032890Y-1070992D01*
X+5032890Y-1054101D01*
X+5015999Y-1037210D01*
X+4948435Y-1037210D01*
D53*
X+6461100Y-1608540D02*
X+7425100Y-1608540D01*
X+7425100Y-644540D01*
X+6461100Y-644540D01*
X+6461100Y-1608540D01*
D13*
X+6943100Y-1126540D02*
X+6943100Y-1126540D01*
D95*
X+6975567Y-1386272D02*
X+7008034Y-1386272D01*
X+7040500Y-1353806D01*
X+7040500Y-1223940D01*
X+7008034Y-1191473D01*
X+6845701Y-1191473D01*
X+6878167Y-1094074D02*
X+6845701Y-1061607D01*
X+6845701Y-964208D01*
X+6878167Y-931741D01*
X+6910634Y-931741D01*
X+6943100Y-964208D01*
X+6975567Y-931741D01*
X+7008034Y-931741D01*
X+7040500Y-964208D01*
X+7040500Y-1061607D01*
X+7008034Y-1094074D01*
X+6943100Y-1029141D02*
X+6943100Y-964208D01*
D42*
X+818980Y-4046380D02*
X+818980Y-756380D01*
D53*
X+3604580Y-2013220D02*
X+4514580Y-2013220D01*
X+4514580Y-718220D01*
X+3604580Y-718220D01*
X+3604580Y-2013220D01*
D96*
X+3805580Y-1788220D02*
X+3805580Y-1788220D01*
D97*
X+3961705Y-1757220D02*
X+4124830Y-1757220D01*
X+4157455Y-1724595D01*
X+4157455Y-1594095D01*
X+4124830Y-1561470D01*
X+3961705Y-1561470D01*
X+4026955Y-1430970D02*
X+3961705Y-1365720D01*
X+4157455Y-1365720D01*
X+4092205Y-1039470D02*
X+4092205Y-1235220D01*
X+3961705Y-1104720D01*
X+4157455Y-1104720D01*
D42*
X+7338980Y-4046380D02*
X+7336440Y-966720D01*
X+817880Y-754380D02*
X+6554000Y-756920D01*
X+5287160Y-3448900D02*
X+7247160Y-3448900D01*
X+7247160Y-1601200D01*
X+5287160Y-1601200D01*
X+5287160Y-3448900D01*
D98*
X+5662160Y-3281200D02*
X+5662160Y-3281200D01*
D99*
X+5744494Y-2329050D02*
X+5744494Y-2655717D01*
X+5809827Y-2721050D01*
X+6071160Y-2721050D01*
X+6136493Y-2655717D01*
X+6136493Y-2329050D01*
X+6332493Y-2394383D02*
X+6397826Y-2329050D01*
X+6593826Y-2329050D01*
X+6659159Y-2394383D01*
X+6659159Y-2459717D01*
X+6593826Y-2525050D01*
X+6659159Y-2590383D01*
X+6659159Y-2655717D01*
X+6593826Y-2721050D01*
X+6397826Y-2721050D01*
X+6332493Y-2655717D01*
X+6463159Y-2525050D02*
X+6593826Y-2525050D01*
D42*
X+1818640Y-4046220D02*
X+1818640Y-4216700D01*
X+1818640Y-4218940D02*
X+2016760Y-4218940D01*
X+1818640Y-4218940D02*
X+2817020Y-4218940D01*
X+2817460Y-4047860D02*
X+2817460Y-4218340D01*
D100*
X+1540000Y-3915000D02*
X+1540000Y-3065000D01*
X+820000Y-3065000D01*
X+820000Y-3915000D01*
X+1540000Y-3915000D01*
X+1130000Y-3490000D02*
X+1230000Y-3490000D01*
X+1180000Y-3440000D02*
X+1180000Y-3540000D01*
D101*
X+950000Y-3780000D02*
X+950000Y-3780000D01*
D102*
X+1115875Y-3746500D02*
X+1222750Y-3746500D01*
X+1244125Y-3725125D01*
X+1244125Y-3639625D01*
X+1222750Y-3618250D01*
X+1115875Y-3618250D01*
X+1158625Y-3532750D02*
X+1115875Y-3490000D01*
X+1244125Y-3490000D01*
X+1115875Y-3276250D02*
X+1115875Y-3383125D01*
X+1158625Y-3383125D01*
X+1158625Y-3297625D01*
X+1180000Y-3276250D01*
X+1222750Y-3276250D01*
X+1244125Y-3297625D01*
X+1244125Y-3361750D01*
X+1222750Y-3383125D01*
D100*
X+4457820Y-2591040D02*
X+4791820Y-2591040D01*
X+4791820Y-2075040D01*
X+4457820Y-2075040D01*
X+4457820Y-2591040D01*
D103*
X+4624820Y-2158040D02*
X+4624820Y-2158040D01*
D104*
X+4663895Y-2489340D02*
X+4585745Y-2489340D01*
X+4585745Y-2437240D01*
X+4611795Y-2411190D01*
X+4637845Y-2411190D01*
X+4663895Y-2437240D01*
X+4663895Y-2489340D01*
X+4611795Y-2359090D02*
X+4585745Y-2333040D01*
X+4663895Y-2333040D01*
X+4611795Y-2202790D02*
X+4624820Y-2215815D01*
X+4624820Y-2254890D01*
X+4611795Y-2267915D01*
X+4598770Y-2267915D01*
X+4585745Y-2254890D01*
X+4585745Y-2215815D01*
X+4598770Y-2202790D01*
X+4650870Y-2202790D01*
X+4663895Y-2215815D01*
X+4663895Y-2254890D01*
D42*
X+4527800Y-1675880D02*
X+5203440Y-1675880D01*
X+5203440Y-1221220D01*
X+4527800Y-1221220D01*
X+4527800Y-1675880D01*
D11*
X+5101840Y-1411720D02*
X+5101840Y-1411720D01*
D105*
X+4820577Y-1493593D02*
X+4798056Y-1516114D01*
X+4730492Y-1516114D01*
X+4685450Y-1471071D01*
X+4685450Y-1426029D01*
X+4730492Y-1380986D01*
X+4798056Y-1380986D01*
X+4820577Y-1403507D01*
X+4888141Y-1403507D02*
X+4910662Y-1380986D01*
X+4978226Y-1380986D01*
X+5000747Y-1403507D01*
X+5000747Y-1426029D01*
X+4978226Y-1448550D01*
X+4910662Y-1448550D01*
X+4888141Y-1471071D01*
X+4888141Y-1516114D01*
X+5000747Y-1516114D01*
D42*
X+1870150Y-4045260D02*
X+6259850Y-4045260D01*
X+6259850Y-3694740D01*
X+1870150Y-3694740D01*
X+1870150Y-4045260D01*
D106*
X+1940000Y-3870000D02*
X+1940000Y-3870000D01*
D107*
X+3812627Y-3933094D02*
X+3812627Y-3806907D01*
X+3917782Y-3806907D01*
X+3938813Y-3827938D01*
X+3938813Y-3848969D01*
X+3917782Y-3870000D01*
X+3812627Y-3870000D01*
X+4001907Y-3806907D02*
X+4086031Y-3806907D01*
X+4043969Y-3806907D02*
X+4043969Y-3933094D01*
X+4001907Y-3933094D02*
X+4086031Y-3933094D01*
X+4149125Y-3933094D02*
X+4149125Y-3806907D01*
X+4275311Y-3933094D01*
X+4275311Y-3806907D01*
D42*
X+2816860Y-4046220D02*
X+5341620Y-4046220D01*
X+1818640Y-4046220D02*
X+817880Y-4046220D01*
X+5341620Y-4218940D02*
X+5341620Y-4046220D01*
X+6339840Y-4046220D02*
X+7338060Y-4046220D01*
X+6339840Y-4218940D02*
X+6339840Y-4046220D01*
X+5341620Y-4218940D02*
X+6339840Y-4218940D01*
X+4528660Y-2084260D02*
X+5204300Y-2084260D01*
X+5204300Y-1629600D01*
X+4528660Y-1629600D01*
X+4528660Y-2084260D01*
D11*
X+5102700Y-1820100D02*
X+5102700Y-1820100D01*
D105*
X+4821437Y-1901973D02*
X+4798916Y-1924494D01*
X+4731352Y-1924494D01*
X+4686310Y-1879451D01*
X+4686310Y-1834409D01*
X+4731352Y-1789366D01*
X+4798916Y-1789366D01*
X+4821437Y-1811887D01*
X+5001607Y-1879451D02*
X+4866480Y-1879451D01*
X+4956565Y-1789366D01*
X+4956565Y-1924494D01*
D42*
X+1493520Y-3525520D02*
X+1948180Y-3525520D01*
X+1948180Y-2849880D01*
X+1493520Y-2849880D01*
X+1493520Y-3525520D01*
D11*
X+1757680Y-3423920D02*
X+1757680Y-3423920D01*
D94*
X+1754632Y-3289046D02*
X+1771523Y-3305937D01*
X+1771523Y-3356610D01*
X+1737741Y-3390392D01*
X+1703959Y-3390392D01*
X+1670177Y-3356610D01*
X+1670177Y-3305937D01*
X+1687068Y-3289046D01*
X+1687068Y-3238373D02*
X+1670177Y-3221482D01*
X+1670177Y-3170809D01*
X+1687068Y-3153918D01*
X+1703959Y-3153918D01*
X+1720850Y-3170809D01*
X+1720850Y-3221482D01*
X+1737741Y-3238373D01*
X+1771523Y-3238373D01*
X+1771523Y-3153918D01*
X+1670177Y-3103245D02*
X+1670177Y-3018790D01*
X+1687068Y-3018790D01*
X+1771523Y-3103245D01*
D42*
X+792720Y-1766660D02*
X+1330080Y-1766660D01*
X+1330080Y-896340D01*
X+792720Y-896340D01*
X+792720Y-1766660D01*
D108*
X+1249920Y-1466660D02*
X+1249920Y-1466660D01*
D109*
X+1009181Y-1610002D02*
X+1096213Y-1610002D01*
X+1113620Y-1592596D01*
X+1113620Y-1522971D01*
X+1096213Y-1505564D01*
X+1009181Y-1505564D01*
X+1096213Y-1470751D02*
X+1113620Y-1453345D01*
X+1113620Y-1383720D01*
X+1096213Y-1366313D01*
X+1078807Y-1366313D01*
X+1061400Y-1383720D01*
X+1061400Y-1453345D01*
X+1043994Y-1470751D01*
X+1026588Y-1470751D01*
X+1009181Y-1453345D01*
X+1009181Y-1383720D01*
X+1026588Y-1366313D01*
X+1113620Y-1331500D02*
X+1009181Y-1331500D01*
X+1009181Y-1244469D01*
X+1026588Y-1227062D01*
X+1043994Y-1227062D01*
X+1061400Y-1244469D01*
X+1078807Y-1227062D01*
X+1096213Y-1227062D01*
X+1113620Y-1244469D01*
X+1113620Y-1331500D01*
X+1061400Y-1331500D02*
X+1061400Y-1244469D01*
X+1043994Y-1157437D02*
X+1009181Y-1122624D01*
X+1113620Y-1122624D01*
D42*
X+1467770Y-1358800D02*
X+1770030Y-1358800D01*
X+1770030Y-1097380D01*
X+1467770Y-1097380D01*
X+1467770Y-1358800D01*
D20*
X+1738280Y-1322740D02*
X+1738280Y-1322740D01*
D110*
X+1535778Y-1205420D02*
X+1566004Y-1205420D01*
X+1550891Y-1205420D02*
X+1550891Y-1250759D01*
X+1535778Y-1250759D02*
X+1566004Y-1250759D01*
X+1634013Y-1243203D02*
X+1626456Y-1250759D01*
X+1603787Y-1250759D01*
X+1588674Y-1235646D01*
X+1588674Y-1220533D01*
X+1603787Y-1205420D01*
X+1626456Y-1205420D01*
X+1634013Y-1212977D01*
X+1656682Y-1212977D02*
X+1664239Y-1205420D01*
X+1686908Y-1205420D01*
X+1694465Y-1212977D01*
X+1694465Y-1220533D01*
X+1686908Y-1228090D01*
X+1664239Y-1228090D01*
X+1656682Y-1235646D01*
X+1656682Y-1250759D01*
X+1694465Y-1250759D01*
D42*
X+1804110Y-1382100D02*
X+2065730Y-1382100D01*
X+2065730Y-1280500D01*
X+1804110Y-1280500D01*
X+1804110Y-1382100D01*
D111*
X+2021280Y-1331300D02*
X+2021280Y-1331300D01*
D112*
X+1886152Y-1349588D02*
X+1886152Y-1313012D01*
X+1916632Y-1313012D01*
X+1922728Y-1319108D01*
X+1922728Y-1325204D01*
X+1916632Y-1331300D01*
X+1886152Y-1331300D01*
X+1916632Y-1331300D02*
X+1922728Y-1337396D01*
X+1922728Y-1349588D01*
X+1941016Y-1313012D02*
X+1971496Y-1313012D01*
X+1971496Y-1319108D01*
X+1941016Y-1349588D01*
D42*
X+1799190Y-1187020D02*
X+2060810Y-1187020D01*
X+2060810Y-1085420D01*
X+1799190Y-1085420D01*
X+1799190Y-1187020D01*
D111*
X+2016360Y-1136220D02*
X+2016360Y-1136220D01*
D112*
X+1881232Y-1154508D02*
X+1881232Y-1117932D01*
X+1911712Y-1117932D01*
X+1917808Y-1124028D01*
X+1917808Y-1130124D01*
X+1911712Y-1136220D01*
X+1881232Y-1136220D01*
X+1911712Y-1136220D02*
X+1917808Y-1142316D01*
X+1917808Y-1154508D01*
X+1942192Y-1136220D02*
X+1936096Y-1130124D01*
X+1936096Y-1124028D01*
X+1942192Y-1117932D01*
X+1960480Y-1117932D01*
X+1966576Y-1124028D01*
X+1966576Y-1130124D01*
X+1960480Y-1136220D01*
X+1942192Y-1136220D01*
X+1936096Y-1142316D01*
X+1936096Y-1148412D01*
X+1942192Y-1154508D01*
X+1960480Y-1154508D01*
X+1966576Y-1148412D01*
X+1966576Y-1142316D01*
X+1960480Y-1136220D01*
D42*
X+4187663Y-2124529D02*
X+4449283Y-2124529D01*
X+4449283Y-2022929D01*
X+4187663Y-2022929D01*
X+4187663Y-2124529D01*
D111*
X+4232113Y-2073729D02*
X+4232113Y-2073729D01*
D112*
X+4245321Y-2092017D02*
X+4245321Y-2055441D01*
X+4275801Y-2055441D01*
X+4281897Y-2061537D01*
X+4281897Y-2067633D01*
X+4275801Y-2073729D01*
X+4245321Y-2073729D01*
X+4275801Y-2073729D02*
X+4281897Y-2079825D01*
X+4281897Y-2092017D01*
X+4330665Y-2055441D02*
X+4300185Y-2055441D01*
X+4300185Y-2067633D01*
X+4324569Y-2067633D01*
X+4330665Y-2073729D01*
X+4330665Y-2085921D01*
X+4324569Y-2092017D01*
X+4306281Y-2092017D01*
X+4300185Y-2085921D01*
X+4342857Y-2085921D02*
X+4342857Y-2061537D01*
X+4348953Y-2055441D01*
X+4373337Y-2055441D01*
X+4379433Y-2061537D01*
X+4379433Y-2085921D01*
X+4373337Y-2092017D01*
X+4348953Y-2092017D01*
X+4342857Y-2085921D01*
X+4342857Y-2092017D02*
X+4379433Y-2055441D01*
D42*
X+4186250Y-2285380D02*
X+4447870Y-2285380D01*
X+4447870Y-2183780D01*
X+4186250Y-2183780D01*
X+4186250Y-2285380D01*
D111*
X+4403420Y-2234580D02*
X+4403420Y-2234580D01*
D112*
X+4243908Y-2252868D02*
X+4243908Y-2216292D01*
X+4274388Y-2216292D01*
X+4280484Y-2222388D01*
X+4280484Y-2228484D01*
X+4274388Y-2234580D01*
X+4243908Y-2234580D01*
X+4274388Y-2234580D02*
X+4280484Y-2240676D01*
X+4280484Y-2252868D01*
X+4329252Y-2216292D02*
X+4298772Y-2216292D01*
X+4298772Y-2228484D01*
X+4323156Y-2228484D01*
X+4329252Y-2234580D01*
X+4329252Y-2246772D01*
X+4323156Y-2252868D01*
X+4304868Y-2252868D01*
X+4298772Y-2246772D01*
X+4353636Y-2228484D02*
X+4365828Y-2216292D01*
X+4365828Y-2252868D01*
D42*
X+7148820Y-3761690D02*
X+7250420Y-3761690D01*
X+7250420Y-3500070D01*
X+7148820Y-3500070D01*
X+7148820Y-3761690D01*
D111*
X+7199620Y-3544520D02*
X+7199620Y-3544520D01*
D112*
X+7211812Y-3667456D02*
X+7217908Y-3673552D01*
X+7217908Y-3691840D01*
X+7205716Y-3704032D01*
X+7193524Y-3704032D01*
X+7181332Y-3691840D01*
X+7181332Y-3673552D01*
X+7187428Y-3667456D01*
X+7205716Y-3618688D02*
X+7205716Y-3655264D01*
X+7181332Y-3630880D01*
X+7217908Y-3630880D01*
X+7199620Y-3594304D02*
X+7193524Y-3600400D01*
X+7187428Y-3600400D01*
X+7181332Y-3594304D01*
X+7181332Y-3576016D01*
X+7187428Y-3569920D01*
X+7193524Y-3569920D01*
X+7199620Y-3576016D01*
X+7199620Y-3594304D01*
X+7205716Y-3600400D01*
X+7211812Y-3600400D01*
X+7217908Y-3594304D01*
X+7217908Y-3576016D01*
X+7211812Y-3569920D01*
X+7205716Y-3569920D01*
X+7199620Y-3576016D01*
D42*
X+6843960Y-3753190D02*
X+6945560Y-3753190D01*
X+6945560Y-3491570D01*
X+6843960Y-3491570D01*
X+6843960Y-3753190D01*
D111*
X+6894760Y-3536020D02*
X+6894760Y-3536020D01*
D112*
X+6906952Y-3658956D02*
X+6913048Y-3665052D01*
X+6913048Y-3683340D01*
X+6900856Y-3695532D01*
X+6888664Y-3695532D01*
X+6876472Y-3683340D01*
X+6876472Y-3665052D01*
X+6882568Y-3658956D01*
X+6900856Y-3610188D02*
X+6900856Y-3646764D01*
X+6876472Y-3622380D01*
X+6913048Y-3622380D01*
X+6876472Y-3591900D02*
X+6876472Y-3561420D01*
X+6882568Y-3561420D01*
X+6913048Y-3591900D01*
D42*
X+6996440Y-3756710D02*
X+7098040Y-3756710D01*
X+7098040Y-3495090D01*
X+6996440Y-3495090D01*
X+6996440Y-3756710D01*
D111*
X+7047240Y-3539540D02*
X+7047240Y-3539540D01*
D112*
X+7059432Y-3662476D02*
X+7065528Y-3668572D01*
X+7065528Y-3686860D01*
X+7053336Y-3699052D01*
X+7041144Y-3699052D01*
X+7028952Y-3686860D01*
X+7028952Y-3668572D01*
X+7035048Y-3662476D01*
X+7053336Y-3613708D02*
X+7053336Y-3650284D01*
X+7028952Y-3625900D01*
X+7065528Y-3625900D01*
X+7053336Y-3564940D02*
X+7053336Y-3601516D01*
X+7028952Y-3577132D01*
X+7065528Y-3577132D01*
D42*
X+5986730Y-1507500D02*
X+6248350Y-1507500D01*
X+6248350Y-1405900D01*
X+5986730Y-1405900D01*
X+5986730Y-1507500D01*
D111*
X+6203900Y-1456700D02*
X+6203900Y-1456700D01*
D112*
X+6080964Y-1468892D02*
X+6074868Y-1474988D01*
X+6056580Y-1474988D01*
X+6044388Y-1462796D01*
X+6044388Y-1450604D01*
X+6056580Y-1438412D01*
X+6074868Y-1438412D01*
X+6080964Y-1444508D01*
X+6129732Y-1438412D02*
X+6099252Y-1438412D01*
X+6099252Y-1450604D01*
X+6123636Y-1450604D01*
X+6129732Y-1456700D01*
X+6129732Y-1468892D01*
X+6123636Y-1474988D01*
X+6105348Y-1474988D01*
X+6099252Y-1468892D01*
X+6141924Y-1468892D02*
X+6141924Y-1444508D01*
X+6148020Y-1438412D01*
X+6172404Y-1438412D01*
X+6178500Y-1444508D01*
X+6178500Y-1468892D01*
X+6172404Y-1474988D01*
X+6148020Y-1474988D01*
X+6141924Y-1468892D01*
X+6141924Y-1474988D02*
X+6178500Y-1438412D01*
D42*
X+5568900Y-1041410D02*
X+5670500Y-1041410D01*
X+5670500Y-779790D01*
X+5568900Y-779790D01*
X+5568900Y-1041410D01*
D111*
X+5619700Y-824240D02*
X+5619700Y-824240D01*
D112*
X+5637988Y-983752D02*
X+5601412Y-983752D01*
X+5601412Y-953272D01*
X+5607508Y-947176D01*
X+5613604Y-947176D01*
X+5619700Y-953272D01*
X+5619700Y-983752D01*
X+5619700Y-953272D02*
X+5625796Y-947176D01*
X+5637988Y-947176D01*
X+5607508Y-898408D02*
X+5601412Y-904504D01*
X+5601412Y-922792D01*
X+5607508Y-928888D01*
X+5631892Y-928888D01*
X+5637988Y-922792D01*
X+5637988Y-904504D01*
X+5631892Y-898408D01*
X+5625796Y-898408D01*
X+5619700Y-904504D01*
X+5619700Y-928888D01*
X+5607508Y-849640D02*
X+5601412Y-855736D01*
X+5601412Y-874024D01*
X+5607508Y-880120D01*
X+5631892Y-880120D01*
X+5637988Y-874024D01*
X+5637988Y-855736D01*
X+5631892Y-849640D01*
X+5625796Y-849640D01*
X+5619700Y-855736D01*
X+5619700Y-880120D01*
D42*
X+4875640Y-2901940D02*
X+5185520Y-2901940D01*
X+5185520Y-2609840D01*
X+4875640Y-2609840D01*
X+4875640Y-2901940D01*
D113*
X+5030580Y-2660640D02*
X+5030580Y-2660640D01*
D114*
X+4947946Y-2745561D02*
X+4968604Y-2724902D01*
X+4989263Y-2724902D01*
X+5009921Y-2745561D01*
X+5009921Y-2766219D01*
X+4989263Y-2786878D01*
X+4968604Y-2786878D01*
X+4947946Y-2766219D01*
X+4947946Y-2745561D01*
X+4989263Y-2766219D02*
X+5009921Y-2786878D01*
X+5040909Y-2735231D02*
X+5051238Y-2724902D01*
X+5082226Y-2724902D01*
X+5092555Y-2735231D01*
X+5092555Y-2745561D01*
X+5082226Y-2755890D01*
X+5051238Y-2755890D01*
X+5040909Y-2766219D01*
X+5040909Y-2786878D01*
X+5092555Y-2786878D01*
D42*
X+4892150Y-3074660D02*
X+5153770Y-3074660D01*
X+5153770Y-2973060D01*
X+4892150Y-2973060D01*
X+4892150Y-3074660D01*
D111*
X+4936600Y-3023860D02*
X+4936600Y-3023860D01*
D112*
X+4949808Y-3042148D02*
X+4949808Y-3005572D01*
X+4980288Y-3005572D01*
X+4986384Y-3011668D01*
X+4986384Y-3017764D01*
X+4980288Y-3023860D01*
X+4949808Y-3023860D01*
X+4980288Y-3023860D02*
X+4986384Y-3029956D01*
X+4986384Y-3042148D01*
X+5035152Y-3011668D02*
X+5029056Y-3005572D01*
X+5010768Y-3005572D01*
X+5004672Y-3011668D01*
X+5004672Y-3036052D01*
X+5010768Y-3042148D01*
X+5029056Y-3042148D01*
X+5035152Y-3036052D01*
X+5035152Y-3029956D01*
X+5029056Y-3023860D01*
X+5004672Y-3023860D01*
X+5059536Y-3023860D02*
X+5053440Y-3017764D01*
X+5053440Y-3011668D01*
X+5059536Y-3005572D01*
X+5077824Y-3005572D01*
X+5083920Y-3011668D01*
X+5083920Y-3017764D01*
X+5077824Y-3023860D01*
X+5059536Y-3023860D01*
X+5053440Y-3029956D01*
X+5053440Y-3036052D01*
X+5059536Y-3042148D01*
X+5077824Y-3042148D01*
X+5083920Y-3036052D01*
X+5083920Y-3029956D01*
X+5077824Y-3023860D01*
D42*
X+4892150Y-3227060D02*
X+5153770Y-3227060D01*
X+5153770Y-3125460D01*
X+4892150Y-3125460D01*
X+4892150Y-3227060D01*
D111*
X+4936600Y-3176260D02*
X+4936600Y-3176260D01*
D112*
X+4949808Y-3194548D02*
X+4949808Y-3157972D01*
X+4980288Y-3157972D01*
X+4986384Y-3164068D01*
X+4986384Y-3170164D01*
X+4980288Y-3176260D01*
X+4949808Y-3176260D01*
X+4980288Y-3176260D02*
X+4986384Y-3182356D01*
X+4986384Y-3194548D01*
X+5035152Y-3164068D02*
X+5029056Y-3157972D01*
X+5010768Y-3157972D01*
X+5004672Y-3164068D01*
X+5004672Y-3188452D01*
X+5010768Y-3194548D01*
X+5029056Y-3194548D01*
X+5035152Y-3188452D01*
X+5035152Y-3182356D01*
X+5029056Y-3176260D01*
X+5004672Y-3176260D01*
X+5053440Y-3157972D02*
X+5083920Y-3157972D01*
X+5083920Y-3164068D01*
X+5053440Y-3194548D01*
D42*
X+4911100Y-2308910D02*
X+5012700Y-2308910D01*
X+5012700Y-2047290D01*
X+4911100Y-2047290D01*
X+4911100Y-2308910D01*
D111*
X+4961900Y-2264460D02*
X+4961900Y-2264460D01*
D112*
X+4974092Y-2214676D02*
X+4980188Y-2220772D01*
X+4980188Y-2239060D01*
X+4967996Y-2251252D01*
X+4955804Y-2251252D01*
X+4943612Y-2239060D01*
X+4943612Y-2220772D01*
X+4949708Y-2214676D01*
X+4949708Y-2196388D02*
X+4943612Y-2190292D01*
X+4943612Y-2172004D01*
X+4949708Y-2165908D01*
X+4955804Y-2165908D01*
X+4961900Y-2172004D01*
X+4961900Y-2190292D01*
X+4967996Y-2196388D01*
X+4980188Y-2196388D01*
X+4980188Y-2165908D01*
X+4943612Y-2117140D02*
X+4943612Y-2147620D01*
X+4955804Y-2147620D01*
X+4955804Y-2123236D01*
X+4961900Y-2117140D01*
X+4974092Y-2117140D01*
X+4980188Y-2123236D01*
X+4980188Y-2141524D01*
X+4974092Y-2147620D01*
D42*
X+4781560Y-2308910D02*
X+4883160Y-2308910D01*
X+4883160Y-2047290D01*
X+4781560Y-2047290D01*
X+4781560Y-2308910D01*
D111*
X+4832360Y-2264460D02*
X+4832360Y-2264460D01*
D112*
X+4844552Y-2214676D02*
X+4850648Y-2220772D01*
X+4850648Y-2239060D01*
X+4838456Y-2251252D01*
X+4826264Y-2251252D01*
X+4814072Y-2239060D01*
X+4814072Y-2220772D01*
X+4820168Y-2214676D01*
X+4820168Y-2196388D02*
X+4814072Y-2190292D01*
X+4814072Y-2172004D01*
X+4820168Y-2165908D01*
X+4826264Y-2165908D01*
X+4832360Y-2172004D01*
X+4832360Y-2190292D01*
X+4838456Y-2196388D01*
X+4850648Y-2196388D01*
X+4850648Y-2165908D01*
X+4820168Y-2117140D02*
X+4814072Y-2123236D01*
X+4814072Y-2141524D01*
X+4820168Y-2147620D01*
X+4844552Y-2147620D01*
X+4850648Y-2141524D01*
X+4850648Y-2123236D01*
X+4844552Y-2117140D01*
X+4838456Y-2117140D01*
X+4832360Y-2123236D01*
X+4832360Y-2147620D01*
D42*
X+5086300Y-2446030D02*
X+5187900Y-2446030D01*
X+5187900Y-2184410D01*
X+5086300Y-2184410D01*
X+5086300Y-2446030D01*
D111*
X+5137100Y-2228860D02*
X+5137100Y-2228860D01*
D112*
X+5155388Y-2388372D02*
X+5118812Y-2388372D01*
X+5118812Y-2357892D01*
X+5124908Y-2351796D01*
X+5131004Y-2351796D01*
X+5137100Y-2357892D01*
X+5137100Y-2388372D01*
X+5137100Y-2357892D02*
X+5143196Y-2351796D01*
X+5155388Y-2351796D01*
X+5118812Y-2303028D02*
X+5118812Y-2333508D01*
X+5131004Y-2333508D01*
X+5131004Y-2309124D01*
X+5137100Y-2303028D01*
X+5149292Y-2303028D01*
X+5155388Y-2309124D01*
X+5155388Y-2327412D01*
X+5149292Y-2333508D01*
X+5124908Y-2284740D02*
X+5118812Y-2278644D01*
X+5118812Y-2260356D01*
X+5124908Y-2254260D01*
X+5131004Y-2254260D01*
X+5137100Y-2260356D01*
X+5137100Y-2278644D01*
X+5143196Y-2284740D01*
X+5155388Y-2284740D01*
X+5155388Y-2254260D01*
D42*
X+3252460Y-1896060D02*
X+3707120Y-1896060D01*
X+3707120Y-1220420D01*
X+3252460Y-1220420D01*
X+3252460Y-1896060D01*
D11*
X+3442960Y-1322020D02*
X+3442960Y-1322020D01*
D105*
X+3524833Y-1603283D02*
X+3547354Y-1625804D01*
X+3547354Y-1693368D01*
X+3502311Y-1738410D01*
X+3457269Y-1738410D01*
X+3412226Y-1693368D01*
X+3412226Y-1625804D01*
X+3434747Y-1603283D01*
X+3434747Y-1535719D02*
X+3412226Y-1513198D01*
X+3412226Y-1445634D01*
X+3434747Y-1423113D01*
X+3457269Y-1423113D01*
X+3479790Y-1445634D01*
X+3502311Y-1423113D01*
X+3524833Y-1423113D01*
X+3547354Y-1445634D01*
X+3547354Y-1513198D01*
X+3524833Y-1535719D01*
X+3479790Y-1490677D02*
X+3479790Y-1445634D01*
D42*
X+2033220Y-3332490D02*
X+2134820Y-3332490D01*
X+2134820Y-3070870D01*
X+2033220Y-3070870D01*
X+2033220Y-3332490D01*
D111*
X+2084020Y-3115320D02*
X+2084020Y-3115320D01*
D112*
X+2096212Y-3238256D02*
X+2102308Y-3244352D01*
X+2102308Y-3262640D01*
X+2090116Y-3274832D01*
X+2077924Y-3274832D01*
X+2065732Y-3262640D01*
X+2065732Y-3244352D01*
X+2071828Y-3238256D01*
X+2071828Y-3219968D02*
X+2065732Y-3213872D01*
X+2065732Y-3195584D01*
X+2071828Y-3189488D01*
X+2077924Y-3189488D01*
X+2084020Y-3195584D01*
X+2084020Y-3213872D01*
X+2090116Y-3219968D01*
X+2102308Y-3219968D01*
X+2102308Y-3189488D01*
X+2084020Y-3165104D02*
X+2077924Y-3171200D01*
X+2071828Y-3171200D01*
X+2065732Y-3165104D01*
X+2065732Y-3146816D01*
X+2071828Y-3140720D01*
X+2077924Y-3140720D01*
X+2084020Y-3146816D01*
X+2084020Y-3165104D01*
X+2090116Y-3171200D01*
X+2096212Y-3171200D01*
X+2102308Y-3165104D01*
X+2102308Y-3146816D01*
X+2096212Y-3140720D01*
X+2090116Y-3140720D01*
X+2084020Y-3146816D01*
D42*
X+2178000Y-3332490D02*
X+2279600Y-3332490D01*
X+2279600Y-3070870D01*
X+2178000Y-3070870D01*
X+2178000Y-3332490D01*
D111*
X+2228800Y-3115320D02*
X+2228800Y-3115320D01*
D112*
X+2240992Y-3238256D02*
X+2247088Y-3244352D01*
X+2247088Y-3262640D01*
X+2234896Y-3274832D01*
X+2222704Y-3274832D01*
X+2210512Y-3262640D01*
X+2210512Y-3244352D01*
X+2216608Y-3238256D01*
X+2216608Y-3219968D02*
X+2210512Y-3213872D01*
X+2210512Y-3195584D01*
X+2216608Y-3189488D01*
X+2222704Y-3189488D01*
X+2228800Y-3195584D01*
X+2228800Y-3213872D01*
X+2234896Y-3219968D01*
X+2247088Y-3219968D01*
X+2247088Y-3189488D01*
X+2222704Y-3140720D02*
X+2228800Y-3146816D01*
X+2228800Y-3165104D01*
X+2222704Y-3171200D01*
X+2216608Y-3171200D01*
X+2210512Y-3165104D01*
X+2210512Y-3146816D01*
X+2216608Y-3140720D01*
X+2240992Y-3140720D01*
X+2247088Y-3146816D01*
X+2247088Y-3165104D01*
D42*
X+2844110Y-3346300D02*
X+3105730Y-3346300D01*
X+3105730Y-3244700D01*
X+2844110Y-3244700D01*
X+2844110Y-3346300D01*
D111*
X+3061280Y-3295500D02*
X+3061280Y-3295500D01*
D112*
X+2901768Y-3313788D02*
X+2901768Y-3277212D01*
X+2932248Y-3277212D01*
X+2938344Y-3283308D01*
X+2938344Y-3289404D01*
X+2932248Y-3295500D01*
X+2901768Y-3295500D01*
X+2932248Y-3295500D02*
X+2938344Y-3301596D01*
X+2938344Y-3313788D01*
X+2987112Y-3283308D02*
X+2981016Y-3277212D01*
X+2962728Y-3277212D01*
X+2956632Y-3283308D01*
X+2956632Y-3307692D01*
X+2962728Y-3313788D01*
X+2981016Y-3313788D01*
X+2987112Y-3307692D01*
X+2987112Y-3301596D01*
X+2981016Y-3295500D01*
X+2956632Y-3295500D01*
X+3035880Y-3301596D02*
X+2999304Y-3301596D01*
X+3023688Y-3277212D01*
X+3023688Y-3313788D01*
D42*
X+2843990Y-3473400D02*
X+3105610Y-3473400D01*
X+3105610Y-3371800D01*
X+2843990Y-3371800D01*
X+2843990Y-3473400D01*
D111*
X+3061160Y-3422600D02*
X+3061160Y-3422600D01*
D112*
X+2901648Y-3440888D02*
X+2901648Y-3404312D01*
X+2932128Y-3404312D01*
X+2938224Y-3410408D01*
X+2938224Y-3416504D01*
X+2932128Y-3422600D01*
X+2901648Y-3422600D01*
X+2932128Y-3422600D02*
X+2938224Y-3428696D01*
X+2938224Y-3440888D01*
X+2986992Y-3410408D02*
X+2980896Y-3404312D01*
X+2962608Y-3404312D01*
X+2956512Y-3410408D01*
X+2956512Y-3434792D01*
X+2962608Y-3440888D01*
X+2980896Y-3440888D01*
X+2986992Y-3434792D01*
X+2986992Y-3428696D01*
X+2980896Y-3422600D01*
X+2956512Y-3422600D01*
X+3035760Y-3404312D02*
X+3005280Y-3404312D01*
X+3005280Y-3416504D01*
X+3029664Y-3416504D01*
X+3035760Y-3422600D01*
X+3035760Y-3434792D01*
X+3029664Y-3440888D01*
X+3011376Y-3440888D01*
X+3005280Y-3434792D01*
D42*
X+3097480Y-1778010D02*
X+3199080Y-1778010D01*
X+3199080Y-1516390D01*
X+3097480Y-1516390D01*
X+3097480Y-1778010D01*
D111*
X+3148280Y-1733560D02*
X+3148280Y-1733560D01*
D112*
X+3160472Y-1683776D02*
X+3166568Y-1689872D01*
X+3166568Y-1708160D01*
X+3154376Y-1720352D01*
X+3142184Y-1720352D01*
X+3129992Y-1708160D01*
X+3129992Y-1689872D01*
X+3136088Y-1683776D01*
X+3142184Y-1659392D02*
X+3129992Y-1647200D01*
X+3166568Y-1647200D01*
X+3136088Y-1616720D02*
X+3129992Y-1610624D01*
X+3129992Y-1592336D01*
X+3136088Y-1586240D01*
X+3142184Y-1586240D01*
X+3148280Y-1592336D01*
X+3154376Y-1586240D01*
X+3160472Y-1586240D01*
X+3166568Y-1592336D01*
X+3166568Y-1610624D01*
X+3160472Y-1616720D01*
X+3148280Y-1604528D02*
X+3148280Y-1592336D01*
D42*
X+3000960Y-2623830D02*
X+3102560Y-2623830D01*
X+3102560Y-2362210D01*
X+3000960Y-2362210D01*
X+3000960Y-2623830D01*
D111*
X+3051760Y-2579380D02*
X+3051760Y-2579380D01*
D112*
X+3063952Y-2529596D02*
X+3070048Y-2535692D01*
X+3070048Y-2553980D01*
X+3057856Y-2566172D01*
X+3045664Y-2566172D01*
X+3033472Y-2553980D01*
X+3033472Y-2535692D01*
X+3039568Y-2529596D01*
X+3039568Y-2511308D02*
X+3033472Y-2505212D01*
X+3033472Y-2486924D01*
X+3039568Y-2480828D01*
X+3045664Y-2480828D01*
X+3051760Y-2486924D01*
X+3057856Y-2480828D01*
X+3063952Y-2480828D01*
X+3070048Y-2486924D01*
X+3070048Y-2505212D01*
X+3063952Y-2511308D01*
X+3051760Y-2499116D02*
X+3051760Y-2486924D01*
X+3033472Y-2432060D02*
X+3033472Y-2462540D01*
X+3045664Y-2462540D01*
X+3045664Y-2438156D01*
X+3051760Y-2432060D01*
X+3063952Y-2432060D01*
X+3070048Y-2438156D01*
X+3070048Y-2456444D01*
X+3063952Y-2462540D01*
D42*
X+2871420Y-2623830D02*
X+2973020Y-2623830D01*
X+2973020Y-2362210D01*
X+2871420Y-2362210D01*
X+2871420Y-2623830D01*
D111*
X+2922220Y-2579380D02*
X+2922220Y-2579380D01*
D112*
X+2934412Y-2529596D02*
X+2940508Y-2535692D01*
X+2940508Y-2553980D01*
X+2928316Y-2566172D01*
X+2916124Y-2566172D01*
X+2903932Y-2553980D01*
X+2903932Y-2535692D01*
X+2910028Y-2529596D01*
X+2910028Y-2511308D02*
X+2903932Y-2505212D01*
X+2903932Y-2486924D01*
X+2910028Y-2480828D01*
X+2916124Y-2480828D01*
X+2922220Y-2486924D01*
X+2928316Y-2480828D01*
X+2934412Y-2480828D01*
X+2940508Y-2486924D01*
X+2940508Y-2505212D01*
X+2934412Y-2511308D01*
X+2922220Y-2499116D02*
X+2922220Y-2486924D01*
X+2922220Y-2456444D02*
X+2916124Y-2462540D01*
X+2910028Y-2462540D01*
X+2903932Y-2456444D01*
X+2903932Y-2438156D01*
X+2910028Y-2432060D01*
X+2916124Y-2432060D01*
X+2922220Y-2438156D01*
X+2922220Y-2456444D01*
X+2928316Y-2462540D01*
X+2934412Y-2462540D01*
X+2940508Y-2456444D01*
X+2940508Y-2438156D01*
X+2934412Y-2432060D01*
X+2928316Y-2432060D01*
X+2922220Y-2438156D01*
D42*
X+2992170Y-2157720D02*
X+3253790Y-2157720D01*
X+3253790Y-2056120D01*
X+2992170Y-2056120D01*
X+2992170Y-2157720D01*
D111*
X+3209340Y-2106920D02*
X+3209340Y-2106920D01*
D112*
X+3086404Y-2119112D02*
X+3080308Y-2125208D01*
X+3062020Y-2125208D01*
X+3049828Y-2113016D01*
X+3049828Y-2100824D01*
X+3062020Y-2088632D01*
X+3080308Y-2088632D01*
X+3086404Y-2094728D01*
X+3104692Y-2094728D02*
X+3110788Y-2088632D01*
X+3129076Y-2088632D01*
X+3135172Y-2094728D01*
X+3135172Y-2100824D01*
X+3129076Y-2106920D01*
X+3135172Y-2113016D01*
X+3135172Y-2119112D01*
X+3129076Y-2125208D01*
X+3110788Y-2125208D01*
X+3104692Y-2119112D01*
X+3116884Y-2106920D02*
X+3129076Y-2106920D01*
X+3153460Y-2094728D02*
X+3159556Y-2088632D01*
X+3177844Y-2088632D01*
X+3183940Y-2094728D01*
X+3183940Y-2100824D01*
X+3177844Y-2106920D01*
X+3159556Y-2106920D01*
X+3153460Y-2113016D01*
X+3153460Y-2125208D01*
X+3183940Y-2125208D01*
D42*
X+2994610Y-2272040D02*
X+3256230Y-2272040D01*
X+3256230Y-2170440D01*
X+2994610Y-2170440D01*
X+2994610Y-2272040D01*
D111*
X+3211780Y-2221240D02*
X+3211780Y-2221240D01*
D112*
X+3088844Y-2233432D02*
X+3082748Y-2239528D01*
X+3064460Y-2239528D01*
X+3052268Y-2227336D01*
X+3052268Y-2215144D01*
X+3064460Y-2202952D01*
X+3082748Y-2202952D01*
X+3088844Y-2209048D01*
X+3107132Y-2209048D02*
X+3113228Y-2202952D01*
X+3131516Y-2202952D01*
X+3137612Y-2209048D01*
X+3137612Y-2215144D01*
X+3131516Y-2221240D01*
X+3137612Y-2227336D01*
X+3137612Y-2233432D01*
X+3131516Y-2239528D01*
X+3113228Y-2239528D01*
X+3107132Y-2233432D01*
X+3119324Y-2221240D02*
X+3131516Y-2221240D01*
X+3155900Y-2209048D02*
X+3161996Y-2202952D01*
X+3180284Y-2202952D01*
X+3186380Y-2209048D01*
X+3186380Y-2215144D01*
X+3180284Y-2221240D01*
X+3186380Y-2227336D01*
X+3186380Y-2233432D01*
X+3180284Y-2239528D01*
X+3161996Y-2239528D01*
X+3155900Y-2233432D01*
X+3168092Y-2221240D02*
X+3180284Y-2221240D01*
D42*
X+914891Y-3019860D02*
X+1481211Y-3019860D01*
X+1481211Y-1898140D01*
X+914891Y-1898140D01*
X+914891Y-3019860D01*
D115*
X+1052051Y-2870000D02*
X+1052051Y-2870000D01*
D116*
X+1265355Y-2817950D02*
X+1130748Y-2817950D01*
X+1130748Y-2705779D01*
X+1153183Y-2683344D01*
X+1175617Y-2683344D01*
X+1198051Y-2705779D01*
X+1220486Y-2683344D01*
X+1242920Y-2683344D01*
X+1265355Y-2705779D01*
X+1265355Y-2817950D01*
X+1198051Y-2817950D02*
X+1198051Y-2705779D01*
X+1175617Y-2638475D02*
X+1130748Y-2593607D01*
X+1130748Y-2548738D01*
X+1175617Y-2503869D01*
X+1220486Y-2503869D01*
X+1265355Y-2548738D01*
X+1265355Y-2593607D01*
X+1220486Y-2638475D01*
X+1175617Y-2638475D01*
X+1175617Y-2459000D02*
X+1130748Y-2414132D01*
X+1130748Y-2369263D01*
X+1175617Y-2324394D01*
X+1220486Y-2324394D01*
X+1265355Y-2369263D01*
X+1265355Y-2414132D01*
X+1220486Y-2459000D01*
X+1175617Y-2459000D01*
X+1130748Y-2279525D02*
X+1130748Y-2144919D01*
X+1130748Y-2212222D02*
X+1265355Y-2212222D01*
D42*
X+1389200Y-1804450D02*
X+1490800Y-1804450D01*
X+1490800Y-1542830D01*
X+1389200Y-1542830D01*
X+1389200Y-1804450D01*
D111*
X+1440000Y-1587280D02*
X+1440000Y-1587280D01*
D112*
X+1458288Y-1746792D02*
X+1421712Y-1746792D01*
X+1421712Y-1716312D01*
X+1427808Y-1710216D01*
X+1433904Y-1710216D01*
X+1440000Y-1716312D01*
X+1440000Y-1746792D01*
X+1440000Y-1716312D02*
X+1446096Y-1710216D01*
X+1458288Y-1710216D01*
X+1427808Y-1661448D02*
X+1421712Y-1667544D01*
X+1421712Y-1685832D01*
X+1427808Y-1691928D01*
X+1452192Y-1691928D01*
X+1458288Y-1685832D01*
X+1458288Y-1667544D01*
X+1452192Y-1661448D01*
X+1446096Y-1661448D01*
X+1440000Y-1667544D01*
X+1440000Y-1691928D01*
X+1427808Y-1643160D02*
X+1421712Y-1637064D01*
X+1421712Y-1618776D01*
X+1427808Y-1612680D01*
X+1433904Y-1612680D01*
X+1440000Y-1618776D01*
X+1446096Y-1612680D01*
X+1452192Y-1612680D01*
X+1458288Y-1618776D01*
X+1458288Y-1637064D01*
X+1452192Y-1643160D01*
X+1440000Y-1630968D02*
X+1440000Y-1618776D01*
D42*
X+1539200Y-1807170D02*
X+1640800Y-1807170D01*
X+1640800Y-1545550D01*
X+1539200Y-1545550D01*
X+1539200Y-1807170D01*
D111*
X+1590000Y-1590000D02*
X+1590000Y-1590000D01*
D112*
X+1608288Y-1725128D02*
X+1571712Y-1725128D01*
X+1571712Y-1694648D01*
X+1577808Y-1688552D01*
X+1583904Y-1688552D01*
X+1590000Y-1694648D01*
X+1590000Y-1725128D01*
X+1590000Y-1694648D02*
X+1596096Y-1688552D01*
X+1608288Y-1688552D01*
X+1577808Y-1670264D02*
X+1571712Y-1664168D01*
X+1571712Y-1645880D01*
X+1577808Y-1639784D01*
X+1583904Y-1639784D01*
X+1590000Y-1645880D01*
X+1590000Y-1664168D01*
X+1596096Y-1670264D01*
X+1608288Y-1670264D01*
X+1608288Y-1639784D01*
D42*
X+6554000Y-756920D02*
X+6554000Y-967260D01*
X+7338060Y-967260D01*
M02*
