G04 PROTEUS RS274X GERBER FILE*
%FSLAX45Y45*%
%MOMM*%
G01*
%ADD42C,0.203200*%
%ADD53C,0.100000*%
%ADD20C,0.254000*%
%ADD54C,0.250000*%
%ADD55C,0.200000*%
%ADD56C,0.101600*%
%ADD57C,0.063500*%
%ADD58C,0.000010*%
D42*
X+4957960Y-1178180D02*
X+4759840Y-1178180D01*
X+4759840Y-822580D02*
X+4960500Y-822580D01*
X+4617600Y-1203580D02*
X+4617600Y-1254380D01*
X+4643000Y-1228980D02*
X+4592200Y-1228980D01*
X+4799210Y-1035940D02*
X+4789685Y-1046100D01*
X+4761110Y-1046100D01*
X+4742060Y-1025780D01*
X+4742060Y-1005460D01*
X+4761110Y-985140D01*
X+4789685Y-985140D01*
X+4799210Y-995300D01*
X+4837310Y-1005460D02*
X+4856360Y-985140D01*
X+4856360Y-1046100D01*
X+4951610Y-995300D02*
X+4942085Y-985140D01*
X+4913510Y-985140D01*
X+4903985Y-995300D01*
X+4903985Y-1035940D01*
X+4913510Y-1046100D01*
X+4942085Y-1046100D01*
X+4951610Y-1035940D01*
X+4951610Y-1025780D01*
X+4942085Y-1015620D01*
X+4903985Y-1015620D01*
D53*
X+7260600Y-1051540D02*
X+7260600Y-1201540D01*
X+7018100Y-1444040D02*
X+6868100Y-1444040D01*
X+6625600Y-1201540D02*
X+6625600Y-1051540D01*
X+6868100Y-809040D02*
X+7018100Y-809040D01*
D42*
X+7151960Y-1222740D02*
X+7162120Y-1222740D01*
X+7172280Y-1213215D01*
X+7172280Y-1175115D01*
X+7162120Y-1165590D01*
X+7111320Y-1165590D01*
X+7121480Y-1137015D02*
X+7111320Y-1127490D01*
X+7111320Y-1098915D01*
X+7121480Y-1089390D01*
X+7131640Y-1089390D01*
X+7141800Y-1098915D01*
X+7151960Y-1089390D01*
X+7162120Y-1089390D01*
X+7172280Y-1098915D01*
X+7172280Y-1127490D01*
X+7162120Y-1137015D01*
X+7141800Y-1117965D02*
X+7141800Y-1098915D01*
X+818980Y-4046380D02*
X+818980Y-756380D01*
D53*
X+3734580Y-1476220D02*
X+3734580Y-1578220D01*
X+4384580Y-1578220D01*
X+4384580Y-1476220D01*
X+3799580Y-1908220D02*
X+3804580Y-1903220D01*
X+3809580Y-1908220D01*
X+3804580Y-1913220D01*
X+3799580Y-1908220D01*
D42*
X+3961260Y-1464900D02*
X+3961260Y-1515700D01*
X+3970785Y-1525860D01*
X+4008885Y-1525860D01*
X+4018410Y-1515700D01*
X+4018410Y-1464900D01*
X+4056510Y-1485220D02*
X+4075560Y-1464900D01*
X+4075560Y-1525860D01*
X+4170810Y-1505540D02*
X+4113660Y-1505540D01*
X+4151760Y-1464900D01*
X+4151760Y-1525860D01*
X+7338980Y-4046380D02*
X+7336440Y-966720D01*
X+817880Y-754380D02*
X+6554000Y-756920D01*
D20*
X+5387160Y-3271200D02*
X+5597160Y-3271200D01*
X+5387160Y-3271200D02*
X+5387160Y-2996200D01*
X+5387160Y-1701200D02*
X+5597160Y-1701200D01*
X+7147160Y-3271200D02*
X+7147160Y-2996200D01*
X+7147160Y-3271200D02*
X+6937160Y-3271200D01*
X+7147160Y-1701200D02*
X+6937160Y-1701200D01*
X+5387160Y-1701200D02*
X+5387160Y-1976200D01*
X+7147160Y-1701200D02*
X+7147160Y-1976200D01*
X+5666660Y-3427700D02*
X+5666631Y-3426993D01*
X+5666391Y-3425578D01*
X+5665889Y-3424163D01*
X+5665069Y-3422748D01*
X+5663814Y-3421353D01*
X+5662399Y-3420332D01*
X+5660984Y-3419683D01*
X+5659569Y-3419318D01*
X+5658160Y-3419200D01*
X+5649660Y-3427700D02*
X+5649689Y-3426993D01*
X+5649929Y-3425578D01*
X+5650431Y-3424163D01*
X+5651251Y-3422748D01*
X+5652506Y-3421353D01*
X+5653921Y-3420332D01*
X+5655336Y-3419683D01*
X+5656751Y-3419318D01*
X+5658160Y-3419200D01*
X+5649660Y-3427700D02*
X+5649689Y-3428407D01*
X+5649929Y-3429822D01*
X+5650431Y-3431237D01*
X+5651251Y-3432652D01*
X+5652506Y-3434047D01*
X+5653921Y-3435068D01*
X+5655336Y-3435717D01*
X+5656751Y-3436082D01*
X+5658160Y-3436200D01*
X+5666660Y-3427700D02*
X+5666631Y-3428407D01*
X+5666391Y-3429822D01*
X+5665889Y-3431237D01*
X+5665069Y-3432652D01*
X+5663814Y-3434047D01*
X+5662399Y-3435068D01*
X+5660984Y-3435717D01*
X+5659569Y-3436082D01*
X+5658160Y-3436200D01*
D42*
X+5425450Y-1741080D02*
X+5425450Y-1791880D01*
X+5434975Y-1802040D01*
X+5473075Y-1802040D01*
X+5482600Y-1791880D01*
X+5482600Y-1741080D01*
X+5511175Y-1751240D02*
X+5520700Y-1741080D01*
X+5549275Y-1741080D01*
X+5558800Y-1751240D01*
X+5558800Y-1761400D01*
X+5549275Y-1771560D01*
X+5558800Y-1781720D01*
X+5558800Y-1791880D01*
X+5549275Y-1802040D01*
X+5520700Y-1802040D01*
X+5511175Y-1791880D01*
X+5530225Y-1771560D02*
X+5549275Y-1771560D01*
X+1818640Y-4046220D02*
X+1818640Y-4216700D01*
X+1818640Y-4218940D02*
X+2016760Y-4218940D01*
X+1818640Y-4218940D02*
X+2817020Y-4218940D01*
X+2817460Y-4047860D02*
X+2817460Y-4218340D01*
D54*
X+857500Y-3865000D02*
X+857457Y-3863961D01*
X+857105Y-3861882D01*
X+856368Y-3859803D01*
X+855164Y-3857724D01*
X+853323Y-3855674D01*
X+851244Y-3854171D01*
X+849165Y-3853214D01*
X+847086Y-3852675D01*
X+845007Y-3852500D01*
X+845000Y-3852500D01*
X+832500Y-3865000D02*
X+832543Y-3863961D01*
X+832895Y-3861882D01*
X+833632Y-3859803D01*
X+834836Y-3857724D01*
X+836677Y-3855674D01*
X+838756Y-3854171D01*
X+840835Y-3853214D01*
X+842914Y-3852675D01*
X+844993Y-3852500D01*
X+845000Y-3852500D01*
X+832500Y-3865000D02*
X+832543Y-3866039D01*
X+832895Y-3868118D01*
X+833632Y-3870197D01*
X+834836Y-3872276D01*
X+836677Y-3874326D01*
X+838756Y-3875829D01*
X+840835Y-3876786D01*
X+842914Y-3877325D01*
X+844993Y-3877500D01*
X+845000Y-3877500D01*
X+857500Y-3865000D02*
X+857457Y-3866039D01*
X+857105Y-3868118D01*
X+856368Y-3870197D01*
X+855164Y-3872276D01*
X+853323Y-3874326D01*
X+851244Y-3875829D01*
X+849165Y-3876786D01*
X+847086Y-3877325D01*
X+845007Y-3877500D01*
X+845000Y-3877500D01*
D55*
X+1515000Y-3635000D02*
X+1515000Y-3345000D01*
X+845000Y-3345000D01*
X+845000Y-3635000D01*
X+1515000Y-3635000D01*
D42*
X+1065700Y-3475720D02*
X+1065700Y-3526520D01*
X+1075225Y-3536680D01*
X+1113325Y-3536680D01*
X+1122850Y-3526520D01*
X+1122850Y-3475720D01*
X+1160950Y-3496040D02*
X+1180000Y-3475720D01*
X+1180000Y-3536680D01*
X+1275250Y-3475720D02*
X+1227625Y-3475720D01*
X+1227625Y-3496040D01*
X+1265725Y-3496040D01*
X+1275250Y-3506200D01*
X+1275250Y-3526520D01*
X+1265725Y-3536680D01*
X+1237150Y-3536680D01*
X+1227625Y-3526520D01*
D55*
X+4704820Y-2101040D02*
X+4704820Y-2467040D01*
X+4544820Y-2199040D02*
X+4544820Y-2467040D01*
D42*
X+4661500Y-2437340D02*
X+4600540Y-2437340D01*
X+4600540Y-2399240D01*
X+4620860Y-2380190D01*
X+4641180Y-2380190D01*
X+4661500Y-2399240D01*
X+4661500Y-2437340D01*
X+4620860Y-2342090D02*
X+4600540Y-2323040D01*
X+4661500Y-2323040D01*
X+4620860Y-2227790D02*
X+4631020Y-2237315D01*
X+4631020Y-2265890D01*
X+4620860Y-2275415D01*
X+4610700Y-2275415D01*
X+4600540Y-2265890D01*
X+4600540Y-2237315D01*
X+4610700Y-2227790D01*
X+4651340Y-2227790D01*
X+4661500Y-2237315D01*
X+4661500Y-2265890D01*
X+4959600Y-1589520D02*
X+4761480Y-1589520D01*
X+4761480Y-1233920D02*
X+4962140Y-1233920D01*
X+4619240Y-1614920D02*
X+4619240Y-1665720D01*
X+4644640Y-1640320D02*
X+4593840Y-1640320D01*
X+4803290Y-1425820D02*
X+4793765Y-1435980D01*
X+4765190Y-1435980D01*
X+4746140Y-1415660D01*
X+4746140Y-1395340D01*
X+4765190Y-1375020D01*
X+4793765Y-1375020D01*
X+4803290Y-1385180D01*
X+4831865Y-1385180D02*
X+4841390Y-1375020D01*
X+4869965Y-1375020D01*
X+4879490Y-1385180D01*
X+4879490Y-1395340D01*
X+4869965Y-1405500D01*
X+4841390Y-1405500D01*
X+4831865Y-1415660D01*
X+4831865Y-1435980D01*
X+4879490Y-1435980D01*
X+6411900Y-3982480D02*
X+6350940Y-3982480D01*
X+6350940Y-3934855D01*
X+6361100Y-3925330D01*
X+6371260Y-3925330D01*
X+6381420Y-3934855D01*
X+6381420Y-3982480D01*
X+6350940Y-3896755D02*
X+6350940Y-3858655D01*
X+6350940Y-3877705D02*
X+6411900Y-3877705D01*
X+6411900Y-3896755D02*
X+6411900Y-3858655D01*
X+6411900Y-3830080D02*
X+6350940Y-3830080D01*
X+6411900Y-3772930D01*
X+6350940Y-3772930D01*
X+2816860Y-4046220D02*
X+5341620Y-4046220D01*
X+1818640Y-4046220D02*
X+817880Y-4046220D01*
X+5341620Y-4218940D02*
X+5341620Y-4046220D01*
X+6339840Y-4046220D02*
X+7338060Y-4046220D01*
X+6339840Y-4218940D02*
X+6339840Y-4046220D01*
X+5341620Y-4218940D02*
X+6339840Y-4218940D01*
X+1911985Y-3606800D02*
X+1921510Y-3596640D01*
X+1950085Y-3596640D01*
X+1959610Y-3606800D01*
X+1959610Y-3616960D01*
X+1950085Y-3627120D01*
X+1921510Y-3627120D01*
X+1911985Y-3637280D01*
X+1911985Y-3657600D01*
X+1959610Y-3657600D01*
X+4960460Y-1997900D02*
X+4762340Y-1997900D01*
X+4762340Y-1642300D02*
X+4963000Y-1642300D01*
X+4620100Y-2023300D02*
X+4620100Y-2074100D01*
X+4645500Y-2048700D02*
X+4594700Y-2048700D01*
X+4803330Y-1841660D02*
X+4793805Y-1851820D01*
X+4765230Y-1851820D01*
X+4746180Y-1831500D01*
X+4746180Y-1811180D01*
X+4765230Y-1790860D01*
X+4793805Y-1790860D01*
X+4803330Y-1801020D01*
X+4879530Y-1831500D02*
X+4822380Y-1831500D01*
X+4860480Y-1790860D01*
X+4860480Y-1851820D01*
X+1579880Y-3281680D02*
X+1579880Y-3083560D01*
X+1935480Y-3083560D02*
X+1935480Y-3284220D01*
X+1554480Y-2941320D02*
X+1503680Y-2941320D01*
X+1529080Y-2966720D02*
X+1529080Y-2915920D01*
X+1705610Y-3141980D02*
X+1696085Y-3152140D01*
X+1667510Y-3152140D01*
X+1648460Y-3131820D01*
X+1648460Y-3111500D01*
X+1667510Y-3091180D01*
X+1696085Y-3091180D01*
X+1705610Y-3101340D01*
X+1734185Y-3101340D02*
X+1743710Y-3091180D01*
X+1772285Y-3091180D01*
X+1781810Y-3101340D01*
X+1781810Y-3111500D01*
X+1772285Y-3121660D01*
X+1743710Y-3121660D01*
X+1734185Y-3131820D01*
X+1734185Y-3152140D01*
X+1781810Y-3152140D01*
X+1810385Y-3091180D02*
X+1858010Y-3091180D01*
X+1858010Y-3101340D01*
X+1810385Y-3152140D01*
X+802880Y-1755600D02*
X+802880Y-907240D01*
X+805000Y-1756500D02*
X+1109920Y-1756500D01*
X+1319920Y-1626500D01*
X+1319920Y-1046500D01*
X+1099920Y-906500D01*
X+1105000Y-906500D02*
X+805000Y-906500D01*
X+1364200Y-1468340D02*
X+1415000Y-1468340D01*
X+1425160Y-1458815D01*
X+1425160Y-1420715D01*
X+1415000Y-1411190D01*
X+1364200Y-1411190D01*
X+1415000Y-1392140D02*
X+1425160Y-1382615D01*
X+1425160Y-1344515D01*
X+1415000Y-1334990D01*
X+1404840Y-1334990D01*
X+1394680Y-1344515D01*
X+1394680Y-1382615D01*
X+1384520Y-1392140D01*
X+1374360Y-1392140D01*
X+1364200Y-1382615D01*
X+1364200Y-1344515D01*
X+1374360Y-1334990D01*
X+1425160Y-1315940D02*
X+1364200Y-1315940D01*
X+1364200Y-1268315D01*
X+1374360Y-1258790D01*
X+1384520Y-1258790D01*
X+1394680Y-1268315D01*
X+1404840Y-1258790D01*
X+1415000Y-1258790D01*
X+1425160Y-1268315D01*
X+1425160Y-1315940D01*
X+1394680Y-1315940D02*
X+1394680Y-1268315D01*
X+1384520Y-1220690D02*
X+1364200Y-1201640D01*
X+1425160Y-1201640D01*
D56*
X+1681360Y-1353720D02*
X+1681360Y-1103720D01*
X+1678880Y-1102460D02*
X+1551880Y-1102460D01*
X+1551360Y-1103720D02*
X+1551360Y-1353720D01*
X+1641360Y-1353720D02*
X+1635579Y-1339501D01*
X+1621360Y-1333720D01*
X+1591360Y-1353720D02*
X+1597141Y-1339501D01*
X+1611360Y-1333720D01*
X+1591360Y-1353720D02*
X+1551360Y-1353720D01*
X+1641360Y-1353720D02*
X+1681360Y-1353720D01*
X+1621360Y-1333720D02*
X+1611360Y-1333720D01*
D42*
X+1661360Y-1313720D02*
X+1661325Y-1312889D01*
X+1661044Y-1311225D01*
X+1660454Y-1309561D01*
X+1659490Y-1307897D01*
X+1658015Y-1306256D01*
X+1656351Y-1305055D01*
X+1654687Y-1304290D01*
X+1653023Y-1303859D01*
X+1651360Y-1303720D01*
X+1641360Y-1313720D02*
X+1641395Y-1312889D01*
X+1641676Y-1311225D01*
X+1642266Y-1309561D01*
X+1643230Y-1307897D01*
X+1644705Y-1306256D01*
X+1646369Y-1305055D01*
X+1648033Y-1304290D01*
X+1649697Y-1303859D01*
X+1651360Y-1303720D01*
X+1641360Y-1313720D02*
X+1641395Y-1314551D01*
X+1641676Y-1316215D01*
X+1642266Y-1317879D01*
X+1643230Y-1319543D01*
X+1644705Y-1321184D01*
X+1646369Y-1322385D01*
X+1648033Y-1323150D01*
X+1649697Y-1323581D01*
X+1651360Y-1323720D01*
X+1661360Y-1313720D02*
X+1661325Y-1314551D01*
X+1661044Y-1316215D01*
X+1660454Y-1317879D01*
X+1659490Y-1319543D01*
X+1658015Y-1321184D01*
X+1656351Y-1322385D01*
X+1654687Y-1323150D01*
X+1653023Y-1323581D01*
X+1651360Y-1323720D01*
X+1569580Y-1313535D02*
X+1569580Y-1275435D01*
X+1569580Y-1294485D02*
X+1630540Y-1294485D01*
X+1630540Y-1313535D02*
X+1630540Y-1275435D01*
X+1620380Y-1189710D02*
X+1630540Y-1199235D01*
X+1630540Y-1227810D01*
X+1610220Y-1246860D01*
X+1589900Y-1246860D01*
X+1569580Y-1227810D01*
X+1569580Y-1199235D01*
X+1579740Y-1189710D01*
X+1579740Y-1161135D02*
X+1569580Y-1151610D01*
X+1569580Y-1123035D01*
X+1579740Y-1113510D01*
X+1589900Y-1113510D01*
X+1600060Y-1123035D01*
X+1600060Y-1151610D01*
X+1610220Y-1161135D01*
X+1630540Y-1161135D01*
X+1630540Y-1113510D01*
X+1957780Y-1371940D02*
X+1912060Y-1371940D01*
X+1957780Y-1290660D02*
X+1912060Y-1290660D01*
X+1858720Y-1458780D02*
X+1858720Y-1397820D01*
X+1906345Y-1397820D01*
X+1915870Y-1407980D01*
X+1915870Y-1418140D01*
X+1906345Y-1428300D01*
X+1858720Y-1428300D01*
X+1906345Y-1428300D02*
X+1915870Y-1438460D01*
X+1915870Y-1458780D01*
X+1944445Y-1397820D02*
X+1992070Y-1397820D01*
X+1992070Y-1407980D01*
X+1944445Y-1458780D01*
X+1952860Y-1176860D02*
X+1907140Y-1176860D01*
X+1952860Y-1095580D02*
X+1907140Y-1095580D01*
X+1853800Y-1263700D02*
X+1853800Y-1202740D01*
X+1901425Y-1202740D01*
X+1910950Y-1212900D01*
X+1910950Y-1223060D01*
X+1901425Y-1233220D01*
X+1853800Y-1233220D01*
X+1901425Y-1233220D02*
X+1910950Y-1243380D01*
X+1910950Y-1263700D01*
X+1949050Y-1233220D02*
X+1939525Y-1223060D01*
X+1939525Y-1212900D01*
X+1949050Y-1202740D01*
X+1977625Y-1202740D01*
X+1987150Y-1212900D01*
X+1987150Y-1223060D01*
X+1977625Y-1233220D01*
X+1949050Y-1233220D01*
X+1939525Y-1243380D01*
X+1939525Y-1253540D01*
X+1949050Y-1263700D01*
X+1977625Y-1263700D01*
X+1987150Y-1253540D01*
X+1987150Y-1243380D01*
X+1977625Y-1233220D01*
X+4295613Y-2033089D02*
X+4341333Y-2033089D01*
X+4295613Y-2114369D02*
X+4341333Y-2114369D01*
X+3944173Y-2097209D02*
X+3944173Y-2036249D01*
X+3991798Y-2036249D01*
X+4001323Y-2046409D01*
X+4001323Y-2056569D01*
X+3991798Y-2066729D01*
X+3944173Y-2066729D01*
X+3991798Y-2066729D02*
X+4001323Y-2076889D01*
X+4001323Y-2097209D01*
X+4077523Y-2036249D02*
X+4029898Y-2036249D01*
X+4029898Y-2056569D01*
X+4067998Y-2056569D01*
X+4077523Y-2066729D01*
X+4077523Y-2087049D01*
X+4067998Y-2097209D01*
X+4039423Y-2097209D01*
X+4029898Y-2087049D01*
X+4096573Y-2087049D02*
X+4096573Y-2046409D01*
X+4106098Y-2036249D01*
X+4144198Y-2036249D01*
X+4153723Y-2046409D01*
X+4153723Y-2087049D01*
X+4144198Y-2097209D01*
X+4106098Y-2097209D01*
X+4096573Y-2087049D01*
X+4096573Y-2097209D02*
X+4153723Y-2036249D01*
X+4339920Y-2275220D02*
X+4294200Y-2275220D01*
X+4339920Y-2193940D02*
X+4294200Y-2193940D01*
X+3952760Y-2262060D02*
X+3952760Y-2201100D01*
X+4000385Y-2201100D01*
X+4009910Y-2211260D01*
X+4009910Y-2221420D01*
X+4000385Y-2231580D01*
X+3952760Y-2231580D01*
X+4000385Y-2231580D02*
X+4009910Y-2241740D01*
X+4009910Y-2262060D01*
X+4086110Y-2201100D02*
X+4038485Y-2201100D01*
X+4038485Y-2221420D01*
X+4076585Y-2221420D01*
X+4086110Y-2231580D01*
X+4086110Y-2251900D01*
X+4076585Y-2262060D01*
X+4048010Y-2262060D01*
X+4038485Y-2251900D01*
X+4124210Y-2221420D02*
X+4143260Y-2201100D01*
X+4143260Y-2262060D01*
X+7240260Y-3608020D02*
X+7240260Y-3653740D01*
X+7158980Y-3608020D02*
X+7158980Y-3653740D01*
X+7217400Y-3936950D02*
X+7227560Y-3946475D01*
X+7227560Y-3975050D01*
X+7207240Y-3994100D01*
X+7186920Y-3994100D01*
X+7166600Y-3975050D01*
X+7166600Y-3946475D01*
X+7176760Y-3936950D01*
X+7207240Y-3860750D02*
X+7207240Y-3917900D01*
X+7166600Y-3879800D01*
X+7227560Y-3879800D01*
X+7197080Y-3822650D02*
X+7186920Y-3832175D01*
X+7176760Y-3832175D01*
X+7166600Y-3822650D01*
X+7166600Y-3794075D01*
X+7176760Y-3784550D01*
X+7186920Y-3784550D01*
X+7197080Y-3794075D01*
X+7197080Y-3822650D01*
X+7207240Y-3832175D01*
X+7217400Y-3832175D01*
X+7227560Y-3822650D01*
X+7227560Y-3794075D01*
X+7217400Y-3784550D01*
X+7207240Y-3784550D01*
X+7197080Y-3794075D01*
X+6935400Y-3599520D02*
X+6935400Y-3645240D01*
X+6854120Y-3599520D02*
X+6854120Y-3645240D01*
X+6912540Y-3933530D02*
X+6922700Y-3943055D01*
X+6922700Y-3971630D01*
X+6902380Y-3990680D01*
X+6882060Y-3990680D01*
X+6861740Y-3971630D01*
X+6861740Y-3943055D01*
X+6871900Y-3933530D01*
X+6902380Y-3857330D02*
X+6902380Y-3914480D01*
X+6861740Y-3876380D01*
X+6922700Y-3876380D01*
X+6861740Y-3828755D02*
X+6861740Y-3781130D01*
X+6871900Y-3781130D01*
X+6922700Y-3828755D01*
X+7087880Y-3603040D02*
X+7087880Y-3648760D01*
X+7006600Y-3603040D02*
X+7006600Y-3648760D01*
X+7065020Y-3934510D02*
X+7075180Y-3944035D01*
X+7075180Y-3972610D01*
X+7054860Y-3991660D01*
X+7034540Y-3991660D01*
X+7014220Y-3972610D01*
X+7014220Y-3944035D01*
X+7024380Y-3934510D01*
X+7054860Y-3858310D02*
X+7054860Y-3915460D01*
X+7014220Y-3877360D01*
X+7075180Y-3877360D01*
X+7054860Y-3782110D02*
X+7054860Y-3839260D01*
X+7014220Y-3801160D01*
X+7075180Y-3801160D01*
X+6140400Y-1497340D02*
X+6094680Y-1497340D01*
X+6140400Y-1416060D02*
X+6094680Y-1416060D01*
X+6078170Y-1370340D02*
X+6068645Y-1380500D01*
X+6040070Y-1380500D01*
X+6021020Y-1360180D01*
X+6021020Y-1339860D01*
X+6040070Y-1319540D01*
X+6068645Y-1319540D01*
X+6078170Y-1329700D01*
X+6154370Y-1319540D02*
X+6106745Y-1319540D01*
X+6106745Y-1339860D01*
X+6144845Y-1339860D01*
X+6154370Y-1350020D01*
X+6154370Y-1370340D01*
X+6144845Y-1380500D01*
X+6116270Y-1380500D01*
X+6106745Y-1370340D01*
X+6173420Y-1370340D02*
X+6173420Y-1329700D01*
X+6182945Y-1319540D01*
X+6221045Y-1319540D01*
X+6230570Y-1329700D01*
X+6230570Y-1370340D01*
X+6221045Y-1380500D01*
X+6182945Y-1380500D01*
X+6173420Y-1370340D01*
X+6173420Y-1380500D02*
X+6230570Y-1319540D01*
X+5660340Y-887740D02*
X+5660340Y-933460D01*
X+5579060Y-887740D02*
X+5579060Y-933460D01*
X+5756860Y-1014740D02*
X+5695900Y-1014740D01*
X+5695900Y-967115D01*
X+5706060Y-957590D01*
X+5716220Y-957590D01*
X+5726380Y-967115D01*
X+5726380Y-1014740D01*
X+5726380Y-967115D02*
X+5736540Y-957590D01*
X+5756860Y-957590D01*
X+5706060Y-881390D02*
X+5695900Y-890915D01*
X+5695900Y-919490D01*
X+5706060Y-929015D01*
X+5746700Y-929015D01*
X+5756860Y-919490D01*
X+5756860Y-890915D01*
X+5746700Y-881390D01*
X+5736540Y-881390D01*
X+5726380Y-890915D01*
X+5726380Y-929015D01*
X+5706060Y-805190D02*
X+5695900Y-814715D01*
X+5695900Y-843290D01*
X+5706060Y-852815D01*
X+5746700Y-852815D01*
X+5756860Y-843290D01*
X+5756860Y-814715D01*
X+5746700Y-805190D01*
X+5736540Y-805190D01*
X+5726380Y-814715D01*
X+5726380Y-852815D01*
X+5175360Y-2696200D02*
X+5086460Y-2696200D01*
X+5068680Y-2807960D02*
X+4997560Y-2807960D01*
X+5175360Y-2696200D02*
X+5175360Y-2787640D01*
X+4885800Y-2790180D02*
X+4885800Y-2696200D01*
X+4972160Y-2696200D01*
X+4784200Y-2882890D02*
X+4753720Y-2851140D01*
X+4753720Y-2819390D01*
X+4784200Y-2787640D01*
X+4814680Y-2787640D01*
X+4845160Y-2819390D01*
X+4845160Y-2851140D01*
X+4814680Y-2882890D01*
X+4784200Y-2882890D01*
X+4814680Y-2819390D02*
X+4845160Y-2787640D01*
X+4768960Y-2740015D02*
X+4753720Y-2724140D01*
X+4753720Y-2676515D01*
X+4768960Y-2660640D01*
X+4784200Y-2660640D01*
X+4799440Y-2676515D01*
X+4799440Y-2724140D01*
X+4814680Y-2740015D01*
X+4845160Y-2740015D01*
X+4845160Y-2660640D01*
X+5000100Y-2983220D02*
X+5045820Y-2983220D01*
X+5000100Y-3064500D02*
X+5045820Y-3064500D01*
X+4652120Y-3054340D02*
X+4652120Y-2993380D01*
X+4699745Y-2993380D01*
X+4709270Y-3003540D01*
X+4709270Y-3013700D01*
X+4699745Y-3023860D01*
X+4652120Y-3023860D01*
X+4699745Y-3023860D02*
X+4709270Y-3034020D01*
X+4709270Y-3054340D01*
X+4785470Y-3003540D02*
X+4775945Y-2993380D01*
X+4747370Y-2993380D01*
X+4737845Y-3003540D01*
X+4737845Y-3044180D01*
X+4747370Y-3054340D01*
X+4775945Y-3054340D01*
X+4785470Y-3044180D01*
X+4785470Y-3034020D01*
X+4775945Y-3023860D01*
X+4737845Y-3023860D01*
X+4823570Y-3023860D02*
X+4814045Y-3013700D01*
X+4814045Y-3003540D01*
X+4823570Y-2993380D01*
X+4852145Y-2993380D01*
X+4861670Y-3003540D01*
X+4861670Y-3013700D01*
X+4852145Y-3023860D01*
X+4823570Y-3023860D01*
X+4814045Y-3034020D01*
X+4814045Y-3044180D01*
X+4823570Y-3054340D01*
X+4852145Y-3054340D01*
X+4861670Y-3044180D01*
X+4861670Y-3034020D01*
X+4852145Y-3023860D01*
X+5000100Y-3135620D02*
X+5045820Y-3135620D01*
X+5000100Y-3216900D02*
X+5045820Y-3216900D01*
X+4649580Y-3214360D02*
X+4649580Y-3153400D01*
X+4697205Y-3153400D01*
X+4706730Y-3163560D01*
X+4706730Y-3173720D01*
X+4697205Y-3183880D01*
X+4649580Y-3183880D01*
X+4697205Y-3183880D02*
X+4706730Y-3194040D01*
X+4706730Y-3214360D01*
X+4782930Y-3163560D02*
X+4773405Y-3153400D01*
X+4744830Y-3153400D01*
X+4735305Y-3163560D01*
X+4735305Y-3204200D01*
X+4744830Y-3214360D01*
X+4773405Y-3214360D01*
X+4782930Y-3204200D01*
X+4782930Y-3194040D01*
X+4773405Y-3183880D01*
X+4735305Y-3183880D01*
X+4811505Y-3153400D02*
X+4859130Y-3153400D01*
X+4859130Y-3163560D01*
X+4811505Y-3214360D01*
X+4921260Y-2200960D02*
X+4921260Y-2155240D01*
X+5002540Y-2200960D02*
X+5002540Y-2155240D01*
X+4982200Y-2486610D02*
X+4992360Y-2496135D01*
X+4992360Y-2524710D01*
X+4972040Y-2543760D01*
X+4951720Y-2543760D01*
X+4931400Y-2524710D01*
X+4931400Y-2496135D01*
X+4941560Y-2486610D01*
X+4941560Y-2458035D02*
X+4931400Y-2448510D01*
X+4931400Y-2419935D01*
X+4941560Y-2410410D01*
X+4951720Y-2410410D01*
X+4961880Y-2419935D01*
X+4961880Y-2448510D01*
X+4972040Y-2458035D01*
X+4992360Y-2458035D01*
X+4992360Y-2410410D01*
X+4931400Y-2334210D02*
X+4931400Y-2381835D01*
X+4951720Y-2381835D01*
X+4951720Y-2343735D01*
X+4961880Y-2334210D01*
X+4982200Y-2334210D01*
X+4992360Y-2343735D01*
X+4992360Y-2372310D01*
X+4982200Y-2381835D01*
X+4791720Y-2200960D02*
X+4791720Y-2155240D01*
X+4873000Y-2200960D02*
X+4873000Y-2155240D01*
X+4855220Y-2489250D02*
X+4865380Y-2498775D01*
X+4865380Y-2527350D01*
X+4845060Y-2546400D01*
X+4824740Y-2546400D01*
X+4804420Y-2527350D01*
X+4804420Y-2498775D01*
X+4814580Y-2489250D01*
X+4814580Y-2460675D02*
X+4804420Y-2451150D01*
X+4804420Y-2422575D01*
X+4814580Y-2413050D01*
X+4824740Y-2413050D01*
X+4834900Y-2422575D01*
X+4834900Y-2451150D01*
X+4845060Y-2460675D01*
X+4865380Y-2460675D01*
X+4865380Y-2413050D01*
X+4814580Y-2336850D02*
X+4804420Y-2346375D01*
X+4804420Y-2374950D01*
X+4814580Y-2384475D01*
X+4855220Y-2384475D01*
X+4865380Y-2374950D01*
X+4865380Y-2346375D01*
X+4855220Y-2336850D01*
X+4845060Y-2336850D01*
X+4834900Y-2346375D01*
X+4834900Y-2384475D01*
X+5177740Y-2292360D02*
X+5177740Y-2338080D01*
X+5096460Y-2292360D02*
X+5096460Y-2338080D01*
X+5167680Y-2660640D02*
X+5106720Y-2660640D01*
X+5106720Y-2613015D01*
X+5116880Y-2603490D01*
X+5127040Y-2603490D01*
X+5137200Y-2613015D01*
X+5137200Y-2660640D01*
X+5137200Y-2613015D02*
X+5147360Y-2603490D01*
X+5167680Y-2603490D01*
X+5106720Y-2527290D02*
X+5106720Y-2574915D01*
X+5127040Y-2574915D01*
X+5127040Y-2536815D01*
X+5137200Y-2527290D01*
X+5157520Y-2527290D01*
X+5167680Y-2536815D01*
X+5167680Y-2565390D01*
X+5157520Y-2574915D01*
X+5116880Y-2498715D02*
X+5106720Y-2489190D01*
X+5106720Y-2460615D01*
X+5116880Y-2451090D01*
X+5127040Y-2451090D01*
X+5137200Y-2460615D01*
X+5137200Y-2489190D01*
X+5147360Y-2498715D01*
X+5167680Y-2498715D01*
X+5167680Y-2451090D01*
X+3620760Y-1464260D02*
X+3620760Y-1662380D01*
X+3265160Y-1662380D02*
X+3265160Y-1461720D01*
X+3646160Y-1804620D02*
X+3696960Y-1804620D01*
X+3671560Y-1779220D02*
X+3671560Y-1830020D01*
X+3453120Y-1579830D02*
X+3463280Y-1589355D01*
X+3463280Y-1617930D01*
X+3442960Y-1636980D01*
X+3422640Y-1636980D01*
X+3402320Y-1617930D01*
X+3402320Y-1589355D01*
X+3412480Y-1579830D01*
X+3412480Y-1551255D02*
X+3402320Y-1541730D01*
X+3402320Y-1513155D01*
X+3412480Y-1503630D01*
X+3422640Y-1503630D01*
X+3432800Y-1513155D01*
X+3442960Y-1503630D01*
X+3453120Y-1503630D01*
X+3463280Y-1513155D01*
X+3463280Y-1541730D01*
X+3453120Y-1551255D01*
X+3432800Y-1532205D02*
X+3432800Y-1513155D01*
X+2124660Y-3178820D02*
X+2124660Y-3224540D01*
X+2043380Y-3178820D02*
X+2043380Y-3224540D01*
X+2100530Y-3519180D02*
X+2110690Y-3528705D01*
X+2110690Y-3557280D01*
X+2090370Y-3576330D01*
X+2070050Y-3576330D01*
X+2049730Y-3557280D01*
X+2049730Y-3528705D01*
X+2059890Y-3519180D01*
X+2059890Y-3490605D02*
X+2049730Y-3481080D01*
X+2049730Y-3452505D01*
X+2059890Y-3442980D01*
X+2070050Y-3442980D01*
X+2080210Y-3452505D01*
X+2080210Y-3481080D01*
X+2090370Y-3490605D01*
X+2110690Y-3490605D01*
X+2110690Y-3442980D01*
X+2080210Y-3404880D02*
X+2070050Y-3414405D01*
X+2059890Y-3414405D01*
X+2049730Y-3404880D01*
X+2049730Y-3376305D01*
X+2059890Y-3366780D01*
X+2070050Y-3366780D01*
X+2080210Y-3376305D01*
X+2080210Y-3404880D01*
X+2090370Y-3414405D01*
X+2100530Y-3414405D01*
X+2110690Y-3404880D01*
X+2110690Y-3376305D01*
X+2100530Y-3366780D01*
X+2090370Y-3366780D01*
X+2080210Y-3376305D01*
X+2269440Y-3178820D02*
X+2269440Y-3224540D01*
X+2188160Y-3178820D02*
X+2188160Y-3224540D01*
X+2249120Y-3520450D02*
X+2259280Y-3529975D01*
X+2259280Y-3558550D01*
X+2238960Y-3577600D01*
X+2218640Y-3577600D01*
X+2198320Y-3558550D01*
X+2198320Y-3529975D01*
X+2208480Y-3520450D01*
X+2208480Y-3491875D02*
X+2198320Y-3482350D01*
X+2198320Y-3453775D01*
X+2208480Y-3444250D01*
X+2218640Y-3444250D01*
X+2228800Y-3453775D01*
X+2228800Y-3482350D01*
X+2238960Y-3491875D01*
X+2259280Y-3491875D01*
X+2259280Y-3444250D01*
X+2218640Y-3368050D02*
X+2228800Y-3377575D01*
X+2228800Y-3406150D01*
X+2218640Y-3415675D01*
X+2208480Y-3415675D01*
X+2198320Y-3406150D01*
X+2198320Y-3377575D01*
X+2208480Y-3368050D01*
X+2249120Y-3368050D01*
X+2259280Y-3377575D01*
X+2259280Y-3406150D01*
X+2997780Y-3336140D02*
X+2952060Y-3336140D01*
X+2997780Y-3254860D02*
X+2952060Y-3254860D01*
X+2855540Y-3216760D02*
X+2855540Y-3155800D01*
X+2903165Y-3155800D01*
X+2912690Y-3165960D01*
X+2912690Y-3176120D01*
X+2903165Y-3186280D01*
X+2855540Y-3186280D01*
X+2903165Y-3186280D02*
X+2912690Y-3196440D01*
X+2912690Y-3216760D01*
X+2988890Y-3165960D02*
X+2979365Y-3155800D01*
X+2950790Y-3155800D01*
X+2941265Y-3165960D01*
X+2941265Y-3206600D01*
X+2950790Y-3216760D01*
X+2979365Y-3216760D01*
X+2988890Y-3206600D01*
X+2988890Y-3196440D01*
X+2979365Y-3186280D01*
X+2941265Y-3186280D01*
X+3065090Y-3196440D02*
X+3007940Y-3196440D01*
X+3046040Y-3155800D01*
X+3046040Y-3216760D01*
X+2997660Y-3463240D02*
X+2951940Y-3463240D01*
X+2997660Y-3381960D02*
X+2951940Y-3381960D01*
X+2875740Y-3569920D02*
X+2875740Y-3508960D01*
X+2923365Y-3508960D01*
X+2932890Y-3519120D01*
X+2932890Y-3529280D01*
X+2923365Y-3539440D01*
X+2875740Y-3539440D01*
X+2923365Y-3539440D02*
X+2932890Y-3549600D01*
X+2932890Y-3569920D01*
X+3009090Y-3519120D02*
X+2999565Y-3508960D01*
X+2970990Y-3508960D01*
X+2961465Y-3519120D01*
X+2961465Y-3559760D01*
X+2970990Y-3569920D01*
X+2999565Y-3569920D01*
X+3009090Y-3559760D01*
X+3009090Y-3549600D01*
X+2999565Y-3539440D01*
X+2961465Y-3539440D01*
X+3085290Y-3508960D02*
X+3037665Y-3508960D01*
X+3037665Y-3529280D01*
X+3075765Y-3529280D01*
X+3085290Y-3539440D01*
X+3085290Y-3559760D01*
X+3075765Y-3569920D01*
X+3047190Y-3569920D01*
X+3037665Y-3559760D01*
X+3107640Y-1670060D02*
X+3107640Y-1624340D01*
X+3188920Y-1670060D02*
X+3188920Y-1624340D01*
X+3056840Y-1663710D02*
X+3067000Y-1673235D01*
X+3067000Y-1701810D01*
X+3046680Y-1720860D01*
X+3026360Y-1720860D01*
X+3006040Y-1701810D01*
X+3006040Y-1673235D01*
X+3016200Y-1663710D01*
X+3026360Y-1625610D02*
X+3006040Y-1606560D01*
X+3067000Y-1606560D01*
X+3016200Y-1558935D02*
X+3006040Y-1549410D01*
X+3006040Y-1520835D01*
X+3016200Y-1511310D01*
X+3026360Y-1511310D01*
X+3036520Y-1520835D01*
X+3046680Y-1511310D01*
X+3056840Y-1511310D01*
X+3067000Y-1520835D01*
X+3067000Y-1549410D01*
X+3056840Y-1558935D01*
X+3036520Y-1539885D02*
X+3036520Y-1520835D01*
X+3011120Y-2515880D02*
X+3011120Y-2470160D01*
X+3092400Y-2515880D02*
X+3092400Y-2470160D01*
X+3186380Y-2550170D02*
X+3196540Y-2559695D01*
X+3196540Y-2588270D01*
X+3176220Y-2607320D01*
X+3155900Y-2607320D01*
X+3135580Y-2588270D01*
X+3135580Y-2559695D01*
X+3145740Y-2550170D01*
X+3145740Y-2521595D02*
X+3135580Y-2512070D01*
X+3135580Y-2483495D01*
X+3145740Y-2473970D01*
X+3155900Y-2473970D01*
X+3166060Y-2483495D01*
X+3176220Y-2473970D01*
X+3186380Y-2473970D01*
X+3196540Y-2483495D01*
X+3196540Y-2512070D01*
X+3186380Y-2521595D01*
X+3166060Y-2502545D02*
X+3166060Y-2483495D01*
X+3135580Y-2397770D02*
X+3135580Y-2445395D01*
X+3155900Y-2445395D01*
X+3155900Y-2407295D01*
X+3166060Y-2397770D01*
X+3186380Y-2397770D01*
X+3196540Y-2407295D01*
X+3196540Y-2435870D01*
X+3186380Y-2445395D01*
X+2881580Y-2515880D02*
X+2881580Y-2470160D01*
X+2962860Y-2515880D02*
X+2962860Y-2470160D01*
X+2825700Y-2542550D02*
X+2835860Y-2552075D01*
X+2835860Y-2580650D01*
X+2815540Y-2599700D01*
X+2795220Y-2599700D01*
X+2774900Y-2580650D01*
X+2774900Y-2552075D01*
X+2785060Y-2542550D01*
X+2785060Y-2513975D02*
X+2774900Y-2504450D01*
X+2774900Y-2475875D01*
X+2785060Y-2466350D01*
X+2795220Y-2466350D01*
X+2805380Y-2475875D01*
X+2815540Y-2466350D01*
X+2825700Y-2466350D01*
X+2835860Y-2475875D01*
X+2835860Y-2504450D01*
X+2825700Y-2513975D01*
X+2805380Y-2494925D02*
X+2805380Y-2475875D01*
X+2805380Y-2428250D02*
X+2795220Y-2437775D01*
X+2785060Y-2437775D01*
X+2774900Y-2428250D01*
X+2774900Y-2399675D01*
X+2785060Y-2390150D01*
X+2795220Y-2390150D01*
X+2805380Y-2399675D01*
X+2805380Y-2428250D01*
X+2815540Y-2437775D01*
X+2825700Y-2437775D01*
X+2835860Y-2428250D01*
X+2835860Y-2399675D01*
X+2825700Y-2390150D01*
X+2815540Y-2390150D01*
X+2805380Y-2399675D01*
X+3145840Y-2147560D02*
X+3100120Y-2147560D01*
X+3145840Y-2066280D02*
X+3100120Y-2066280D01*
X+3337610Y-2124700D02*
X+3328085Y-2134860D01*
X+3299510Y-2134860D01*
X+3280460Y-2114540D01*
X+3280460Y-2094220D01*
X+3299510Y-2073900D01*
X+3328085Y-2073900D01*
X+3337610Y-2084060D01*
X+3366185Y-2084060D02*
X+3375710Y-2073900D01*
X+3404285Y-2073900D01*
X+3413810Y-2084060D01*
X+3413810Y-2094220D01*
X+3404285Y-2104380D01*
X+3413810Y-2114540D01*
X+3413810Y-2124700D01*
X+3404285Y-2134860D01*
X+3375710Y-2134860D01*
X+3366185Y-2124700D01*
X+3385235Y-2104380D02*
X+3404285Y-2104380D01*
X+3442385Y-2084060D02*
X+3451910Y-2073900D01*
X+3480485Y-2073900D01*
X+3490010Y-2084060D01*
X+3490010Y-2094220D01*
X+3480485Y-2104380D01*
X+3451910Y-2104380D01*
X+3442385Y-2114540D01*
X+3442385Y-2134860D01*
X+3490010Y-2134860D01*
X+3148280Y-2261880D02*
X+3102560Y-2261880D01*
X+3148280Y-2180600D02*
X+3102560Y-2180600D01*
X+3352750Y-2241560D02*
X+3343225Y-2251720D01*
X+3314650Y-2251720D01*
X+3295600Y-2231400D01*
X+3295600Y-2211080D01*
X+3314650Y-2190760D01*
X+3343225Y-2190760D01*
X+3352750Y-2200920D01*
X+3381325Y-2200920D02*
X+3390850Y-2190760D01*
X+3419425Y-2190760D01*
X+3428950Y-2200920D01*
X+3428950Y-2211080D01*
X+3419425Y-2221240D01*
X+3428950Y-2231400D01*
X+3428950Y-2241560D01*
X+3419425Y-2251720D01*
X+3390850Y-2251720D01*
X+3381325Y-2241560D01*
X+3400375Y-2221240D02*
X+3419425Y-2221240D01*
X+3457525Y-2200920D02*
X+3467050Y-2190760D01*
X+3495625Y-2190760D01*
X+3505150Y-2200920D01*
X+3505150Y-2211080D01*
X+3495625Y-2221240D01*
X+3505150Y-2231400D01*
X+3505150Y-2241560D01*
X+3495625Y-2251720D01*
X+3467050Y-2251720D01*
X+3457525Y-2241560D01*
X+3476575Y-2221240D02*
X+3495625Y-2221240D01*
X+988551Y-2586000D02*
X+1115551Y-2586000D01*
X+1115551Y-2332000D01*
X+988551Y-2332000D01*
X+988551Y-2586000D01*
X+988551Y-2484400D02*
X+1115551Y-2484400D01*
X+988551Y-2509800D02*
X+1115551Y-2509800D01*
X+988551Y-2535200D02*
X+1115551Y-2535200D01*
X+988551Y-2560600D02*
X+1115551Y-2560600D01*
X+1242551Y-2586000D02*
X+1369551Y-2586000D01*
X+1369551Y-2332000D01*
X+1242551Y-2332000D01*
X+1242551Y-2586000D01*
X+1242551Y-2484400D02*
X+1369551Y-2484400D01*
X+1242551Y-2509800D02*
X+1369551Y-2509800D01*
X+1242551Y-2535200D02*
X+1369551Y-2535200D01*
X+1242551Y-2560600D02*
X+1369551Y-2560600D01*
X+925051Y-2713000D02*
X+1471051Y-2713000D01*
X+1471051Y-2205000D01*
X+925051Y-2205000D01*
X+925051Y-2713000D01*
X+1622167Y-2216746D02*
X+1622167Y-2155786D01*
X+1669792Y-2155786D01*
X+1679317Y-2165946D01*
X+1679317Y-2176106D01*
X+1669792Y-2186266D01*
X+1679317Y-2196426D01*
X+1679317Y-2206586D01*
X+1669792Y-2216746D01*
X+1622167Y-2216746D01*
X+1622167Y-2186266D02*
X+1669792Y-2186266D01*
X+1698367Y-2176106D02*
X+1717417Y-2155786D01*
X+1736467Y-2155786D01*
X+1755517Y-2176106D01*
X+1755517Y-2196426D01*
X+1736467Y-2216746D01*
X+1717417Y-2216746D01*
X+1698367Y-2196426D01*
X+1698367Y-2176106D01*
X+1774567Y-2176106D02*
X+1793617Y-2155786D01*
X+1812667Y-2155786D01*
X+1831717Y-2176106D01*
X+1831717Y-2196426D01*
X+1812667Y-2216746D01*
X+1793617Y-2216746D01*
X+1774567Y-2196426D01*
X+1774567Y-2176106D01*
X+1850767Y-2155786D02*
X+1907917Y-2155786D01*
X+1879342Y-2155786D02*
X+1879342Y-2216746D01*
X+1480640Y-1650780D02*
X+1480640Y-1696500D01*
X+1399360Y-1650780D02*
X+1399360Y-1696500D01*
X+1467480Y-2047940D02*
X+1406520Y-2047940D01*
X+1406520Y-2000315D01*
X+1416680Y-1990790D01*
X+1426840Y-1990790D01*
X+1437000Y-2000315D01*
X+1437000Y-2047940D01*
X+1437000Y-2000315D02*
X+1447160Y-1990790D01*
X+1467480Y-1990790D01*
X+1416680Y-1914590D02*
X+1406520Y-1924115D01*
X+1406520Y-1952690D01*
X+1416680Y-1962215D01*
X+1457320Y-1962215D01*
X+1467480Y-1952690D01*
X+1467480Y-1924115D01*
X+1457320Y-1914590D01*
X+1447160Y-1914590D01*
X+1437000Y-1924115D01*
X+1437000Y-1962215D01*
X+1416680Y-1886015D02*
X+1406520Y-1876490D01*
X+1406520Y-1847915D01*
X+1416680Y-1838390D01*
X+1426840Y-1838390D01*
X+1437000Y-1847915D01*
X+1447160Y-1838390D01*
X+1457320Y-1838390D01*
X+1467480Y-1847915D01*
X+1467480Y-1876490D01*
X+1457320Y-1886015D01*
X+1437000Y-1866965D02*
X+1437000Y-1847915D01*
X+1630640Y-1653500D02*
X+1630640Y-1699220D01*
X+1549360Y-1653500D02*
X+1549360Y-1699220D01*
X+1657480Y-1972560D02*
X+1596520Y-1972560D01*
X+1596520Y-1924935D01*
X+1606680Y-1915410D01*
X+1616840Y-1915410D01*
X+1627000Y-1924935D01*
X+1627000Y-1972560D01*
X+1627000Y-1924935D02*
X+1637160Y-1915410D01*
X+1657480Y-1915410D01*
X+1606680Y-1886835D02*
X+1596520Y-1877310D01*
X+1596520Y-1848735D01*
X+1606680Y-1839210D01*
X+1616840Y-1839210D01*
X+1627000Y-1848735D01*
X+1627000Y-1877310D01*
X+1637160Y-1886835D01*
X+1657480Y-1886835D01*
X+1657480Y-1839210D01*
D57*
X+1653012Y-2653764D02*
X+1653012Y-2602964D01*
X+1653012Y-2552164D02*
X+1653012Y-2521684D01*
X+1653012Y-2460724D02*
X+1653012Y-2430244D01*
X+1653012Y-2404844D02*
X+1653012Y-2333724D01*
X+1653012Y-2313404D02*
X+1653012Y-2288004D01*
X+1658092Y-2653764D02*
X+1658092Y-2597884D01*
X+1658092Y-2562324D02*
X+1658092Y-2511524D01*
X+1658092Y-2470884D02*
X+1658092Y-2420084D01*
X+1658092Y-2404844D02*
X+1658092Y-2333724D01*
X+1658092Y-2318484D02*
X+1658092Y-2282924D01*
X+1663172Y-2653764D02*
X+1663172Y-2643604D01*
X+1663172Y-2608044D02*
X+1663172Y-2592804D01*
X+1663172Y-2567404D02*
X+1663172Y-2552164D01*
X+1663172Y-2521684D02*
X+1663172Y-2506444D01*
X+1663172Y-2475964D02*
X+1663172Y-2460724D01*
X+1663172Y-2430244D02*
X+1663172Y-2415004D01*
X+1663172Y-2374364D02*
X+1663172Y-2364204D01*
X+1663172Y-2323564D02*
X+1663172Y-2308324D01*
X+1663172Y-2293084D02*
X+1663172Y-2277844D01*
X+1668252Y-2653764D02*
X+1668252Y-2643604D01*
X+1668252Y-2602964D02*
X+1668252Y-2592804D01*
X+1668252Y-2572484D02*
X+1668252Y-2557244D01*
X+1668252Y-2516604D02*
X+1668252Y-2501364D01*
X+1668252Y-2481044D02*
X+1668252Y-2465804D01*
X+1668252Y-2425164D02*
X+1668252Y-2409924D01*
X+1668252Y-2374364D02*
X+1668252Y-2364204D01*
X+1668252Y-2323564D02*
X+1668252Y-2313404D01*
X+1668252Y-2288004D02*
X+1668252Y-2277844D01*
X+1673332Y-2653764D02*
X+1673332Y-2643604D01*
X+1673332Y-2602964D02*
X+1673332Y-2592804D01*
X+1673332Y-2572484D02*
X+1673332Y-2562324D01*
X+1673332Y-2511524D02*
X+1673332Y-2501364D01*
X+1673332Y-2481044D02*
X+1673332Y-2470884D01*
X+1673332Y-2420084D02*
X+1673332Y-2409924D01*
X+1673332Y-2374364D02*
X+1673332Y-2364204D01*
X+1673332Y-2328644D02*
X+1673332Y-2318484D01*
X+1673332Y-2282924D02*
X+1673332Y-2272764D01*
X+1678412Y-2653764D02*
X+1678412Y-2643604D01*
X+1678412Y-2602964D02*
X+1678412Y-2592804D01*
X+1678412Y-2577564D02*
X+1678412Y-2567404D01*
X+1678412Y-2506444D02*
X+1678412Y-2496284D01*
X+1678412Y-2486124D02*
X+1678412Y-2475964D01*
X+1678412Y-2415004D02*
X+1678412Y-2404844D01*
X+1678412Y-2374364D02*
X+1678412Y-2364204D01*
X+1678412Y-2328644D02*
X+1678412Y-2318484D01*
X+1678412Y-2282924D02*
X+1678412Y-2272764D01*
X+1683492Y-2653764D02*
X+1683492Y-2643604D01*
X+1683492Y-2608044D02*
X+1683492Y-2597884D01*
X+1683492Y-2577564D02*
X+1683492Y-2567404D01*
X+1683492Y-2506444D02*
X+1683492Y-2496284D01*
X+1683492Y-2486124D02*
X+1683492Y-2475964D01*
X+1683492Y-2415004D02*
X+1683492Y-2404844D01*
X+1683492Y-2374364D02*
X+1683492Y-2364204D01*
X+1683492Y-2328644D02*
X+1683492Y-2318484D01*
X+1683492Y-2282924D02*
X+1683492Y-2272764D01*
X+1688572Y-2653764D02*
X+1688572Y-2602964D01*
X+1688572Y-2577564D02*
X+1688572Y-2567404D01*
X+1688572Y-2506444D02*
X+1688572Y-2496284D01*
X+1688572Y-2486124D02*
X+1688572Y-2475964D01*
X+1688572Y-2415004D02*
X+1688572Y-2404844D01*
X+1688572Y-2374364D02*
X+1688572Y-2364204D01*
X+1688572Y-2328644D02*
X+1688572Y-2318484D01*
X+1688572Y-2282924D02*
X+1688572Y-2272764D01*
X+1693652Y-2653764D02*
X+1693652Y-2592804D01*
X+1693652Y-2577564D02*
X+1693652Y-2567404D01*
X+1693652Y-2506444D02*
X+1693652Y-2496284D01*
X+1693652Y-2486124D02*
X+1693652Y-2475964D01*
X+1693652Y-2415004D02*
X+1693652Y-2404844D01*
X+1693652Y-2374364D02*
X+1693652Y-2364204D01*
X+1693652Y-2328644D02*
X+1693652Y-2318484D01*
X+1693652Y-2282924D02*
X+1693652Y-2272764D01*
X+1698732Y-2653764D02*
X+1698732Y-2643604D01*
X+1698732Y-2602964D02*
X+1698732Y-2592804D01*
X+1698732Y-2577564D02*
X+1698732Y-2567404D01*
X+1698732Y-2506444D02*
X+1698732Y-2496284D01*
X+1698732Y-2486124D02*
X+1698732Y-2475964D01*
X+1698732Y-2415004D02*
X+1698732Y-2404844D01*
X+1698732Y-2374364D02*
X+1698732Y-2364204D01*
X+1698732Y-2328644D02*
X+1698732Y-2318484D01*
X+1698732Y-2282924D02*
X+1698732Y-2272764D01*
X+1703812Y-2653764D02*
X+1703812Y-2643604D01*
X+1703812Y-2597884D02*
X+1703812Y-2587724D01*
X+1703812Y-2577564D02*
X+1703812Y-2567404D01*
X+1703812Y-2506444D02*
X+1703812Y-2496284D01*
X+1703812Y-2486124D02*
X+1703812Y-2475964D01*
X+1703812Y-2415004D02*
X+1703812Y-2404844D01*
X+1703812Y-2374364D02*
X+1703812Y-2364204D01*
X+1703812Y-2328644D02*
X+1703812Y-2318484D01*
X+1703812Y-2282924D02*
X+1703812Y-2272764D01*
X+1708892Y-2653764D02*
X+1708892Y-2643604D01*
X+1708892Y-2597884D02*
X+1708892Y-2587724D01*
X+1708892Y-2577564D02*
X+1708892Y-2567404D01*
X+1708892Y-2506444D02*
X+1708892Y-2496284D01*
X+1708892Y-2486124D02*
X+1708892Y-2475964D01*
X+1708892Y-2415004D02*
X+1708892Y-2404844D01*
X+1708892Y-2374364D02*
X+1708892Y-2364204D01*
X+1708892Y-2328644D02*
X+1708892Y-2318484D01*
X+1708892Y-2282924D02*
X+1708892Y-2272764D01*
X+1713972Y-2653764D02*
X+1713972Y-2643604D01*
X+1713972Y-2597884D02*
X+1713972Y-2587724D01*
X+1713972Y-2572484D02*
X+1713972Y-2562324D01*
X+1713972Y-2511524D02*
X+1713972Y-2501364D01*
X+1713972Y-2481044D02*
X+1713972Y-2470884D01*
X+1713972Y-2420084D02*
X+1713972Y-2409924D01*
X+1713972Y-2374364D02*
X+1713972Y-2364204D01*
X+1713972Y-2328644D02*
X+1713972Y-2318484D01*
X+1713972Y-2282924D02*
X+1713972Y-2272764D01*
X+1719052Y-2653764D02*
X+1719052Y-2643604D01*
X+1719052Y-2597884D02*
X+1719052Y-2587724D01*
X+1719052Y-2572484D02*
X+1719052Y-2557244D01*
X+1719052Y-2516604D02*
X+1719052Y-2501364D01*
X+1719052Y-2481044D02*
X+1719052Y-2465804D01*
X+1719052Y-2425164D02*
X+1719052Y-2409924D01*
X+1719052Y-2374364D02*
X+1719052Y-2364204D01*
X+1719052Y-2323564D02*
X+1719052Y-2313404D01*
X+1719052Y-2288004D02*
X+1719052Y-2277844D01*
X+1724132Y-2653764D02*
X+1724132Y-2643604D01*
X+1724132Y-2608044D02*
X+1724132Y-2592804D01*
X+1724132Y-2567404D02*
X+1724132Y-2552164D01*
X+1724132Y-2521684D02*
X+1724132Y-2506444D01*
X+1724132Y-2475964D02*
X+1724132Y-2460724D01*
X+1724132Y-2430244D02*
X+1724132Y-2415004D01*
X+1724132Y-2374364D02*
X+1724132Y-2364204D01*
X+1724132Y-2323564D02*
X+1724132Y-2308324D01*
X+1724132Y-2293084D02*
X+1724132Y-2277844D01*
X+1729212Y-2653764D02*
X+1729212Y-2597884D01*
X+1729212Y-2562324D02*
X+1729212Y-2511524D01*
X+1729212Y-2470884D02*
X+1729212Y-2420084D01*
X+1729212Y-2374364D02*
X+1729212Y-2364204D01*
X+1729212Y-2318484D02*
X+1729212Y-2282924D01*
X+1734292Y-2653764D02*
X+1734292Y-2602964D01*
X+1734292Y-2552164D02*
X+1734292Y-2521684D01*
X+1734292Y-2460724D02*
X+1734292Y-2430244D01*
X+1734292Y-2374364D02*
X+1734292Y-2364204D01*
X+1734292Y-2313404D02*
X+1734292Y-2288004D01*
X+1803012Y-2653764D02*
X+1803012Y-2602964D01*
X+1803012Y-2552164D02*
X+1803012Y-2521684D01*
X+1803012Y-2460724D02*
X+1803012Y-2430244D01*
X+1803012Y-2404844D02*
X+1803012Y-2333724D01*
X+1803012Y-2303244D02*
X+1803012Y-2293084D01*
X+1808092Y-2653764D02*
X+1808092Y-2597884D01*
X+1808092Y-2562324D02*
X+1808092Y-2511524D01*
X+1808092Y-2470884D02*
X+1808092Y-2420084D01*
X+1808092Y-2404844D02*
X+1808092Y-2333724D01*
X+1808092Y-2303244D02*
X+1808092Y-2293084D01*
X+1813172Y-2653764D02*
X+1813172Y-2643604D01*
X+1813172Y-2608044D02*
X+1813172Y-2592804D01*
X+1813172Y-2567404D02*
X+1813172Y-2552164D01*
X+1813172Y-2521684D02*
X+1813172Y-2506444D01*
X+1813172Y-2475964D02*
X+1813172Y-2460724D01*
X+1813172Y-2430244D02*
X+1813172Y-2415004D01*
X+1813172Y-2374364D02*
X+1813172Y-2364204D01*
X+1813172Y-2318484D02*
X+1813172Y-2293084D01*
X+1818252Y-2653764D02*
X+1818252Y-2643604D01*
X+1818252Y-2602964D02*
X+1818252Y-2592804D01*
X+1818252Y-2572484D02*
X+1818252Y-2557244D01*
X+1818252Y-2516604D02*
X+1818252Y-2501364D01*
X+1818252Y-2481044D02*
X+1818252Y-2465804D01*
X+1818252Y-2425164D02*
X+1818252Y-2409924D01*
X+1818252Y-2374364D02*
X+1818252Y-2364204D01*
X+1818252Y-2318484D02*
X+1818252Y-2293084D01*
X+1823332Y-2653764D02*
X+1823332Y-2643604D01*
X+1823332Y-2602964D02*
X+1823332Y-2592804D01*
X+1823332Y-2572484D02*
X+1823332Y-2562324D01*
X+1823332Y-2511524D02*
X+1823332Y-2501364D01*
X+1823332Y-2481044D02*
X+1823332Y-2470884D01*
X+1823332Y-2420084D02*
X+1823332Y-2409924D01*
X+1823332Y-2374364D02*
X+1823332Y-2364204D01*
X+1823332Y-2303244D02*
X+1823332Y-2293084D01*
X+1828412Y-2653764D02*
X+1828412Y-2643604D01*
X+1828412Y-2602964D02*
X+1828412Y-2592804D01*
X+1828412Y-2577564D02*
X+1828412Y-2567404D01*
X+1828412Y-2506444D02*
X+1828412Y-2496284D01*
X+1828412Y-2486124D02*
X+1828412Y-2475964D01*
X+1828412Y-2415004D02*
X+1828412Y-2404844D01*
X+1828412Y-2374364D02*
X+1828412Y-2364204D01*
X+1828412Y-2303244D02*
X+1828412Y-2293084D01*
X+1833492Y-2653764D02*
X+1833492Y-2643604D01*
X+1833492Y-2608044D02*
X+1833492Y-2597884D01*
X+1833492Y-2577564D02*
X+1833492Y-2567404D01*
X+1833492Y-2506444D02*
X+1833492Y-2496284D01*
X+1833492Y-2486124D02*
X+1833492Y-2475964D01*
X+1833492Y-2415004D02*
X+1833492Y-2404844D01*
X+1833492Y-2374364D02*
X+1833492Y-2364204D01*
X+1833492Y-2303244D02*
X+1833492Y-2293084D01*
X+1838572Y-2653764D02*
X+1838572Y-2602964D01*
X+1838572Y-2577564D02*
X+1838572Y-2567404D01*
X+1838572Y-2506444D02*
X+1838572Y-2496284D01*
X+1838572Y-2486124D02*
X+1838572Y-2475964D01*
X+1838572Y-2415004D02*
X+1838572Y-2404844D01*
X+1838572Y-2374364D02*
X+1838572Y-2364204D01*
X+1838572Y-2303244D02*
X+1838572Y-2293084D01*
X+1843652Y-2653764D02*
X+1843652Y-2592804D01*
X+1843652Y-2577564D02*
X+1843652Y-2567404D01*
X+1843652Y-2506444D02*
X+1843652Y-2496284D01*
X+1843652Y-2486124D02*
X+1843652Y-2475964D01*
X+1843652Y-2415004D02*
X+1843652Y-2404844D01*
X+1843652Y-2374364D02*
X+1843652Y-2364204D01*
X+1843652Y-2303244D02*
X+1843652Y-2293084D01*
X+1848732Y-2653764D02*
X+1848732Y-2643604D01*
X+1848732Y-2602964D02*
X+1848732Y-2592804D01*
X+1848732Y-2577564D02*
X+1848732Y-2567404D01*
X+1848732Y-2506444D02*
X+1848732Y-2496284D01*
X+1848732Y-2486124D02*
X+1848732Y-2475964D01*
X+1848732Y-2415004D02*
X+1848732Y-2404844D01*
X+1848732Y-2374364D02*
X+1848732Y-2364204D01*
X+1848732Y-2303244D02*
X+1848732Y-2293084D01*
X+1853812Y-2653764D02*
X+1853812Y-2643604D01*
X+1853812Y-2597884D02*
X+1853812Y-2587724D01*
X+1853812Y-2577564D02*
X+1853812Y-2567404D01*
X+1853812Y-2506444D02*
X+1853812Y-2496284D01*
X+1853812Y-2486124D02*
X+1853812Y-2475964D01*
X+1853812Y-2415004D02*
X+1853812Y-2404844D01*
X+1853812Y-2374364D02*
X+1853812Y-2364204D01*
X+1853812Y-2303244D02*
X+1853812Y-2293084D01*
X+1858892Y-2653764D02*
X+1858892Y-2643604D01*
X+1858892Y-2597884D02*
X+1858892Y-2587724D01*
X+1858892Y-2577564D02*
X+1858892Y-2567404D01*
X+1858892Y-2506444D02*
X+1858892Y-2496284D01*
X+1858892Y-2486124D02*
X+1858892Y-2475964D01*
X+1858892Y-2415004D02*
X+1858892Y-2404844D01*
X+1858892Y-2374364D02*
X+1858892Y-2364204D01*
X+1858892Y-2303244D02*
X+1858892Y-2293084D01*
X+1863972Y-2653764D02*
X+1863972Y-2643604D01*
X+1863972Y-2597884D02*
X+1863972Y-2587724D01*
X+1863972Y-2572484D02*
X+1863972Y-2562324D01*
X+1863972Y-2511524D02*
X+1863972Y-2501364D01*
X+1863972Y-2481044D02*
X+1863972Y-2470884D01*
X+1863972Y-2420084D02*
X+1863972Y-2409924D01*
X+1863972Y-2374364D02*
X+1863972Y-2364204D01*
X+1863972Y-2303244D02*
X+1863972Y-2293084D01*
X+1869052Y-2653764D02*
X+1869052Y-2643604D01*
X+1869052Y-2597884D02*
X+1869052Y-2587724D01*
X+1869052Y-2572484D02*
X+1869052Y-2557244D01*
X+1869052Y-2516604D02*
X+1869052Y-2501364D01*
X+1869052Y-2481044D02*
X+1869052Y-2465804D01*
X+1869052Y-2425164D02*
X+1869052Y-2409924D01*
X+1869052Y-2374364D02*
X+1869052Y-2364204D01*
X+1869052Y-2303244D02*
X+1869052Y-2293084D01*
X+1874132Y-2653764D02*
X+1874132Y-2643604D01*
X+1874132Y-2608044D02*
X+1874132Y-2592804D01*
X+1874132Y-2567404D02*
X+1874132Y-2552164D01*
X+1874132Y-2521684D02*
X+1874132Y-2506444D01*
X+1874132Y-2475964D02*
X+1874132Y-2460724D01*
X+1874132Y-2430244D02*
X+1874132Y-2415004D01*
X+1874132Y-2374364D02*
X+1874132Y-2364204D01*
X+1874132Y-2303244D02*
X+1874132Y-2293084D01*
X+1879212Y-2653764D02*
X+1879212Y-2597884D01*
X+1879212Y-2562324D02*
X+1879212Y-2511524D01*
X+1879212Y-2470884D02*
X+1879212Y-2420084D01*
X+1879212Y-2374364D02*
X+1879212Y-2364204D01*
X+1879212Y-2318484D02*
X+1879212Y-2277844D01*
X+1884292Y-2653764D02*
X+1884292Y-2602964D01*
X+1884292Y-2552164D02*
X+1884292Y-2521684D01*
X+1884292Y-2460724D02*
X+1884292Y-2430244D01*
X+1884292Y-2374364D02*
X+1884292Y-2364204D01*
X+1884292Y-2318484D02*
X+1884292Y-2277844D01*
X+1537620Y-2404174D02*
X+1537620Y-2358454D01*
X+1542700Y-2419414D02*
X+1542700Y-2343214D01*
X+1547780Y-2424494D02*
X+1547780Y-2338134D01*
X+1552860Y-2424494D02*
X+1552860Y-2409254D01*
X+1552860Y-2353374D02*
X+1552860Y-2338134D01*
X+1557940Y-2429574D02*
X+1557940Y-2414334D01*
X+1557940Y-2348294D02*
X+1557940Y-2333054D01*
X+1563020Y-2429574D02*
X+1563020Y-2419414D01*
X+1563020Y-2343214D02*
X+1563020Y-2333054D01*
X+1568100Y-2429574D02*
X+1568100Y-2419414D01*
X+1568100Y-2343214D02*
X+1568100Y-2333054D01*
X+1573180Y-2429574D02*
X+1573180Y-2419414D01*
X+1573180Y-2343214D02*
X+1573180Y-2333054D01*
X+1578260Y-2429574D02*
X+1578260Y-2414334D01*
X+1578260Y-2348294D02*
X+1578260Y-2333054D01*
X+1583340Y-2424494D02*
X+1583340Y-2409254D01*
X+1583340Y-2353374D02*
X+1583340Y-2338134D01*
X+1588420Y-2424494D02*
X+1588420Y-2338134D01*
X+1593500Y-2419414D02*
X+1593500Y-2343214D01*
X+1598580Y-2404174D02*
X+1598580Y-2358454D01*
X+1542700Y-2641605D02*
X+1542700Y-2631445D01*
X+1542700Y-2570485D02*
X+1542700Y-2560325D01*
X+1547780Y-2641605D02*
X+1547780Y-2631445D01*
X+1547780Y-2570485D02*
X+1547780Y-2560325D01*
X+1552860Y-2641605D02*
X+1552860Y-2631445D01*
X+1552860Y-2570485D02*
X+1552860Y-2560325D01*
X+1557940Y-2641605D02*
X+1557940Y-2631445D01*
X+1557940Y-2570485D02*
X+1557940Y-2555245D01*
X+1563020Y-2641605D02*
X+1563020Y-2550165D01*
X+1568100Y-2641605D02*
X+1568100Y-2545085D01*
X+1573180Y-2641605D02*
X+1573180Y-2545085D01*
X+1578260Y-2641605D02*
X+1578260Y-2631445D01*
X+1583340Y-2641605D02*
X+1583340Y-2631445D01*
X+1588420Y-2641605D02*
X+1588420Y-2631445D01*
X+1593500Y-2641605D02*
X+1593500Y-2631445D01*
X+1957620Y-2396205D02*
X+1957620Y-2350485D01*
X+1962700Y-2411445D02*
X+1962700Y-2335245D01*
X+1967780Y-2416525D02*
X+1967780Y-2330165D01*
X+1972860Y-2416525D02*
X+1972860Y-2401285D01*
X+1972860Y-2345405D02*
X+1972860Y-2330165D01*
X+1977940Y-2421605D02*
X+1977940Y-2406365D01*
X+1977940Y-2340325D02*
X+1977940Y-2325085D01*
X+1983020Y-2421605D02*
X+1983020Y-2411445D01*
X+1983020Y-2335245D02*
X+1983020Y-2325085D01*
X+1988100Y-2421605D02*
X+1988100Y-2411445D01*
X+1988100Y-2335245D02*
X+1988100Y-2325085D01*
X+1993180Y-2421605D02*
X+1993180Y-2411445D01*
X+1993180Y-2335245D02*
X+1993180Y-2325085D01*
X+1998260Y-2421605D02*
X+1998260Y-2406365D01*
X+1998260Y-2340325D02*
X+1998260Y-2325085D01*
X+2003340Y-2416525D02*
X+2003340Y-2401285D01*
X+2003340Y-2345405D02*
X+2003340Y-2330165D01*
X+2008420Y-2416525D02*
X+2008420Y-2330165D01*
X+2013500Y-2411445D02*
X+2013500Y-2335245D01*
X+2018580Y-2396205D02*
X+2018580Y-2350485D01*
X+1962700Y-2631605D02*
X+1962700Y-2621445D01*
X+1962700Y-2560485D02*
X+1962700Y-2550325D01*
X+1967780Y-2631605D02*
X+1967780Y-2621445D01*
X+1967780Y-2560485D02*
X+1967780Y-2550325D01*
X+1972860Y-2631605D02*
X+1972860Y-2621445D01*
X+1972860Y-2560485D02*
X+1972860Y-2550325D01*
X+1977940Y-2631605D02*
X+1977940Y-2621445D01*
X+1977940Y-2560485D02*
X+1977940Y-2545245D01*
X+1983020Y-2631605D02*
X+1983020Y-2540165D01*
X+1988100Y-2631605D02*
X+1988100Y-2535085D01*
X+1993180Y-2631605D02*
X+1993180Y-2535085D01*
X+1998260Y-2631605D02*
X+1998260Y-2621445D01*
X+2003340Y-2631605D02*
X+2003340Y-2621445D01*
X+2008420Y-2631605D02*
X+2008420Y-2621445D01*
X+2013500Y-2631605D02*
X+2013500Y-2621445D01*
D58*
X+4329200Y-2560800D02*
X+4430800Y-2560800D01*
X+4430800Y-2459200D01*
X+4329200Y-2459200D01*
X+4329200Y-2560800D01*
X+4278400Y-2510000D02*
X+4481600Y-2510000D01*
X+4380000Y-2408400D02*
X+4380000Y-2611600D01*
X+2609200Y-2090800D02*
X+2710800Y-2090800D01*
X+2710800Y-1989200D01*
X+2609200Y-1989200D01*
X+2609200Y-2090800D01*
X+2558400Y-2040000D02*
X+2761600Y-2040000D01*
X+2660000Y-1938400D02*
X+2660000Y-2141600D01*
D42*
X+6554000Y-756920D02*
X+6554000Y-967260D01*
X+7338060Y-967260D01*
M02*
