G04 PROTEUS RS274X GERBER FILE*
%FSLAX45Y45*%
%MOMM*%
G01*
%ADD23R,2.032000X3.810000*%
%ADD26R,0.760000X2.000000*%
%ADD27R,7.100000X5.850000*%
%ADD28R,0.600000X1.800000*%
%ADD29R,1.800000X0.600000*%
%ADD72R,0.939800X2.159000*%
%ADD73R,3.251200X2.159000*%
%ADD30R,0.800000X1.150000*%
%ADD31R,1.397000X3.505200*%
%ADD32R,3.810000X2.032000*%
%ADD33R,1.250000X0.400000*%
%ADD35R,1.350000X0.800000*%
%ADD38R,0.635000X0.508000*%
%ADD39R,0.889000X0.889000*%
%ADD40R,0.889000X1.016000*%
%ADD41R,1.600200X2.997200*%
%ADD42C,0.203200*%
D23*
X+4627760Y-1000380D03*
X+5100200Y-1000380D03*
D26*
X+3805580Y-1788220D03*
X+3932580Y-1788220D03*
X+4059580Y-1788220D03*
X+4186580Y-1788220D03*
X+4313580Y-1788220D03*
D27*
X+4059580Y-1110220D03*
D28*
X+5662160Y-3281200D03*
X+5772160Y-3281200D03*
X+5882160Y-3281200D03*
X+5992160Y-3281200D03*
X+6102160Y-3281200D03*
X+6212160Y-3281200D03*
X+6322160Y-3281200D03*
X+6432160Y-3281200D03*
X+6542160Y-3281200D03*
X+6652160Y-3281200D03*
X+6762160Y-3281200D03*
X+6872160Y-3281200D03*
D29*
X+7157160Y-2926200D03*
X+7157160Y-2816200D03*
X+7157160Y-2706200D03*
X+7157160Y-2596200D03*
X+7157160Y-2486200D03*
X+7157160Y-2376200D03*
X+7157160Y-2266200D03*
X+7157160Y-2156200D03*
X+7157160Y-2046200D03*
D28*
X+6872160Y-1691200D03*
X+6762160Y-1691200D03*
X+6652160Y-1691200D03*
X+6542160Y-1691200D03*
X+6432160Y-1691200D03*
X+6322160Y-1691200D03*
X+6212160Y-1691200D03*
X+6102160Y-1691200D03*
X+5992160Y-1691200D03*
X+5882160Y-1691200D03*
X+5772160Y-1691200D03*
X+5662160Y-1691200D03*
D29*
X+5377160Y-2046200D03*
X+5377160Y-2156200D03*
X+5377160Y-2266200D03*
X+5377160Y-2376200D03*
X+5377160Y-2486200D03*
X+5377160Y-2596200D03*
X+5377160Y-2706200D03*
X+5377160Y-2816200D03*
X+5377160Y-2926200D03*
D72*
X+950000Y-3780000D03*
X+1180000Y-3780000D03*
X+1410000Y-3780000D03*
D73*
X+1180000Y-3200000D03*
D30*
X+4624820Y-2158040D03*
X+4624820Y-2508040D03*
D23*
X+4629400Y-1411720D03*
X+5101840Y-1411720D03*
D31*
X+1940000Y-3870000D03*
X+2190000Y-3870000D03*
X+2440000Y-3870000D03*
X+2690000Y-3870000D03*
X+2940000Y-3870000D03*
X+3190000Y-3870000D03*
X+3440000Y-3870000D03*
X+3690000Y-3870000D03*
X+3940000Y-3870000D03*
X+4190000Y-3870000D03*
X+4440000Y-3870000D03*
X+4690000Y-3870000D03*
X+4940000Y-3870000D03*
X+5190000Y-3870000D03*
X+5440000Y-3870000D03*
X+5690000Y-3870000D03*
X+5940000Y-3870000D03*
X+6190000Y-3870000D03*
D23*
X+4630260Y-1820100D03*
X+5102700Y-1820100D03*
D32*
X+1757680Y-2951480D03*
X+1757680Y-3423920D03*
D33*
X+1249920Y-1466660D03*
X+1249920Y-1401580D03*
X+1249920Y-1336500D03*
X+1249920Y-1271420D03*
X+1249920Y-1205660D03*
D35*
X+981920Y-1416500D03*
X+981920Y-1256500D03*
D38*
X+1738280Y-1322740D03*
X+1738280Y-1228760D03*
X+1738280Y-1132240D03*
X+1499520Y-1132240D03*
X+1499520Y-1226220D03*
X+1499520Y-1322740D03*
D39*
X+2021280Y-1331300D03*
X+1848560Y-1331300D03*
X+2016360Y-1136220D03*
X+1843640Y-1136220D03*
X+4232113Y-2073729D03*
X+4404833Y-2073729D03*
X+4403420Y-2234580D03*
X+4230700Y-2234580D03*
X+7199620Y-3544520D03*
X+7199620Y-3717240D03*
X+6894760Y-3536020D03*
X+6894760Y-3708740D03*
X+7047240Y-3539540D03*
X+7047240Y-3712260D03*
X+6203900Y-1456700D03*
X+6031180Y-1456700D03*
X+5619700Y-824240D03*
X+5619700Y-996960D03*
D40*
X+5030580Y-2660640D03*
X+4936600Y-2851140D03*
X+5124560Y-2851140D03*
D39*
X+4936600Y-3023860D03*
X+5109320Y-3023860D03*
X+4936600Y-3176260D03*
X+5109320Y-3176260D03*
X+4961900Y-2264460D03*
X+4961900Y-2091740D03*
X+4832360Y-2264460D03*
X+4832360Y-2091740D03*
X+5137100Y-2228860D03*
X+5137100Y-2401580D03*
D32*
X+3442960Y-1794460D03*
X+3442960Y-1322020D03*
D39*
X+2084020Y-3115320D03*
X+2084020Y-3288040D03*
X+2228800Y-3115320D03*
X+2228800Y-3288040D03*
X+3061280Y-3295500D03*
X+2888560Y-3295500D03*
X+3061160Y-3422600D03*
X+2888440Y-3422600D03*
X+3148280Y-1733560D03*
X+3148280Y-1560840D03*
X+3051760Y-2579380D03*
X+3051760Y-2406660D03*
X+2922220Y-2579380D03*
X+2922220Y-2406660D03*
X+3209340Y-2106920D03*
X+3036620Y-2106920D03*
X+3211780Y-2221240D03*
X+3039060Y-2221240D03*
D41*
X+1052051Y-2870000D03*
X+1306051Y-2870000D03*
X+1306051Y-2048000D03*
X+1052051Y-2048000D03*
D39*
X+1440000Y-1587280D03*
X+1440000Y-1760000D03*
X+1590000Y-1590000D03*
X+1590000Y-1762720D03*
D42*
X+818980Y-4046380D02*
X+818980Y-756380D01*
X+7338980Y-4046380D02*
X+7336440Y-966720D01*
X+817880Y-754380D02*
X+6554000Y-756920D01*
X+1818640Y-4046220D02*
X+1818640Y-4216700D01*
X+1818640Y-4218940D02*
X+2016760Y-4218940D01*
X+1818640Y-4218940D02*
X+2817020Y-4218940D01*
X+2817460Y-4047860D02*
X+2817460Y-4218340D01*
X+2816860Y-4046220D02*
X+5341620Y-4046220D01*
X+1818640Y-4046220D02*
X+817880Y-4046220D01*
X+5341620Y-4218940D02*
X+5341620Y-4046220D01*
X+6339840Y-4046220D02*
X+7338060Y-4046220D01*
X+6339840Y-4218940D02*
X+6339840Y-4046220D01*
X+5341620Y-4218940D02*
X+6339840Y-4218940D01*
X+6554000Y-756920D02*
X+6554000Y-967260D01*
X+7338060Y-967260D01*
M02*
