G04 PROTEUS RS274X GERBER FILE*
%FSLAX45Y45*%
%MOMM*%
G01*
%ADD42C,0.203200*%
%ADD55C,0.200000*%
%ADD54C,0.250000*%
%ADD57C,0.063500*%
D42*
X+818980Y-4046380D02*
X+818980Y-756380D01*
D55*
X+2498340Y-2604940D02*
X+3128340Y-2604940D01*
X+3128340Y-1974940D01*
X+2498340Y-1974940D01*
X+2498340Y-2604940D01*
D54*
X+2353340Y-2639940D02*
X+2353297Y-2638901D01*
X+2352945Y-2636822D01*
X+2352208Y-2634743D01*
X+2351004Y-2632664D01*
X+2349163Y-2630614D01*
X+2347084Y-2629111D01*
X+2345005Y-2628154D01*
X+2342926Y-2627615D01*
X+2340847Y-2627440D01*
X+2340840Y-2627440D01*
X+2328340Y-2639940D02*
X+2328383Y-2638901D01*
X+2328735Y-2636822D01*
X+2329472Y-2634743D01*
X+2330676Y-2632664D01*
X+2332517Y-2630614D01*
X+2334596Y-2629111D01*
X+2336675Y-2628154D01*
X+2338754Y-2627615D01*
X+2340833Y-2627440D01*
X+2340840Y-2627440D01*
X+2328340Y-2639940D02*
X+2328383Y-2640979D01*
X+2328735Y-2643058D01*
X+2329472Y-2645137D01*
X+2330676Y-2647216D01*
X+2332517Y-2649266D01*
X+2334596Y-2650769D01*
X+2336675Y-2651726D01*
X+2338754Y-2652265D01*
X+2340833Y-2652440D01*
X+2340840Y-2652440D01*
X+2353340Y-2639940D02*
X+2353297Y-2640979D01*
X+2352945Y-2643058D01*
X+2352208Y-2645137D01*
X+2351004Y-2647216D01*
X+2349163Y-2649266D01*
X+2347084Y-2650769D01*
X+2345005Y-2651726D01*
X+2342926Y-2652265D01*
X+2340847Y-2652440D01*
X+2340840Y-2652440D01*
D42*
X+3057400Y-2905400D02*
X+3057400Y-2854600D01*
X+3066925Y-2844440D01*
X+3105025Y-2844440D01*
X+3114550Y-2854600D01*
X+3114550Y-2905400D01*
X+3152650Y-2885080D02*
X+3171700Y-2905400D01*
X+3171700Y-2844440D01*
X+3219325Y-2895240D02*
X+3228850Y-2905400D01*
X+3257425Y-2905400D01*
X+3266950Y-2895240D01*
X+3266950Y-2885080D01*
X+3257425Y-2874920D01*
X+3266950Y-2864760D01*
X+3266950Y-2854600D01*
X+3257425Y-2844440D01*
X+3228850Y-2844440D01*
X+3219325Y-2854600D01*
X+3238375Y-2874920D02*
X+3257425Y-2874920D01*
X+7338980Y-4046380D02*
X+7336440Y-966720D01*
X+817880Y-754380D02*
X+6554000Y-756920D01*
X+1818640Y-4046220D02*
X+1818640Y-4216700D01*
X+1818640Y-4218940D02*
X+2016760Y-4218940D01*
X+1818640Y-4218940D02*
X+2817020Y-4218940D01*
X+2817460Y-4047860D02*
X+2817460Y-4218340D01*
D55*
X+5490000Y-2463500D02*
X+5510000Y-2463500D01*
X+5510000Y-2263500D01*
X+5490000Y-2263500D01*
X+5490000Y-2463500D01*
X+5645000Y-2243500D02*
X+5545000Y-2243500D01*
D42*
X+5609220Y-2208100D02*
X+5609220Y-2147140D01*
X+5571120Y-2147140D01*
X+5552070Y-2167460D01*
X+5552070Y-2187780D01*
X+5571120Y-2208100D01*
X+5609220Y-2208100D01*
X+5523495Y-2157300D02*
X+5513970Y-2147140D01*
X+5485395Y-2147140D01*
X+5475870Y-2157300D01*
X+5475870Y-2167460D01*
X+5485395Y-2177620D01*
X+5513970Y-2177620D01*
X+5523495Y-2187780D01*
X+5523495Y-2208100D01*
X+5475870Y-2208100D01*
X+5456820Y-2197940D02*
X+5456820Y-2157300D01*
X+5447295Y-2147140D01*
X+5409195Y-2147140D01*
X+5399670Y-2157300D01*
X+5399670Y-2197940D01*
X+5409195Y-2208100D01*
X+5447295Y-2208100D01*
X+5456820Y-2197940D01*
X+5456820Y-2208100D02*
X+5399670Y-2147140D01*
X+1278680Y-3794840D02*
X+1476800Y-3794840D01*
X+1476800Y-3439240D02*
X+1276140Y-3439240D01*
X+1619040Y-3820240D02*
X+1619040Y-3871040D01*
X+1593640Y-3845640D02*
X+1644440Y-3845640D01*
X+1395560Y-3597990D02*
X+1405720Y-3588465D01*
X+1405720Y-3559890D01*
X+1385400Y-3540840D01*
X+1365080Y-3540840D01*
X+1344760Y-3559890D01*
X+1344760Y-3588465D01*
X+1354920Y-3597990D01*
X+1365080Y-3636090D02*
X+1344760Y-3655140D01*
X+1405720Y-3655140D01*
X+5920160Y-3213220D02*
X+7270160Y-3213220D01*
X+7270160Y-1913220D01*
X+5920160Y-1913220D01*
X+5920160Y-3213220D01*
X+6398750Y-2176700D02*
X+6398750Y-2166540D01*
X+6408275Y-2156380D01*
X+6446375Y-2156380D01*
X+6455900Y-2166540D01*
X+6455900Y-2217340D01*
X+6494000Y-2197020D02*
X+6513050Y-2217340D01*
X+6513050Y-2156380D01*
X+6551150Y-2166540D02*
X+6551150Y-2207180D01*
X+6560675Y-2217340D01*
X+6598775Y-2217340D01*
X+6608300Y-2207180D01*
X+6608300Y-2166540D01*
X+6598775Y-2156380D01*
X+6560675Y-2156380D01*
X+6551150Y-2166540D01*
X+6551150Y-2156380D02*
X+6608300Y-2217340D01*
X+2816860Y-4046220D02*
X+5341620Y-4046220D01*
X+1818640Y-4046220D02*
X+817880Y-4046220D01*
X+5341620Y-4218940D02*
X+5341620Y-4046220D01*
X+6339840Y-4046220D02*
X+7338060Y-4046220D01*
X+6339840Y-4218940D02*
X+6339840Y-4046220D01*
X+5341620Y-4218940D02*
X+6339840Y-4218940D01*
X+1951990Y-3616960D02*
X+1932940Y-3596640D01*
X+1932940Y-3657600D01*
D55*
X+1325480Y-3126820D02*
X+1325480Y-1986820D01*
X+855480Y-1986820D02*
X+855480Y-3126820D01*
X+1100480Y-3334820D02*
X+1100452Y-3334155D01*
X+1100227Y-3332824D01*
X+1099755Y-3331493D01*
X+1098984Y-3330162D01*
X+1097805Y-3328850D01*
X+1096474Y-3327888D01*
X+1095143Y-3327276D01*
X+1093812Y-3326932D01*
X+1092481Y-3326820D01*
X+1092480Y-3326820D01*
X+1084480Y-3334820D02*
X+1084508Y-3334155D01*
X+1084733Y-3332824D01*
X+1085205Y-3331493D01*
X+1085976Y-3330162D01*
X+1087155Y-3328850D01*
X+1088486Y-3327888D01*
X+1089817Y-3327276D01*
X+1091148Y-3326932D01*
X+1092479Y-3326820D01*
X+1092480Y-3326820D01*
X+1084480Y-3334820D02*
X+1084508Y-3335485D01*
X+1084733Y-3336816D01*
X+1085205Y-3338147D01*
X+1085976Y-3339478D01*
X+1087155Y-3340790D01*
X+1088486Y-3341752D01*
X+1089817Y-3342364D01*
X+1091148Y-3342708D01*
X+1092479Y-3342820D01*
X+1092480Y-3342820D01*
X+1100480Y-3334820D02*
X+1100452Y-3335485D01*
X+1100227Y-3336816D01*
X+1099755Y-3338147D01*
X+1098984Y-3339478D01*
X+1097805Y-3340790D01*
X+1096474Y-3341752D01*
X+1095143Y-3342364D01*
X+1093812Y-3342708D01*
X+1092481Y-3342820D01*
X+1092480Y-3342820D01*
D42*
X+1061200Y-2450520D02*
X+1112000Y-2450520D01*
X+1122160Y-2460045D01*
X+1122160Y-2498145D01*
X+1112000Y-2507670D01*
X+1061200Y-2507670D01*
X+1081520Y-2545770D02*
X+1061200Y-2564820D01*
X+1122160Y-2564820D01*
X+1061200Y-2612445D02*
X+1061200Y-2660070D01*
X+1071360Y-2660070D01*
X+1122160Y-2612445D01*
X+1457460Y-2518080D02*
X+1457460Y-2563800D01*
X+1538740Y-2518080D02*
X+1538740Y-2563800D01*
X+1423960Y-2436640D02*
X+1363000Y-2436640D01*
X+1363000Y-2484265D01*
X+1373160Y-2493790D01*
X+1383320Y-2493790D01*
X+1393480Y-2484265D01*
X+1393480Y-2436640D01*
X+1393480Y-2484265D02*
X+1403640Y-2493790D01*
X+1423960Y-2493790D01*
X+1363000Y-2569990D02*
X+1363000Y-2522365D01*
X+1383320Y-2522365D01*
X+1383320Y-2560465D01*
X+1393480Y-2569990D01*
X+1413800Y-2569990D01*
X+1423960Y-2560465D01*
X+1423960Y-2531890D01*
X+1413800Y-2522365D01*
X+1373160Y-2598565D02*
X+1363000Y-2608090D01*
X+1363000Y-2636665D01*
X+1373160Y-2646190D01*
X+1383320Y-2646190D01*
X+1393480Y-2636665D01*
X+1403640Y-2646190D01*
X+1413800Y-2646190D01*
X+1423960Y-2636665D01*
X+1423960Y-2608090D01*
X+1413800Y-2598565D01*
X+1393480Y-2617615D02*
X+1393480Y-2636665D01*
X+1456400Y-3263240D02*
X+1502120Y-3263240D01*
X+1456400Y-3181960D02*
X+1502120Y-3181960D01*
X+1432110Y-3065440D02*
X+1422585Y-3055280D01*
X+1394010Y-3055280D01*
X+1374960Y-3075600D01*
X+1374960Y-3095920D01*
X+1394010Y-3116240D01*
X+1422585Y-3116240D01*
X+1432110Y-3106080D01*
X+1508310Y-3075600D02*
X+1451160Y-3075600D01*
X+1489260Y-3116240D01*
X+1489260Y-3055280D01*
X+1536885Y-3106080D02*
X+1546410Y-3116240D01*
X+1574985Y-3116240D01*
X+1584510Y-3106080D01*
X+1584510Y-3095920D01*
X+1574985Y-3085760D01*
X+1546410Y-3085760D01*
X+1536885Y-3075600D01*
X+1536885Y-3055280D01*
X+1584510Y-3055280D01*
X+7240640Y-3652700D02*
X+7240640Y-3606980D01*
X+7159360Y-3652700D02*
X+7159360Y-3606980D01*
X+7227480Y-3785540D02*
X+7166520Y-3785540D01*
X+7166520Y-3833165D01*
X+7176680Y-3842690D01*
X+7186840Y-3842690D01*
X+7197000Y-3833165D01*
X+7197000Y-3785540D01*
X+7197000Y-3833165D02*
X+7207160Y-3842690D01*
X+7227480Y-3842690D01*
X+7166520Y-3918890D02*
X+7166520Y-3871265D01*
X+7186840Y-3871265D01*
X+7186840Y-3909365D01*
X+7197000Y-3918890D01*
X+7217320Y-3918890D01*
X+7227480Y-3909365D01*
X+7227480Y-3880790D01*
X+7217320Y-3871265D01*
X+7166520Y-3995090D02*
X+7166520Y-3947465D01*
X+7186840Y-3947465D01*
X+7186840Y-3985565D01*
X+7197000Y-3995090D01*
X+7217320Y-3995090D01*
X+7227480Y-3985565D01*
X+7227480Y-3956990D01*
X+7217320Y-3947465D01*
X+7088100Y-3647960D02*
X+7088100Y-3602240D01*
X+7006820Y-3647960D02*
X+7006820Y-3602240D01*
X+7074940Y-3780800D02*
X+7013980Y-3780800D01*
X+7013980Y-3828425D01*
X+7024140Y-3837950D01*
X+7034300Y-3837950D01*
X+7044460Y-3828425D01*
X+7044460Y-3780800D01*
X+7044460Y-3828425D02*
X+7054620Y-3837950D01*
X+7074940Y-3837950D01*
X+7013980Y-3914150D02*
X+7013980Y-3866525D01*
X+7034300Y-3866525D01*
X+7034300Y-3904625D01*
X+7044460Y-3914150D01*
X+7064780Y-3914150D01*
X+7074940Y-3904625D01*
X+7074940Y-3876050D01*
X+7064780Y-3866525D01*
X+7024140Y-3990350D02*
X+7013980Y-3980825D01*
X+7013980Y-3952250D01*
X+7024140Y-3942725D01*
X+7064780Y-3942725D01*
X+7074940Y-3952250D01*
X+7074940Y-3980825D01*
X+7064780Y-3990350D01*
X+7054620Y-3990350D01*
X+7044460Y-3980825D01*
X+7044460Y-3942725D01*
X+6937940Y-3645240D02*
X+6937940Y-3599520D01*
X+6856660Y-3645240D02*
X+6856660Y-3599520D01*
X+6924780Y-3778080D02*
X+6863820Y-3778080D01*
X+6863820Y-3825705D01*
X+6873980Y-3835230D01*
X+6884140Y-3835230D01*
X+6894300Y-3825705D01*
X+6894300Y-3778080D01*
X+6894300Y-3825705D02*
X+6904460Y-3835230D01*
X+6924780Y-3835230D01*
X+6863820Y-3911430D02*
X+6863820Y-3863805D01*
X+6884140Y-3863805D01*
X+6884140Y-3901905D01*
X+6894300Y-3911430D01*
X+6914620Y-3911430D01*
X+6924780Y-3901905D01*
X+6924780Y-3873330D01*
X+6914620Y-3863805D01*
X+6863820Y-3940005D02*
X+6863820Y-3987630D01*
X+6873980Y-3987630D01*
X+6924780Y-3940005D01*
X+6708880Y-3597320D02*
X+6708880Y-3643040D01*
X+6790160Y-3597320D02*
X+6790160Y-3643040D01*
X+6783000Y-3775880D02*
X+6722040Y-3775880D01*
X+6722040Y-3823505D01*
X+6732200Y-3833030D01*
X+6742360Y-3833030D01*
X+6752520Y-3823505D01*
X+6752520Y-3775880D01*
X+6752520Y-3823505D02*
X+6762680Y-3833030D01*
X+6783000Y-3833030D01*
X+6722040Y-3909230D02*
X+6722040Y-3861605D01*
X+6742360Y-3861605D01*
X+6742360Y-3899705D01*
X+6752520Y-3909230D01*
X+6772840Y-3909230D01*
X+6783000Y-3899705D01*
X+6783000Y-3871130D01*
X+6772840Y-3861605D01*
X+6752520Y-3947330D02*
X+6742360Y-3937805D01*
X+6732200Y-3937805D01*
X+6722040Y-3947330D01*
X+6722040Y-3975905D01*
X+6732200Y-3985430D01*
X+6742360Y-3985430D01*
X+6752520Y-3975905D01*
X+6752520Y-3947330D01*
X+6762680Y-3937805D01*
X+6772840Y-3937805D01*
X+6783000Y-3947330D01*
X+6783000Y-3975905D01*
X+6772840Y-3985430D01*
X+6762680Y-3985430D01*
X+6752520Y-3975905D01*
X+5589260Y-2609800D02*
X+5589260Y-2655520D01*
X+5670540Y-2609800D02*
X+5670540Y-2655520D01*
X+5497820Y-2672030D02*
X+5487660Y-2681555D01*
X+5487660Y-2710130D01*
X+5507980Y-2729180D01*
X+5528300Y-2729180D01*
X+5548620Y-2710130D01*
X+5548620Y-2681555D01*
X+5538460Y-2672030D01*
X+5507980Y-2595830D02*
X+5507980Y-2652980D01*
X+5548620Y-2614880D01*
X+5487660Y-2614880D01*
X+5528300Y-2519630D02*
X+5518140Y-2529155D01*
X+5518140Y-2557730D01*
X+5528300Y-2567255D01*
X+5538460Y-2567255D01*
X+5548620Y-2557730D01*
X+5548620Y-2529155D01*
X+5538460Y-2519630D01*
X+5497820Y-2519630D01*
X+5487660Y-2529155D01*
X+5487660Y-2557730D01*
X+5708600Y-3028960D02*
X+5662880Y-3028960D01*
X+5708600Y-3110240D02*
X+5662880Y-3110240D01*
X+5799861Y-2985959D02*
X+5799861Y-2924999D01*
X+5752236Y-2924999D01*
X+5742711Y-2935159D01*
X+5742711Y-2945319D01*
X+5752236Y-2955479D01*
X+5799861Y-2955479D01*
X+5752236Y-2955479D02*
X+5742711Y-2965639D01*
X+5742711Y-2985959D01*
X+5714136Y-2924999D02*
X+5666511Y-2924999D01*
X+5666511Y-2935159D01*
X+5714136Y-2985959D01*
X+5647461Y-2975799D02*
X+5647461Y-2935159D01*
X+5637936Y-2924999D01*
X+5599836Y-2924999D01*
X+5590311Y-2935159D01*
X+5590311Y-2975799D01*
X+5599836Y-2985959D01*
X+5637936Y-2985959D01*
X+5647461Y-2975799D01*
X+5647461Y-2985959D02*
X+5590311Y-2924999D01*
X+5660440Y-3244840D02*
X+5706160Y-3244840D01*
X+5660440Y-3163560D02*
X+5706160Y-3163560D01*
X+5530900Y-3237220D02*
X+5530900Y-3176260D01*
X+5483275Y-3176260D01*
X+5473750Y-3186420D01*
X+5473750Y-3196580D01*
X+5483275Y-3206740D01*
X+5530900Y-3206740D01*
X+5483275Y-3206740D02*
X+5473750Y-3216900D01*
X+5473750Y-3237220D01*
X+5445175Y-3176260D02*
X+5397550Y-3176260D01*
X+5397550Y-3186420D01*
X+5445175Y-3237220D01*
X+5359450Y-3196580D02*
X+5340400Y-3176260D01*
X+5340400Y-3237220D01*
X+5657800Y-3392180D02*
X+5703520Y-3392180D01*
X+5657800Y-3310900D02*
X+5703520Y-3310900D01*
X+5530800Y-3384560D02*
X+5530800Y-3323600D01*
X+5483175Y-3323600D01*
X+5473650Y-3333760D01*
X+5473650Y-3343920D01*
X+5483175Y-3354080D01*
X+5530800Y-3354080D01*
X+5483175Y-3354080D02*
X+5473650Y-3364240D01*
X+5473650Y-3384560D01*
X+5397450Y-3333760D02*
X+5406975Y-3323600D01*
X+5435550Y-3323600D01*
X+5445075Y-3333760D01*
X+5445075Y-3374400D01*
X+5435550Y-3384560D01*
X+5406975Y-3384560D01*
X+5397450Y-3374400D01*
X+5397450Y-3364240D01*
X+5406975Y-3354080D01*
X+5445075Y-3354080D01*
X+5321250Y-3343920D02*
X+5330775Y-3354080D01*
X+5359350Y-3354080D01*
X+5368875Y-3343920D01*
X+5368875Y-3333760D01*
X+5359350Y-3323600D01*
X+5330775Y-3323600D01*
X+5321250Y-3333760D01*
X+5321250Y-3374400D01*
X+5330775Y-3384560D01*
X+5359350Y-3384560D01*
X+5342640Y-887780D02*
X+5342640Y-933500D01*
X+5423920Y-887780D02*
X+5423920Y-933500D01*
X+5342640Y-936040D02*
X+5423920Y-936040D01*
X+5419460Y-1109360D02*
X+5358500Y-1109360D01*
X+5358500Y-1147460D01*
X+5378820Y-1166510D01*
X+5399140Y-1166510D01*
X+5419460Y-1147460D01*
X+5419460Y-1109360D01*
X+5388980Y-1204610D02*
X+5378820Y-1195085D01*
X+5368660Y-1195085D01*
X+5358500Y-1204610D01*
X+5358500Y-1233185D01*
X+5368660Y-1242710D01*
X+5378820Y-1242710D01*
X+5388980Y-1233185D01*
X+5388980Y-1204610D01*
X+5399140Y-1195085D01*
X+5409300Y-1195085D01*
X+5419460Y-1204610D01*
X+5419460Y-1233185D01*
X+5409300Y-1242710D01*
X+5399140Y-1242710D01*
X+5388980Y-1233185D01*
X+1715720Y-2084080D02*
X+1784300Y-2084080D01*
X+1715720Y-1962160D02*
X+1786840Y-1962160D01*
X+1573480Y-1992640D02*
X+1573480Y-2053600D01*
X+1516330Y-2053600D01*
X+1440130Y-2033280D02*
X+1497280Y-2033280D01*
X+1459180Y-1992640D01*
X+1459180Y-2053600D01*
X+1962140Y-2101800D02*
X+1962140Y-2147520D01*
X+2043420Y-2101800D02*
X+2043420Y-2147520D01*
X+2146751Y-2076706D02*
X+2156911Y-2067181D01*
X+2156911Y-2038606D01*
X+2136591Y-2019556D01*
X+2116271Y-2019556D01*
X+2095951Y-2038606D01*
X+2095951Y-2067181D01*
X+2106111Y-2076706D01*
X+2095951Y-2152906D02*
X+2095951Y-2105281D01*
X+2116271Y-2105281D01*
X+2116271Y-2143381D01*
X+2126431Y-2152906D01*
X+2146751Y-2152906D01*
X+2156911Y-2143381D01*
X+2156911Y-2114806D01*
X+2146751Y-2105281D01*
X+2116271Y-2191006D02*
X+2095951Y-2210056D01*
X+2156911Y-2210056D01*
X+1741120Y-2251720D02*
X+1786840Y-2251720D01*
X+1741120Y-2170440D02*
X+1786840Y-2170440D01*
X+1452830Y-2188220D02*
X+1443305Y-2178060D01*
X+1414730Y-2178060D01*
X+1395680Y-2198380D01*
X+1395680Y-2218700D01*
X+1414730Y-2239020D01*
X+1443305Y-2239020D01*
X+1452830Y-2228860D01*
X+1481405Y-2228860D02*
X+1490930Y-2239020D01*
X+1519505Y-2239020D01*
X+1529030Y-2228860D01*
X+1529030Y-2218700D01*
X+1519505Y-2208540D01*
X+1529030Y-2198380D01*
X+1529030Y-2188220D01*
X+1519505Y-2178060D01*
X+1490930Y-2178060D01*
X+1481405Y-2188220D01*
X+1500455Y-2208540D02*
X+1519505Y-2208540D01*
X+1605230Y-2198380D02*
X+1548080Y-2198380D01*
X+1586180Y-2239020D01*
X+1586180Y-2178060D01*
X+2043440Y-2439720D02*
X+2043440Y-2394000D01*
X+1962160Y-2439720D02*
X+1962160Y-2394000D01*
X+2145040Y-2302560D02*
X+2084080Y-2302560D01*
X+2084080Y-2350185D01*
X+2094240Y-2359710D01*
X+2104400Y-2359710D01*
X+2114560Y-2350185D01*
X+2114560Y-2302560D01*
X+2114560Y-2350185D02*
X+2124720Y-2359710D01*
X+2145040Y-2359710D01*
X+2124720Y-2435910D02*
X+2124720Y-2378760D01*
X+2084080Y-2416860D01*
X+2145040Y-2416860D01*
X+2084080Y-2512110D02*
X+2084080Y-2464485D01*
X+2104400Y-2464485D01*
X+2104400Y-2502585D01*
X+2114560Y-2512110D01*
X+2134880Y-2512110D01*
X+2145040Y-2502585D01*
X+2145040Y-2474010D01*
X+2134880Y-2464485D01*
X+1827480Y-2393960D02*
X+1827480Y-2439680D01*
X+1908760Y-2393960D02*
X+1908760Y-2439680D01*
X+1720800Y-2473970D02*
X+1710640Y-2483495D01*
X+1710640Y-2512070D01*
X+1730960Y-2531120D01*
X+1751280Y-2531120D01*
X+1771600Y-2512070D01*
X+1771600Y-2483495D01*
X+1761440Y-2473970D01*
X+1771600Y-2397770D02*
X+1771600Y-2445395D01*
X+1751280Y-2445395D01*
X+1751280Y-2407295D01*
X+1741120Y-2397770D01*
X+1720800Y-2397770D01*
X+1710640Y-2407295D01*
X+1710640Y-2435870D01*
X+1720800Y-2445395D01*
X+1761440Y-2369195D02*
X+1771600Y-2359670D01*
X+1771600Y-2331095D01*
X+1761440Y-2321570D01*
X+1751280Y-2321570D01*
X+1741120Y-2331095D01*
X+1741120Y-2359670D01*
X+1730960Y-2369195D01*
X+1710640Y-2369195D01*
X+1710640Y-2321570D01*
X+1769160Y-1619240D02*
X+1723440Y-1619240D01*
X+1769160Y-1700520D02*
X+1723440Y-1700520D01*
X+2072690Y-1677660D02*
X+2082215Y-1687820D01*
X+2110790Y-1687820D01*
X+2129840Y-1667500D01*
X+2129840Y-1647180D01*
X+2110790Y-1626860D01*
X+2082215Y-1626860D01*
X+2072690Y-1637020D01*
X+2044115Y-1637020D02*
X+2034590Y-1626860D01*
X+2006015Y-1626860D01*
X+1996490Y-1637020D01*
X+1996490Y-1647180D01*
X+2006015Y-1657340D01*
X+1996490Y-1667500D01*
X+1996490Y-1677660D01*
X+2006015Y-1687820D01*
X+2034590Y-1687820D01*
X+2044115Y-1677660D01*
X+2025065Y-1657340D02*
X+2006015Y-1657340D01*
X+1967915Y-1626860D02*
X+1920290Y-1626860D01*
X+1920290Y-1637020D01*
X+1967915Y-1687820D01*
X+1764080Y-1797040D02*
X+1718360Y-1797040D01*
X+1764080Y-1878320D02*
X+1718360Y-1878320D01*
X+2065070Y-1860540D02*
X+2074595Y-1870700D01*
X+2103170Y-1870700D01*
X+2122220Y-1850380D01*
X+2122220Y-1830060D01*
X+2103170Y-1809740D01*
X+2074595Y-1809740D01*
X+2065070Y-1819900D01*
X+2036495Y-1819900D02*
X+2026970Y-1809740D01*
X+1998395Y-1809740D01*
X+1988870Y-1819900D01*
X+1988870Y-1830060D01*
X+1998395Y-1840220D01*
X+1988870Y-1850380D01*
X+1988870Y-1860540D01*
X+1998395Y-1870700D01*
X+2026970Y-1870700D01*
X+2036495Y-1860540D01*
X+2017445Y-1840220D02*
X+1998395Y-1840220D01*
X+1912670Y-1819900D02*
X+1922195Y-1809740D01*
X+1950770Y-1809740D01*
X+1960295Y-1819900D01*
X+1960295Y-1860540D01*
X+1950770Y-1870700D01*
X+1922195Y-1870700D01*
X+1912670Y-1860540D01*
X+1912670Y-1850380D01*
X+1922195Y-1840220D01*
X+1960295Y-1840220D01*
X+1380440Y-1906280D02*
X+1426160Y-1906280D01*
X+1380440Y-1825000D02*
X+1426160Y-1825000D01*
X+1448930Y-1783740D02*
X+1458455Y-1793900D01*
X+1487030Y-1793900D01*
X+1506080Y-1773580D01*
X+1506080Y-1753260D01*
X+1487030Y-1732940D01*
X+1458455Y-1732940D01*
X+1448930Y-1743100D01*
X+1372730Y-1773580D02*
X+1429880Y-1773580D01*
X+1391780Y-1732940D01*
X+1391780Y-1793900D01*
X+1344155Y-1743100D02*
X+1334630Y-1732940D01*
X+1306055Y-1732940D01*
X+1296530Y-1743100D01*
X+1296530Y-1753260D01*
X+1306055Y-1763420D01*
X+1296530Y-1773580D01*
X+1296530Y-1783740D01*
X+1306055Y-1793900D01*
X+1334630Y-1793900D01*
X+1344155Y-1783740D01*
X+1325105Y-1763420D02*
X+1306055Y-1763420D01*
X+3459660Y-889900D02*
X+3459660Y-935620D01*
X+3540940Y-889900D02*
X+3540940Y-935620D01*
X+3459660Y-938160D02*
X+3540940Y-938160D01*
X+3543480Y-1093100D02*
X+3482520Y-1093100D01*
X+3482520Y-1131200D01*
X+3502840Y-1150250D01*
X+3523160Y-1150250D01*
X+3543480Y-1131200D01*
X+3543480Y-1093100D01*
X+3492680Y-1178825D02*
X+3482520Y-1188350D01*
X+3482520Y-1216925D01*
X+3492680Y-1226450D01*
X+3502840Y-1226450D01*
X+3513000Y-1216925D01*
X+3513000Y-1188350D01*
X+3523160Y-1178825D01*
X+3543480Y-1178825D01*
X+3543480Y-1226450D01*
X+4050160Y-889900D02*
X+4050160Y-935620D01*
X+4131440Y-889900D02*
X+4131440Y-935620D01*
X+4050160Y-938160D02*
X+4131440Y-938160D01*
X+4133980Y-1093100D02*
X+4073020Y-1093100D01*
X+4073020Y-1131200D01*
X+4093340Y-1150250D01*
X+4113660Y-1150250D01*
X+4133980Y-1131200D01*
X+4133980Y-1093100D01*
X+4083180Y-1178825D02*
X+4073020Y-1188350D01*
X+4073020Y-1216925D01*
X+4083180Y-1226450D01*
X+4093340Y-1226450D01*
X+4103500Y-1216925D01*
X+4113660Y-1226450D01*
X+4123820Y-1226450D01*
X+4133980Y-1216925D01*
X+4133980Y-1188350D01*
X+4123820Y-1178825D01*
X+4103500Y-1197875D02*
X+4103500Y-1216925D01*
X+4676811Y-880951D02*
X+4676811Y-926671D01*
X+4758091Y-880951D02*
X+4758091Y-926671D01*
X+4676811Y-929211D02*
X+4758091Y-929211D01*
X+4753011Y-1066371D02*
X+4692051Y-1066371D01*
X+4692051Y-1104471D01*
X+4712371Y-1123521D01*
X+4732691Y-1123521D01*
X+4753011Y-1104471D01*
X+4753011Y-1066371D01*
X+4712371Y-1161621D02*
X+4692051Y-1180671D01*
X+4753011Y-1180671D01*
X+4722531Y-1237821D02*
X+4712371Y-1228296D01*
X+4702211Y-1228296D01*
X+4692051Y-1237821D01*
X+4692051Y-1266396D01*
X+4702211Y-1275921D01*
X+4712371Y-1275921D01*
X+4722531Y-1266396D01*
X+4722531Y-1237821D01*
X+4732691Y-1228296D01*
X+4742851Y-1228296D01*
X+4753011Y-1237821D01*
X+4753011Y-1266396D01*
X+4742851Y-1275921D01*
X+4732691Y-1275921D01*
X+4722531Y-1266396D01*
X+2869160Y-889900D02*
X+2869160Y-935620D01*
X+2950440Y-889900D02*
X+2950440Y-935620D01*
X+2869160Y-938160D02*
X+2950440Y-938160D01*
X+2952980Y-1093100D02*
X+2892020Y-1093100D01*
X+2892020Y-1131200D01*
X+2912340Y-1150250D01*
X+2932660Y-1150250D01*
X+2952980Y-1131200D01*
X+2952980Y-1093100D01*
X+2912340Y-1188350D02*
X+2892020Y-1207400D01*
X+2952980Y-1207400D01*
X+2659160Y-889900D02*
X+2659160Y-935620D01*
X+2740440Y-889900D02*
X+2740440Y-935620D01*
X+2722660Y-1070240D02*
X+2661700Y-1070240D01*
X+2661700Y-1117865D01*
X+2671860Y-1127390D01*
X+2682020Y-1127390D01*
X+2692180Y-1117865D01*
X+2692180Y-1070240D01*
X+2692180Y-1117865D02*
X+2702340Y-1127390D01*
X+2722660Y-1127390D01*
X+2702340Y-1203590D02*
X+2702340Y-1146440D01*
X+2661700Y-1184540D01*
X+2722660Y-1184540D01*
X+3249660Y-889900D02*
X+3249660Y-935620D01*
X+3330940Y-889900D02*
X+3330940Y-935620D01*
X+3310620Y-1077860D02*
X+3249660Y-1077860D01*
X+3249660Y-1125485D01*
X+3259820Y-1135010D01*
X+3269980Y-1135010D01*
X+3280140Y-1125485D01*
X+3280140Y-1077860D01*
X+3280140Y-1125485D02*
X+3290300Y-1135010D01*
X+3310620Y-1135010D01*
X+3249660Y-1211210D02*
X+3249660Y-1163585D01*
X+3269980Y-1163585D01*
X+3269980Y-1201685D01*
X+3280140Y-1211210D01*
X+3300460Y-1211210D01*
X+3310620Y-1201685D01*
X+3310620Y-1173110D01*
X+3300460Y-1163585D01*
X+3860160Y-889900D02*
X+3860160Y-935620D01*
X+3941440Y-889900D02*
X+3941440Y-935620D01*
X+3918580Y-1072780D02*
X+3857620Y-1072780D01*
X+3857620Y-1120405D01*
X+3867780Y-1129930D01*
X+3877940Y-1129930D01*
X+3888100Y-1120405D01*
X+3888100Y-1072780D01*
X+3888100Y-1120405D02*
X+3898260Y-1129930D01*
X+3918580Y-1129930D01*
X+3867780Y-1206130D02*
X+3857620Y-1196605D01*
X+3857620Y-1168030D01*
X+3867780Y-1158505D01*
X+3908420Y-1158505D01*
X+3918580Y-1168030D01*
X+3918580Y-1196605D01*
X+3908420Y-1206130D01*
X+3898260Y-1206130D01*
X+3888100Y-1196605D01*
X+3888100Y-1158505D01*
X+4446539Y-879411D02*
X+4446539Y-925131D01*
X+4527819Y-879411D02*
X+4527819Y-925131D01*
X+4515119Y-1049591D02*
X+4454159Y-1049591D01*
X+4454159Y-1097216D01*
X+4464319Y-1106741D01*
X+4474479Y-1106741D01*
X+4484639Y-1097216D01*
X+4484639Y-1049591D01*
X+4484639Y-1097216D02*
X+4494799Y-1106741D01*
X+4515119Y-1106741D01*
X+4454159Y-1182941D02*
X+4454159Y-1135316D01*
X+4474479Y-1135316D01*
X+4474479Y-1173416D01*
X+4484639Y-1182941D01*
X+4504959Y-1182941D01*
X+4515119Y-1173416D01*
X+4515119Y-1144841D01*
X+4504959Y-1135316D01*
X+4494799Y-1259141D02*
X+4494799Y-1201991D01*
X+4454159Y-1240091D01*
X+4515119Y-1240091D01*
X+3404880Y-2841040D02*
X+3404880Y-2795320D01*
X+3323600Y-2841040D02*
X+3323600Y-2795320D01*
X+3493780Y-2753410D02*
X+3503940Y-2743885D01*
X+3503940Y-2715310D01*
X+3483620Y-2696260D01*
X+3463300Y-2696260D01*
X+3442980Y-2715310D01*
X+3442980Y-2743885D01*
X+3453140Y-2753410D01*
X+3453140Y-2781985D02*
X+3442980Y-2791510D01*
X+3442980Y-2820085D01*
X+3453140Y-2829610D01*
X+3463300Y-2829610D01*
X+3473460Y-2820085D01*
X+3483620Y-2829610D01*
X+3493780Y-2829610D01*
X+3503940Y-2820085D01*
X+3503940Y-2791510D01*
X+3493780Y-2781985D01*
X+3473460Y-2801035D02*
X+3473460Y-2820085D01*
X+3463300Y-2905810D02*
X+3473460Y-2896285D01*
X+3473460Y-2867710D01*
X+3463300Y-2858185D01*
X+3453140Y-2858185D01*
X+3442980Y-2867710D01*
X+3442980Y-2896285D01*
X+3453140Y-2905810D01*
X+3493780Y-2905810D01*
X+3503940Y-2896285D01*
X+3503940Y-2867710D01*
X+2421840Y-2929900D02*
X+2467560Y-2929900D01*
X+2421840Y-2848620D02*
X+2467560Y-2848620D01*
X+2651710Y-2871480D02*
X+2642185Y-2861320D01*
X+2613610Y-2861320D01*
X+2594560Y-2881640D01*
X+2594560Y-2901960D01*
X+2613610Y-2922280D01*
X+2642185Y-2922280D01*
X+2651710Y-2912120D01*
X+2680285Y-2912120D02*
X+2689810Y-2922280D01*
X+2718385Y-2922280D01*
X+2727910Y-2912120D01*
X+2727910Y-2901960D01*
X+2718385Y-2891800D01*
X+2727910Y-2881640D01*
X+2727910Y-2871480D01*
X+2718385Y-2861320D01*
X+2689810Y-2861320D01*
X+2680285Y-2871480D01*
X+2699335Y-2891800D02*
X+2718385Y-2891800D01*
X+2746960Y-2871480D02*
X+2746960Y-2912120D01*
X+2756485Y-2922280D01*
X+2794585Y-2922280D01*
X+2804110Y-2912120D01*
X+2804110Y-2871480D01*
X+2794585Y-2861320D01*
X+2756485Y-2861320D01*
X+2746960Y-2871480D01*
X+2746960Y-2861320D02*
X+2804110Y-2922280D01*
X+2421840Y-3051820D02*
X+2467560Y-3051820D01*
X+2421840Y-2970540D02*
X+2467560Y-2970540D01*
X+2651710Y-2993400D02*
X+2642185Y-2983240D01*
X+2613610Y-2983240D01*
X+2594560Y-3003560D01*
X+2594560Y-3023880D01*
X+2613610Y-3044200D01*
X+2642185Y-3044200D01*
X+2651710Y-3034040D01*
X+2680285Y-3034040D02*
X+2689810Y-3044200D01*
X+2718385Y-3044200D01*
X+2727910Y-3034040D01*
X+2727910Y-3023880D01*
X+2718385Y-3013720D01*
X+2727910Y-3003560D01*
X+2727910Y-2993400D01*
X+2718385Y-2983240D01*
X+2689810Y-2983240D01*
X+2680285Y-2993400D01*
X+2699335Y-3013720D02*
X+2718385Y-3013720D01*
X+2766010Y-3023880D02*
X+2785060Y-3044200D01*
X+2785060Y-2983240D01*
D57*
X+5581020Y-918375D02*
X+5591180Y-918375D01*
X+5621660Y-918375D02*
X+5667380Y-918375D01*
X+5687700Y-918375D02*
X+5702940Y-918375D01*
X+5728340Y-918375D02*
X+5738500Y-918375D01*
X+5581020Y-913295D02*
X+5591180Y-913295D01*
X+5621660Y-913295D02*
X+5667380Y-913295D01*
X+5687700Y-913295D02*
X+5702940Y-913295D01*
X+5728340Y-913295D02*
X+5738500Y-913295D01*
X+5581020Y-908215D02*
X+5591180Y-908215D01*
X+5657220Y-908215D02*
X+5667380Y-908215D01*
X+5687700Y-908215D02*
X+5708020Y-908215D01*
X+5728340Y-908215D02*
X+5738500Y-908215D01*
X+5581020Y-903135D02*
X+5591180Y-903135D01*
X+5657220Y-903135D02*
X+5667380Y-903135D01*
X+5687700Y-903135D02*
X+5708020Y-903135D01*
X+5728340Y-903135D02*
X+5738500Y-903135D01*
X+5581020Y-898055D02*
X+5591180Y-898055D01*
X+5657220Y-898055D02*
X+5667380Y-898055D01*
X+5687700Y-898055D02*
X+5697860Y-898055D01*
X+5702940Y-898055D02*
X+5708020Y-898055D01*
X+5728340Y-898055D02*
X+5738500Y-898055D01*
X+5581020Y-892975D02*
X+5591180Y-892975D01*
X+5657220Y-892975D02*
X+5667380Y-892975D01*
X+5687700Y-892975D02*
X+5697860Y-892975D01*
X+5702940Y-892975D02*
X+5713100Y-892975D01*
X+5728340Y-892975D02*
X+5738500Y-892975D01*
X+5581020Y-887895D02*
X+5591180Y-887895D01*
X+5657220Y-887895D02*
X+5667380Y-887895D01*
X+5687700Y-887895D02*
X+5697860Y-887895D01*
X+5708020Y-887895D02*
X+5713100Y-887895D01*
X+5728340Y-887895D02*
X+5738500Y-887895D01*
X+5581020Y-882815D02*
X+5591180Y-882815D01*
X+5621660Y-882815D02*
X+5667380Y-882815D01*
X+5687700Y-882815D02*
X+5697860Y-882815D01*
X+5708020Y-882815D02*
X+5718180Y-882815D01*
X+5728340Y-882815D02*
X+5738500Y-882815D01*
X+5581020Y-877735D02*
X+5591180Y-877735D01*
X+5621660Y-877735D02*
X+5667380Y-877735D01*
X+5687700Y-877735D02*
X+5697860Y-877735D01*
X+5713100Y-877735D02*
X+5718180Y-877735D01*
X+5728340Y-877735D02*
X+5738500Y-877735D01*
X+5581020Y-872655D02*
X+5591180Y-872655D01*
X+5657220Y-872655D02*
X+5667380Y-872655D01*
X+5687700Y-872655D02*
X+5697860Y-872655D01*
X+5713100Y-872655D02*
X+5723260Y-872655D01*
X+5728340Y-872655D02*
X+5738500Y-872655D01*
X+5581020Y-867575D02*
X+5591180Y-867575D01*
X+5657220Y-867575D02*
X+5667380Y-867575D01*
X+5687700Y-867575D02*
X+5697860Y-867575D01*
X+5718180Y-867575D02*
X+5723260Y-867575D01*
X+5728340Y-867575D02*
X+5738500Y-867575D01*
X+5581020Y-862495D02*
X+5591180Y-862495D01*
X+5657220Y-862495D02*
X+5667380Y-862495D01*
X+5687700Y-862495D02*
X+5697860Y-862495D01*
X+5718180Y-862495D02*
X+5738500Y-862495D01*
X+5555620Y-857415D02*
X+5616580Y-857415D01*
X+5621660Y-857415D02*
X+5667380Y-857415D01*
X+5687700Y-857415D02*
X+5697860Y-857415D01*
X+5718180Y-857415D02*
X+5738500Y-857415D01*
X+5555620Y-852335D02*
X+5616580Y-852335D01*
X+5621660Y-852335D02*
X+5667380Y-852335D01*
X+5687700Y-852335D02*
X+5697860Y-852335D01*
X+5723260Y-852335D02*
X+5738500Y-852335D01*
X+5479839Y-1024895D02*
X+5489999Y-1024895D01*
X+5520479Y-1024895D02*
X+5530639Y-1024895D01*
X+5561119Y-1024895D02*
X+5571279Y-1024895D01*
X+5596679Y-1024895D02*
X+5632239Y-1024895D01*
X+5662719Y-1024895D02*
X+5693199Y-1024895D01*
X+5698279Y-1024895D02*
X+5743999Y-1024895D01*
X+5479839Y-1019815D02*
X+5489999Y-1019815D01*
X+5520479Y-1019815D02*
X+5530639Y-1019815D01*
X+5561119Y-1019815D02*
X+5571279Y-1019815D01*
X+5586519Y-1019815D02*
X+5642399Y-1019815D01*
X+5662719Y-1019815D02*
X+5693199Y-1019815D01*
X+5698279Y-1019815D02*
X+5743999Y-1019815D01*
X+5479839Y-1014735D02*
X+5489999Y-1014735D01*
X+5520479Y-1014735D02*
X+5530639Y-1014735D01*
X+5561119Y-1014735D02*
X+5571279Y-1014735D01*
X+5586519Y-1014735D02*
X+5596679Y-1014735D01*
X+5627159Y-1014735D02*
X+5647479Y-1014735D01*
X+5672879Y-1014735D02*
X+5683039Y-1014735D01*
X+5733839Y-1014735D02*
X+5743999Y-1014735D01*
X+5479839Y-1009655D02*
X+5489999Y-1009655D01*
X+5520479Y-1009655D02*
X+5530639Y-1009655D01*
X+5561119Y-1009655D02*
X+5571279Y-1009655D01*
X+5586519Y-1009655D02*
X+5596679Y-1009655D01*
X+5637319Y-1009655D02*
X+5647479Y-1009655D01*
X+5672879Y-1009655D02*
X+5683039Y-1009655D01*
X+5733839Y-1009655D02*
X+5743999Y-1009655D01*
X+5479839Y-1004575D02*
X+5489999Y-1004575D01*
X+5520479Y-1004575D02*
X+5530639Y-1004575D01*
X+5561119Y-1004575D02*
X+5571279Y-1004575D01*
X+5586519Y-1004575D02*
X+5596679Y-1004575D01*
X+5637319Y-1004575D02*
X+5652559Y-1004575D01*
X+5672879Y-1004575D02*
X+5683039Y-1004575D01*
X+5733839Y-1004575D02*
X+5743999Y-1004575D01*
X+5479839Y-999495D02*
X+5489999Y-999495D01*
X+5520479Y-999495D02*
X+5530639Y-999495D01*
X+5561119Y-999495D02*
X+5571279Y-999495D01*
X+5586519Y-999495D02*
X+5616999Y-999495D01*
X+5642399Y-999495D02*
X+5652559Y-999495D01*
X+5672879Y-999495D02*
X+5683039Y-999495D01*
X+5733839Y-999495D02*
X+5743999Y-999495D01*
X+5479839Y-994415D02*
X+5489999Y-994415D01*
X+5520479Y-994415D02*
X+5530639Y-994415D01*
X+5561119Y-994415D02*
X+5571279Y-994415D01*
X+5586519Y-994415D02*
X+5616999Y-994415D01*
X+5642399Y-994415D02*
X+5652559Y-994415D01*
X+5672879Y-994415D02*
X+5683039Y-994415D01*
X+5733839Y-994415D02*
X+5743999Y-994415D01*
X+5479839Y-989335D02*
X+5489999Y-989335D01*
X+5520479Y-989335D02*
X+5571279Y-989335D01*
X+5642399Y-989335D02*
X+5652559Y-989335D01*
X+5672879Y-989335D02*
X+5683039Y-989335D01*
X+5733839Y-989335D02*
X+5743999Y-989335D01*
X+5479839Y-984255D02*
X+5489999Y-984255D01*
X+5520479Y-984255D02*
X+5571279Y-984255D01*
X+5642399Y-984255D02*
X+5652559Y-984255D01*
X+5672879Y-984255D02*
X+5683039Y-984255D01*
X+5733839Y-984255D02*
X+5743999Y-984255D01*
X+5479839Y-979175D02*
X+5489999Y-979175D01*
X+5520479Y-979175D02*
X+5530639Y-979175D01*
X+5561119Y-979175D02*
X+5571279Y-979175D01*
X+5637319Y-979175D02*
X+5652559Y-979175D01*
X+5672879Y-979175D02*
X+5683039Y-979175D01*
X+5733839Y-979175D02*
X+5743999Y-979175D01*
X+5479839Y-974095D02*
X+5489999Y-974095D01*
X+5520479Y-974095D02*
X+5530639Y-974095D01*
X+5561119Y-974095D02*
X+5571279Y-974095D01*
X+5637319Y-974095D02*
X+5647479Y-974095D01*
X+5672879Y-974095D02*
X+5683039Y-974095D01*
X+5733839Y-974095D02*
X+5743999Y-974095D01*
X+5479839Y-969015D02*
X+5489999Y-969015D01*
X+5520479Y-969015D02*
X+5530639Y-969015D01*
X+5561119Y-969015D02*
X+5571279Y-969015D01*
X+5586519Y-969015D02*
X+5596679Y-969015D01*
X+5627159Y-969015D02*
X+5647479Y-969015D01*
X+5672879Y-969015D02*
X+5683039Y-969015D01*
X+5733839Y-969015D02*
X+5743999Y-969015D01*
X+5454439Y-963935D02*
X+5515399Y-963935D01*
X+5520479Y-963935D02*
X+5530639Y-963935D01*
X+5561119Y-963935D02*
X+5571279Y-963935D01*
X+5586519Y-963935D02*
X+5642399Y-963935D01*
X+5662719Y-963935D02*
X+5693199Y-963935D01*
X+5733839Y-963935D02*
X+5743999Y-963935D01*
X+5454439Y-958855D02*
X+5515399Y-958855D01*
X+5520479Y-958855D02*
X+5530639Y-958855D01*
X+5561119Y-958855D02*
X+5571279Y-958855D01*
X+5596679Y-958855D02*
X+5632239Y-958855D01*
X+5662719Y-958855D02*
X+5693199Y-958855D01*
X+5733839Y-958855D02*
X+5743999Y-958855D01*
X+4815505Y-1043740D02*
X+4815505Y-998020D01*
X+4815505Y-987860D02*
X+4815505Y-942140D01*
X+4815505Y-926900D02*
X+4815505Y-886260D01*
X+4815505Y-845620D02*
X+4815505Y-825300D01*
X+4820585Y-1043740D02*
X+4820585Y-998020D01*
X+4820585Y-987860D02*
X+4820585Y-942140D01*
X+4820585Y-926900D02*
X+4820585Y-881180D01*
X+4820585Y-855780D02*
X+4820585Y-815140D01*
X+4825665Y-1043740D02*
X+4825665Y-1033580D01*
X+4825665Y-987860D02*
X+4825665Y-977700D01*
X+4825665Y-926900D02*
X+4825665Y-916740D01*
X+4825665Y-891340D02*
X+4825665Y-876100D01*
X+4825665Y-855780D02*
X+4825665Y-845620D01*
X+4825665Y-825300D02*
X+4825665Y-815140D01*
X+4830745Y-1043740D02*
X+4830745Y-1033580D01*
X+4830745Y-987860D02*
X+4830745Y-977700D01*
X+4830745Y-926900D02*
X+4830745Y-916740D01*
X+4830745Y-881180D02*
X+4830745Y-871020D01*
X+4830745Y-860860D02*
X+4830745Y-850700D01*
X+4830745Y-820220D02*
X+4830745Y-810060D01*
X+4835825Y-1043740D02*
X+4835825Y-1033580D01*
X+4835825Y-987860D02*
X+4835825Y-977700D01*
X+4835825Y-926900D02*
X+4835825Y-916740D01*
X+4835825Y-881180D02*
X+4835825Y-865940D01*
X+4835825Y-860860D02*
X+4835825Y-850700D01*
X+4835825Y-820220D02*
X+4835825Y-810060D01*
X+4840905Y-1043740D02*
X+4840905Y-1033580D01*
X+4840905Y-987860D02*
X+4840905Y-977700D01*
X+4840905Y-926900D02*
X+4840905Y-916740D01*
X+4840905Y-876100D02*
X+4840905Y-865940D01*
X+4840905Y-860860D02*
X+4840905Y-850700D01*
X+4840905Y-820220D02*
X+4840905Y-810060D01*
X+4845985Y-1043740D02*
X+4845985Y-1033580D01*
X+4845985Y-987860D02*
X+4845985Y-977700D01*
X+4845985Y-926900D02*
X+4845985Y-916740D01*
X+4845985Y-876100D02*
X+4845985Y-865940D01*
X+4845985Y-860860D02*
X+4845985Y-850700D01*
X+4845985Y-820220D02*
X+4845985Y-810060D01*
X+4851065Y-1043740D02*
X+4851065Y-1033580D01*
X+4851065Y-987860D02*
X+4851065Y-942140D01*
X+4851065Y-926900D02*
X+4851065Y-916740D01*
X+4851065Y-876100D02*
X+4851065Y-865940D01*
X+4851065Y-860860D02*
X+4851065Y-850700D01*
X+4851065Y-820220D02*
X+4851065Y-810060D01*
X+4856145Y-1043740D02*
X+4856145Y-1033580D01*
X+4856145Y-987860D02*
X+4856145Y-942140D01*
X+4856145Y-926900D02*
X+4856145Y-916740D01*
X+4856145Y-876100D02*
X+4856145Y-865940D01*
X+4856145Y-860860D02*
X+4856145Y-850700D01*
X+4856145Y-820220D02*
X+4856145Y-810060D01*
X+4861225Y-1043740D02*
X+4861225Y-1033580D01*
X+4861225Y-987860D02*
X+4861225Y-977700D01*
X+4861225Y-926900D02*
X+4861225Y-916740D01*
X+4861225Y-881180D02*
X+4861225Y-865940D01*
X+4861225Y-860860D02*
X+4861225Y-850700D01*
X+4861225Y-820220D02*
X+4861225Y-810060D01*
X+4866305Y-1043740D02*
X+4866305Y-1033580D01*
X+4866305Y-987860D02*
X+4866305Y-977700D01*
X+4866305Y-926900D02*
X+4866305Y-916740D01*
X+4866305Y-881180D02*
X+4866305Y-871020D01*
X+4866305Y-860860D02*
X+4866305Y-850700D01*
X+4866305Y-820220D02*
X+4866305Y-810060D01*
X+4871385Y-1043740D02*
X+4871385Y-1033580D01*
X+4871385Y-987860D02*
X+4871385Y-977700D01*
X+4871385Y-926900D02*
X+4871385Y-916740D01*
X+4871385Y-891340D02*
X+4871385Y-871020D01*
X+4871385Y-855780D02*
X+4871385Y-845620D01*
X+4871385Y-825300D02*
X+4871385Y-815140D01*
X+4876465Y-1043740D02*
X+4876465Y-1033580D01*
X+4876465Y-987860D02*
X+4876465Y-942140D01*
X+4876465Y-926900D02*
X+4876465Y-881180D01*
X+4876465Y-855780D02*
X+4876465Y-815140D01*
X+4881545Y-1043740D02*
X+4881545Y-1033580D01*
X+4881545Y-987860D02*
X+4881545Y-942140D01*
X+4881545Y-926900D02*
X+4881545Y-886260D01*
X+4881545Y-845620D02*
X+4881545Y-825300D01*
X+4185505Y-1043740D02*
X+4185505Y-998020D01*
X+4185505Y-987860D02*
X+4185505Y-942140D01*
X+4185505Y-926900D02*
X+4185505Y-886260D01*
X+4185505Y-855780D02*
X+4185505Y-815140D01*
X+4190585Y-1043740D02*
X+4190585Y-998020D01*
X+4190585Y-987860D02*
X+4190585Y-942140D01*
X+4190585Y-926900D02*
X+4190585Y-881180D01*
X+4190585Y-855780D02*
X+4190585Y-815140D01*
X+4195665Y-1043740D02*
X+4195665Y-1033580D01*
X+4195665Y-987860D02*
X+4195665Y-977700D01*
X+4195665Y-926900D02*
X+4195665Y-916740D01*
X+4195665Y-891340D02*
X+4195665Y-876100D01*
X+4195665Y-840540D02*
X+4195665Y-830380D01*
X+4200745Y-1043740D02*
X+4200745Y-1033580D01*
X+4200745Y-987860D02*
X+4200745Y-977700D01*
X+4200745Y-926900D02*
X+4200745Y-916740D01*
X+4200745Y-881180D02*
X+4200745Y-871020D01*
X+4200745Y-840540D02*
X+4200745Y-830380D01*
X+4205825Y-1043740D02*
X+4205825Y-1033580D01*
X+4205825Y-987860D02*
X+4205825Y-977700D01*
X+4205825Y-926900D02*
X+4205825Y-916740D01*
X+4205825Y-881180D02*
X+4205825Y-865940D01*
X+4205825Y-840540D02*
X+4205825Y-830380D01*
X+4210905Y-1043740D02*
X+4210905Y-1033580D01*
X+4210905Y-987860D02*
X+4210905Y-977700D01*
X+4210905Y-926900D02*
X+4210905Y-916740D01*
X+4210905Y-876100D02*
X+4210905Y-865940D01*
X+4210905Y-840540D02*
X+4210905Y-830380D01*
X+4215985Y-1043740D02*
X+4215985Y-1033580D01*
X+4215985Y-987860D02*
X+4215985Y-977700D01*
X+4215985Y-926900D02*
X+4215985Y-916740D01*
X+4215985Y-876100D02*
X+4215985Y-865940D01*
X+4215985Y-840540D02*
X+4215985Y-830380D01*
X+4221065Y-1043740D02*
X+4221065Y-1033580D01*
X+4221065Y-987860D02*
X+4221065Y-942140D01*
X+4221065Y-926900D02*
X+4221065Y-916740D01*
X+4221065Y-876100D02*
X+4221065Y-865940D01*
X+4221065Y-840540D02*
X+4221065Y-830380D01*
X+4226145Y-1043740D02*
X+4226145Y-1033580D01*
X+4226145Y-987860D02*
X+4226145Y-942140D01*
X+4226145Y-926900D02*
X+4226145Y-916740D01*
X+4226145Y-876100D02*
X+4226145Y-865940D01*
X+4226145Y-840540D02*
X+4226145Y-830380D01*
X+4231225Y-1043740D02*
X+4231225Y-1033580D01*
X+4231225Y-987860D02*
X+4231225Y-977700D01*
X+4231225Y-926900D02*
X+4231225Y-916740D01*
X+4231225Y-881180D02*
X+4231225Y-865940D01*
X+4231225Y-840540D02*
X+4231225Y-830380D01*
X+4236305Y-1043740D02*
X+4236305Y-1033580D01*
X+4236305Y-987860D02*
X+4236305Y-977700D01*
X+4236305Y-926900D02*
X+4236305Y-916740D01*
X+4236305Y-881180D02*
X+4236305Y-871020D01*
X+4236305Y-855780D02*
X+4236305Y-830380D01*
X+4241385Y-1043740D02*
X+4241385Y-1033580D01*
X+4241385Y-987860D02*
X+4241385Y-977700D01*
X+4241385Y-926900D02*
X+4241385Y-916740D01*
X+4241385Y-891340D02*
X+4241385Y-871020D01*
X+4241385Y-855780D02*
X+4241385Y-830380D01*
X+4246465Y-1043740D02*
X+4246465Y-1033580D01*
X+4246465Y-987860D02*
X+4246465Y-942140D01*
X+4246465Y-926900D02*
X+4246465Y-881180D01*
X+4246465Y-840540D02*
X+4246465Y-830380D01*
X+4251545Y-1043740D02*
X+4251545Y-1033580D01*
X+4251545Y-987860D02*
X+4251545Y-942140D01*
X+4251545Y-926900D02*
X+4251545Y-886260D01*
X+4251545Y-840540D02*
X+4251545Y-830380D01*
X+3585505Y-1023740D02*
X+3585505Y-978020D01*
X+3585505Y-967860D02*
X+3585505Y-922140D01*
X+3585505Y-906900D02*
X+3585505Y-866260D01*
X+3585505Y-835780D02*
X+3585505Y-790060D01*
X+3590585Y-1023740D02*
X+3590585Y-978020D01*
X+3590585Y-967860D02*
X+3590585Y-922140D01*
X+3590585Y-906900D02*
X+3590585Y-861180D01*
X+3590585Y-835780D02*
X+3590585Y-790060D01*
X+3595665Y-1023740D02*
X+3595665Y-1013580D01*
X+3595665Y-967860D02*
X+3595665Y-957700D01*
X+3595665Y-906900D02*
X+3595665Y-896740D01*
X+3595665Y-871340D02*
X+3595665Y-856100D01*
X+3595665Y-835780D02*
X+3595665Y-825620D01*
X+3600745Y-1023740D02*
X+3600745Y-1013580D01*
X+3600745Y-967860D02*
X+3600745Y-957700D01*
X+3600745Y-906900D02*
X+3600745Y-896740D01*
X+3600745Y-861180D02*
X+3600745Y-851020D01*
X+3600745Y-830700D02*
X+3600745Y-820540D01*
X+3605825Y-1023740D02*
X+3605825Y-1013580D01*
X+3605825Y-967860D02*
X+3605825Y-957700D01*
X+3605825Y-906900D02*
X+3605825Y-896740D01*
X+3605825Y-861180D02*
X+3605825Y-845940D01*
X+3605825Y-825620D02*
X+3605825Y-815460D01*
X+3610905Y-1023740D02*
X+3610905Y-1013580D01*
X+3610905Y-967860D02*
X+3610905Y-957700D01*
X+3610905Y-906900D02*
X+3610905Y-896740D01*
X+3610905Y-856100D02*
X+3610905Y-845940D01*
X+3610905Y-820540D02*
X+3610905Y-810380D01*
X+3615985Y-1023740D02*
X+3615985Y-1013580D01*
X+3615985Y-967860D02*
X+3615985Y-957700D01*
X+3615985Y-906900D02*
X+3615985Y-896740D01*
X+3615985Y-856100D02*
X+3615985Y-845940D01*
X+3615985Y-815460D02*
X+3615985Y-805300D01*
X+3621065Y-1023740D02*
X+3621065Y-1013580D01*
X+3621065Y-967860D02*
X+3621065Y-922140D01*
X+3621065Y-906900D02*
X+3621065Y-896740D01*
X+3621065Y-856100D02*
X+3621065Y-845940D01*
X+3621065Y-810380D02*
X+3621065Y-800220D01*
X+3626145Y-1023740D02*
X+3626145Y-1013580D01*
X+3626145Y-967860D02*
X+3626145Y-922140D01*
X+3626145Y-906900D02*
X+3626145Y-896740D01*
X+3626145Y-856100D02*
X+3626145Y-845940D01*
X+3626145Y-805300D02*
X+3626145Y-795140D01*
X+3631225Y-1023740D02*
X+3631225Y-1013580D01*
X+3631225Y-967860D02*
X+3631225Y-957700D01*
X+3631225Y-906900D02*
X+3631225Y-896740D01*
X+3631225Y-861180D02*
X+3631225Y-845940D01*
X+3631225Y-805300D02*
X+3631225Y-795140D01*
X+3636305Y-1023740D02*
X+3636305Y-1013580D01*
X+3636305Y-967860D02*
X+3636305Y-957700D01*
X+3636305Y-906900D02*
X+3636305Y-896740D01*
X+3636305Y-861180D02*
X+3636305Y-851020D01*
X+3636305Y-805300D02*
X+3636305Y-795140D01*
X+3641385Y-1023740D02*
X+3641385Y-1013580D01*
X+3641385Y-967860D02*
X+3641385Y-957700D01*
X+3641385Y-906900D02*
X+3641385Y-896740D01*
X+3641385Y-871340D02*
X+3641385Y-851020D01*
X+3641385Y-835780D02*
X+3641385Y-830700D01*
X+3641385Y-810380D02*
X+3641385Y-795140D01*
X+3646465Y-1023740D02*
X+3646465Y-1013580D01*
X+3646465Y-967860D02*
X+3646465Y-922140D01*
X+3646465Y-906900D02*
X+3646465Y-861180D01*
X+3646465Y-835780D02*
X+3646465Y-800220D01*
X+3651545Y-1023740D02*
X+3651545Y-1013580D01*
X+3651545Y-967860D02*
X+3651545Y-922140D01*
X+3651545Y-906900D02*
X+3651545Y-866260D01*
X+3651545Y-830700D02*
X+3651545Y-805300D01*
X+2995505Y-1023740D02*
X+2995505Y-978020D01*
X+2995505Y-967860D02*
X+2995505Y-922140D01*
X+2995505Y-906900D02*
X+2995505Y-866260D01*
X+2995505Y-830700D02*
X+2995505Y-800220D01*
X+3000585Y-1023740D02*
X+3000585Y-978020D01*
X+3000585Y-967860D02*
X+3000585Y-922140D01*
X+3000585Y-906900D02*
X+3000585Y-861180D01*
X+3000585Y-835780D02*
X+3000585Y-795140D01*
X+3005665Y-1023740D02*
X+3005665Y-1013580D01*
X+3005665Y-967860D02*
X+3005665Y-957700D01*
X+3005665Y-906900D02*
X+3005665Y-896740D01*
X+3005665Y-871340D02*
X+3005665Y-856100D01*
X+3005665Y-835780D02*
X+3005665Y-830700D01*
X+3005665Y-805300D02*
X+3005665Y-790060D01*
X+3010745Y-1023740D02*
X+3010745Y-1013580D01*
X+3010745Y-967860D02*
X+3010745Y-957700D01*
X+3010745Y-906900D02*
X+3010745Y-896740D01*
X+3010745Y-861180D02*
X+3010745Y-851020D01*
X+3010745Y-800220D02*
X+3010745Y-790060D01*
X+3015825Y-1023740D02*
X+3015825Y-1013580D01*
X+3015825Y-967860D02*
X+3015825Y-957700D01*
X+3015825Y-906900D02*
X+3015825Y-896740D01*
X+3015825Y-861180D02*
X+3015825Y-845940D01*
X+3015825Y-800220D02*
X+3015825Y-790060D01*
X+3020905Y-1023740D02*
X+3020905Y-1013580D01*
X+3020905Y-967860D02*
X+3020905Y-957700D01*
X+3020905Y-906900D02*
X+3020905Y-896740D01*
X+3020905Y-856100D02*
X+3020905Y-845940D01*
X+3020905Y-805300D02*
X+3020905Y-790060D01*
X+3025985Y-1023740D02*
X+3025985Y-1013580D01*
X+3025985Y-967860D02*
X+3025985Y-957700D01*
X+3025985Y-906900D02*
X+3025985Y-896740D01*
X+3025985Y-856100D02*
X+3025985Y-845940D01*
X+3025985Y-820540D02*
X+3025985Y-795140D01*
X+3031065Y-1023740D02*
X+3031065Y-1013580D01*
X+3031065Y-967860D02*
X+3031065Y-922140D01*
X+3031065Y-906900D02*
X+3031065Y-896740D01*
X+3031065Y-856100D02*
X+3031065Y-845940D01*
X+3031065Y-820540D02*
X+3031065Y-800220D01*
X+3036145Y-1023740D02*
X+3036145Y-1013580D01*
X+3036145Y-967860D02*
X+3036145Y-922140D01*
X+3036145Y-906900D02*
X+3036145Y-896740D01*
X+3036145Y-856100D02*
X+3036145Y-845940D01*
X+3036145Y-805300D02*
X+3036145Y-795140D01*
X+3041225Y-1023740D02*
X+3041225Y-1013580D01*
X+3041225Y-967860D02*
X+3041225Y-957700D01*
X+3041225Y-906900D02*
X+3041225Y-896740D01*
X+3041225Y-861180D02*
X+3041225Y-845940D01*
X+3041225Y-800220D02*
X+3041225Y-790060D01*
X+3046305Y-1023740D02*
X+3046305Y-1013580D01*
X+3046305Y-967860D02*
X+3046305Y-957700D01*
X+3046305Y-906900D02*
X+3046305Y-896740D01*
X+3046305Y-861180D02*
X+3046305Y-851020D01*
X+3046305Y-800220D02*
X+3046305Y-790060D01*
X+3051385Y-1023740D02*
X+3051385Y-1013580D01*
X+3051385Y-967860D02*
X+3051385Y-957700D01*
X+3051385Y-906900D02*
X+3051385Y-896740D01*
X+3051385Y-871340D02*
X+3051385Y-851020D01*
X+3051385Y-835780D02*
X+3051385Y-830700D01*
X+3051385Y-805300D02*
X+3051385Y-790060D01*
X+3056465Y-1023740D02*
X+3056465Y-1013580D01*
X+3056465Y-967860D02*
X+3056465Y-922140D01*
X+3056465Y-906900D02*
X+3056465Y-861180D01*
X+3056465Y-835780D02*
X+3056465Y-795140D01*
X+3061545Y-1023740D02*
X+3061545Y-1013580D01*
X+3061545Y-967860D02*
X+3061545Y-922140D01*
X+3061545Y-906900D02*
X+3061545Y-866260D01*
X+3061545Y-830700D02*
X+3061545Y-800220D01*
X+2893469Y-3366984D02*
X+2918869Y-3366984D01*
X+2969669Y-3366984D02*
X+2989989Y-3366984D01*
X+3025549Y-3366984D02*
X+3086509Y-3366984D01*
X+3122069Y-3366984D02*
X+3142389Y-3366984D01*
X+3198269Y-3366984D02*
X+3223669Y-3366984D01*
X+3274469Y-3366984D02*
X+3294789Y-3366984D01*
X+3335429Y-3366984D02*
X+3360829Y-3366984D01*
X+3472589Y-3366984D02*
X+3513229Y-3366984D01*
X+3564029Y-3366984D02*
X+3579269Y-3366984D01*
X+3609749Y-3366984D02*
X+3624989Y-3366984D01*
X+3640229Y-3366984D02*
X+3660549Y-3366984D01*
X+3706269Y-3366984D02*
X+3721509Y-3366984D01*
X+3731669Y-3366984D02*
X+3757069Y-3366984D01*
X+3818029Y-3366984D02*
X+3848509Y-3366984D01*
X+3894229Y-3366984D02*
X+3909469Y-3366984D01*
X+3975509Y-3366984D02*
X+3990749Y-3366984D01*
X+4077109Y-3366984D02*
X+4117749Y-3366984D01*
X+4178709Y-3366984D02*
X+4214269Y-3366984D01*
X+4249829Y-3366984D02*
X+4265069Y-3366984D01*
X+4280309Y-3366984D02*
X+4300629Y-3366984D01*
X+4356509Y-3366984D02*
X+4417469Y-3366984D01*
X+4503829Y-3366984D02*
X+4519069Y-3366984D01*
X+4585109Y-3366984D02*
X+4600349Y-3366984D01*
X+4651149Y-3366984D02*
X+4696869Y-3366984D01*
X+4752749Y-3366984D02*
X+4793389Y-3366984D01*
X+2883309Y-3361904D02*
X+2929029Y-3361904D01*
X+2969669Y-3361904D02*
X+2989989Y-3361904D01*
X+3025549Y-3361904D02*
X+3086509Y-3361904D01*
X+3122069Y-3361904D02*
X+3142389Y-3361904D01*
X+3188109Y-3361904D02*
X+3233829Y-3361904D01*
X+3274469Y-3361904D02*
X+3294789Y-3361904D01*
X+3335429Y-3361904D02*
X+3360829Y-3361904D01*
X+3462429Y-3361904D02*
X+3523389Y-3361904D01*
X+3564029Y-3361904D02*
X+3579269Y-3361904D01*
X+3609749Y-3361904D02*
X+3624989Y-3361904D01*
X+3630069Y-3361904D02*
X+3670709Y-3361904D01*
X+3706269Y-3361904D02*
X+3721509Y-3361904D01*
X+3726589Y-3361904D02*
X+3767229Y-3361904D01*
X+3812949Y-3361904D02*
X+3853589Y-3361904D01*
X+3894229Y-3361904D02*
X+3909469Y-3361904D01*
X+3975509Y-3361904D02*
X+3990749Y-3361904D01*
X+4066949Y-3361904D02*
X+4127909Y-3361904D01*
X+4168549Y-3361904D02*
X+4224429Y-3361904D01*
X+4249829Y-3361904D02*
X+4265069Y-3361904D01*
X+4270149Y-3361904D02*
X+4310789Y-3361904D01*
X+4346349Y-3361904D02*
X+4417469Y-3361904D01*
X+4503829Y-3361904D02*
X+4519069Y-3361904D01*
X+4585109Y-3361904D02*
X+4600349Y-3361904D01*
X+4640989Y-3361904D02*
X+4712109Y-3361904D01*
X+4737509Y-3361904D02*
X+4803549Y-3361904D01*
X+2878229Y-3356824D02*
X+2934109Y-3356824D01*
X+2969669Y-3356824D02*
X+2989989Y-3356824D01*
X+3025549Y-3356824D02*
X+3086509Y-3356824D01*
X+3122069Y-3356824D02*
X+3142389Y-3356824D01*
X+3183029Y-3356824D02*
X+3238909Y-3356824D01*
X+3274469Y-3356824D02*
X+3294789Y-3356824D01*
X+3330349Y-3356824D02*
X+3365909Y-3356824D01*
X+3462429Y-3356824D02*
X+3528469Y-3356824D01*
X+3564029Y-3356824D02*
X+3579269Y-3356824D01*
X+3609749Y-3356824D02*
X+3670709Y-3356824D01*
X+3706269Y-3356824D02*
X+3772309Y-3356824D01*
X+3807869Y-3356824D02*
X+3858669Y-3356824D01*
X+3894229Y-3356824D02*
X+3909469Y-3356824D01*
X+3975509Y-3356824D02*
X+3990749Y-3356824D01*
X+4066949Y-3356824D02*
X+4132989Y-3356824D01*
X+4163469Y-3356824D02*
X+4224429Y-3356824D01*
X+4249829Y-3356824D02*
X+4310789Y-3356824D01*
X+4341269Y-3356824D02*
X+4417469Y-3356824D01*
X+4503829Y-3356824D02*
X+4519069Y-3356824D01*
X+4585109Y-3356824D02*
X+4600349Y-3356824D01*
X+4635909Y-3356824D02*
X+4712109Y-3356824D01*
X+4732429Y-3356824D02*
X+4813709Y-3356824D01*
X+2873149Y-3351744D02*
X+2893469Y-3351744D01*
X+2918869Y-3351744D02*
X+2939189Y-3351744D01*
X+2969669Y-3351744D02*
X+2989989Y-3351744D01*
X+3045869Y-3351744D02*
X+3061109Y-3351744D01*
X+3122069Y-3351744D02*
X+3142389Y-3351744D01*
X+3177949Y-3351744D02*
X+3198269Y-3351744D01*
X+3223669Y-3351744D02*
X+3243989Y-3351744D01*
X+3274469Y-3351744D02*
X+3294789Y-3351744D01*
X+3330349Y-3351744D02*
X+3345589Y-3351744D01*
X+3350669Y-3351744D02*
X+3365909Y-3351744D01*
X+3462429Y-3351744D02*
X+3472589Y-3351744D01*
X+3508149Y-3351744D02*
X+3533549Y-3351744D01*
X+3564029Y-3351744D02*
X+3579269Y-3351744D01*
X+3609749Y-3351744D02*
X+3635149Y-3351744D01*
X+3655469Y-3351744D02*
X+3675789Y-3351744D01*
X+3706269Y-3351744D02*
X+3731669Y-3351744D01*
X+3751989Y-3351744D02*
X+3772309Y-3351744D01*
X+3802789Y-3351744D02*
X+3823109Y-3351744D01*
X+3843429Y-3351744D02*
X+3863749Y-3351744D01*
X+3894229Y-3351744D02*
X+3909469Y-3351744D01*
X+3975509Y-3351744D02*
X+3990749Y-3351744D01*
X+4066949Y-3351744D02*
X+4077109Y-3351744D01*
X+4112669Y-3351744D02*
X+4138069Y-3351744D01*
X+4158389Y-3351744D02*
X+4178709Y-3351744D01*
X+4214269Y-3351744D02*
X+4224429Y-3351744D01*
X+4249829Y-3351744D02*
X+4275229Y-3351744D01*
X+4295549Y-3351744D02*
X+4315869Y-3351744D01*
X+4336189Y-3351744D02*
X+4356509Y-3351744D01*
X+4402229Y-3351744D02*
X+4417469Y-3351744D01*
X+4503829Y-3351744D02*
X+4519069Y-3351744D01*
X+4585109Y-3351744D02*
X+4600349Y-3351744D01*
X+4630829Y-3351744D02*
X+4651149Y-3351744D01*
X+4691789Y-3351744D02*
X+4712109Y-3351744D01*
X+4732429Y-3351744D02*
X+4752749Y-3351744D01*
X+4788309Y-3351744D02*
X+4818789Y-3351744D01*
X+2873149Y-3346664D02*
X+2888389Y-3346664D01*
X+2923949Y-3346664D02*
X+2939189Y-3346664D01*
X+3045869Y-3346664D02*
X+3061109Y-3346664D01*
X+3177949Y-3346664D02*
X+3193189Y-3346664D01*
X+3228749Y-3346664D02*
X+3243989Y-3346664D01*
X+3330349Y-3346664D02*
X+3345589Y-3346664D01*
X+3350669Y-3346664D02*
X+3365909Y-3346664D01*
X+3518309Y-3346664D02*
X+3533549Y-3346664D01*
X+3564029Y-3346664D02*
X+3579269Y-3346664D01*
X+3609749Y-3346664D02*
X+3630069Y-3346664D01*
X+3660549Y-3346664D02*
X+3675789Y-3346664D01*
X+3706269Y-3346664D02*
X+3721509Y-3346664D01*
X+3757069Y-3346664D02*
X+3772309Y-3346664D01*
X+3802789Y-3346664D02*
X+3818029Y-3346664D01*
X+3848509Y-3346664D02*
X+3863749Y-3346664D01*
X+3894229Y-3346664D02*
X+3909469Y-3346664D01*
X+3975509Y-3346664D02*
X+3990749Y-3346664D01*
X+4122829Y-3346664D02*
X+4138069Y-3346664D01*
X+4158389Y-3346664D02*
X+4173629Y-3346664D01*
X+4249829Y-3346664D02*
X+4265069Y-3346664D01*
X+4300629Y-3346664D02*
X+4315869Y-3346664D01*
X+4331109Y-3346664D02*
X+4351429Y-3346664D01*
X+4402229Y-3346664D02*
X+4417469Y-3346664D01*
X+4503829Y-3346664D02*
X+4519069Y-3346664D01*
X+4585109Y-3346664D02*
X+4600349Y-3346664D01*
X+4625749Y-3346664D02*
X+4646069Y-3346664D01*
X+4707029Y-3346664D02*
X+4712109Y-3346664D01*
X+4732429Y-3346664D02*
X+4747669Y-3346664D01*
X+4798469Y-3346664D02*
X+4818789Y-3346664D01*
X+2873149Y-3341584D02*
X+2888389Y-3341584D01*
X+2923949Y-3341584D02*
X+2939189Y-3341584D01*
X+3045869Y-3341584D02*
X+3061109Y-3341584D01*
X+3177949Y-3341584D02*
X+3193189Y-3341584D01*
X+3228749Y-3341584D02*
X+3243989Y-3341584D01*
X+3325269Y-3341584D02*
X+3340509Y-3341584D01*
X+3355749Y-3341584D02*
X+3370989Y-3341584D01*
X+3523389Y-3341584D02*
X+3538629Y-3341584D01*
X+3564029Y-3341584D02*
X+3579269Y-3341584D01*
X+3609749Y-3341584D02*
X+3624989Y-3341584D01*
X+3660549Y-3341584D02*
X+3675789Y-3341584D01*
X+3706269Y-3341584D02*
X+3721509Y-3341584D01*
X+3762149Y-3341584D02*
X+3777389Y-3341584D01*
X+3797709Y-3341584D02*
X+3812949Y-3341584D01*
X+3853589Y-3341584D02*
X+3868829Y-3341584D01*
X+3894229Y-3341584D02*
X+3909469Y-3341584D01*
X+3975509Y-3341584D02*
X+3990749Y-3341584D01*
X+4127909Y-3341584D02*
X+4143149Y-3341584D01*
X+4158389Y-3341584D02*
X+4173629Y-3341584D01*
X+4249829Y-3341584D02*
X+4265069Y-3341584D01*
X+4300629Y-3341584D02*
X+4315869Y-3341584D01*
X+4331109Y-3341584D02*
X+4346349Y-3341584D01*
X+4402229Y-3341584D02*
X+4417469Y-3341584D01*
X+4503829Y-3341584D02*
X+4519069Y-3341584D01*
X+4585109Y-3341584D02*
X+4600349Y-3341584D01*
X+4625749Y-3341584D02*
X+4640989Y-3341584D01*
X+4732429Y-3341584D02*
X+4747669Y-3341584D01*
X+4803549Y-3341584D02*
X+4823869Y-3341584D01*
X+2868069Y-3336504D02*
X+2883309Y-3336504D01*
X+2929029Y-3336504D02*
X+2944269Y-3336504D01*
X+3045869Y-3336504D02*
X+3061109Y-3336504D01*
X+3172869Y-3336504D02*
X+3188109Y-3336504D01*
X+3233829Y-3336504D02*
X+3249069Y-3336504D01*
X+3325269Y-3336504D02*
X+3340509Y-3336504D01*
X+3355749Y-3336504D02*
X+3370989Y-3336504D01*
X+3523389Y-3336504D02*
X+3538629Y-3336504D01*
X+3564029Y-3336504D02*
X+3579269Y-3336504D01*
X+3609749Y-3336504D02*
X+3624989Y-3336504D01*
X+3660549Y-3336504D02*
X+3675789Y-3336504D01*
X+3706269Y-3336504D02*
X+3721509Y-3336504D01*
X+3762149Y-3336504D02*
X+3777389Y-3336504D01*
X+3797709Y-3336504D02*
X+3812949Y-3336504D01*
X+3853589Y-3336504D02*
X+3868829Y-3336504D01*
X+3894229Y-3336504D02*
X+3909469Y-3336504D01*
X+3934869Y-3336504D02*
X+3950109Y-3336504D01*
X+3975509Y-3336504D02*
X+3990749Y-3336504D01*
X+4127909Y-3336504D02*
X+4143149Y-3336504D01*
X+4158389Y-3336504D02*
X+4178709Y-3336504D01*
X+4249829Y-3336504D02*
X+4265069Y-3336504D01*
X+4300629Y-3336504D02*
X+4315869Y-3336504D01*
X+4331109Y-3336504D02*
X+4346349Y-3336504D01*
X+4402229Y-3336504D02*
X+4417469Y-3336504D01*
X+4503829Y-3336504D02*
X+4519069Y-3336504D01*
X+4544469Y-3336504D02*
X+4559709Y-3336504D01*
X+4585109Y-3336504D02*
X+4600349Y-3336504D01*
X+4625749Y-3336504D02*
X+4640989Y-3336504D01*
X+4732429Y-3336504D02*
X+4747669Y-3336504D01*
X+4808629Y-3336504D02*
X+4823869Y-3336504D01*
X+2868069Y-3331424D02*
X+2883309Y-3331424D01*
X+2929029Y-3331424D02*
X+2944269Y-3331424D01*
X+3045869Y-3331424D02*
X+3061109Y-3331424D01*
X+3172869Y-3331424D02*
X+3188109Y-3331424D01*
X+3233829Y-3331424D02*
X+3249069Y-3331424D01*
X+3325269Y-3331424D02*
X+3340509Y-3331424D01*
X+3355749Y-3331424D02*
X+3370989Y-3331424D01*
X+3462429Y-3331424D02*
X+3538629Y-3331424D01*
X+3564029Y-3331424D02*
X+3579269Y-3331424D01*
X+3609749Y-3331424D02*
X+3624989Y-3331424D01*
X+3660549Y-3331424D02*
X+3675789Y-3331424D01*
X+3706269Y-3331424D02*
X+3721509Y-3331424D01*
X+3762149Y-3331424D02*
X+3777389Y-3331424D01*
X+3797709Y-3331424D02*
X+3812949Y-3331424D01*
X+3853589Y-3331424D02*
X+3868829Y-3331424D01*
X+3894229Y-3331424D02*
X+3909469Y-3331424D01*
X+3934869Y-3331424D02*
X+3950109Y-3331424D01*
X+3975509Y-3331424D02*
X+3990749Y-3331424D01*
X+4066949Y-3331424D02*
X+4143149Y-3331424D01*
X+4163469Y-3331424D02*
X+4199029Y-3331424D01*
X+4249829Y-3331424D02*
X+4265069Y-3331424D01*
X+4290469Y-3331424D02*
X+4315869Y-3331424D01*
X+4331109Y-3331424D02*
X+4346349Y-3331424D01*
X+4402229Y-3331424D02*
X+4417469Y-3331424D01*
X+4503829Y-3331424D02*
X+4519069Y-3331424D01*
X+4544469Y-3331424D02*
X+4559709Y-3331424D01*
X+4585109Y-3331424D02*
X+4600349Y-3331424D01*
X+4625749Y-3331424D02*
X+4640989Y-3331424D01*
X+4732429Y-3331424D02*
X+4747669Y-3331424D01*
X+4808629Y-3331424D02*
X+4828949Y-3331424D01*
X+2868069Y-3326344D02*
X+2883309Y-3326344D01*
X+2929029Y-3326344D02*
X+2944269Y-3326344D01*
X+3045869Y-3326344D02*
X+3061109Y-3326344D01*
X+3172869Y-3326344D02*
X+3188109Y-3326344D01*
X+3233829Y-3326344D02*
X+3249069Y-3326344D01*
X+3320189Y-3326344D02*
X+3335429Y-3326344D01*
X+3360829Y-3326344D02*
X+3376069Y-3326344D01*
X+3462429Y-3326344D02*
X+3538629Y-3326344D01*
X+3564029Y-3326344D02*
X+3579269Y-3326344D01*
X+3609749Y-3326344D02*
X+3624989Y-3326344D01*
X+3660549Y-3326344D02*
X+3675789Y-3326344D01*
X+3706269Y-3326344D02*
X+3721509Y-3326344D01*
X+3762149Y-3326344D02*
X+3777389Y-3326344D01*
X+3797709Y-3326344D02*
X+3812949Y-3326344D01*
X+3853589Y-3326344D02*
X+3868829Y-3326344D01*
X+3894229Y-3326344D02*
X+3909469Y-3326344D01*
X+3934869Y-3326344D02*
X+3950109Y-3326344D01*
X+3975509Y-3326344D02*
X+3990749Y-3326344D01*
X+4066949Y-3326344D02*
X+4143149Y-3326344D01*
X+4168549Y-3326344D02*
X+4214269Y-3326344D01*
X+4249829Y-3326344D02*
X+4310789Y-3326344D01*
X+4331109Y-3326344D02*
X+4351429Y-3326344D01*
X+4402229Y-3326344D02*
X+4417469Y-3326344D01*
X+4503829Y-3326344D02*
X+4519069Y-3326344D01*
X+4544469Y-3326344D02*
X+4559709Y-3326344D01*
X+4585109Y-3326344D02*
X+4600349Y-3326344D01*
X+4625749Y-3326344D02*
X+4646069Y-3326344D01*
X+4732429Y-3326344D02*
X+4778149Y-3326344D01*
X+4813709Y-3326344D02*
X+4828949Y-3326344D01*
X+2868069Y-3321264D02*
X+2883309Y-3321264D01*
X+2929029Y-3321264D02*
X+2944269Y-3321264D01*
X+3045869Y-3321264D02*
X+3061109Y-3321264D01*
X+3172869Y-3321264D02*
X+3188109Y-3321264D01*
X+3233829Y-3321264D02*
X+3249069Y-3321264D01*
X+3320189Y-3321264D02*
X+3335429Y-3321264D01*
X+3360829Y-3321264D02*
X+3376069Y-3321264D01*
X+3462429Y-3321264D02*
X+3538629Y-3321264D01*
X+3564029Y-3321264D02*
X+3579269Y-3321264D01*
X+3609749Y-3321264D02*
X+3624989Y-3321264D01*
X+3660549Y-3321264D02*
X+3675789Y-3321264D01*
X+3706269Y-3321264D02*
X+3721509Y-3321264D01*
X+3762149Y-3321264D02*
X+3777389Y-3321264D01*
X+3797709Y-3321264D02*
X+3812949Y-3321264D01*
X+3853589Y-3321264D02*
X+3868829Y-3321264D01*
X+3894229Y-3321264D02*
X+3909469Y-3321264D01*
X+3929789Y-3321264D02*
X+3955189Y-3321264D01*
X+3975509Y-3321264D02*
X+3990749Y-3321264D01*
X+4066949Y-3321264D02*
X+4143149Y-3321264D01*
X+4178709Y-3321264D02*
X+4219349Y-3321264D01*
X+4249829Y-3321264D02*
X+4305709Y-3321264D01*
X+4336189Y-3321264D02*
X+4356509Y-3321264D01*
X+4402229Y-3321264D02*
X+4417469Y-3321264D01*
X+4503829Y-3321264D02*
X+4519069Y-3321264D01*
X+4539389Y-3321264D02*
X+4564789Y-3321264D01*
X+4585109Y-3321264D02*
X+4600349Y-3321264D01*
X+4630829Y-3321264D02*
X+4661309Y-3321264D01*
X+4732429Y-3321264D02*
X+4778149Y-3321264D01*
X+4813709Y-3321264D02*
X+4828949Y-3321264D01*
X+2868069Y-3316184D02*
X+2883309Y-3316184D01*
X+2929029Y-3316184D02*
X+2944269Y-3316184D01*
X+3045869Y-3316184D02*
X+3061109Y-3316184D01*
X+3172869Y-3316184D02*
X+3188109Y-3316184D01*
X+3233829Y-3316184D02*
X+3249069Y-3316184D01*
X+3315109Y-3316184D02*
X+3335429Y-3316184D01*
X+3360829Y-3316184D02*
X+3381149Y-3316184D01*
X+3462429Y-3316184D02*
X+3477669Y-3316184D01*
X+3523389Y-3316184D02*
X+3538629Y-3316184D01*
X+3564029Y-3316184D02*
X+3579269Y-3316184D01*
X+3609749Y-3316184D02*
X+3624989Y-3316184D01*
X+3660549Y-3316184D02*
X+3675789Y-3316184D01*
X+3706269Y-3316184D02*
X+3721509Y-3316184D01*
X+3762149Y-3316184D02*
X+3777389Y-3316184D01*
X+3797709Y-3316184D02*
X+3812949Y-3316184D01*
X+3853589Y-3316184D02*
X+3868829Y-3316184D01*
X+3894229Y-3316184D02*
X+3909469Y-3316184D01*
X+3929789Y-3316184D02*
X+3939949Y-3316184D01*
X+3945029Y-3316184D02*
X+3955189Y-3316184D01*
X+3975509Y-3316184D02*
X+3990749Y-3316184D01*
X+4066949Y-3316184D02*
X+4082189Y-3316184D01*
X+4127909Y-3316184D02*
X+4143149Y-3316184D01*
X+4204109Y-3316184D02*
X+4224429Y-3316184D01*
X+4249829Y-3316184D02*
X+4290469Y-3316184D01*
X+4336189Y-3316184D02*
X+4417469Y-3316184D01*
X+4503829Y-3316184D02*
X+4519069Y-3316184D01*
X+4539389Y-3316184D02*
X+4549549Y-3316184D01*
X+4554629Y-3316184D02*
X+4564789Y-3316184D01*
X+4585109Y-3316184D02*
X+4600349Y-3316184D01*
X+4635909Y-3316184D02*
X+4691789Y-3316184D01*
X+4732429Y-3316184D02*
X+4778149Y-3316184D01*
X+4813709Y-3316184D02*
X+4828949Y-3316184D01*
X+2868069Y-3311104D02*
X+2883309Y-3311104D01*
X+2929029Y-3311104D02*
X+2944269Y-3311104D01*
X+3045869Y-3311104D02*
X+3061109Y-3311104D01*
X+3172869Y-3311104D02*
X+3188109Y-3311104D01*
X+3233829Y-3311104D02*
X+3249069Y-3311104D01*
X+3315109Y-3311104D02*
X+3330349Y-3311104D01*
X+3365909Y-3311104D02*
X+3381149Y-3311104D01*
X+3462429Y-3311104D02*
X+3477669Y-3311104D01*
X+3523389Y-3311104D02*
X+3538629Y-3311104D01*
X+3564029Y-3311104D02*
X+3579269Y-3311104D01*
X+3609749Y-3311104D02*
X+3624989Y-3311104D01*
X+3660549Y-3311104D02*
X+3675789Y-3311104D01*
X+3706269Y-3311104D02*
X+3721509Y-3311104D01*
X+3757069Y-3311104D02*
X+3777389Y-3311104D01*
X+3797709Y-3311104D02*
X+3812949Y-3311104D01*
X+3853589Y-3311104D02*
X+3868829Y-3311104D01*
X+3894229Y-3311104D02*
X+3909469Y-3311104D01*
X+3924709Y-3311104D02*
X+3939949Y-3311104D01*
X+3945029Y-3311104D02*
X+3960269Y-3311104D01*
X+3975509Y-3311104D02*
X+3990749Y-3311104D01*
X+4066949Y-3311104D02*
X+4082189Y-3311104D01*
X+4127909Y-3311104D02*
X+4143149Y-3311104D01*
X+4209189Y-3311104D02*
X+4224429Y-3311104D01*
X+4249829Y-3311104D02*
X+4265069Y-3311104D01*
X+4346349Y-3311104D02*
X+4417469Y-3311104D01*
X+4503829Y-3311104D02*
X+4519069Y-3311104D01*
X+4534309Y-3311104D02*
X+4549549Y-3311104D01*
X+4554629Y-3311104D02*
X+4569869Y-3311104D01*
X+4585109Y-3311104D02*
X+4600349Y-3311104D01*
X+4646069Y-3311104D02*
X+4701949Y-3311104D01*
X+4813709Y-3311104D02*
X+4828949Y-3311104D01*
X+2868069Y-3306024D02*
X+2883309Y-3306024D01*
X+2929029Y-3306024D02*
X+2944269Y-3306024D01*
X+3045869Y-3306024D02*
X+3061109Y-3306024D01*
X+3172869Y-3306024D02*
X+3188109Y-3306024D01*
X+3233829Y-3306024D02*
X+3249069Y-3306024D01*
X+3315109Y-3306024D02*
X+3330349Y-3306024D01*
X+3365909Y-3306024D02*
X+3381149Y-3306024D01*
X+3467509Y-3306024D02*
X+3482749Y-3306024D01*
X+3518309Y-3306024D02*
X+3533549Y-3306024D01*
X+3564029Y-3306024D02*
X+3579269Y-3306024D01*
X+3609749Y-3306024D02*
X+3624989Y-3306024D01*
X+3660549Y-3306024D02*
X+3675789Y-3306024D01*
X+3706269Y-3306024D02*
X+3721509Y-3306024D01*
X+3757069Y-3306024D02*
X+3772309Y-3306024D01*
X+3802789Y-3306024D02*
X+3818029Y-3306024D01*
X+3848509Y-3306024D02*
X+3863749Y-3306024D01*
X+3894229Y-3306024D02*
X+3909469Y-3306024D01*
X+3924709Y-3306024D02*
X+3934869Y-3306024D01*
X+3950109Y-3306024D02*
X+3960269Y-3306024D01*
X+3975509Y-3306024D02*
X+3990749Y-3306024D01*
X+4072029Y-3306024D02*
X+4087269Y-3306024D01*
X+4122829Y-3306024D02*
X+4138069Y-3306024D01*
X+4209189Y-3306024D02*
X+4224429Y-3306024D01*
X+4249829Y-3306024D02*
X+4265069Y-3306024D01*
X+4356509Y-3306024D02*
X+4417469Y-3306024D01*
X+4503829Y-3306024D02*
X+4519069Y-3306024D01*
X+4534309Y-3306024D02*
X+4544469Y-3306024D01*
X+4559709Y-3306024D02*
X+4569869Y-3306024D01*
X+4585109Y-3306024D02*
X+4600349Y-3306024D01*
X+4666389Y-3306024D02*
X+4707029Y-3306024D01*
X+4813709Y-3306024D02*
X+4828949Y-3306024D01*
X+2868069Y-3300944D02*
X+2883309Y-3300944D01*
X+2929029Y-3300944D02*
X+2944269Y-3300944D01*
X+3045869Y-3300944D02*
X+3061109Y-3300944D01*
X+3172869Y-3300944D02*
X+3188109Y-3300944D01*
X+3233829Y-3300944D02*
X+3249069Y-3300944D01*
X+3310029Y-3300944D02*
X+3325269Y-3300944D01*
X+3370989Y-3300944D02*
X+3386229Y-3300944D01*
X+3467509Y-3300944D02*
X+3487829Y-3300944D01*
X+3513229Y-3300944D02*
X+3533549Y-3300944D01*
X+3564029Y-3300944D02*
X+3579269Y-3300944D01*
X+3609749Y-3300944D02*
X+3624989Y-3300944D01*
X+3660549Y-3300944D02*
X+3675789Y-3300944D01*
X+3706269Y-3300944D02*
X+3726589Y-3300944D01*
X+3751989Y-3300944D02*
X+3772309Y-3300944D01*
X+3802789Y-3300944D02*
X+3823109Y-3300944D01*
X+3843429Y-3300944D02*
X+3863749Y-3300944D01*
X+3894229Y-3300944D02*
X+3909469Y-3300944D01*
X+3919629Y-3300944D02*
X+3934869Y-3300944D01*
X+3950109Y-3300944D02*
X+3965349Y-3300944D01*
X+3975509Y-3300944D02*
X+3990749Y-3300944D01*
X+4072029Y-3300944D02*
X+4092349Y-3300944D01*
X+4117749Y-3300944D02*
X+4138069Y-3300944D01*
X+4163469Y-3300944D02*
X+4173629Y-3300944D01*
X+4204109Y-3300944D02*
X+4224429Y-3300944D01*
X+4249829Y-3300944D02*
X+4270149Y-3300944D01*
X+4300629Y-3300944D02*
X+4310789Y-3300944D01*
X+4346349Y-3300944D02*
X+4366669Y-3300944D01*
X+4402229Y-3300944D02*
X+4417469Y-3300944D01*
X+4503829Y-3300944D02*
X+4519069Y-3300944D01*
X+4529229Y-3300944D02*
X+4544469Y-3300944D01*
X+4559709Y-3300944D02*
X+4574949Y-3300944D01*
X+4585109Y-3300944D02*
X+4600349Y-3300944D01*
X+4686709Y-3300944D02*
X+4712109Y-3300944D01*
X+4813709Y-3300944D02*
X+4828949Y-3300944D01*
X+2868069Y-3295864D02*
X+2883309Y-3295864D01*
X+2929029Y-3295864D02*
X+2944269Y-3295864D01*
X+3045869Y-3295864D02*
X+3061109Y-3295864D01*
X+3172869Y-3295864D02*
X+3188109Y-3295864D01*
X+3233829Y-3295864D02*
X+3249069Y-3295864D01*
X+3310029Y-3295864D02*
X+3325269Y-3295864D01*
X+3370989Y-3295864D02*
X+3386229Y-3295864D01*
X+3472589Y-3295864D02*
X+3528469Y-3295864D01*
X+3564029Y-3295864D02*
X+3579269Y-3295864D01*
X+3609749Y-3295864D02*
X+3624989Y-3295864D01*
X+3660549Y-3295864D02*
X+3675789Y-3295864D01*
X+3706269Y-3295864D02*
X+3767229Y-3295864D01*
X+3807869Y-3295864D02*
X+3858669Y-3295864D01*
X+3894229Y-3295864D02*
X+3909469Y-3295864D01*
X+3919629Y-3295864D02*
X+3929789Y-3295864D01*
X+3950109Y-3295864D02*
X+3965349Y-3295864D01*
X+3975509Y-3295864D02*
X+3990749Y-3295864D01*
X+4077109Y-3295864D02*
X+4132989Y-3295864D01*
X+4163469Y-3295864D02*
X+4219349Y-3295864D01*
X+4254909Y-3295864D02*
X+4310789Y-3295864D01*
X+4346349Y-3295864D02*
X+4356509Y-3295864D01*
X+4402229Y-3295864D02*
X+4417469Y-3295864D01*
X+4503829Y-3295864D02*
X+4519069Y-3295864D01*
X+4529229Y-3295864D02*
X+4539389Y-3295864D01*
X+4559709Y-3295864D02*
X+4574949Y-3295864D01*
X+4585109Y-3295864D02*
X+4600349Y-3295864D01*
X+4696869Y-3295864D02*
X+4712109Y-3295864D01*
X+4808629Y-3295864D02*
X+4828949Y-3295864D01*
X+2868069Y-3290784D02*
X+2883309Y-3290784D01*
X+2929029Y-3290784D02*
X+2944269Y-3290784D01*
X+3045869Y-3290784D02*
X+3061109Y-3290784D01*
X+3172869Y-3290784D02*
X+3188109Y-3290784D01*
X+3233829Y-3290784D02*
X+3249069Y-3290784D01*
X+3304949Y-3290784D02*
X+3325269Y-3290784D01*
X+3370989Y-3290784D02*
X+3391309Y-3290784D01*
X+3472589Y-3290784D02*
X+3523389Y-3290784D01*
X+3564029Y-3290784D02*
X+3579269Y-3290784D01*
X+3609749Y-3290784D02*
X+3624989Y-3290784D01*
X+3660549Y-3290784D02*
X+3675789Y-3290784D01*
X+3706269Y-3290784D02*
X+3762149Y-3290784D01*
X+3812949Y-3290784D02*
X+3853589Y-3290784D01*
X+3894229Y-3290784D02*
X+3909469Y-3290784D01*
X+3919629Y-3290784D02*
X+3929789Y-3290784D01*
X+3955189Y-3290784D02*
X+3965349Y-3290784D01*
X+3975509Y-3290784D02*
X+3990749Y-3290784D01*
X+4077109Y-3290784D02*
X+4127909Y-3290784D01*
X+4163469Y-3290784D02*
X+4214269Y-3290784D01*
X+4259989Y-3290784D02*
X+4310789Y-3290784D01*
X+4341269Y-3290784D02*
X+4356509Y-3290784D01*
X+4402229Y-3290784D02*
X+4417469Y-3290784D01*
X+4503829Y-3290784D02*
X+4519069Y-3290784D01*
X+4529229Y-3290784D02*
X+4539389Y-3290784D01*
X+4564789Y-3290784D02*
X+4574949Y-3290784D01*
X+4585109Y-3290784D02*
X+4600349Y-3290784D01*
X+4696869Y-3290784D02*
X+4712109Y-3290784D01*
X+4808629Y-3290784D02*
X+4823869Y-3290784D01*
X+2873149Y-3285704D02*
X+2888389Y-3285704D01*
X+2923949Y-3285704D02*
X+2939189Y-3285704D01*
X+3045869Y-3285704D02*
X+3086509Y-3285704D01*
X+3177949Y-3285704D02*
X+3193189Y-3285704D01*
X+3228749Y-3285704D02*
X+3243989Y-3285704D01*
X+3304949Y-3285704D02*
X+3320189Y-3285704D01*
X+3376069Y-3285704D02*
X+3391309Y-3285704D01*
X+3482749Y-3285704D02*
X+3513229Y-3285704D01*
X+3564029Y-3285704D02*
X+3579269Y-3285704D01*
X+3609749Y-3285704D02*
X+3624989Y-3285704D01*
X+3660549Y-3285704D02*
X+3675789Y-3285704D01*
X+3706269Y-3285704D02*
X+3721509Y-3285704D01*
X+3726589Y-3285704D02*
X+3757069Y-3285704D01*
X+3818029Y-3285704D02*
X+3848509Y-3285704D01*
X+3894229Y-3285704D02*
X+3909469Y-3285704D01*
X+3914549Y-3285704D02*
X+3924709Y-3285704D01*
X+3955189Y-3285704D02*
X+3970429Y-3285704D01*
X+3975509Y-3285704D02*
X+3990749Y-3285704D01*
X+4087269Y-3285704D02*
X+4117749Y-3285704D01*
X+4173629Y-3285704D02*
X+4209189Y-3285704D01*
X+4265069Y-3285704D02*
X+4305709Y-3285704D01*
X+4341269Y-3285704D02*
X+4356509Y-3285704D01*
X+4402229Y-3285704D02*
X+4417469Y-3285704D01*
X+4503829Y-3285704D02*
X+4519069Y-3285704D01*
X+4524149Y-3285704D02*
X+4534309Y-3285704D01*
X+4564789Y-3285704D02*
X+4580029Y-3285704D01*
X+4585109Y-3285704D02*
X+4600349Y-3285704D01*
X+4696869Y-3285704D02*
X+4712109Y-3285704D01*
X+4803549Y-3285704D02*
X+4823869Y-3285704D01*
X+2873149Y-3280624D02*
X+2888389Y-3280624D01*
X+2923949Y-3280624D02*
X+2939189Y-3280624D01*
X+3045869Y-3280624D02*
X+3086509Y-3280624D01*
X+3177949Y-3280624D02*
X+3193189Y-3280624D01*
X+3228749Y-3280624D02*
X+3243989Y-3280624D01*
X+3304949Y-3280624D02*
X+3320189Y-3280624D01*
X+3376069Y-3280624D02*
X+3391309Y-3280624D01*
X+3564029Y-3280624D02*
X+3579269Y-3280624D01*
X+3706269Y-3280624D02*
X+3721509Y-3280624D01*
X+3894229Y-3280624D02*
X+3909469Y-3280624D01*
X+3914549Y-3280624D02*
X+3924709Y-3280624D01*
X+3960269Y-3280624D02*
X+3970429Y-3280624D01*
X+3975509Y-3280624D02*
X+3990749Y-3280624D01*
X+4341269Y-3280624D02*
X+4356509Y-3280624D01*
X+4402229Y-3280624D02*
X+4417469Y-3280624D01*
X+4503829Y-3280624D02*
X+4519069Y-3280624D01*
X+4524149Y-3280624D02*
X+4534309Y-3280624D01*
X+4569869Y-3280624D02*
X+4580029Y-3280624D01*
X+4585109Y-3280624D02*
X+4600349Y-3280624D01*
X+4630829Y-3280624D02*
X+4635909Y-3280624D01*
X+4696869Y-3280624D02*
X+4712109Y-3280624D01*
X+4732429Y-3280624D02*
X+4737509Y-3280624D01*
X+4798469Y-3280624D02*
X+4818789Y-3280624D01*
X+2873149Y-3275544D02*
X+2893469Y-3275544D01*
X+2918869Y-3275544D02*
X+2939189Y-3275544D01*
X+3045869Y-3275544D02*
X+3086509Y-3275544D01*
X+3177949Y-3275544D02*
X+3198269Y-3275544D01*
X+3223669Y-3275544D02*
X+3243989Y-3275544D01*
X+3299869Y-3275544D02*
X+3320189Y-3275544D01*
X+3376069Y-3275544D02*
X+3396389Y-3275544D01*
X+3564029Y-3275544D02*
X+3579269Y-3275544D01*
X+3706269Y-3275544D02*
X+3721509Y-3275544D01*
X+3894229Y-3275544D02*
X+3924709Y-3275544D01*
X+3960269Y-3275544D02*
X+3990749Y-3275544D01*
X+4341269Y-3275544D02*
X+4361589Y-3275544D01*
X+4402229Y-3275544D02*
X+4417469Y-3275544D01*
X+4503829Y-3275544D02*
X+4534309Y-3275544D01*
X+4569869Y-3275544D02*
X+4600349Y-3275544D01*
X+4630829Y-3275544D02*
X+4651149Y-3275544D01*
X+4686709Y-3275544D02*
X+4707029Y-3275544D01*
X+4732429Y-3275544D02*
X+4752749Y-3275544D01*
X+4788309Y-3275544D02*
X+4818789Y-3275544D01*
X+2878229Y-3270464D02*
X+2934109Y-3270464D01*
X+3045869Y-3270464D02*
X+3066189Y-3270464D01*
X+3183029Y-3270464D02*
X+3238909Y-3270464D01*
X+3299869Y-3270464D02*
X+3315109Y-3270464D01*
X+3381149Y-3270464D02*
X+3396389Y-3270464D01*
X+3564029Y-3270464D02*
X+3579269Y-3270464D01*
X+3706269Y-3270464D02*
X+3721509Y-3270464D01*
X+3894229Y-3270464D02*
X+3919629Y-3270464D01*
X+3965349Y-3270464D02*
X+3990749Y-3270464D01*
X+4346349Y-3270464D02*
X+4417469Y-3270464D01*
X+4503829Y-3270464D02*
X+4529229Y-3270464D01*
X+4574949Y-3270464D02*
X+4600349Y-3270464D01*
X+4630829Y-3270464D02*
X+4707029Y-3270464D01*
X+4732429Y-3270464D02*
X+4813709Y-3270464D01*
X+2883309Y-3265384D02*
X+2929029Y-3265384D01*
X+3045869Y-3265384D02*
X+3061109Y-3265384D01*
X+3188109Y-3265384D02*
X+3233829Y-3265384D01*
X+3299869Y-3265384D02*
X+3315109Y-3265384D01*
X+3381149Y-3265384D02*
X+3396389Y-3265384D01*
X+3564029Y-3265384D02*
X+3579269Y-3265384D01*
X+3706269Y-3265384D02*
X+3721509Y-3265384D01*
X+3894229Y-3265384D02*
X+3919629Y-3265384D01*
X+3965349Y-3265384D02*
X+3990749Y-3265384D01*
X+4346349Y-3265384D02*
X+4417469Y-3265384D01*
X+4503829Y-3265384D02*
X+4529229Y-3265384D01*
X+4574949Y-3265384D02*
X+4600349Y-3265384D01*
X+4630829Y-3265384D02*
X+4696869Y-3265384D01*
X+4737509Y-3265384D02*
X+4803549Y-3265384D01*
X+2893469Y-3260304D02*
X+2918869Y-3260304D01*
X+3045869Y-3260304D02*
X+3056029Y-3260304D01*
X+3198269Y-3260304D02*
X+3223669Y-3260304D01*
X+3294789Y-3260304D02*
X+3310029Y-3260304D01*
X+3386229Y-3260304D02*
X+3401469Y-3260304D01*
X+3564029Y-3260304D02*
X+3579269Y-3260304D01*
X+3706269Y-3260304D02*
X+3721509Y-3260304D01*
X+3894229Y-3260304D02*
X+3914549Y-3260304D01*
X+3970429Y-3260304D02*
X+3990749Y-3260304D01*
X+4356509Y-3260304D02*
X+4417469Y-3260304D01*
X+4503829Y-3260304D02*
X+4524149Y-3260304D01*
X+4580029Y-3260304D02*
X+4600349Y-3260304D01*
X+4646069Y-3260304D02*
X+4686709Y-3260304D01*
X+4752749Y-3260304D02*
X+4793389Y-3260304D01*
X+3564029Y-3255224D02*
X+3579269Y-3255224D01*
X+3706269Y-3255224D02*
X+3721509Y-3255224D01*
X+3807663Y-2514619D02*
X+3838143Y-2514619D01*
X+3878783Y-2514619D02*
X+3888943Y-2514619D01*
X+3904183Y-2514619D02*
X+3944823Y-2514619D01*
X+3975303Y-2514619D02*
X+3985463Y-2514619D01*
X+4010863Y-2514619D02*
X+4021023Y-2514619D01*
X+4051503Y-2514619D02*
X+4061663Y-2514619D01*
X+4066743Y-2514619D02*
X+4087063Y-2514619D01*
X+4127703Y-2514619D02*
X+4137863Y-2514619D01*
X+4153103Y-2514619D02*
X+4163263Y-2514619D01*
X+4168343Y-2514619D02*
X+4193743Y-2514619D01*
X+4214063Y-2514619D02*
X+4219143Y-2514619D01*
X+4249623Y-2514619D02*
X+4259783Y-2514619D01*
X+3802583Y-2509539D02*
X+3817823Y-2509539D01*
X+3827983Y-2509539D02*
X+3843223Y-2509539D01*
X+3878783Y-2509539D02*
X+3888943Y-2509539D01*
X+3904183Y-2509539D02*
X+3919423Y-2509539D01*
X+3939743Y-2509539D02*
X+3949903Y-2509539D01*
X+3970223Y-2509539D02*
X+3985463Y-2509539D01*
X+4010863Y-2509539D02*
X+4026103Y-2509539D01*
X+4051503Y-2509539D02*
X+4071823Y-2509539D01*
X+4076903Y-2509539D02*
X+4092143Y-2509539D01*
X+4127703Y-2509539D02*
X+4137863Y-2509539D01*
X+4153103Y-2509539D02*
X+4168343Y-2509539D01*
X+4183583Y-2509539D02*
X+4198823Y-2509539D01*
X+4214063Y-2509539D02*
X+4219143Y-2509539D01*
X+4249623Y-2509539D02*
X+4259783Y-2509539D01*
X+3838143Y-2504459D02*
X+3843223Y-2504459D01*
X+3878783Y-2504459D02*
X+3888943Y-2504459D01*
X+3904183Y-2504459D02*
X+3914343Y-2504459D01*
X+3944823Y-2504459D02*
X+3949903Y-2504459D01*
X+3970223Y-2504459D02*
X+3990543Y-2504459D01*
X+4005783Y-2504459D02*
X+4026103Y-2504459D01*
X+4051503Y-2504459D02*
X+4061663Y-2504459D01*
X+4081983Y-2504459D02*
X+4097223Y-2504459D01*
X+4127703Y-2504459D02*
X+4137863Y-2504459D01*
X+4153103Y-2504459D02*
X+4163263Y-2504459D01*
X+4188663Y-2504459D02*
X+4198823Y-2504459D01*
X+4214063Y-2504459D02*
X+4219143Y-2504459D01*
X+4249623Y-2504459D02*
X+4259783Y-2504459D01*
X+3838143Y-2499379D02*
X+3848303Y-2499379D01*
X+3878783Y-2499379D02*
X+3888943Y-2499379D01*
X+3904183Y-2499379D02*
X+3914343Y-2499379D01*
X+3944823Y-2499379D02*
X+3949903Y-2499379D01*
X+3970223Y-2499379D02*
X+3975303Y-2499379D01*
X+3980383Y-2499379D02*
X+3990543Y-2499379D01*
X+4005783Y-2499379D02*
X+4015943Y-2499379D01*
X+4021023Y-2499379D02*
X+4026103Y-2499379D01*
X+4051503Y-2499379D02*
X+4061663Y-2499379D01*
X+4087063Y-2499379D02*
X+4097223Y-2499379D01*
X+4127703Y-2499379D02*
X+4137863Y-2499379D01*
X+4153103Y-2499379D02*
X+4163263Y-2499379D01*
X+4188663Y-2499379D02*
X+4198823Y-2499379D01*
X+4214063Y-2499379D02*
X+4219143Y-2499379D01*
X+4249623Y-2499379D02*
X+4259783Y-2499379D01*
X+3838143Y-2494299D02*
X+3848303Y-2494299D01*
X+3878783Y-2494299D02*
X+3888943Y-2494299D01*
X+3904183Y-2494299D02*
X+3919423Y-2494299D01*
X+3939743Y-2494299D02*
X+3949903Y-2494299D01*
X+3965143Y-2494299D02*
X+3975303Y-2494299D01*
X+3985463Y-2494299D02*
X+3990543Y-2494299D01*
X+4005783Y-2494299D02*
X+4010863Y-2494299D01*
X+4021023Y-2494299D02*
X+4031183Y-2494299D01*
X+4051503Y-2494299D02*
X+4056583Y-2494299D01*
X+4087063Y-2494299D02*
X+4097223Y-2494299D01*
X+4127703Y-2494299D02*
X+4137863Y-2494299D01*
X+4153103Y-2494299D02*
X+4163263Y-2494299D01*
X+4183583Y-2494299D02*
X+4198823Y-2494299D01*
X+4214063Y-2494299D02*
X+4219143Y-2494299D01*
X+4249623Y-2494299D02*
X+4259783Y-2494299D01*
X+3802583Y-2489219D02*
X+3848303Y-2489219D01*
X+3878783Y-2489219D02*
X+3888943Y-2489219D01*
X+3904183Y-2489219D02*
X+3944823Y-2489219D01*
X+3965143Y-2489219D02*
X+3975303Y-2489219D01*
X+3985463Y-2489219D02*
X+3995623Y-2489219D01*
X+4000703Y-2489219D02*
X+4010863Y-2489219D01*
X+4021023Y-2489219D02*
X+4031183Y-2489219D01*
X+4051503Y-2489219D02*
X+4056583Y-2489219D01*
X+4087063Y-2489219D02*
X+4097223Y-2489219D01*
X+4127703Y-2489219D02*
X+4137863Y-2489219D01*
X+4153103Y-2489219D02*
X+4193743Y-2489219D01*
X+4214063Y-2489219D02*
X+4219143Y-2489219D01*
X+4249623Y-2489219D02*
X+4259783Y-2489219D01*
X+3802583Y-2484139D02*
X+3812743Y-2484139D01*
X+3838143Y-2484139D02*
X+3848303Y-2484139D01*
X+3878783Y-2484139D02*
X+3888943Y-2484139D01*
X+3904183Y-2484139D02*
X+3914343Y-2484139D01*
X+3965143Y-2484139D02*
X+3975303Y-2484139D01*
X+3985463Y-2484139D02*
X+3995623Y-2484139D01*
X+4000703Y-2484139D02*
X+4010863Y-2484139D01*
X+4026103Y-2484139D02*
X+4031183Y-2484139D01*
X+4051503Y-2484139D02*
X+4061663Y-2484139D01*
X+4087063Y-2484139D02*
X+4097223Y-2484139D01*
X+4127703Y-2484139D02*
X+4137863Y-2484139D01*
X+4153103Y-2484139D02*
X+4163263Y-2484139D01*
X+4214063Y-2484139D02*
X+4219143Y-2484139D01*
X+4249623Y-2484139D02*
X+4259783Y-2484139D01*
X+3802583Y-2479059D02*
X+3812743Y-2479059D01*
X+3838143Y-2479059D02*
X+3848303Y-2479059D01*
X+3878783Y-2479059D02*
X+3888943Y-2479059D01*
X+3904183Y-2479059D02*
X+3914343Y-2479059D01*
X+3960063Y-2479059D02*
X+3970223Y-2479059D01*
X+3990543Y-2479059D02*
X+4005783Y-2479059D01*
X+4026103Y-2479059D02*
X+4036263Y-2479059D01*
X+4051503Y-2479059D02*
X+4061663Y-2479059D01*
X+4087063Y-2479059D02*
X+4097223Y-2479059D01*
X+4127703Y-2479059D02*
X+4137863Y-2479059D01*
X+4153103Y-2479059D02*
X+4163263Y-2479059D01*
X+4214063Y-2479059D02*
X+4224223Y-2479059D01*
X+4244543Y-2479059D02*
X+4259783Y-2479059D01*
X+3802583Y-2473979D02*
X+3812743Y-2473979D01*
X+3833063Y-2473979D02*
X+3843223Y-2473979D01*
X+3873703Y-2473979D02*
X+3888943Y-2473979D01*
X+3909263Y-2473979D02*
X+3919423Y-2473979D01*
X+3960063Y-2473979D02*
X+3970223Y-2473979D01*
X+3990543Y-2473979D02*
X+4005783Y-2473979D01*
X+4026103Y-2473979D02*
X+4036263Y-2473979D01*
X+4051503Y-2473979D02*
X+4066743Y-2473979D01*
X+4081983Y-2473979D02*
X+4092143Y-2473979D01*
X+4122623Y-2473979D02*
X+4137863Y-2473979D01*
X+4153103Y-2473979D02*
X+4163263Y-2473979D01*
X+4214063Y-2473979D02*
X+4224223Y-2473979D01*
X+4244543Y-2473979D02*
X+4259783Y-2473979D01*
X+3807663Y-2468899D02*
X+3838143Y-2468899D01*
X+3853383Y-2468899D02*
X+3888943Y-2468899D01*
X+3909263Y-2468899D02*
X+3949903Y-2468899D01*
X+3960063Y-2468899D02*
X+3970223Y-2468899D01*
X+3990543Y-2468899D02*
X+4005783Y-2468899D01*
X+4026103Y-2468899D02*
X+4036263Y-2468899D01*
X+4051503Y-2468899D02*
X+4092143Y-2468899D01*
X+4102303Y-2468899D02*
X+4137863Y-2468899D01*
X+4158183Y-2468899D02*
X+4193743Y-2468899D01*
X+4214063Y-2468899D02*
X+4259783Y-2468899D01*
X+3817823Y-2463819D02*
X+3833063Y-2463819D01*
X+3858463Y-2463819D02*
X+3868623Y-2463819D01*
X+3878783Y-2463819D02*
X+3888943Y-2463819D01*
X+3919423Y-2463819D02*
X+3939743Y-2463819D01*
X+3960063Y-2463819D02*
X+3965143Y-2463819D01*
X+3995623Y-2463819D02*
X+4000703Y-2463819D01*
X+4031183Y-2463819D02*
X+4036263Y-2463819D01*
X+4051503Y-2463819D02*
X+4056583Y-2463819D01*
X+4071823Y-2463819D02*
X+4081983Y-2463819D01*
X+4107383Y-2463819D02*
X+4117543Y-2463819D01*
X+4127703Y-2463819D02*
X+4137863Y-2463819D01*
X+4168343Y-2463819D02*
X+4183583Y-2463819D01*
X+4224223Y-2463819D02*
X+4234383Y-2463819D01*
X+4249623Y-2463819D02*
X+4259783Y-2463819D01*
X+4051503Y-2458739D02*
X+4056583Y-2458739D01*
X+4249623Y-2458739D02*
X+4259783Y-2458739D01*
X+4051503Y-2453659D02*
X+4056583Y-2453659D01*
X+4249623Y-2453659D02*
X+4259783Y-2453659D01*
X+4051503Y-2448579D02*
X+4056583Y-2448579D01*
X+4249623Y-2448579D02*
X+4259783Y-2448579D01*
X+4051503Y-2443499D02*
X+4056583Y-2443499D01*
X+4249623Y-2443499D02*
X+4259783Y-2443499D01*
X+4249623Y-2438419D02*
X+4259783Y-2438419D01*
X+4249623Y-2433339D02*
X+4259783Y-2433339D01*
X+4249623Y-2428259D02*
X+4259783Y-2428259D01*
X+3741623Y-2423179D02*
X+3772103Y-2423179D01*
X+3792423Y-2423179D02*
X+3822903Y-2423179D01*
X+3863543Y-2423179D02*
X+3873703Y-2423179D01*
X+3888943Y-2423179D02*
X+3929583Y-2423179D01*
X+3960063Y-2423179D02*
X+3990543Y-2423179D01*
X+4015943Y-2423179D02*
X+4051503Y-2423179D01*
X+4092143Y-2423179D02*
X+4102303Y-2423179D01*
X+4127703Y-2423179D02*
X+4137863Y-2423179D01*
X+4158183Y-2423179D02*
X+4193743Y-2423179D01*
X+4219143Y-2423179D02*
X+4259783Y-2423179D01*
X+4280103Y-2423179D02*
X+4310583Y-2423179D01*
X+3736543Y-2418099D02*
X+3746703Y-2418099D01*
X+3767023Y-2418099D02*
X+3777183Y-2418099D01*
X+3792423Y-2418099D02*
X+3802583Y-2418099D01*
X+3817823Y-2418099D02*
X+3827983Y-2418099D01*
X+3863543Y-2418099D02*
X+3873703Y-2418099D01*
X+3888943Y-2418099D02*
X+3909263Y-2418099D01*
X+3919423Y-2418099D02*
X+3934663Y-2418099D01*
X+3954983Y-2418099D02*
X+3965143Y-2418099D01*
X+3980383Y-2418099D02*
X+3995623Y-2418099D01*
X+4010863Y-2418099D02*
X+4021023Y-2418099D01*
X+4041343Y-2418099D02*
X+4056583Y-2418099D01*
X+4092143Y-2418099D02*
X+4102303Y-2418099D01*
X+4127703Y-2418099D02*
X+4137863Y-2418099D01*
X+4158183Y-2418099D02*
X+4168343Y-2418099D01*
X+4183583Y-2418099D02*
X+4193743Y-2418099D01*
X+4214063Y-2418099D02*
X+4229303Y-2418099D01*
X+4239463Y-2418099D02*
X+4259783Y-2418099D01*
X+4275023Y-2418099D02*
X+4290263Y-2418099D01*
X+4300423Y-2418099D02*
X+4315663Y-2418099D01*
X+3772103Y-2413019D02*
X+3782263Y-2413019D01*
X+3822903Y-2413019D02*
X+3833063Y-2413019D01*
X+3863543Y-2413019D02*
X+3873703Y-2413019D01*
X+3888943Y-2413019D02*
X+3904183Y-2413019D01*
X+3924503Y-2413019D02*
X+3934663Y-2413019D01*
X+3949903Y-2413019D02*
X+3960063Y-2413019D01*
X+3985463Y-2413019D02*
X+3995623Y-2413019D01*
X+4005783Y-2413019D02*
X+4015943Y-2413019D01*
X+4092143Y-2413019D02*
X+4102303Y-2413019D01*
X+4127703Y-2413019D02*
X+4137863Y-2413019D01*
X+4188663Y-2413019D02*
X+4198823Y-2413019D01*
X+4214063Y-2413019D02*
X+4224223Y-2413019D01*
X+4244543Y-2413019D02*
X+4259783Y-2413019D01*
X+4269943Y-2413019D02*
X+4285183Y-2413019D01*
X+4305503Y-2413019D02*
X+4315663Y-2413019D01*
X+3772103Y-2407939D02*
X+3782263Y-2407939D01*
X+3822903Y-2407939D02*
X+3833063Y-2407939D01*
X+3863543Y-2407939D02*
X+3873703Y-2407939D01*
X+3888943Y-2407939D02*
X+3899103Y-2407939D01*
X+3929583Y-2407939D02*
X+3934663Y-2407939D01*
X+3949903Y-2407939D02*
X+3960063Y-2407939D01*
X+3990543Y-2407939D02*
X+3995623Y-2407939D01*
X+4005783Y-2407939D02*
X+4021023Y-2407939D01*
X+4092143Y-2407939D02*
X+4102303Y-2407939D01*
X+4127703Y-2407939D02*
X+4137863Y-2407939D01*
X+4188663Y-2407939D02*
X+4198823Y-2407939D01*
X+4214063Y-2407939D02*
X+4219143Y-2407939D01*
X+4249623Y-2407939D02*
X+4259783Y-2407939D01*
X+4269943Y-2407939D02*
X+4280103Y-2407939D01*
X+4310583Y-2407939D02*
X+4315663Y-2407939D01*
X+3736543Y-2402859D02*
X+3782263Y-2402859D01*
X+3822903Y-2402859D02*
X+3833063Y-2402859D01*
X+3863543Y-2402859D02*
X+3873703Y-2402859D01*
X+3888943Y-2402859D02*
X+3899103Y-2402859D01*
X+3929583Y-2402859D02*
X+3934663Y-2402859D01*
X+3949903Y-2402859D02*
X+3960063Y-2402859D01*
X+3990543Y-2402859D02*
X+3995623Y-2402859D01*
X+4010863Y-2402859D02*
X+4041343Y-2402859D01*
X+4092143Y-2402859D02*
X+4102303Y-2402859D01*
X+4127703Y-2402859D02*
X+4137863Y-2402859D01*
X+4153103Y-2402859D02*
X+4198823Y-2402859D01*
X+4214063Y-2402859D02*
X+4219143Y-2402859D01*
X+4249623Y-2402859D02*
X+4259783Y-2402859D01*
X+4269943Y-2402859D02*
X+4280103Y-2402859D01*
X+4310583Y-2402859D02*
X+4320743Y-2402859D01*
X+3736543Y-2397779D02*
X+3782263Y-2397779D01*
X+3822903Y-2397779D02*
X+3833063Y-2397779D01*
X+3863543Y-2397779D02*
X+3873703Y-2397779D01*
X+3888943Y-2397779D02*
X+3899103Y-2397779D01*
X+3929583Y-2397779D02*
X+3934663Y-2397779D01*
X+3949903Y-2397779D02*
X+3960063Y-2397779D01*
X+3990543Y-2397779D02*
X+3995623Y-2397779D01*
X+4015943Y-2397779D02*
X+4051503Y-2397779D01*
X+4092143Y-2397779D02*
X+4102303Y-2397779D01*
X+4127703Y-2397779D02*
X+4137863Y-2397779D01*
X+4153103Y-2397779D02*
X+4198823Y-2397779D01*
X+4214063Y-2397779D02*
X+4219143Y-2397779D01*
X+4249623Y-2397779D02*
X+4259783Y-2397779D01*
X+4269943Y-2397779D02*
X+4280103Y-2397779D01*
X+4310583Y-2397779D02*
X+4320743Y-2397779D01*
X+3736543Y-2392699D02*
X+3741623Y-2392699D01*
X+3772103Y-2392699D02*
X+3782263Y-2392699D01*
X+3822903Y-2392699D02*
X+3833063Y-2392699D01*
X+3863543Y-2392699D02*
X+3873703Y-2392699D01*
X+3888943Y-2392699D02*
X+3899103Y-2392699D01*
X+3929583Y-2392699D02*
X+3934663Y-2392699D01*
X+3949903Y-2392699D02*
X+3960063Y-2392699D01*
X+3990543Y-2392699D02*
X+3995623Y-2392699D01*
X+4041343Y-2392699D02*
X+4051503Y-2392699D01*
X+4092143Y-2392699D02*
X+4102303Y-2392699D01*
X+4127703Y-2392699D02*
X+4137863Y-2392699D01*
X+4153103Y-2392699D02*
X+4163263Y-2392699D01*
X+4188663Y-2392699D02*
X+4198823Y-2392699D01*
X+4214063Y-2392699D02*
X+4219143Y-2392699D01*
X+4249623Y-2392699D02*
X+4259783Y-2392699D01*
X+4269943Y-2392699D02*
X+4280103Y-2392699D01*
X+4310583Y-2392699D02*
X+4315663Y-2392699D01*
X+3736543Y-2387619D02*
X+3746703Y-2387619D01*
X+3772103Y-2387619D02*
X+3777183Y-2387619D01*
X+3822903Y-2387619D02*
X+3833063Y-2387619D01*
X+3863543Y-2387619D02*
X+3873703Y-2387619D01*
X+3888943Y-2387619D02*
X+3899103Y-2387619D01*
X+3929583Y-2387619D02*
X+3934663Y-2387619D01*
X+3949903Y-2387619D02*
X+3960063Y-2387619D01*
X+3985463Y-2387619D02*
X+3995623Y-2387619D01*
X+4041343Y-2387619D02*
X+4051503Y-2387619D01*
X+4092143Y-2387619D02*
X+4102303Y-2387619D01*
X+4127703Y-2387619D02*
X+4137863Y-2387619D01*
X+4153103Y-2387619D02*
X+4163263Y-2387619D01*
X+4188663Y-2387619D02*
X+4198823Y-2387619D01*
X+4214063Y-2387619D02*
X+4224223Y-2387619D01*
X+4244543Y-2387619D02*
X+4259783Y-2387619D01*
X+4275023Y-2387619D02*
X+4285183Y-2387619D01*
X+4305503Y-2387619D02*
X+4315663Y-2387619D01*
X+3736543Y-2382539D02*
X+3751783Y-2382539D01*
X+3767023Y-2382539D02*
X+3777183Y-2382539D01*
X+3792423Y-2382539D02*
X+3802583Y-2382539D01*
X+3817823Y-2382539D02*
X+3827983Y-2382539D01*
X+3843223Y-2382539D02*
X+3848303Y-2382539D01*
X+3858463Y-2382539D02*
X+3873703Y-2382539D01*
X+3888943Y-2382539D02*
X+3899103Y-2382539D01*
X+3929583Y-2382539D02*
X+3934663Y-2382539D01*
X+3954983Y-2382539D02*
X+3970223Y-2382539D01*
X+3980383Y-2382539D02*
X+3995623Y-2382539D01*
X+4010863Y-2382539D02*
X+4021023Y-2382539D01*
X+4041343Y-2382539D02*
X+4051503Y-2382539D01*
X+4097223Y-2382539D02*
X+4112463Y-2382539D01*
X+4122623Y-2382539D02*
X+4137863Y-2382539D01*
X+4158183Y-2382539D02*
X+4168343Y-2382539D01*
X+4183583Y-2382539D02*
X+4193743Y-2382539D01*
X+4214063Y-2382539D02*
X+4229303Y-2382539D01*
X+4239463Y-2382539D02*
X+4259783Y-2382539D01*
X+4275023Y-2382539D02*
X+4290263Y-2382539D01*
X+4300423Y-2382539D02*
X+4315663Y-2382539D01*
X+3741623Y-2377459D02*
X+3772103Y-2377459D01*
X+3792423Y-2377459D02*
X+3822903Y-2377459D01*
X+3838143Y-2377459D02*
X+3858463Y-2377459D01*
X+3863543Y-2377459D02*
X+3873703Y-2377459D01*
X+3888943Y-2377459D02*
X+3899103Y-2377459D01*
X+3929583Y-2377459D02*
X+3934663Y-2377459D01*
X+3960063Y-2377459D02*
X+3990543Y-2377459D01*
X+4010863Y-2377459D02*
X+4046423Y-2377459D01*
X+4097223Y-2377459D02*
X+4137863Y-2377459D01*
X+4163263Y-2377459D02*
X+4193743Y-2377459D01*
X+4219143Y-2377459D02*
X+4259783Y-2377459D01*
X+4280103Y-2377459D02*
X+4310583Y-2377459D01*
X+3883863Y-2321579D02*
X+3894023Y-2321579D01*
X+4158183Y-2321579D02*
X+4168343Y-2321579D01*
X+3878783Y-2316499D02*
X+3904183Y-2316499D01*
X+4148023Y-2316499D02*
X+4173423Y-2316499D01*
X+3873703Y-2311419D02*
X+3909263Y-2311419D01*
X+4142943Y-2311419D02*
X+4183583Y-2311419D01*
X+3863543Y-2306339D02*
X+3919423Y-2306339D01*
X+4132783Y-2306339D02*
X+4188663Y-2306339D01*
X+3858463Y-2301259D02*
X+3924503Y-2301259D01*
X+3944823Y-2301259D02*
X+3960063Y-2301259D01*
X+4092143Y-2301259D02*
X+4107383Y-2301259D01*
X+4127703Y-2301259D02*
X+4193743Y-2301259D01*
X+3853383Y-2296179D02*
X+3965143Y-2296179D01*
X+4087063Y-2296179D02*
X+4198823Y-2296179D01*
X+3848303Y-2291099D02*
X+3965143Y-2291099D01*
X+4087063Y-2291099D02*
X+4203903Y-2291099D01*
X+3848303Y-2286019D02*
X+3970223Y-2286019D01*
X+4081983Y-2286019D02*
X+4208983Y-2286019D01*
X+3848303Y-2280939D02*
X+3970223Y-2280939D01*
X+4081983Y-2280939D02*
X+4203903Y-2280939D01*
X+3853383Y-2275859D02*
X+3975303Y-2275859D01*
X+4081983Y-2275859D02*
X+4198823Y-2275859D01*
X+3858463Y-2270779D02*
X+3975303Y-2270779D01*
X+4076903Y-2270779D02*
X+4198823Y-2270779D01*
X+3858463Y-2265699D02*
X+3975303Y-2265699D01*
X+4076903Y-2265699D02*
X+4193743Y-2265699D01*
X+3863543Y-2260619D02*
X+3980383Y-2260619D01*
X+4071823Y-2260619D02*
X+4188663Y-2260619D01*
X+3868623Y-2255539D02*
X+3980383Y-2255539D01*
X+4071823Y-2255539D02*
X+4183583Y-2255539D01*
X+3873703Y-2250459D02*
X+3985463Y-2250459D01*
X+4066743Y-2250459D02*
X+4183583Y-2250459D01*
X+3873703Y-2245379D02*
X+3985463Y-2245379D01*
X+4066743Y-2245379D02*
X+4178503Y-2245379D01*
X+3878783Y-2240299D02*
X+3990543Y-2240299D01*
X+4061663Y-2240299D02*
X+4173423Y-2240299D01*
X+3873703Y-2235219D02*
X+3990543Y-2235219D01*
X+4061663Y-2235219D02*
X+4178503Y-2235219D01*
X+3873703Y-2230139D02*
X+3995623Y-2230139D01*
X+4061663Y-2230139D02*
X+4178503Y-2230139D01*
X+3873703Y-2225059D02*
X+3995623Y-2225059D01*
X+4056583Y-2225059D02*
X+4183583Y-2225059D01*
X+3868623Y-2219979D02*
X+3995623Y-2219979D01*
X+4056583Y-2219979D02*
X+4183583Y-2219979D01*
X+3868623Y-2214899D02*
X+4000703Y-2214899D01*
X+4051503Y-2214899D02*
X+4183583Y-2214899D01*
X+3863543Y-2209819D02*
X+3990543Y-2209819D01*
X+4061663Y-2209819D02*
X+4188663Y-2209819D01*
X+3863543Y-2204739D02*
X+3985463Y-2204739D01*
X+4066743Y-2204739D02*
X+4188663Y-2204739D01*
X+3858463Y-2199659D02*
X+3980383Y-2199659D01*
X+4071823Y-2199659D02*
X+4193743Y-2199659D01*
X+3853383Y-2194579D02*
X+3975303Y-2194579D01*
X+4076903Y-2194579D02*
X+4198823Y-2194579D01*
X+3827983Y-2189499D02*
X+3970223Y-2189499D01*
X+4081983Y-2189499D02*
X+4229303Y-2189499D01*
X+3802583Y-2184419D02*
X+3970223Y-2184419D01*
X+4087063Y-2184419D02*
X+4254703Y-2184419D01*
X+3797503Y-2179339D02*
X+3965143Y-2179339D01*
X+4087063Y-2179339D02*
X+4254703Y-2179339D01*
X+3797503Y-2174259D02*
X+3965143Y-2174259D01*
X+4087063Y-2174259D02*
X+4254703Y-2174259D01*
X+3797503Y-2169179D02*
X+3960063Y-2169179D01*
X+4092143Y-2169179D02*
X+4254703Y-2169179D01*
X+3797503Y-2164099D02*
X+3960063Y-2164099D01*
X+4092143Y-2164099D02*
X+4254703Y-2164099D01*
X+3797503Y-2159019D02*
X+3960063Y-2159019D01*
X+4092143Y-2159019D02*
X+4254703Y-2159019D01*
X+3797503Y-2153939D02*
X+3960063Y-2153939D01*
X+4092143Y-2153939D02*
X+4254703Y-2153939D01*
X+3797503Y-2148859D02*
X+3960063Y-2148859D01*
X+4092143Y-2148859D02*
X+4254703Y-2148859D01*
X+3797503Y-2143779D02*
X+3965143Y-2143779D01*
X+4092143Y-2143779D02*
X+4254703Y-2143779D01*
X+3797503Y-2138699D02*
X+3965143Y-2138699D01*
X+4087063Y-2138699D02*
X+4254703Y-2138699D01*
X+3797503Y-2133619D02*
X+3965143Y-2133619D01*
X+4087063Y-2133619D02*
X+4254703Y-2133619D01*
X+3802583Y-2128539D02*
X+3970223Y-2128539D01*
X+4081983Y-2128539D02*
X+4249623Y-2128539D01*
X+3833063Y-2123459D02*
X+3970223Y-2123459D01*
X+4081983Y-2123459D02*
X+4219143Y-2123459D01*
X+3858463Y-2118379D02*
X+3975303Y-2118379D01*
X+4076903Y-2118379D02*
X+4193743Y-2118379D01*
X+3863543Y-2113299D02*
X+3980383Y-2113299D01*
X+4071823Y-2113299D02*
X+4188663Y-2113299D01*
X+3863543Y-2108219D02*
X+3985463Y-2108219D01*
X+4066743Y-2108219D02*
X+4188663Y-2108219D01*
X+3868623Y-2103139D02*
X+3995623Y-2103139D01*
X+4056583Y-2103139D02*
X+4183583Y-2103139D01*
X+3868623Y-2098059D02*
X+4010863Y-2098059D01*
X+4041343Y-2098059D02*
X+4183583Y-2098059D01*
X+3873703Y-2092979D02*
X+4178503Y-2092979D01*
X+3873703Y-2087899D02*
X+4178503Y-2087899D01*
X+3873703Y-2082819D02*
X+4178503Y-2082819D01*
X+3878783Y-2077739D02*
X+4173423Y-2077739D01*
X+3878783Y-2072659D02*
X+4173423Y-2072659D01*
X+3873703Y-2067579D02*
X+4178503Y-2067579D01*
X+3868623Y-2062499D02*
X+4183583Y-2062499D01*
X+3868623Y-2057419D02*
X+4183583Y-2057419D01*
X+3863543Y-2052339D02*
X+4188663Y-2052339D01*
X+3858463Y-2047259D02*
X+4193743Y-2047259D01*
X+3853383Y-2042179D02*
X+4198823Y-2042179D01*
X+3853383Y-2037099D02*
X+4198823Y-2037099D01*
X+3848303Y-2032019D02*
X+4203903Y-2032019D01*
X+3848303Y-2026939D02*
X+4208983Y-2026939D01*
X+3848303Y-2021859D02*
X+4203903Y-2021859D01*
X+3853383Y-2016779D02*
X+3934663Y-2016779D01*
X+3949903Y-2016779D02*
X+4102303Y-2016779D01*
X+4117543Y-2016779D02*
X+4198823Y-2016779D01*
X+3858463Y-2011699D02*
X+3924503Y-2011699D01*
X+3965143Y-2011699D02*
X+4087063Y-2011699D01*
X+4127703Y-2011699D02*
X+4193743Y-2011699D01*
X+3868623Y-2006619D02*
X+3919423Y-2006619D01*
X+3975303Y-2006619D02*
X+4076903Y-2006619D01*
X+4137863Y-2006619D02*
X+4188663Y-2006619D01*
X+3873703Y-2001539D02*
X+3909263Y-2001539D01*
X+3985463Y-2001539D02*
X+4066743Y-2001539D01*
X+4142943Y-2001539D02*
X+4178503Y-2001539D01*
X+3878783Y-1996459D02*
X+3899103Y-1996459D01*
X+3985463Y-1996459D02*
X+4066743Y-1996459D01*
X+4153103Y-1996459D02*
X+4173423Y-1996459D01*
X+3883863Y-1991379D02*
X+3894023Y-1991379D01*
X+3985463Y-1991379D02*
X+4066743Y-1991379D01*
X+4158183Y-1991379D02*
X+4168343Y-1991379D01*
X+3990543Y-1986299D02*
X+4066743Y-1986299D01*
X+3990543Y-1981219D02*
X+4061663Y-1981219D01*
X+3990543Y-1976139D02*
X+4061663Y-1976139D01*
X+3990543Y-1971059D02*
X+4061663Y-1971059D01*
X+3990543Y-1965979D02*
X+4061663Y-1965979D01*
X+3995623Y-1960899D02*
X+4061663Y-1960899D01*
X+3995623Y-1955819D02*
X+4056583Y-1955819D01*
X+3995623Y-1950739D02*
X+4056583Y-1950739D01*
D42*
X+6554000Y-756920D02*
X+6554000Y-967260D01*
X+7338060Y-967260D01*
M02*
