G04 PROTEUS RS274X GERBER FILE*
%FSLAX45Y45*%
%MOMM*%
G01*
%ADD60C,3.302000*%
%ADD61C,2.708000*%
%AMPPAD074*
4,1,4,
-0.740000,-0.150000,
0.740000,-0.150000,
0.740000,0.150000,
-0.740000,0.150000,
-0.740000,-0.150000,
0*%
%ADD84PPAD074*%
%AMPPAD075*
4,1,4,
-0.150000,-0.740000,
0.150000,-0.740000,
0.150000,0.740000,
-0.150000,0.740000,
-0.150000,-0.740000,
0*%
%ADD85PPAD075*%
%AMPPAD076*
4,1,4,
0.500000,0.200000,
-0.500000,0.200000,
-0.500000,-0.200000,
0.500000,-0.200000,
0.500000,0.200000,
0*%
%ADD86PPAD076*%
%AMPPAD077*
4,1,48,
-1.016000,-2.159000,
1.016000,-2.159000,
1.042400,-2.157720,
1.067930,-2.153950,
1.092490,-2.147800,
1.138220,-2.128870,
1.178650,-2.101840,
1.212840,-2.067640,
1.239860,-2.027220,
1.258800,-1.981490,
1.264950,-1.956930,
1.268720,-1.931400,
1.270000,-1.905000,
1.270000,1.905000,
1.268720,1.931400,
1.264950,1.956930,
1.258800,1.981490,
1.239860,2.027220,
1.212840,2.067640,
1.178650,2.101840,
1.138220,2.128870,
1.092490,2.147800,
1.067930,2.153950,
1.042400,2.157720,
1.016000,2.159000,
-1.016000,2.159000,
-1.042400,2.157720,
-1.067930,2.153950,
-1.092490,2.147800,
-1.138220,2.128870,
-1.178650,2.101840,
-1.212840,2.067640,
-1.239860,2.027220,
-1.258800,1.981490,
-1.264950,1.956930,
-1.268720,1.931400,
-1.270000,1.905000,
-1.270000,-1.905000,
-1.268720,-1.931400,
-1.264950,-1.956930,
-1.258800,-1.981490,
-1.239860,-2.027220,
-1.212840,-2.067640,
-1.178650,-2.101840,
-1.138220,-2.128870,
-1.092490,-2.147800,
-1.067930,-2.153950,
-1.042400,-2.157720,
-1.016000,-2.159000,
0*%
%ADD87PPAD077*%
%AMPPAD078*
4,1,36,
-0.742000,0.325000,
-0.742000,-0.325000,
-0.739470,-0.350970,
-0.732200,-0.374980,
-0.720650,-0.396580,
-0.705290,-0.415290,
-0.686570,-0.430650,
-0.664980,-0.442200,
-0.640970,-0.449470,
-0.615000,-0.452000,
0.615000,-0.452000,
0.640970,-0.449470,
0.664980,-0.442200,
0.686570,-0.430650,
0.705290,-0.415290,
0.720650,-0.396580,
0.732200,-0.374980,
0.739470,-0.350970,
0.742000,-0.325000,
0.742000,0.325000,
0.739470,0.350970,
0.732200,0.374980,
0.720650,0.396580,
0.705290,0.415290,
0.686570,0.430650,
0.664980,0.442200,
0.640970,0.449470,
0.615000,0.452000,
-0.615000,0.452000,
-0.640970,0.449470,
-0.664980,0.442200,
-0.686570,0.430650,
-0.705290,0.415290,
-0.720650,0.396580,
-0.732200,0.374980,
-0.739470,0.350970,
-0.742000,0.325000,
0*%
%ADD88PPAD078*%
%AMPPAD079*
4,1,36,
1.050000,0.477000,
-1.050000,0.477000,
-1.075970,0.474470,
-1.099980,0.467200,
-1.121580,0.455650,
-1.140290,0.440290,
-1.155650,0.421570,
-1.167200,0.399980,
-1.174470,0.375970,
-1.177000,0.350000,
-1.177000,-0.350000,
-1.174470,-0.375970,
-1.167200,-0.399980,
-1.155650,-0.421570,
-1.140290,-0.440290,
-1.121580,-0.455650,
-1.099980,-0.467200,
-1.075970,-0.474470,
-1.050000,-0.477000,
1.050000,-0.477000,
1.075970,-0.474470,
1.099980,-0.467200,
1.121580,-0.455650,
1.140290,-0.440290,
1.155650,-0.421570,
1.167200,-0.399980,
1.174470,-0.375970,
1.177000,-0.350000,
1.177000,0.350000,
1.174470,0.375970,
1.167200,0.399980,
1.155650,0.421570,
1.140290,0.440290,
1.121580,0.455650,
1.099980,0.467200,
1.075970,0.474470,
1.050000,0.477000,
0*%
%ADD89PPAD079*%
%AMPPAD063*
4,1,4,
-0.698500,1.752600,
0.698500,1.752600,
0.698500,-1.752600,
-0.698500,-1.752600,
-0.698500,1.752600,
0*%
%ADD69PPAD063*%
%ADD76C,1.504000*%
%AMPPAD068*
4,1,36,
-1.277000,-0.167400,
-1.277000,0.167400,
-1.264870,0.292040,
-1.229970,0.407310,
-1.174530,0.510970,
-1.100790,0.600790,
-1.010970,0.674530,
-0.907310,0.729970,
-0.792040,0.764870,
-0.667400,0.777000,
0.667400,0.777000,
0.792040,0.764870,
0.907310,0.729970,
1.010970,0.674530,
1.100790,0.600790,
1.174530,0.510970,
1.229970,0.407310,
1.264870,0.292040,
1.277000,0.167400,
1.277000,-0.167400,
1.264870,-0.292040,
1.229970,-0.407310,
1.174530,-0.510970,
1.100790,-0.600790,
1.010970,-0.674530,
0.907310,-0.729970,
0.792040,-0.764870,
0.667400,-0.777000,
-0.667400,-0.777000,
-0.792040,-0.764870,
-0.907310,-0.729970,
-1.010970,-0.674530,
-1.100790,-0.600790,
-1.174530,-0.510970,
-1.229970,-0.407310,
-1.264870,-0.292040,
-1.277000,-0.167400,
0*%
%ADD78PPAD068*%
%AMPPAD080*
4,1,4,
0.750000,-2.750000,
0.750000,2.750000,
-0.750000,2.750000,
-0.750000,-2.750000,
0.750000,-2.750000,
0*%
%ADD90PPAD080*%
%AMPPAD081*
4,1,48,
-0.698500,0.444500,
-0.698500,-0.444500,
-0.697220,-0.470900,
-0.693450,-0.496430,
-0.687300,-0.520990,
-0.668370,-0.566720,
-0.641340,-0.607150,
-0.607140,-0.641340,
-0.566720,-0.668360,
-0.520990,-0.687300,
-0.496430,-0.693450,
-0.470900,-0.697220,
-0.444500,-0.698500,
0.444500,-0.698500,
0.470900,-0.697220,
0.496430,-0.693450,
0.520990,-0.687300,
0.566720,-0.668360,
0.607140,-0.641340,
0.641340,-0.607150,
0.668370,-0.566720,
0.687300,-0.520990,
0.693450,-0.496430,
0.697220,-0.470900,
0.698500,-0.444500,
0.698500,0.444500,
0.697220,0.470900,
0.693450,0.496430,
0.687300,0.520990,
0.668370,0.566720,
0.641340,0.607150,
0.607140,0.641340,
0.566720,0.668360,
0.520990,0.687300,
0.496430,0.693450,
0.470900,0.697220,
0.444500,0.698500,
-0.444500,0.698500,
-0.470900,0.697220,
-0.496430,0.693450,
-0.520990,0.687300,
-0.566720,0.668360,
-0.607140,0.641340,
-0.641340,0.607150,
-0.668370,0.566720,
-0.687300,0.520990,
-0.693450,0.496430,
-0.697220,0.470900,
-0.698500,0.444500,
0*%
%ADD91PPAD081*%
%AMPPAD082*
4,1,48,
-0.444500,-0.698500,
0.444500,-0.698500,
0.470900,-0.697220,
0.496430,-0.693450,
0.520990,-0.687300,
0.566720,-0.668370,
0.607150,-0.641340,
0.641340,-0.607140,
0.668360,-0.566720,
0.687300,-0.520990,
0.693450,-0.496430,
0.697220,-0.470900,
0.698500,-0.444500,
0.698500,0.444500,
0.697220,0.470900,
0.693450,0.496430,
0.687300,0.520990,
0.668360,0.566720,
0.641340,0.607140,
0.607150,0.641340,
0.566720,0.668370,
0.520990,0.687300,
0.496430,0.693450,
0.470900,0.697220,
0.444500,0.698500,
-0.444500,0.698500,
-0.470900,0.697220,
-0.496430,0.693450,
-0.520990,0.687300,
-0.566720,0.668370,
-0.607150,0.641340,
-0.641340,0.607140,
-0.668360,0.566720,
-0.687300,0.520990,
-0.693450,0.496430,
-0.697220,0.470900,
-0.698500,0.444500,
-0.698500,-0.444500,
-0.697220,-0.470900,
-0.693450,-0.496430,
-0.687300,-0.520990,
-0.668360,-0.566720,
-0.641340,-0.607140,
-0.607150,-0.641340,
-0.566720,-0.668370,
-0.520990,-0.687300,
-0.496430,-0.693450,
-0.470900,-0.697220,
-0.444500,-0.698500,
0*%
%ADD92PPAD082*%
%AMPPAD083*
4,1,48,
-0.508000,-0.889000,
0.508000,-0.889000,
0.534400,-0.887720,
0.559930,-0.883950,
0.584490,-0.877800,
0.630220,-0.858870,
0.670650,-0.831840,
0.704840,-0.797640,
0.731860,-0.757220,
0.750800,-0.711490,
0.756950,-0.686930,
0.760720,-0.661400,
0.762000,-0.635000,
0.762000,0.635000,
0.760720,0.661400,
0.756950,0.686930,
0.750800,0.711490,
0.731860,0.757220,
0.704840,0.797640,
0.670650,0.831840,
0.630220,0.858870,
0.584490,0.877800,
0.559930,0.883950,
0.534400,0.887720,
0.508000,0.889000,
-0.508000,0.889000,
-0.534400,0.887720,
-0.559930,0.883950,
-0.584490,0.877800,
-0.630220,0.858870,
-0.670650,0.831840,
-0.704840,0.797640,
-0.731860,0.757220,
-0.750800,0.711490,
-0.756950,0.686930,
-0.760720,0.661400,
-0.762000,0.635000,
-0.762000,-0.635000,
-0.760720,-0.661400,
-0.756950,-0.686930,
-0.750800,-0.711490,
-0.731860,-0.757220,
-0.704840,-0.797640,
-0.670650,-0.831840,
-0.630220,-0.858870,
-0.584490,-0.877800,
-0.559930,-0.883950,
-0.534400,-0.887720,
-0.508000,-0.889000,
0*%
%ADD93PPAD083*%
%ADD42C,0.203200*%
D60*
X+6943100Y-1126540D03*
D61*
X+6689100Y-1380540D03*
X+7197100Y-1380540D03*
X+7197100Y-872540D03*
X+6689100Y-872540D03*
D84*
X+2389340Y-2564940D03*
X+2389340Y-2514940D03*
X+2389340Y-2464940D03*
X+2389340Y-2414940D03*
X+2389340Y-2364940D03*
X+2389340Y-2314940D03*
X+2389340Y-2264940D03*
X+2389340Y-2214940D03*
X+2389340Y-2164940D03*
X+2389340Y-2114940D03*
X+2389340Y-2064940D03*
X+2389340Y-2014940D03*
D85*
X+2538340Y-1865940D03*
X+2588340Y-1865940D03*
X+2638340Y-1865940D03*
X+2688340Y-1865940D03*
X+2738340Y-1865940D03*
X+2788340Y-1865940D03*
X+2838340Y-1865940D03*
X+2888340Y-1865940D03*
X+2938340Y-1865940D03*
X+2988340Y-1865940D03*
X+3038340Y-1865940D03*
X+3088340Y-1865940D03*
D84*
X+3237340Y-2014940D03*
X+3237340Y-2064940D03*
X+3237340Y-2114940D03*
X+3237340Y-2164940D03*
X+3237340Y-2214940D03*
X+3237340Y-2264940D03*
X+3237340Y-2314940D03*
X+3237340Y-2364940D03*
X+3237340Y-2414940D03*
X+3237340Y-2464940D03*
X+3237340Y-2514940D03*
X+3237340Y-2564940D03*
D85*
X+3088340Y-2713940D03*
X+3038340Y-2713940D03*
X+2988340Y-2713940D03*
X+2938340Y-2713940D03*
X+2888340Y-2713940D03*
X+2838340Y-2713940D03*
X+2788340Y-2713940D03*
X+2738340Y-2713940D03*
X+2688340Y-2713940D03*
X+2638340Y-2713940D03*
X+2588340Y-2713940D03*
X+2538340Y-2713940D03*
D86*
X+5595000Y-2298500D03*
X+5595000Y-2363500D03*
X+5595000Y-2428500D03*
X+5405000Y-2428500D03*
X+5405000Y-2363500D03*
X+5405000Y-2298500D03*
D87*
X+1608880Y-3617040D03*
X+1136440Y-3617040D03*
D88*
X+5840000Y-2599520D03*
X+5840000Y-2344280D03*
X+5840000Y-2088400D03*
X+5840000Y-2726980D03*
X+5840000Y-2471580D03*
X+5840000Y-2216340D03*
X+5839740Y-2821800D03*
D89*
X+5998560Y-1916440D03*
X+7202860Y-1917600D03*
X+7199980Y-3211960D03*
X+5998560Y-3211680D03*
D69*
X+1940000Y-3870000D03*
X+2190000Y-3870000D03*
X+2440000Y-3870000D03*
X+2690000Y-3870000D03*
X+2940000Y-3870000D03*
X+3190000Y-3870000D03*
X+3440000Y-3870000D03*
X+3690000Y-3870000D03*
X+3940000Y-3870000D03*
X+4190000Y-3870000D03*
X+4440000Y-3870000D03*
X+4690000Y-3870000D03*
X+4940000Y-3870000D03*
X+5190000Y-3870000D03*
X+5440000Y-3870000D03*
X+5690000Y-3870000D03*
X+5940000Y-3870000D03*
X+6190000Y-3870000D03*
D76*
X+1249920Y-1581580D03*
X+1249920Y-1091580D03*
D78*
X+980680Y-1697180D03*
X+980680Y-973280D03*
D90*
X+1090480Y-2981820D03*
X+1090480Y-2131820D03*
D91*
X+1498100Y-2454580D03*
X+1498100Y-2627300D03*
D92*
X+1392900Y-3222600D03*
X+1565620Y-3222600D03*
D91*
X+7200000Y-3716200D03*
X+7200000Y-3543480D03*
X+7047460Y-3711460D03*
X+7047460Y-3538740D03*
X+6897300Y-3708740D03*
X+6897300Y-3536020D03*
X+6749520Y-3533820D03*
X+6749520Y-3706540D03*
X+5629900Y-2546300D03*
X+5629900Y-2719020D03*
D92*
X+5772100Y-3069600D03*
X+5599380Y-3069600D03*
X+5596940Y-3204200D03*
X+5769660Y-3204200D03*
X+5594300Y-3351540D03*
X+5767020Y-3351540D03*
D91*
X+5383280Y-824280D03*
X+5383280Y-997000D03*
D93*
X+1642060Y-2025660D03*
X+1855420Y-2025660D03*
D91*
X+2002780Y-2038300D03*
X+2002780Y-2211020D03*
D92*
X+1677620Y-2211080D03*
X+1850340Y-2211080D03*
D91*
X+2002800Y-2503220D03*
X+2002800Y-2330500D03*
X+1868120Y-2330460D03*
X+1868120Y-2503180D03*
D92*
X+1832660Y-1659880D03*
X+1659940Y-1659880D03*
X+1827580Y-1837680D03*
X+1654860Y-1837680D03*
X+1316940Y-1865640D03*
X+1489660Y-1865640D03*
D91*
X+3500300Y-826400D03*
X+3500300Y-999120D03*
X+4090800Y-826400D03*
X+4090800Y-999120D03*
X+4717451Y-817451D03*
X+4717451Y-990171D03*
X+2909800Y-826400D03*
X+2909800Y-999120D03*
X+2699800Y-826400D03*
X+2699800Y-999120D03*
X+3290300Y-826400D03*
X+3290300Y-999120D03*
X+3900800Y-826400D03*
X+3900800Y-999120D03*
X+4487179Y-815911D03*
X+4487179Y-988631D03*
X+3364240Y-2904540D03*
X+3364240Y-2731820D03*
D92*
X+2358340Y-2889260D03*
X+2531060Y-2889260D03*
X+2358340Y-3011180D03*
X+2531060Y-3011180D03*
D42*
X+818980Y-4046380D02*
X+818980Y-756380D01*
X+7338980Y-4046380D02*
X+7336440Y-966720D01*
X+817880Y-754380D02*
X+6554000Y-756920D01*
X+1818640Y-4046220D02*
X+1818640Y-4216700D01*
X+1818640Y-4218940D02*
X+2016760Y-4218940D01*
X+1818640Y-4218940D02*
X+2817020Y-4218940D01*
X+2817460Y-4047860D02*
X+2817460Y-4218340D01*
X+2816860Y-4046220D02*
X+5341620Y-4046220D01*
X+1818640Y-4046220D02*
X+817880Y-4046220D01*
X+5341620Y-4218940D02*
X+5341620Y-4046220D01*
X+6339840Y-4046220D02*
X+7338060Y-4046220D01*
X+6339840Y-4218940D02*
X+6339840Y-4046220D01*
X+5341620Y-4218940D02*
X+6339840Y-4218940D01*
X+6554000Y-756920D02*
X+6554000Y-967260D01*
X+7338060Y-967260D01*
M02*
