G04 PROTEUS RS274X GERBER FILE*
%FSLAX45Y45*%
%MOMM*%
G01*
%ADD42C,0.203200*%
%ADD124C,0.127000*%
%ADD57C,0.063500*%
D42*
X+7005080Y-2312700D02*
X+7005080Y-2439700D01*
X+6941580Y-2376200D02*
X+7068580Y-2376200D01*
X+6827440Y-2755760D02*
X+6827440Y-2882760D01*
X+6763940Y-2819260D02*
X+6890940Y-2819260D01*
X+5958440Y-2663480D02*
X+5958440Y-2790480D01*
X+5894940Y-2726980D02*
X+6021940Y-2726980D01*
X+7005080Y-2646500D02*
X+7005080Y-2773500D01*
X+6941580Y-2710000D02*
X+7068580Y-2710000D01*
X+7052540Y-3417580D02*
X+7052540Y-3544580D01*
X+6989040Y-3481080D02*
X+7116040Y-3481080D01*
X+7199634Y-3422660D02*
X+7199634Y-3549660D01*
X+7136134Y-3486160D02*
X+7263134Y-3486160D01*
X+6902400Y-3409960D02*
X+6902400Y-3536960D01*
X+6838900Y-3473460D02*
X+6965900Y-3473460D01*
X+6015940Y-2899420D02*
X+6015940Y-3026420D01*
X+5952440Y-2962920D02*
X+6079440Y-2962920D01*
X+5772100Y-3072140D02*
X+5772100Y-3199140D01*
X+5708600Y-3135640D02*
X+5835600Y-3135640D01*
X+5528260Y-3006100D02*
X+5528260Y-3133100D01*
X+5464760Y-3069600D02*
X+5591760Y-3069600D01*
X+5848300Y-2843540D02*
X+5848300Y-2970540D01*
X+5784800Y-2907040D02*
X+5911800Y-2907040D01*
X+5736540Y-2030740D02*
X+5736540Y-2157740D01*
X+5673040Y-2094240D02*
X+5800040Y-2094240D01*
X+5700980Y-2300300D02*
X+5700980Y-2427300D01*
X+5637480Y-2363800D02*
X+5764480Y-2363800D01*
X+6125160Y-2879100D02*
X+6125160Y-3006100D01*
X+6061660Y-2942600D02*
X+6188660Y-2942600D01*
X+5960060Y-2294900D02*
X+5960060Y-2421900D01*
X+5896560Y-2358400D02*
X+6023560Y-2358400D01*
X+1934160Y-2211080D02*
X+1934160Y-2338080D01*
X+1870660Y-2274580D02*
X+1997660Y-2274580D01*
X+1929080Y-2147520D02*
X+1929080Y-2274520D01*
X+1865580Y-2211020D02*
X+1992580Y-2211020D01*
X+1934160Y-2266960D02*
X+1934160Y-2393960D01*
X+1870660Y-2330460D02*
X+1997660Y-2330460D01*
X+1553160Y-1799600D02*
X+1553160Y-1926600D01*
X+1489660Y-1863100D02*
X+1616660Y-1863100D01*
X+1471880Y-3643640D02*
X+1471880Y-3770640D01*
X+1408380Y-3707140D02*
X+1535380Y-3707140D01*
X+1471880Y-3689360D02*
X+1471880Y-3816360D01*
X+1408380Y-3752860D02*
X+1535380Y-3752860D01*
X+1471880Y-3737620D02*
X+1471880Y-3864620D01*
X+1408380Y-3801120D02*
X+1535380Y-3801120D01*
X+1471880Y-3785880D02*
X+1471880Y-3912880D01*
X+1408380Y-3849380D02*
X+1535380Y-3849380D01*
X+1019760Y-3620780D02*
X+1019760Y-3747780D01*
X+956260Y-3684280D02*
X+1083260Y-3684280D01*
X+1019760Y-3661420D02*
X+1019760Y-3788420D01*
X+956260Y-3724920D02*
X+1083260Y-3724920D01*
X+1019760Y-3707140D02*
X+1019760Y-3834140D01*
X+956260Y-3770640D02*
X+1083260Y-3770640D01*
X+1019760Y-3747780D02*
X+1019760Y-3874780D01*
X+956260Y-3811280D02*
X+1083260Y-3811280D01*
X+1606500Y-3244860D02*
X+1606500Y-3371860D01*
X+1543000Y-3308360D02*
X+1670000Y-3308360D01*
X+1667460Y-3244860D02*
X+1667460Y-3371860D01*
X+1603960Y-3308360D02*
X+1730960Y-3308360D01*
X+1728420Y-3244860D02*
X+1728420Y-3371860D01*
X+1664920Y-3308360D02*
X+1791920Y-3308360D01*
X+1804620Y-3244860D02*
X+1804620Y-3371860D01*
X+1741120Y-3308360D02*
X+1868120Y-3308360D01*
X+1868120Y-3244860D02*
X+1868120Y-3371860D01*
X+1804620Y-3308360D02*
X+1931620Y-3308360D01*
X+3691840Y-3562420D02*
X+3691840Y-3689420D01*
X+3628340Y-3625920D02*
X+3755340Y-3625920D01*
X+3905200Y-3572520D02*
X+3905200Y-3699520D01*
X+3841700Y-3636020D02*
X+3968700Y-3636020D01*
X+3276360Y-3476000D02*
X+3276360Y-3603000D01*
X+3212860Y-3539500D02*
X+3339860Y-3539500D01*
X+3719780Y-3032580D02*
X+3719780Y-3159580D01*
X+3656280Y-3096080D02*
X+3783280Y-3096080D01*
X+3181300Y-3415040D02*
X+3181300Y-3542040D01*
X+3117800Y-3478540D02*
X+3244800Y-3478540D01*
X+3653740Y-2942600D02*
X+3653740Y-3069600D01*
X+3590240Y-3006100D02*
X+3717240Y-3006100D01*
X+4430980Y-3564900D02*
X+4430980Y-3691900D01*
X+4367480Y-3628400D02*
X+4494480Y-3628400D01*
X+4692600Y-3534420D02*
X+4692600Y-3661420D01*
X+4629100Y-3597920D02*
X+4756100Y-3597920D01*
X+2157680Y-3049280D02*
X+2157680Y-3176280D01*
X+2094180Y-3112780D02*
X+2221180Y-3112780D01*
X+2157680Y-3003560D02*
X+2157680Y-3130560D01*
X+2094180Y-3067060D02*
X+2221180Y-3067060D01*
X+2157680Y-3095000D02*
X+2157680Y-3222000D01*
X+2094180Y-3158500D02*
X+2221180Y-3158500D01*
X+3539440Y-2934980D02*
X+3539440Y-3061980D01*
X+3475940Y-2998480D02*
X+3602940Y-2998480D01*
X+1682700Y-1169680D02*
X+1682700Y-1296680D01*
X+1619200Y-1233180D02*
X+1746200Y-1233180D01*
X+2990800Y-2365080D02*
X+2990800Y-2492080D01*
X+2927300Y-2428580D02*
X+3054300Y-2428580D01*
X+2985720Y-2528580D02*
X+2985720Y-2655580D01*
X+2922220Y-2592080D02*
X+3049220Y-2592080D01*
X+2987596Y-2487909D02*
X+2987596Y-2614909D01*
X+2924096Y-2551409D02*
X+3051096Y-2551409D01*
X+2988260Y-2315220D02*
X+2988260Y-2442220D01*
X+2924760Y-2378720D02*
X+3051760Y-2378720D01*
X+4903420Y-3397260D02*
X+4903420Y-3524260D01*
X+4839920Y-3460760D02*
X+4966920Y-3460760D01*
X+2518360Y-3021340D02*
X+2518360Y-3148340D01*
X+2454860Y-3084840D02*
X+2581860Y-3084840D01*
X+2518360Y-3060710D02*
X+2518360Y-3187710D01*
X+2454860Y-3124210D02*
X+2581860Y-3124210D01*
X+3034890Y-1992640D02*
X+3034890Y-2119640D01*
X+2971390Y-2056140D02*
X+3098390Y-2056140D01*
X+3033260Y-1952000D02*
X+3033260Y-2079000D01*
X+2969760Y-2015500D02*
X+3096760Y-2015500D01*
X+3186380Y-1890020D02*
X+3186380Y-2017020D01*
X+3122880Y-1953520D02*
X+3249880Y-1953520D01*
X+3227020Y-1890020D02*
X+3227020Y-2017020D01*
X+3163520Y-1953520D02*
X+3290520Y-1953520D01*
X+2015440Y-2927360D02*
X+2015440Y-3054360D01*
X+1951940Y-2990860D02*
X+2078940Y-2990860D01*
X+3379420Y-3521720D02*
X+3379420Y-3648720D01*
X+3315920Y-3585220D02*
X+3442920Y-3585220D01*
X+2061160Y-2927360D02*
X+2061160Y-3054360D01*
X+1997660Y-2990860D02*
X+2124660Y-2990860D01*
X+5728920Y-2660940D02*
X+5728920Y-2787940D01*
X+5665420Y-2724440D02*
X+5792420Y-2724440D01*
X+6902400Y-3407420D02*
X+6902400Y-3534420D01*
X+6838900Y-3470920D02*
X+6965900Y-3470920D01*
X+7019240Y-2419360D02*
X+7019240Y-2546360D01*
X+6955740Y-2482860D02*
X+7082740Y-2482860D01*
X+1588720Y-2233940D02*
X+1588720Y-2360940D01*
X+1525220Y-2297440D02*
X+1652220Y-2297440D01*
X+1629360Y-2233940D02*
X+1629360Y-2360940D01*
X+1565860Y-2297440D02*
X+1692860Y-2297440D01*
X+2604720Y-2226320D02*
X+2604720Y-2353320D01*
X+2541220Y-2289820D02*
X+2668220Y-2289820D01*
X+2614390Y-935620D02*
X+2614390Y-1062620D01*
X+2550890Y-999120D02*
X+2677890Y-999120D01*
X+3170000Y-916500D02*
X+3170000Y-1043500D01*
X+3106500Y-980000D02*
X+3233500Y-980000D01*
X+3640000Y-1006500D02*
X+3640000Y-1133500D01*
X+3576500Y-1070000D02*
X+3703500Y-1070000D01*
X+3660000Y-926500D02*
X+3660000Y-1053500D01*
X+3596500Y-990000D02*
X+3723500Y-990000D01*
X+2665680Y-2338080D02*
X+2665680Y-2465080D01*
X+2602180Y-2401580D02*
X+2729180Y-2401580D01*
X+2891740Y-2231400D02*
X+2891740Y-2358400D01*
X+2828240Y-2294900D02*
X+2955240Y-2294900D01*
X+4110940Y-3559820D02*
X+4110940Y-3686820D01*
X+4047440Y-3623320D02*
X+4174440Y-3623320D01*
X+4020000Y-3077220D02*
X+4020000Y-3204220D01*
X+3956500Y-3140720D02*
X+4083500Y-3140720D01*
X+4020000Y-3526800D02*
X+4020000Y-3653800D01*
X+3956500Y-3590300D02*
X+4083500Y-3590300D01*
X+4933900Y-3516500D02*
X+4933900Y-3643500D01*
X+4870400Y-3580000D02*
X+4997400Y-3580000D01*
X+4771340Y-3272800D02*
X+4771340Y-3399800D01*
X+4707840Y-3336300D02*
X+4834840Y-3336300D01*
X+5165040Y-3420120D02*
X+5165040Y-3547120D01*
X+5101540Y-3483620D02*
X+5228540Y-3483620D01*
X+7015080Y-2536500D02*
X+7015080Y-2663500D01*
X+6951580Y-2600000D02*
X+7078580Y-2600000D01*
X+4824680Y-3333760D02*
X+4824680Y-3460760D01*
X+4761180Y-3397260D02*
X+4888180Y-3397260D01*
X+5378400Y-3562360D02*
X+5378400Y-3689360D01*
X+5314900Y-3625860D02*
X+5441900Y-3625860D01*
X+6180000Y-3506500D02*
X+6180000Y-3633500D01*
X+6116500Y-3570000D02*
X+6243500Y-3570000D01*
X+6040000Y-3506500D02*
X+6040000Y-3633500D01*
X+5976500Y-3570000D02*
X+6103500Y-3570000D01*
X+6040000Y-3386500D02*
X+6040000Y-3513500D01*
X+5976500Y-3450000D02*
X+6103500Y-3450000D01*
X+6180000Y-3386500D02*
X+6180000Y-3513500D01*
X+6116500Y-3450000D02*
X+6243500Y-3450000D01*
X+6730000Y-3006500D02*
X+6730000Y-3133500D01*
X+6666500Y-3070000D02*
X+6793500Y-3070000D01*
X+6730000Y-2636500D02*
X+6730000Y-2763500D01*
X+6666500Y-2700000D02*
X+6793500Y-2700000D01*
X+6210000Y-2636500D02*
X+6210000Y-2763500D01*
X+6146500Y-2700000D02*
X+6273500Y-2700000D01*
X+6210000Y-2346500D02*
X+6210000Y-2473500D01*
X+6146500Y-2410000D02*
X+6273500Y-2410000D01*
X+6590000Y-2346500D02*
X+6590000Y-2473500D01*
X+6526500Y-2410000D02*
X+6653500Y-2410000D01*
X+6880000Y-2056500D02*
X+6880000Y-2183500D01*
X+6816500Y-2120000D02*
X+6943500Y-2120000D01*
X+6150000Y-1926500D02*
X+6150000Y-2053500D01*
X+6086500Y-1990000D02*
X+6213500Y-1990000D01*
X+6950000Y-1926500D02*
X+6950000Y-2053500D01*
X+6886500Y-1990000D02*
X+7013500Y-1990000D01*
X+6640000Y-3396500D02*
X+6640000Y-3523500D01*
X+6576500Y-3460000D02*
X+6703500Y-3460000D01*
X+5210000Y-866500D02*
X+5210000Y-993500D01*
X+5146500Y-930000D02*
X+5273500Y-930000D01*
X+5210000Y-916500D02*
X+5210000Y-1043500D01*
X+5146500Y-980000D02*
X+5273500Y-980000D01*
X+5210000Y-966500D02*
X+5210000Y-1093500D01*
X+5146500Y-1030000D02*
X+5273500Y-1030000D01*
X+5210000Y-1016500D02*
X+5210000Y-1143500D01*
X+5146500Y-1080000D02*
X+5273500Y-1080000D01*
X+5210000Y-1066500D02*
X+5210000Y-1193500D01*
X+5146500Y-1130000D02*
X+5273500Y-1130000D01*
X+4430000Y-1706500D02*
X+4430000Y-1833500D01*
X+4366500Y-1770000D02*
X+4493500Y-1770000D01*
X+4430000Y-1556500D02*
X+4430000Y-1683500D01*
X+4366500Y-1620000D02*
X+4493500Y-1620000D01*
X+4230000Y-1386500D02*
X+4230000Y-1513500D01*
X+4166500Y-1450000D02*
X+4293500Y-1450000D01*
X+5261560Y-2759720D02*
X+5261560Y-2886720D01*
X+5198060Y-2823220D02*
X+5325060Y-2823220D01*
X+5610000Y-1386500D02*
X+5610000Y-1513500D01*
X+5546500Y-1450000D02*
X+5673500Y-1450000D01*
X+4510000Y-2576500D02*
X+4510000Y-2703500D01*
X+4446500Y-2640000D02*
X+4573500Y-2640000D01*
X+4570000Y-2636500D02*
X+4570000Y-2763500D01*
X+4506500Y-2700000D02*
X+4633500Y-2700000D01*
X+3839160Y-2703840D02*
X+3839160Y-2830840D01*
X+3775660Y-2767340D02*
X+3902660Y-2767340D01*
X+4530000Y-2926500D02*
X+4530000Y-3053500D01*
X+4466500Y-2990000D02*
X+4593500Y-2990000D01*
X+4600000Y-3046500D02*
X+4600000Y-3173500D01*
X+4536500Y-3110000D02*
X+4663500Y-3110000D01*
X+3963620Y-2766500D02*
X+3963620Y-2893500D01*
X+3900120Y-2830000D02*
X+4027120Y-2830000D01*
X+4560000Y-2766500D02*
X+4560000Y-2893500D01*
X+4496500Y-2830000D02*
X+4623500Y-2830000D01*
X+5292040Y-3361700D02*
X+5292040Y-3488700D01*
X+5228540Y-3425200D02*
X+5355540Y-3425200D01*
X+3386603Y-2477538D02*
X+3386603Y-2604538D01*
X+3323103Y-2541038D02*
X+3450103Y-2541038D01*
X+3386603Y-2556500D02*
X+3386603Y-2683500D01*
X+3323103Y-2620000D02*
X+3450103Y-2620000D01*
X+2200860Y-3559820D02*
X+2200860Y-3686820D01*
X+2137360Y-3623320D02*
X+2264360Y-3623320D01*
X+2238960Y-3559820D02*
X+2238960Y-3686820D01*
X+2175460Y-3623320D02*
X+2302460Y-3623320D01*
X+2279600Y-3559820D02*
X+2279600Y-3686820D01*
X+2216100Y-3623320D02*
X+2343100Y-3623320D01*
X+2325320Y-3559820D02*
X+2325320Y-3686820D01*
X+2261820Y-3623320D02*
X+2388820Y-3623320D01*
X+2325320Y-3501400D02*
X+2325320Y-3628400D01*
X+2261820Y-3564900D02*
X+2388820Y-3564900D01*
X+2710000Y-2096500D02*
X+2710000Y-2223500D01*
X+2646500Y-2160000D02*
X+2773500Y-2160000D01*
X+2550000Y-2076500D02*
X+2550000Y-2203500D01*
X+2486500Y-2140000D02*
X+2613500Y-2140000D01*
X+1520000Y-2056500D02*
X+1520000Y-2183500D01*
X+1456500Y-2120000D02*
X+1583500Y-2120000D01*
X+2330000Y-1836500D02*
X+2330000Y-1963500D01*
X+2266500Y-1900000D02*
X+2393500Y-1900000D01*
X+1932732Y-2446205D02*
X+1932732Y-2573205D01*
X+1869232Y-2509705D02*
X+1996232Y-2509705D01*
X+1936700Y-2729240D02*
X+1936700Y-2856240D01*
X+1873200Y-2792740D02*
X+2000200Y-2792740D01*
X+2260000Y-2796500D02*
X+2260000Y-2923500D01*
X+2196500Y-2860000D02*
X+2323500Y-2860000D01*
X+2630000Y-2079439D02*
X+2630000Y-2206439D01*
X+2566500Y-2142939D02*
X+2693500Y-2142939D01*
X+5680660Y-3557280D02*
X+5680660Y-3684280D01*
X+5617160Y-3620780D02*
X+5744160Y-3620780D01*
X+4550000Y-2841636D02*
X+4550000Y-2968636D01*
X+4486500Y-2905136D02*
X+4613500Y-2905136D01*
X+3999180Y-2879100D02*
X+3999180Y-3006100D01*
X+3935680Y-2942600D02*
X+4062680Y-2942600D01*
X+5774640Y-3384560D02*
X+5774640Y-3511560D01*
X+5711140Y-3448060D02*
X+5838140Y-3448060D01*
X+5510000Y-760780D02*
X+5510000Y-887780D01*
X+5446500Y-824280D02*
X+5573500Y-824280D01*
X+6723367Y-1143879D02*
X+6723367Y-1270879D01*
X+6659867Y-1207379D02*
X+6786867Y-1207379D01*
X+6655587Y-1143879D02*
X+6655587Y-1270879D01*
X+6592087Y-1207379D02*
X+6719087Y-1207379D01*
X+6587807Y-1143879D02*
X+6587807Y-1270879D01*
X+6524307Y-1207379D02*
X+6651307Y-1207379D01*
X+6520027Y-1143879D02*
X+6520027Y-1270879D01*
X+6456527Y-1207379D02*
X+6583527Y-1207379D01*
X+6452247Y-1143879D02*
X+6452247Y-1270879D01*
X+6388747Y-1207379D02*
X+6515747Y-1207379D01*
X+6384467Y-1143879D02*
X+6384467Y-1270879D01*
X+6320967Y-1207379D02*
X+6447967Y-1207379D01*
X+6316687Y-1143879D02*
X+6316687Y-1270879D01*
X+6253187Y-1207379D02*
X+6380187Y-1207379D01*
X+6248907Y-1143879D02*
X+6248907Y-1270879D01*
X+6185407Y-1207379D02*
X+6312407Y-1207379D01*
X+6181140Y-1145230D02*
X+6181140Y-1272230D01*
X+6117640Y-1208730D02*
X+6244640Y-1208730D01*
X+6113437Y-1148459D02*
X+6113437Y-1275459D01*
X+6049937Y-1211959D02*
X+6176937Y-1211959D01*
X+6046757Y-1160623D02*
X+6046757Y-1287623D01*
X+5983257Y-1224123D02*
X+6110257Y-1224123D01*
X+5982674Y-1182701D02*
X+5982674Y-1309701D01*
X+5919174Y-1246201D02*
X+6046174Y-1246201D01*
X+5924626Y-1217695D02*
X+5924626Y-1344695D01*
X+5861126Y-1281195D02*
X+5988126Y-1281195D01*
X+5877260Y-1266178D02*
X+5877260Y-1393178D01*
X+5813760Y-1329678D02*
X+5940760Y-1329678D01*
X+5854370Y-1329976D02*
X+5854370Y-1456976D01*
X+5790870Y-1393476D02*
X+5917870Y-1393476D01*
X+5853039Y-1397742D02*
X+5853039Y-1524742D01*
X+5789539Y-1461242D02*
X+5916539Y-1461242D01*
X+5853039Y-1465522D02*
X+5853039Y-1592522D01*
X+5789539Y-1529022D02*
X+5916539Y-1529022D01*
X+5691281Y-1437767D02*
X+5691281Y-1564767D01*
X+5627781Y-1501267D02*
X+5754781Y-1501267D01*
X+5691281Y-1369987D02*
X+5691281Y-1496987D01*
X+5627781Y-1433487D02*
X+5754781Y-1433487D01*
X+5691935Y-1302210D02*
X+5691935Y-1429210D01*
X+5628435Y-1365710D02*
X+5755435Y-1365710D01*
X+5711253Y-1237241D02*
X+5711253Y-1364241D01*
X+5647753Y-1300741D02*
X+5774753Y-1300741D01*
X+5741806Y-1176738D02*
X+5741806Y-1303738D01*
X+5678306Y-1240238D02*
X+5805306Y-1240238D01*
X+5784253Y-1123895D02*
X+5784253Y-1250895D01*
X+5720753Y-1187395D02*
X+5847753Y-1187395D01*
X+5836474Y-1080686D02*
X+5836474Y-1207686D01*
X+5772974Y-1144186D02*
X+5899974Y-1144186D01*
X+5894902Y-1046330D02*
X+5894902Y-1173330D01*
X+5831402Y-1109830D02*
X+5958402Y-1109830D01*
X+5957284Y-1019824D02*
X+5957284Y-1146824D01*
X+5893784Y-1083324D02*
X+6020784Y-1083324D01*
X+6022257Y-1000519D02*
X+6022257Y-1127519D01*
X+5958757Y-1064019D02*
X+6085757Y-1064019D01*
X+6088774Y-987497D02*
X+6088774Y-1114497D01*
X+6025274Y-1050997D02*
X+6152274Y-1050997D01*
X+6156340Y-982121D02*
X+6156340Y-1109121D01*
X+6092840Y-1045621D02*
X+6219840Y-1045621D01*
X+6224120Y-982121D02*
X+6224120Y-1109121D01*
X+6160620Y-1045621D02*
X+6287620Y-1045621D01*
X+6291900Y-982121D02*
X+6291900Y-1109121D01*
X+6228400Y-1045621D02*
X+6355400Y-1045621D01*
X+6359680Y-982121D02*
X+6359680Y-1109121D01*
X+6296180Y-1045621D02*
X+6423180Y-1045621D01*
X+6427460Y-982121D02*
X+6427460Y-1109121D01*
X+6363960Y-1045621D02*
X+6490960Y-1045621D01*
X+6495240Y-982121D02*
X+6495240Y-1109121D01*
X+6431740Y-1045621D02*
X+6558740Y-1045621D01*
X+6563020Y-982121D02*
X+6563020Y-1109121D01*
X+6499520Y-1045621D02*
X+6626520Y-1045621D01*
X+6630800Y-982121D02*
X+6630800Y-1109121D01*
X+6567300Y-1045621D02*
X+6694300Y-1045621D01*
X+6698580Y-982121D02*
X+6698580Y-1109121D01*
X+6635080Y-1045621D02*
X+6762080Y-1045621D01*
X+3907740Y-3039120D02*
X+3907740Y-3166120D01*
X+3844240Y-3102620D02*
X+3971240Y-3102620D01*
X+3440000Y-3575060D02*
X+3440000Y-3702060D01*
X+3376500Y-3638560D02*
X+3503500Y-3638560D01*
X+4563060Y-3153420D02*
X+4563060Y-3280420D01*
X+4499560Y-3216920D02*
X+4626560Y-3216920D01*
X+4593540Y-3575060D02*
X+4593540Y-3702060D01*
X+4530040Y-3638560D02*
X+4657040Y-3638560D01*
X+4504640Y-3074680D02*
X+4504640Y-3201680D01*
X+4441140Y-3138180D02*
X+4568140Y-3138180D01*
X+4507180Y-3575060D02*
X+4507180Y-3702060D01*
X+4443680Y-3638560D02*
X+4570680Y-3638560D01*
X+5571440Y-3476000D02*
X+5571440Y-3603000D01*
X+5507940Y-3539500D02*
X+5634940Y-3539500D01*
X+5856180Y-3496320D02*
X+5856180Y-3623320D01*
X+5792680Y-3559820D02*
X+5919680Y-3559820D01*
X+2330570Y-1555930D02*
X+2330570Y-1682930D01*
X+2267070Y-1619430D02*
X+2394070Y-1619430D01*
X+2513280Y-1690380D02*
X+2513280Y-1817380D01*
X+2449780Y-1753880D02*
X+2576780Y-1753880D01*
X+2142440Y-1916440D02*
X+2142440Y-2043440D01*
X+2078940Y-1979940D02*
X+2205940Y-1979940D01*
X+2325320Y-1913900D02*
X+2325320Y-2040900D01*
X+2261820Y-1977400D02*
X+2388820Y-1977400D01*
X+5363160Y-2950220D02*
X+5363160Y-3077220D01*
X+5299660Y-3013720D02*
X+5426660Y-3013720D01*
X+2071320Y-1865640D02*
X+2071320Y-1992640D01*
X+2007820Y-1929140D02*
X+2134820Y-1929140D01*
X+2528520Y-2350780D02*
X+2528520Y-2477780D01*
X+2465020Y-2414280D02*
X+2592020Y-2414280D01*
X+2475180Y-3125480D02*
X+2475180Y-3252480D01*
X+2411680Y-3188980D02*
X+2538680Y-3188980D01*
X+2250000Y-2876500D02*
X+2250000Y-3003500D01*
X+2186500Y-2940000D02*
X+2313500Y-2940000D01*
X+1672420Y-2698920D02*
X+1672420Y-2825920D01*
X+1608920Y-2762420D02*
X+1735920Y-2762420D01*
X+1654820Y-871220D02*
X+1654820Y-998220D01*
X+1591320Y-934720D02*
X+1718320Y-934720D01*
X+2164080Y-871220D02*
X+2164080Y-998220D01*
X+2100580Y-934720D02*
X+2227580Y-934720D01*
X+2364740Y-1071880D02*
X+2364740Y-1198880D01*
X+2301240Y-1135380D02*
X+2428240Y-1135380D01*
X+3600400Y-2830840D02*
X+3600400Y-2957840D01*
X+3536900Y-2894340D02*
X+3663900Y-2894340D01*
X+4451300Y-2942600D02*
X+4451300Y-3069600D01*
X+4387800Y-3006100D02*
X+4514800Y-3006100D01*
X+4189680Y-3559820D02*
X+4189680Y-3686820D01*
X+4126180Y-3623320D02*
X+4253180Y-3623320D01*
X+6943100Y-1063040D02*
X+6943100Y-1190040D01*
X+6879600Y-1126540D02*
X+7006600Y-1126540D01*
X+6898199Y-1081639D02*
X+6988001Y-1171441D01*
X+6898199Y-1171441D02*
X+6988001Y-1081639D01*
X+6752600Y-1380540D02*
X+6752383Y-1375293D01*
X+6750618Y-1364798D01*
X+6746926Y-1354303D01*
X+6740898Y-1343808D01*
X+6731676Y-1333428D01*
X+6721181Y-1325740D01*
X+6710686Y-1320822D01*
X+6700191Y-1318016D01*
X+6689696Y-1317043D01*
X+6689100Y-1317040D01*
X+6625600Y-1380540D02*
X+6625817Y-1375293D01*
X+6627582Y-1364798D01*
X+6631274Y-1354303D01*
X+6637302Y-1343808D01*
X+6646524Y-1333428D01*
X+6657019Y-1325740D01*
X+6667514Y-1320822D01*
X+6678009Y-1318016D01*
X+6688504Y-1317043D01*
X+6689100Y-1317040D01*
X+6625600Y-1380540D02*
X+6625817Y-1385787D01*
X+6627582Y-1396282D01*
X+6631274Y-1406777D01*
X+6637302Y-1417272D01*
X+6646524Y-1427652D01*
X+6657019Y-1435340D01*
X+6667514Y-1440258D01*
X+6678009Y-1443064D01*
X+6688504Y-1444037D01*
X+6689100Y-1444040D01*
X+6752600Y-1380540D02*
X+6752383Y-1385787D01*
X+6750618Y-1396282D01*
X+6746926Y-1406777D01*
X+6740898Y-1417272D01*
X+6731676Y-1427652D01*
X+6721181Y-1435340D01*
X+6710686Y-1440258D01*
X+6700191Y-1443064D01*
X+6689696Y-1444037D01*
X+6689100Y-1444040D01*
X+6689100Y-1317040D02*
X+6689100Y-1444040D01*
X+6625600Y-1380540D02*
X+6752600Y-1380540D01*
X+7260600Y-1380540D02*
X+7260383Y-1375293D01*
X+7258618Y-1364798D01*
X+7254926Y-1354303D01*
X+7248898Y-1343808D01*
X+7239676Y-1333428D01*
X+7229181Y-1325740D01*
X+7218686Y-1320822D01*
X+7208191Y-1318016D01*
X+7197696Y-1317043D01*
X+7197100Y-1317040D01*
X+7133600Y-1380540D02*
X+7133817Y-1375293D01*
X+7135582Y-1364798D01*
X+7139274Y-1354303D01*
X+7145302Y-1343808D01*
X+7154524Y-1333428D01*
X+7165019Y-1325740D01*
X+7175514Y-1320822D01*
X+7186009Y-1318016D01*
X+7196504Y-1317043D01*
X+7197100Y-1317040D01*
X+7133600Y-1380540D02*
X+7133817Y-1385787D01*
X+7135582Y-1396282D01*
X+7139274Y-1406777D01*
X+7145302Y-1417272D01*
X+7154524Y-1427652D01*
X+7165019Y-1435340D01*
X+7175514Y-1440258D01*
X+7186009Y-1443064D01*
X+7196504Y-1444037D01*
X+7197100Y-1444040D01*
X+7260600Y-1380540D02*
X+7260383Y-1385787D01*
X+7258618Y-1396282D01*
X+7254926Y-1406777D01*
X+7248898Y-1417272D01*
X+7239676Y-1427652D01*
X+7229181Y-1435340D01*
X+7218686Y-1440258D01*
X+7208191Y-1443064D01*
X+7197696Y-1444037D01*
X+7197100Y-1444040D01*
X+7197100Y-1317040D02*
X+7197100Y-1444040D01*
X+7133600Y-1380540D02*
X+7260600Y-1380540D01*
X+7260600Y-872540D02*
X+7260383Y-867293D01*
X+7258618Y-856798D01*
X+7254926Y-846303D01*
X+7248898Y-835808D01*
X+7239676Y-825428D01*
X+7229181Y-817740D01*
X+7218686Y-812822D01*
X+7208191Y-810016D01*
X+7197696Y-809043D01*
X+7197100Y-809040D01*
X+7133600Y-872540D02*
X+7133817Y-867293D01*
X+7135582Y-856798D01*
X+7139274Y-846303D01*
X+7145302Y-835808D01*
X+7154524Y-825428D01*
X+7165019Y-817740D01*
X+7175514Y-812822D01*
X+7186009Y-810016D01*
X+7196504Y-809043D01*
X+7197100Y-809040D01*
X+7133600Y-872540D02*
X+7133817Y-877787D01*
X+7135582Y-888282D01*
X+7139274Y-898777D01*
X+7145302Y-909272D01*
X+7154524Y-919652D01*
X+7165019Y-927340D01*
X+7175514Y-932258D01*
X+7186009Y-935064D01*
X+7196504Y-936037D01*
X+7197100Y-936040D01*
X+7260600Y-872540D02*
X+7260383Y-877787D01*
X+7258618Y-888282D01*
X+7254926Y-898777D01*
X+7248898Y-909272D01*
X+7239676Y-919652D01*
X+7229181Y-927340D01*
X+7218686Y-932258D01*
X+7208191Y-935064D01*
X+7197696Y-936037D01*
X+7197100Y-936040D01*
X+7197100Y-809040D02*
X+7197100Y-936040D01*
X+7133600Y-872540D02*
X+7260600Y-872540D01*
X+6752600Y-872540D02*
X+6752383Y-867293D01*
X+6750618Y-856798D01*
X+6746926Y-846303D01*
X+6740898Y-835808D01*
X+6731676Y-825428D01*
X+6721181Y-817740D01*
X+6710686Y-812822D01*
X+6700191Y-810016D01*
X+6689696Y-809043D01*
X+6689100Y-809040D01*
X+6625600Y-872540D02*
X+6625817Y-867293D01*
X+6627582Y-856798D01*
X+6631274Y-846303D01*
X+6637302Y-835808D01*
X+6646524Y-825428D01*
X+6657019Y-817740D01*
X+6667514Y-812822D01*
X+6678009Y-810016D01*
X+6688504Y-809043D01*
X+6689100Y-809040D01*
X+6625600Y-872540D02*
X+6625817Y-877787D01*
X+6627582Y-888282D01*
X+6631274Y-898777D01*
X+6637302Y-909272D01*
X+6646524Y-919652D01*
X+6657019Y-927340D01*
X+6667514Y-932258D01*
X+6678009Y-935064D01*
X+6688504Y-936037D01*
X+6689100Y-936040D01*
X+6752600Y-872540D02*
X+6752383Y-877787D01*
X+6750618Y-888282D01*
X+6746926Y-898777D01*
X+6740898Y-909272D01*
X+6731676Y-919652D01*
X+6721181Y-927340D01*
X+6710686Y-932258D01*
X+6700191Y-935064D01*
X+6689696Y-936037D01*
X+6689100Y-936040D01*
X+6689100Y-809040D02*
X+6689100Y-936040D01*
X+6625600Y-872540D02*
X+6752600Y-872540D01*
X+1205019Y-1536679D02*
X+1294821Y-1626481D01*
X+1205019Y-1626481D02*
X+1294821Y-1536679D01*
X+1205019Y-1046679D02*
X+1294821Y-1136481D01*
X+1205019Y-1136481D02*
X+1294821Y-1046679D01*
X+1044180Y-1697180D02*
X+1043963Y-1691933D01*
X+1042198Y-1681438D01*
X+1038506Y-1670943D01*
X+1032478Y-1660448D01*
X+1023256Y-1650068D01*
X+1012761Y-1642380D01*
X+1002266Y-1637462D01*
X+991771Y-1634656D01*
X+981276Y-1633683D01*
X+980680Y-1633680D01*
X+917180Y-1697180D02*
X+917397Y-1691933D01*
X+919162Y-1681438D01*
X+922854Y-1670943D01*
X+928882Y-1660448D01*
X+938104Y-1650068D01*
X+948599Y-1642380D01*
X+959094Y-1637462D01*
X+969589Y-1634656D01*
X+980084Y-1633683D01*
X+980680Y-1633680D01*
X+917180Y-1697180D02*
X+917397Y-1702427D01*
X+919162Y-1712922D01*
X+922854Y-1723417D01*
X+928882Y-1733912D01*
X+938104Y-1744292D01*
X+948599Y-1751980D01*
X+959094Y-1756898D01*
X+969589Y-1759704D01*
X+980084Y-1760677D01*
X+980680Y-1760680D01*
X+1044180Y-1697180D02*
X+1043963Y-1702427D01*
X+1042198Y-1712922D01*
X+1038506Y-1723417D01*
X+1032478Y-1733912D01*
X+1023256Y-1744292D01*
X+1012761Y-1751980D01*
X+1002266Y-1756898D01*
X+991771Y-1759704D01*
X+981276Y-1760677D01*
X+980680Y-1760680D01*
X+935779Y-1652279D02*
X+1025581Y-1742081D01*
X+935779Y-1742081D02*
X+1025581Y-1652279D01*
X+1044180Y-973280D02*
X+1043963Y-968033D01*
X+1042198Y-957538D01*
X+1038506Y-947043D01*
X+1032478Y-936548D01*
X+1023256Y-926168D01*
X+1012761Y-918480D01*
X+1002266Y-913562D01*
X+991771Y-910756D01*
X+981276Y-909783D01*
X+980680Y-909780D01*
X+917180Y-973280D02*
X+917397Y-968033D01*
X+919162Y-957538D01*
X+922854Y-947043D01*
X+928882Y-936548D01*
X+938104Y-926168D01*
X+948599Y-918480D01*
X+959094Y-913562D01*
X+969589Y-910756D01*
X+980084Y-909783D01*
X+980680Y-909780D01*
X+917180Y-973280D02*
X+917397Y-978527D01*
X+919162Y-989022D01*
X+922854Y-999517D01*
X+928882Y-1010012D01*
X+938104Y-1020392D01*
X+948599Y-1028080D01*
X+959094Y-1032998D01*
X+969589Y-1035804D01*
X+980084Y-1036777D01*
X+980680Y-1036780D01*
X+1044180Y-973280D02*
X+1043963Y-978527D01*
X+1042198Y-989022D01*
X+1038506Y-999517D01*
X+1032478Y-1010012D01*
X+1023256Y-1020392D01*
X+1012761Y-1028080D01*
X+1002266Y-1032998D01*
X+991771Y-1035804D01*
X+981276Y-1036777D01*
X+980680Y-1036780D01*
X+935779Y-928379D02*
X+1025581Y-1018181D01*
X+935779Y-1018181D02*
X+1025581Y-928379D01*
X+818980Y-4046380D02*
X+818980Y-756380D01*
X+7338980Y-4046380D02*
X+7336440Y-966720D01*
X+817880Y-754380D02*
X+6554000Y-756920D01*
X+1818640Y-4046220D02*
X+1818640Y-4216700D01*
X+1818640Y-4218940D02*
X+2016760Y-4218940D01*
X+1818640Y-4218940D02*
X+2817020Y-4218940D01*
X+2817460Y-4047860D02*
X+2817460Y-4218340D01*
X+2816860Y-4046220D02*
X+5341620Y-4046220D01*
X+1818640Y-4046220D02*
X+817880Y-4046220D01*
X+5341620Y-4218940D02*
X+5341620Y-4046220D01*
X+6339840Y-4046220D02*
X+7338060Y-4046220D01*
X+6339840Y-4218940D02*
X+6339840Y-4046220D01*
X+5341620Y-4218940D02*
X+6339840Y-4218940D01*
X+6554000Y-756920D02*
X+6554000Y-967260D01*
X+7338060Y-967260D01*
D124*
X-3258641Y-7491740D02*
X-817701Y-7491740D01*
X-817701Y-6005840D01*
X-3258641Y-6005840D01*
X-3258641Y-7491740D01*
D57*
X-2791279Y-6005840D02*
X-2791279Y-7491740D01*
X-2181679Y-6005840D02*
X-2181679Y-7491740D01*
X-1348559Y-6005840D02*
X-1348559Y-7491740D01*
X-3258641Y-6278890D02*
X-817701Y-6278890D01*
X-3258641Y-6520190D02*
X-817701Y-6520190D01*
X-3258641Y-6761490D02*
X-817701Y-6761490D01*
X-3258641Y-7002790D02*
X-817701Y-7002790D01*
X-3258641Y-7244090D02*
X-817701Y-7244090D01*
D124*
X-3201491Y-6169670D02*
X-3186251Y-6184910D01*
X-3125291Y-6184910D01*
X-3110051Y-6169670D01*
X-3110051Y-6154430D01*
X-3125291Y-6139190D01*
X-3186251Y-6139190D01*
X-3201491Y-6123950D01*
X-3201491Y-6108710D01*
X-3186251Y-6093470D01*
X-3125291Y-6093470D01*
X-3110051Y-6108710D01*
X-2988131Y-6093470D02*
X-3079571Y-6184910D01*
X-3079571Y-6093470D02*
X-3033851Y-6139190D01*
X-2957651Y-6184910D02*
X-2957651Y-6093470D01*
X-2911931Y-6139190D01*
X-2866211Y-6093470D01*
X-2866211Y-6184910D01*
X-2734131Y-6169670D02*
X-2718891Y-6184910D01*
X-2657931Y-6184910D01*
X-2642691Y-6169670D01*
X-2642691Y-6154430D01*
X-2657931Y-6139190D01*
X-2718891Y-6139190D01*
X-2734131Y-6123950D01*
X-2734131Y-6108710D01*
X-2718891Y-6093470D01*
X-2657931Y-6093470D01*
X-2642691Y-6108710D01*
X-2596971Y-6093470D02*
X-2536011Y-6093470D01*
X-2566491Y-6093470D02*
X-2566491Y-6184910D01*
X-2596971Y-6184910D02*
X-2536011Y-6184910D01*
X-2490291Y-6093470D02*
X-2398851Y-6093470D01*
X-2490291Y-6184910D01*
X-2398851Y-6184910D01*
X-2276931Y-6184910D02*
X-2368371Y-6184910D01*
X-2368371Y-6093470D01*
X-2276931Y-6093470D01*
X-2368371Y-6139190D02*
X-2307411Y-6139190D01*
X-2124531Y-6184910D02*
X-2124531Y-6093470D01*
X-2048331Y-6093470D01*
X-2033091Y-6108710D01*
X-2033091Y-6123950D01*
X-2048331Y-6139190D01*
X-2124531Y-6139190D01*
X-2002611Y-6093470D02*
X-2002611Y-6184910D01*
X-1911171Y-6184910D01*
X-1880691Y-6184910D02*
X-1880691Y-6123950D01*
X-1850211Y-6093470D01*
X-1819731Y-6093470D01*
X-1789251Y-6123950D01*
X-1789251Y-6184910D01*
X-1880691Y-6154430D02*
X-1789251Y-6154430D01*
X-1758771Y-6093470D02*
X-1667331Y-6093470D01*
X-1713051Y-6093470D02*
X-1713051Y-6184910D01*
X-1545411Y-6184910D02*
X-1636851Y-6184910D01*
X-1636851Y-6093470D01*
X-1545411Y-6093470D01*
X-1636851Y-6139190D02*
X-1575891Y-6139190D01*
X-1514931Y-6184910D02*
X-1514931Y-6093470D01*
X-1453971Y-6093470D01*
X-1423491Y-6123950D01*
X-1423491Y-6154430D01*
X-1453971Y-6184910D01*
X-1514931Y-6184910D01*
X-1291411Y-6123950D02*
X-1260931Y-6093470D01*
X-1230451Y-6093470D01*
X-1199971Y-6123950D01*
X-1199971Y-6154430D01*
X-1230451Y-6184910D01*
X-1260931Y-6184910D01*
X-1291411Y-6154430D01*
X-1291411Y-6123950D01*
X-1230451Y-6154430D02*
X-1199971Y-6184910D01*
X-1169491Y-6093470D02*
X-1078051Y-6093470D01*
X-1123771Y-6093470D02*
X-1123771Y-6184910D01*
X-956131Y-6093470D02*
X-1047571Y-6184910D01*
X-1047571Y-6093470D02*
X-1001851Y-6139190D01*
D42*
X-3012261Y-6329690D02*
X-3012261Y-6456690D01*
X-3075761Y-6393190D02*
X-2948761Y-6393190D01*
D124*
X-2715081Y-6418590D02*
X-2715081Y-6367790D01*
X-2702381Y-6355090D01*
X-2651581Y-6355090D01*
X-2638881Y-6367790D01*
X-2638881Y-6418590D01*
X-2651581Y-6431290D01*
X-2702381Y-6431290D01*
X-2715081Y-6418590D01*
X-2715081Y-6431290D02*
X-2638881Y-6355090D01*
X-2575381Y-6418590D02*
X-2562681Y-6418590D01*
X-2562681Y-6431290D01*
X-2575381Y-6431290D01*
X-2575381Y-6418590D01*
X-2499181Y-6367790D02*
X-2486481Y-6355090D01*
X-2448381Y-6355090D01*
X-2435681Y-6367790D01*
X-2435681Y-6380490D01*
X-2448381Y-6393190D01*
X-2435681Y-6405890D01*
X-2435681Y-6418590D01*
X-2448381Y-6431290D01*
X-2486481Y-6431290D01*
X-2499181Y-6418590D01*
X-2473781Y-6393190D02*
X-2448381Y-6393190D01*
X-2410281Y-6431290D02*
X-2410281Y-6380490D01*
X-2410281Y-6393190D02*
X-2397581Y-6380490D01*
X-2372181Y-6405890D01*
X-2346781Y-6380490D01*
X-2334081Y-6393190D01*
X-2334081Y-6431290D01*
X-2308681Y-6431290D02*
X-2308681Y-6380490D01*
X-2308681Y-6393190D02*
X-2295981Y-6380490D01*
X-2270581Y-6405890D01*
X-2245181Y-6380490D01*
X-2232481Y-6393190D01*
X-2232481Y-6431290D01*
X-2016581Y-6355090D02*
X-2092781Y-6431290D01*
X-2092781Y-6355090D02*
X-2054681Y-6393190D01*
X-1914981Y-6431290D02*
X-1991181Y-6431290D01*
X-1991181Y-6355090D01*
X-1914981Y-6355090D01*
X-1991181Y-6393190D02*
X-1940381Y-6393190D01*
X-1889581Y-6418590D02*
X-1876881Y-6431290D01*
X-1826081Y-6431290D01*
X-1813381Y-6418590D01*
X-1813381Y-6405890D01*
X-1826081Y-6393190D01*
X-1876881Y-6393190D01*
X-1889581Y-6380490D01*
X-1889581Y-6367790D01*
X-1876881Y-6355090D01*
X-1826081Y-6355090D01*
X-1813381Y-6367790D01*
X-1234261Y-6367790D02*
X-1221561Y-6355090D01*
X-1183461Y-6355090D01*
X-1170761Y-6367790D01*
X-1170761Y-6380490D01*
X-1183461Y-6393190D01*
X-1221561Y-6393190D01*
X-1234261Y-6405890D01*
X-1234261Y-6431290D01*
X-1170761Y-6431290D01*
X-1145361Y-6418590D02*
X-1145361Y-6367790D01*
X-1132661Y-6355090D01*
X-1081861Y-6355090D01*
X-1069161Y-6367790D01*
X-1069161Y-6418590D01*
X-1081861Y-6431290D01*
X-1132661Y-6431290D01*
X-1145361Y-6418590D01*
X-1145361Y-6431290D02*
X-1069161Y-6355090D01*
X-1031061Y-6367790D02*
X-1018361Y-6355090D01*
X-980261Y-6355090D01*
X-967561Y-6367790D01*
X-967561Y-6380490D01*
X-980261Y-6393190D01*
X-967561Y-6405890D01*
X-967561Y-6418590D01*
X-980261Y-6431290D01*
X-1018361Y-6431290D01*
X-1031061Y-6418590D01*
X-1005661Y-6393190D02*
X-980261Y-6393190D01*
D42*
X-3057162Y-6589589D02*
X-2967360Y-6679391D01*
X-3057162Y-6679391D02*
X-2967360Y-6589589D01*
D124*
X-2715081Y-6659890D02*
X-2715081Y-6609090D01*
X-2702381Y-6596390D01*
X-2651581Y-6596390D01*
X-2638881Y-6609090D01*
X-2638881Y-6659890D01*
X-2651581Y-6672590D01*
X-2702381Y-6672590D01*
X-2715081Y-6659890D01*
X-2715081Y-6672590D02*
X-2638881Y-6596390D01*
X-2575381Y-6659890D02*
X-2562681Y-6659890D01*
X-2562681Y-6672590D01*
X-2575381Y-6672590D01*
X-2575381Y-6659890D01*
X-2499181Y-6596390D02*
X-2435681Y-6596390D01*
X-2435681Y-6609090D01*
X-2499181Y-6672590D01*
X-2410281Y-6672590D02*
X-2410281Y-6621790D01*
X-2410281Y-6634490D02*
X-2397581Y-6621790D01*
X-2372181Y-6647190D01*
X-2346781Y-6621790D01*
X-2334081Y-6634490D01*
X-2334081Y-6672590D01*
X-2308681Y-6672590D02*
X-2308681Y-6621790D01*
X-2308681Y-6634490D02*
X-2295981Y-6621790D01*
X-2270581Y-6647190D01*
X-2245181Y-6621790D01*
X-2232481Y-6634490D01*
X-2232481Y-6672590D01*
X-2016581Y-6596390D02*
X-2092781Y-6672590D01*
X-2092781Y-6596390D02*
X-2054681Y-6634490D01*
X-1914981Y-6672590D02*
X-1991181Y-6672590D01*
X-1991181Y-6596390D01*
X-1914981Y-6596390D01*
X-1991181Y-6634490D02*
X-1940381Y-6634490D01*
X-1889581Y-6659890D02*
X-1876881Y-6672590D01*
X-1826081Y-6672590D01*
X-1813381Y-6659890D01*
X-1813381Y-6647190D01*
X-1826081Y-6634490D01*
X-1876881Y-6634490D01*
X-1889581Y-6621790D01*
X-1889581Y-6609090D01*
X-1876881Y-6596390D01*
X-1826081Y-6596390D01*
X-1813381Y-6609090D01*
X-1234261Y-6609090D02*
X-1221561Y-6596390D01*
X-1183461Y-6596390D01*
X-1170761Y-6609090D01*
X-1170761Y-6621790D01*
X-1183461Y-6634490D01*
X-1221561Y-6634490D01*
X-1234261Y-6647190D01*
X-1234261Y-6672590D01*
X-1170761Y-6672590D01*
D42*
X-3012261Y-6812290D02*
X-3012261Y-6939290D01*
X-3075761Y-6875790D02*
X-2948761Y-6875790D01*
X-3057162Y-6830889D02*
X-2967360Y-6920691D01*
X-3057162Y-6920691D02*
X-2967360Y-6830889D01*
D124*
X-2689681Y-6863090D02*
X-2664281Y-6837690D01*
X-2664281Y-6913890D01*
X-2575381Y-6901190D02*
X-2562681Y-6901190D01*
X-2562681Y-6913890D01*
X-2575381Y-6913890D01*
X-2575381Y-6901190D01*
X-2435681Y-6837690D02*
X-2499181Y-6837690D01*
X-2499181Y-6863090D01*
X-2448381Y-6863090D01*
X-2435681Y-6875790D01*
X-2435681Y-6901190D01*
X-2448381Y-6913890D01*
X-2486481Y-6913890D01*
X-2499181Y-6901190D01*
X-2410281Y-6913890D02*
X-2410281Y-6863090D01*
X-2410281Y-6875790D02*
X-2397581Y-6863090D01*
X-2372181Y-6888490D01*
X-2346781Y-6863090D01*
X-2334081Y-6875790D01*
X-2334081Y-6913890D01*
X-2308681Y-6913890D02*
X-2308681Y-6863090D01*
X-2308681Y-6875790D02*
X-2295981Y-6863090D01*
X-2270581Y-6888490D01*
X-2245181Y-6863090D01*
X-2232481Y-6875790D01*
X-2232481Y-6913890D01*
X-2016581Y-6837690D02*
X-2092781Y-6913890D01*
X-2092781Y-6837690D02*
X-2054681Y-6875790D01*
X-1914981Y-6913890D02*
X-1991181Y-6913890D01*
X-1991181Y-6837690D01*
X-1914981Y-6837690D01*
X-1991181Y-6875790D02*
X-1940381Y-6875790D01*
X-1889581Y-6901190D02*
X-1876881Y-6913890D01*
X-1826081Y-6913890D01*
X-1813381Y-6901190D01*
X-1813381Y-6888490D01*
X-1826081Y-6875790D01*
X-1876881Y-6875790D01*
X-1889581Y-6863090D01*
X-1889581Y-6850390D01*
X-1876881Y-6837690D01*
X-1826081Y-6837690D01*
X-1813381Y-6850390D01*
X-1221561Y-6863090D02*
X-1196161Y-6837690D01*
X-1196161Y-6913890D01*
D42*
X-2948761Y-7117090D02*
X-2948978Y-7111843D01*
X-2950743Y-7101348D01*
X-2954435Y-7090853D01*
X-2960463Y-7080358D01*
X-2969685Y-7069978D01*
X-2980180Y-7062290D01*
X-2990675Y-7057372D01*
X-3001170Y-7054566D01*
X-3011665Y-7053593D01*
X-3012261Y-7053590D01*
X-3075761Y-7117090D02*
X-3075544Y-7111843D01*
X-3073779Y-7101348D01*
X-3070087Y-7090853D01*
X-3064059Y-7080358D01*
X-3054837Y-7069978D01*
X-3044342Y-7062290D01*
X-3033847Y-7057372D01*
X-3023352Y-7054566D01*
X-3012857Y-7053593D01*
X-3012261Y-7053590D01*
X-3075761Y-7117090D02*
X-3075544Y-7122337D01*
X-3073779Y-7132832D01*
X-3070087Y-7143327D01*
X-3064059Y-7153822D01*
X-3054837Y-7164202D01*
X-3044342Y-7171890D01*
X-3033847Y-7176808D01*
X-3023352Y-7179614D01*
X-3012857Y-7180587D01*
X-3012261Y-7180590D01*
X-2948761Y-7117090D02*
X-2948978Y-7122337D01*
X-2950743Y-7132832D01*
X-2954435Y-7143327D01*
X-2960463Y-7153822D01*
X-2969685Y-7164202D01*
X-2980180Y-7171890D01*
X-2990675Y-7176808D01*
X-3001170Y-7179614D01*
X-3011665Y-7180587D01*
X-3012261Y-7180590D01*
X-3012261Y-7053590D02*
X-3012261Y-7180590D01*
X-3075761Y-7117090D02*
X-2948761Y-7117090D01*
D124*
X-2689681Y-7104390D02*
X-2664281Y-7078990D01*
X-2664281Y-7155190D01*
X-2613481Y-7155190D02*
X-2613481Y-7104390D01*
X-2613481Y-7117090D02*
X-2600781Y-7104390D01*
X-2575381Y-7129790D01*
X-2549981Y-7104390D01*
X-2537281Y-7117090D01*
X-2537281Y-7155190D01*
X-2511881Y-7155190D02*
X-2511881Y-7104390D01*
X-2511881Y-7117090D02*
X-2499181Y-7104390D01*
X-2473781Y-7129790D01*
X-2448381Y-7104390D01*
X-2435681Y-7117090D01*
X-2435681Y-7155190D01*
X-2016581Y-7078990D02*
X-2092781Y-7155190D01*
X-2092781Y-7078990D02*
X-2054681Y-7117090D01*
X-1914981Y-7155190D02*
X-1991181Y-7155190D01*
X-1991181Y-7078990D01*
X-1914981Y-7078990D01*
X-1991181Y-7117090D02*
X-1940381Y-7117090D01*
X-1889581Y-7142490D02*
X-1876881Y-7155190D01*
X-1826081Y-7155190D01*
X-1813381Y-7142490D01*
X-1813381Y-7129790D01*
X-1826081Y-7117090D01*
X-1876881Y-7117090D01*
X-1889581Y-7104390D01*
X-1889581Y-7091690D01*
X-1876881Y-7078990D01*
X-1826081Y-7078990D01*
X-1813381Y-7091690D01*
X-1170761Y-7129790D02*
X-1246961Y-7129790D01*
X-1196161Y-7078990D01*
X-1196161Y-7155190D01*
D42*
X-2948761Y-7358390D02*
X-2948978Y-7353143D01*
X-2950743Y-7342648D01*
X-2954435Y-7332153D01*
X-2960463Y-7321658D01*
X-2969685Y-7311278D01*
X-2980180Y-7303590D01*
X-2990675Y-7298672D01*
X-3001170Y-7295866D01*
X-3011665Y-7294893D01*
X-3012261Y-7294890D01*
X-3075761Y-7358390D02*
X-3075544Y-7353143D01*
X-3073779Y-7342648D01*
X-3070087Y-7332153D01*
X-3064059Y-7321658D01*
X-3054837Y-7311278D01*
X-3044342Y-7303590D01*
X-3033847Y-7298672D01*
X-3023352Y-7295866D01*
X-3012857Y-7294893D01*
X-3012261Y-7294890D01*
X-3075761Y-7358390D02*
X-3075544Y-7363637D01*
X-3073779Y-7374132D01*
X-3070087Y-7384627D01*
X-3064059Y-7395122D01*
X-3054837Y-7405502D01*
X-3044342Y-7413190D01*
X-3033847Y-7418108D01*
X-3023352Y-7420914D01*
X-3012857Y-7421887D01*
X-3012261Y-7421890D01*
X-2948761Y-7358390D02*
X-2948978Y-7363637D01*
X-2950743Y-7374132D01*
X-2954435Y-7384627D01*
X-2960463Y-7395122D01*
X-2969685Y-7405502D01*
X-2980180Y-7413190D01*
X-2990675Y-7418108D01*
X-3001170Y-7420914D01*
X-3011665Y-7421887D01*
X-3012261Y-7421890D01*
X-3057162Y-7313489D02*
X-2967360Y-7403291D01*
X-3057162Y-7403291D02*
X-2967360Y-7313489D01*
D124*
X-2715081Y-7383790D02*
X-2702381Y-7396490D01*
X-2651581Y-7396490D01*
X-2638881Y-7383790D01*
X-2638881Y-7371090D01*
X-2651581Y-7358390D01*
X-2702381Y-7358390D01*
X-2715081Y-7345690D01*
X-2715081Y-7332990D01*
X-2702381Y-7320290D01*
X-2651581Y-7320290D01*
X-2638881Y-7332990D01*
X-2613481Y-7320290D02*
X-2613481Y-7396490D01*
X-2537281Y-7396490D01*
X-2511881Y-7345690D02*
X-2486481Y-7320290D01*
X-2461081Y-7320290D01*
X-2435681Y-7345690D01*
X-2435681Y-7371090D01*
X-2461081Y-7396490D01*
X-2486481Y-7396490D01*
X-2511881Y-7371090D01*
X-2511881Y-7345690D01*
X-2410281Y-7320290D02*
X-2334081Y-7320290D01*
X-2372181Y-7320290D02*
X-2372181Y-7396490D01*
X-2016581Y-7320290D02*
X-2092781Y-7396490D01*
X-2092781Y-7320290D02*
X-2054681Y-7358390D01*
X-1914981Y-7396490D02*
X-1991181Y-7396490D01*
X-1991181Y-7320290D01*
X-1914981Y-7320290D01*
X-1991181Y-7358390D02*
X-1940381Y-7358390D01*
X-1889581Y-7383790D02*
X-1876881Y-7396490D01*
X-1826081Y-7396490D01*
X-1813381Y-7383790D01*
X-1813381Y-7371090D01*
X-1826081Y-7358390D01*
X-1876881Y-7358390D01*
X-1889581Y-7345690D01*
X-1889581Y-7332990D01*
X-1876881Y-7320290D01*
X-1826081Y-7320290D01*
X-1813381Y-7332990D01*
X-1234261Y-7332990D02*
X-1221561Y-7320290D01*
X-1183461Y-7320290D01*
X-1170761Y-7332990D01*
X-1170761Y-7345690D01*
X-1183461Y-7358390D01*
X-1221561Y-7358390D01*
X-1234261Y-7371090D01*
X-1234261Y-7396490D01*
X-1170761Y-7396490D01*
M02*
